<svg width="1280" height="560" viewBox="0 0 1280 560" fill="none" xmlns="http://www.w3.org/2000/svg">
<rect width="1280" height="560" fill="#002464"/>
<path d="M680.124 65.5C659.327 65.5 652.231 76.2487 640.067 91.801C627.905 76.2487 620.795 65.5 600.01 65.5C577.704 65.5 563 81.9018 563 106.517C563 114.781 564.93 123.591 569.095 132.4V160.881C569.095 163.175 570.961 165.026 573.246 165.026C575.531 165.026 577.398 163.163 577.398 160.881V145.963C578.897 147.927 580.509 149.866 582.261 151.793L599.249 170.654V205.244C599.249 207.539 601.103 209.389 603.414 209.389C605.724 209.389 607.565 207.539 607.565 205.244V179.881L640.079 216.018L654.668 199.832V231.355C654.668 233.65 656.535 235.5 658.833 235.5C661.13 235.5 662.984 233.65 662.984 231.355V190.605L684.492 166.674V196.537C684.492 198.831 686.358 200.681 688.656 200.681C690.954 200.681 692.808 198.818 692.808 196.537V157.434L697.873 151.805C711.306 137.102 717.133 120.979 717.133 106.542C717.133 81.927 702.432 65.5253 680.111 65.5253L680.124 65.5Z" fill="#EA0029"/>
<path d="M616.714 151.154C607.99 151.154 602.123 146.611 599.267 140.579L606.06 137.054C608.068 141.754 611.928 144.026 616.714 144.026C621.964 144.026 625.979 140.579 625.979 134.469C625.979 128.28 621.81 124.912 615.865 124.912C612.777 124.912 610.924 125.539 609.38 126.244L608.762 125.46L619.03 112.065C620.111 110.498 621.578 109.245 621.578 109.245C621.578 109.245 619.339 109.558 617.409 109.558H603.436V102.9H633.236V103.605L622.891 117C621.887 118.332 620.652 119.272 620.652 119.272C628.372 120.29 634.239 125.695 634.239 134.626C634.239 143.712 627.909 151.154 616.714 151.154Z" fill="white"/>
<path d="M658.734 152.767C647.771 152.767 637.89 143.993 637.89 131.93C637.89 119.788 647.771 111.249 658.734 111.249C669.851 111.249 679.733 119.788 679.733 131.93C679.733 143.993 669.851 152.767 658.734 152.767ZM658.734 145.638C665.914 145.638 671.473 140.076 671.473 131.93C671.473 123.704 665.914 118.299 658.734 118.299C651.709 118.299 646.15 123.704 646.15 131.93C646.15 140.076 651.709 145.638 658.734 145.638Z" fill="white"/>
<path d="M155.195 306V263.149H159.748V301.97H179.958V306H155.195ZM205.122 306.492C201.082 306.492 197.39 305.58 194.047 303.754C190.725 301.909 188.08 299.304 186.111 295.941C184.142 292.578 183.158 288.794 183.158 284.59C183.158 280.386 184.142 276.602 186.111 273.239C188.08 269.855 190.735 267.25 194.078 265.425C197.421 263.58 201.102 262.657 205.122 262.657C209.162 262.657 212.853 263.58 216.196 265.425C219.559 267.25 222.225 269.855 224.194 273.239C226.183 276.602 227.178 280.386 227.178 284.59C227.178 288.794 226.183 292.578 224.194 295.941C222.225 299.304 219.569 301.909 216.227 303.754C212.884 305.58 209.182 306.492 205.122 306.492ZM205.122 302.401C210.125 302.401 214.268 300.709 217.549 297.325C220.831 293.941 222.471 289.696 222.471 284.59C222.471 281.227 221.723 278.191 220.226 275.484C218.749 272.757 216.688 270.624 214.042 269.086C211.397 267.527 208.423 266.748 205.122 266.748C200.159 266.748 196.037 268.44 192.755 271.824C189.495 275.208 187.864 279.463 187.864 284.59C187.864 287.112 188.295 289.481 189.156 291.696C190.038 293.89 191.238 295.777 192.755 297.356C194.273 298.915 196.098 300.145 198.231 301.047C200.364 301.95 202.661 302.401 205.122 302.401ZM246.711 306.492C244.743 306.492 242.928 306.256 241.267 305.785C239.605 305.313 238.18 304.667 236.991 303.847C235.801 303.006 234.776 302.093 233.915 301.109C233.074 300.125 232.356 299.027 231.761 297.817L235.545 295.787C236.099 296.771 236.683 297.633 237.298 298.371C237.914 299.109 238.652 299.807 239.513 300.463C240.395 301.099 241.431 301.591 242.62 301.939C243.81 302.288 245.132 302.462 246.588 302.462C249.152 302.462 251.264 301.806 252.925 300.494C254.607 299.161 255.448 297.387 255.448 295.172C255.448 293.101 254.812 291.409 253.541 290.096C252.29 288.784 250.239 287.492 247.388 286.22L244.004 284.651C241.831 283.667 240.087 282.683 238.775 281.698C237.483 280.714 236.458 279.494 235.699 278.038C234.94 276.582 234.561 274.879 234.561 272.931C234.561 269.875 235.617 267.404 237.729 265.518C239.862 263.61 242.559 262.657 245.819 262.657C250.967 262.657 254.833 264.8 257.417 269.086L253.756 271.362C252.854 269.886 251.777 268.737 250.526 267.917C249.275 267.097 247.706 266.687 245.819 266.687C243.728 266.687 242.066 267.25 240.836 268.378C239.626 269.486 239.021 270.962 239.021 272.808C239.021 274.633 239.523 276.079 240.528 277.146C241.533 278.212 243.297 279.33 245.819 280.499L249.234 282.067C252.946 283.708 255.663 285.533 257.386 287.543C259.129 289.532 260 292.075 260 295.172C260 298.638 258.76 301.396 256.278 303.447C253.817 305.477 250.628 306.492 246.711 306.492ZM284.21 306V262.657H284.856L304.759 287.543L324.539 262.657H325.246V306H320.816V277.699C320.816 277.146 320.827 276.479 320.847 275.7C320.888 274.92 320.919 274.254 320.939 273.7L321.001 272.87C320.98 272.89 320.806 273.157 320.478 273.669C320.17 274.162 319.771 274.767 319.278 275.484C318.807 276.202 318.376 276.797 317.986 277.269L305.005 293.665H304.267L291.47 277.269C291.08 276.797 290.629 276.212 290.116 275.515C289.624 274.818 289.224 274.233 288.917 273.762C288.629 273.27 288.455 272.972 288.394 272.87L288.424 273.208C288.445 273.434 288.465 273.721 288.486 274.069C288.506 274.418 288.527 274.797 288.547 275.208C288.568 275.597 288.588 276.028 288.609 276.5C288.629 276.951 288.64 277.351 288.64 277.699V306H284.21ZM336.936 306V263.149H363.021V267.179H341.488V282.498H360.714V286.466H341.488V301.97H363.914V306H336.936ZM380.802 306.492C375.736 306.492 372.045 304.349 369.728 300.063L373.419 297.756C375.203 300.853 377.603 302.401 380.617 302.401C382.812 302.401 384.534 301.765 385.785 300.494C387.036 299.202 387.662 297.233 387.662 294.587V263.149H392.276V294.71C392.276 298.525 391.22 301.447 389.107 303.478C387.016 305.487 384.247 306.492 380.802 306.492ZM423.468 306.492C419.428 306.492 415.737 305.58 412.394 303.754C409.072 301.909 406.426 299.304 404.458 295.941C402.489 292.578 401.504 288.794 401.504 284.59C401.504 280.386 402.489 276.602 404.458 273.239C406.426 269.855 409.082 267.25 412.425 265.425C415.768 263.58 419.449 262.657 423.468 262.657C427.508 262.657 431.2 263.58 434.542 265.425C437.906 267.25 440.572 269.855 442.541 273.239C444.53 276.602 445.524 280.386 445.524 284.59C445.524 288.794 444.53 292.578 442.541 295.941C440.572 299.304 437.916 301.909 434.573 303.754C431.23 305.58 427.529 306.492 423.468 306.492ZM423.468 302.401C428.472 302.401 432.615 300.709 435.896 297.325C439.177 293.941 440.818 289.696 440.818 284.59C440.818 281.227 440.069 278.191 438.572 275.484C437.096 272.757 435.035 270.624 432.389 269.086C429.744 267.527 426.77 266.748 423.468 266.748C418.505 266.748 414.383 268.44 411.102 271.824C407.841 275.208 406.211 279.463 406.211 284.59C406.211 287.112 406.642 289.481 407.503 291.696C408.385 293.89 409.584 295.777 411.102 297.356C412.62 298.915 414.445 300.145 416.578 301.047C418.71 301.95 421.007 302.401 423.468 302.401ZM454.753 306V263.149H467.611C472.267 263.149 475.968 264.256 478.716 266.471C481.485 268.686 482.869 271.947 482.869 276.253C482.869 279.35 482.069 281.934 480.47 284.005C478.891 286.056 476.686 287.512 473.856 288.374L484.315 306H478.962L469.119 289.112C468.708 289.153 468.042 289.173 467.119 289.173H459.306V306H454.753ZM459.306 285.267H467.365C470.893 285.267 473.569 284.518 475.394 283.021C477.219 281.503 478.132 279.248 478.132 276.253C478.132 270.204 474.543 267.179 467.365 267.179H459.306V285.267ZM493.021 306V263.149H519.106V267.179H497.573V282.498H516.799V286.466H497.573V301.97H519.999V306H493.021ZM540.486 306.492C538.517 306.492 536.702 306.256 535.041 305.785C533.38 305.313 531.955 304.667 530.765 303.847C529.576 303.006 528.55 302.093 527.689 301.109C526.848 300.125 526.13 299.027 525.536 297.817L529.319 295.787C529.873 296.771 530.458 297.633 531.073 298.371C531.688 299.109 532.426 299.807 533.288 300.463C534.169 301.099 535.205 301.591 536.395 301.939C537.584 302.288 538.907 302.462 540.363 302.462C542.926 302.462 545.039 301.806 546.7 300.494C548.381 299.161 549.222 297.387 549.222 295.172C549.222 293.101 548.586 291.409 547.315 290.096C546.064 288.784 544.013 287.492 541.163 286.22L537.779 284.651C535.605 283.667 533.862 282.683 532.549 281.698C531.257 280.714 530.232 279.494 529.473 278.038C528.714 276.582 528.335 274.879 528.335 272.931C528.335 269.875 529.391 267.404 531.503 265.518C533.636 263.61 536.333 262.657 539.594 262.657C544.741 262.657 548.607 264.8 551.191 269.086L547.53 271.362C546.628 269.886 545.551 268.737 544.3 267.917C543.049 267.097 541.48 266.687 539.594 266.687C537.502 266.687 535.841 267.25 534.61 268.378C533.4 269.486 532.795 270.962 532.795 272.808C532.795 274.633 533.298 276.079 534.303 277.146C535.308 278.212 537.071 279.33 539.594 280.499L543.008 282.067C546.72 283.708 549.438 285.533 551.16 287.543C552.903 289.532 553.775 292.075 553.775 295.172C553.775 298.638 552.534 301.396 550.053 303.447C547.592 305.477 544.403 306.492 540.486 306.492ZM587.575 312.489C580.456 312.489 575.668 308.835 573.337 303.984L578.881 301.149C580.519 304.929 583.669 306.756 587.575 306.756C591.859 306.756 595.135 303.984 595.135 299.07C595.135 294.093 591.733 291.384 586.882 291.384C584.362 291.384 582.85 291.888 581.59 292.455L581.086 291.825L589.465 281.052C590.347 279.792 591.544 278.784 591.544 278.784C591.544 278.784 589.717 279.036 588.142 279.036H576.739V273.681H601.057V274.248L592.615 285.021C591.796 286.092 590.788 286.848 590.788 286.848C597.088 287.667 601.876 292.014 601.876 299.196C601.876 306.504 596.71 312.489 587.575 312.489ZM623.228 306.567C614.282 306.567 606.218 299.511 606.218 289.809C606.218 280.044 614.282 273.177 623.228 273.177C632.3 273.177 640.364 280.044 640.364 289.809C640.364 299.511 632.3 306.567 623.228 306.567ZM623.228 300.834C629.087 300.834 633.623 296.361 633.623 289.809C633.623 283.194 629.087 278.847 623.228 278.847C617.495 278.847 612.959 283.194 612.959 289.809C612.959 296.361 617.495 300.834 623.228 300.834ZM662.641 293.418C661.492 290.67 660.918 287.728 660.918 284.59C660.918 281.452 661.492 278.52 662.641 275.792C663.81 273.044 665.378 270.716 667.347 268.809C669.316 266.902 671.644 265.405 674.33 264.318C677.037 263.21 679.898 262.657 682.913 262.657C690.562 262.657 696.273 265.487 700.047 271.147L694.94 274.808C693.689 272.88 692.049 271.373 690.019 270.286C687.988 269.199 685.62 268.655 682.913 268.655C678.483 268.655 674.843 270.163 671.992 273.177C669.162 276.192 667.747 279.996 667.747 284.59C667.747 289.184 669.172 292.998 672.023 296.033C674.874 299.068 678.503 300.586 682.913 300.586C688.327 300.586 692.551 298.34 695.586 293.849L700.693 297.417C698.786 300.309 696.325 302.555 693.31 304.154C690.295 305.754 686.83 306.554 682.913 306.554C679.898 306.554 677.037 306.01 674.33 304.923C671.644 303.816 669.316 302.309 667.347 300.401C665.378 298.474 663.81 296.146 662.641 293.418ZM703.277 306L721.611 262.718H722.38L741.145 306H734.223L731.085 298.187H712.875L709.706 306H703.277ZM715.12 292.649H728.686L724.01 280.991C723.723 280.293 723.405 279.442 723.057 278.438C722.729 277.433 722.452 276.592 722.226 275.915C722.021 275.218 721.908 274.808 721.888 274.685C721.888 274.705 721.836 274.869 721.734 275.177C721.652 275.464 721.539 275.833 721.396 276.284C721.272 276.735 721.129 277.228 720.965 277.761C720.801 278.273 720.606 278.827 720.38 279.422C720.175 280.017 719.98 280.54 719.796 280.991L715.12 292.649ZM748.158 306V263.149H774.859V269.024H754.833V282.806H772.983V288.743H754.833V306H748.158ZM783.165 306V263.149H810.389V269.024H789.84V281.606H808.051V287.358H789.84V300.155H811.25V306H783.165ZM816.603 297.694L822.079 294.649C823.248 296.577 824.57 298.063 826.047 299.109C827.544 300.135 829.502 300.647 831.922 300.647C834.096 300.647 835.87 300.114 837.244 299.048C838.639 297.961 839.336 296.536 839.336 294.772C839.336 293.029 838.782 291.645 837.675 290.619C836.588 289.594 834.752 288.507 832.168 287.358L829.338 286.097C825.934 284.6 823.412 282.918 821.771 281.052C820.13 279.166 819.31 276.664 819.31 273.546C819.31 270.347 820.428 267.732 822.663 265.702C824.898 263.672 827.79 262.657 831.338 262.657C834.168 262.657 836.567 263.21 838.536 264.318C840.505 265.405 842.135 267.097 843.427 269.394L838.198 272.624C837.357 271.167 836.414 270.111 835.368 269.455C834.322 268.778 832.979 268.44 831.338 268.44C829.656 268.44 828.313 268.901 827.308 269.824C826.303 270.747 825.801 271.947 825.801 273.423C825.801 274.961 826.262 276.192 827.185 277.115C828.108 278.038 829.708 278.991 831.984 279.976L834.752 281.237C838.649 282.939 841.489 284.795 843.273 286.805C845.058 288.794 845.95 291.429 845.95 294.71C845.95 298.381 844.658 301.273 842.074 303.385C839.51 305.498 836.167 306.554 832.045 306.554C828.21 306.554 825.001 305.744 822.417 304.124C819.854 302.483 817.916 300.34 816.603 297.694ZM869.667 306V263.149H880.064C887.181 263.149 892.82 265.097 896.983 268.994C901.167 272.87 903.259 278.068 903.259 284.59C903.259 291.111 901.177 296.31 897.014 300.186C892.851 304.062 887.201 306 880.064 306H869.667ZM874.22 301.909H879.757C882.854 301.909 885.602 301.488 888.001 300.647C890.4 299.807 892.359 298.617 893.876 297.079C895.394 295.541 896.532 293.726 897.291 291.634C898.07 289.522 898.46 287.174 898.46 284.59C898.46 279.299 896.871 275.084 893.692 271.947C890.534 268.809 885.889 267.24 879.757 267.24H874.22V301.909ZM912.487 306V263.149H938.573V267.179H917.04V282.498H936.266V286.466H917.04V301.97H939.465V306H912.487ZM974.903 306.492C972.934 306.492 971.119 306.256 969.458 305.785C967.797 305.313 966.372 304.667 965.182 303.847C963.993 303.006 962.967 302.093 962.106 301.109C961.265 300.125 960.547 299.027 959.953 297.817L963.736 295.787C964.29 296.771 964.875 297.633 965.49 298.371C966.105 299.109 966.843 299.807 967.705 300.463C968.586 301.099 969.622 301.591 970.812 301.939C972.001 302.288 973.324 302.462 974.78 302.462C977.343 302.462 979.456 301.806 981.117 300.494C982.798 299.161 983.639 297.387 983.639 295.172C983.639 293.101 983.003 291.409 981.732 290.096C980.481 288.784 978.43 287.492 975.58 286.22L972.196 284.651C970.022 283.667 968.279 282.683 966.966 281.698C965.674 280.714 964.649 279.494 963.89 278.038C963.131 276.582 962.752 274.879 962.752 272.931C962.752 269.875 963.808 267.404 965.92 265.518C968.053 263.61 970.75 262.657 974.011 262.657C979.158 262.657 983.024 264.8 985.608 269.086L981.947 271.362C981.045 269.886 979.968 268.737 978.717 267.917C977.466 267.097 975.897 266.687 974.011 266.687C971.919 266.687 970.258 267.25 969.027 268.378C967.817 269.486 967.212 270.962 967.212 272.808C967.212 274.633 967.715 276.079 968.72 277.146C969.725 278.212 971.488 279.33 974.011 280.499L977.425 282.067C981.137 283.708 983.854 285.533 985.577 287.543C987.32 289.532 988.192 292.075 988.192 295.172C988.192 298.638 986.951 301.396 984.47 303.447C982.009 305.477 978.82 306.492 974.903 306.492ZM1005.88 306V267.179H992.714V263.149H1023.57V267.179H1010.4V306H1005.88ZM1048.95 306.492C1045.79 306.492 1042.82 305.959 1040.06 304.893C1037.29 303.806 1034.91 302.309 1032.92 300.401C1030.93 298.494 1029.36 296.177 1028.21 293.449C1027.08 290.722 1026.52 287.769 1026.52 284.59C1026.52 280.365 1027.48 276.582 1029.41 273.239C1031.34 269.875 1033.98 267.271 1037.32 265.425C1040.68 263.58 1044.42 262.657 1048.55 262.657C1055.07 262.657 1060.05 264.502 1063.5 268.194L1060.39 271.301C1057.48 268.266 1053.53 266.748 1048.55 266.748C1045.24 266.748 1042.27 267.527 1039.63 269.086C1036.98 270.624 1034.92 272.757 1033.44 275.484C1031.97 278.191 1031.23 281.227 1031.23 284.59C1031.23 289.717 1032.89 293.972 1036.21 297.356C1039.53 300.719 1043.78 302.401 1048.95 302.401C1054.18 302.401 1058.39 301.099 1061.59 298.494V289.481H1048.88V285.451H1065.9V300.586C1064.15 302.288 1061.83 303.703 1058.91 304.831C1056.02 305.938 1052.7 306.492 1048.95 306.492ZM1095.3 306.492C1091.26 306.492 1087.57 305.58 1084.23 303.754C1080.91 301.909 1078.26 299.304 1076.29 295.941C1074.32 292.578 1073.34 288.794 1073.34 284.59C1073.34 280.386 1074.32 276.602 1076.29 273.239C1078.26 269.855 1080.92 267.25 1084.26 265.425C1087.6 263.58 1091.28 262.657 1095.3 262.657C1099.34 262.657 1103.04 263.58 1106.38 265.425C1109.74 267.25 1112.41 269.855 1114.38 273.239C1116.37 276.602 1117.36 280.386 1117.36 284.59C1117.36 288.794 1116.37 292.578 1114.38 295.941C1112.41 299.304 1109.75 301.909 1106.41 303.754C1103.07 305.58 1099.36 306.492 1095.3 306.492ZM1095.3 302.401C1100.31 302.401 1104.45 300.709 1107.73 297.325C1111.01 293.941 1112.65 289.696 1112.65 284.59C1112.65 281.227 1111.91 278.191 1110.41 275.484C1108.93 272.757 1106.87 270.624 1104.23 269.086C1101.58 267.527 1098.61 266.748 1095.3 266.748C1090.34 266.748 1086.22 268.44 1082.94 271.824C1079.68 275.208 1078.05 279.463 1078.05 284.59C1078.05 287.112 1078.48 289.481 1079.34 291.696C1080.22 293.89 1081.42 295.777 1082.94 297.356C1084.46 298.915 1086.28 300.145 1088.41 301.047C1090.55 301.95 1092.84 302.401 1095.3 302.401ZM1124.28 306.431C1123.38 306.431 1122.58 306.092 1121.88 305.416C1121.21 304.739 1120.87 303.929 1120.87 302.985C1120.87 302.042 1121.21 301.242 1121.88 300.586C1122.58 299.909 1123.38 299.571 1124.28 299.571C1125.2 299.571 1125.99 299.899 1126.65 300.555C1127.33 301.211 1127.67 302.021 1127.67 302.985C1127.67 303.949 1127.33 304.77 1126.65 305.446C1125.99 306.103 1125.2 306.431 1124.28 306.431Z" fill="white"/>
<path d="M507.859 379V357.234H514.234C516.62 357.234 518.505 357.812 519.891 358.969C521.286 360.115 521.984 361.786 521.984 363.984C521.984 366.151 521.286 367.823 519.891 369C518.505 370.167 516.62 370.75 514.234 370.75H510.172V379H507.859ZM510.172 368.703H514.109C515.932 368.703 517.302 368.307 518.219 367.516C519.146 366.714 519.609 365.536 519.609 363.984C519.609 360.849 517.776 359.281 514.109 359.281H510.172V368.703ZM526.484 379V357.234H533.016C535.38 357.234 537.26 357.797 538.656 358.922C540.062 360.047 540.766 361.703 540.766 363.891C540.766 365.464 540.359 366.776 539.547 367.828C538.745 368.87 537.625 369.609 536.188 370.047L541.5 379H538.781L533.781 370.422C533.573 370.443 533.234 370.453 532.766 370.453H528.797V379H526.484ZM528.797 368.469H532.891C534.682 368.469 536.042 368.089 536.969 367.328C537.896 366.557 538.359 365.411 538.359 363.891C538.359 360.818 536.536 359.281 532.891 359.281H528.797V368.469ZM545.922 379V357.234H559.172V359.281H548.234V367.062H558V369.078H548.234V376.953H559.625V379H545.922ZM570.031 379.25C569.031 379.25 568.109 379.13 567.266 378.891C566.422 378.651 565.698 378.323 565.094 377.906C564.49 377.479 563.969 377.016 563.531 376.516C563.104 376.016 562.74 375.458 562.438 374.844L564.359 373.812C564.641 374.312 564.938 374.75 565.25 375.125C565.562 375.5 565.938 375.854 566.375 376.188C566.823 376.51 567.349 376.76 567.953 376.938C568.557 377.115 569.229 377.203 569.969 377.203C571.271 377.203 572.344 376.87 573.188 376.203C574.042 375.526 574.469 374.625 574.469 373.5C574.469 372.448 574.146 371.589 573.5 370.922C572.865 370.255 571.823 369.599 570.375 368.953L568.656 368.156C567.552 367.656 566.667 367.156 566 366.656C565.344 366.156 564.823 365.536 564.438 364.797C564.052 364.057 563.859 363.193 563.859 362.203C563.859 360.651 564.396 359.396 565.469 358.438C566.552 357.469 567.922 356.984 569.578 356.984C572.193 356.984 574.156 358.073 575.469 360.25L573.609 361.406C573.151 360.656 572.604 360.073 571.969 359.656C571.333 359.24 570.536 359.031 569.578 359.031C568.516 359.031 567.672 359.318 567.047 359.891C566.432 360.453 566.125 361.203 566.125 362.141C566.125 363.068 566.38 363.802 566.891 364.344C567.401 364.885 568.297 365.453 569.578 366.047L571.312 366.844C573.198 367.677 574.578 368.604 575.453 369.625C576.339 370.635 576.781 371.927 576.781 373.5C576.781 375.26 576.151 376.661 574.891 377.703C573.641 378.734 572.021 379.25 570.031 379.25ZM581.484 379V357.234H594.734V359.281H583.797V367.062H593.562V369.078H583.797V376.953H595.188V379H581.484ZM616.531 379.219L603.547 363.859C603.286 363.557 602.984 363.177 602.641 362.719C602.297 362.26 602.094 361.979 602.031 361.875C602.031 361.906 602.047 362.068 602.078 362.359C602.12 362.651 602.156 362.99 602.188 363.375C602.219 363.75 602.234 364.062 602.234 364.312V379H600.047V357.016H600.438L613.438 372.375C613.573 372.531 613.729 372.729 613.906 372.969C614.083 373.208 614.234 373.422 614.359 373.609C614.495 373.786 614.62 373.958 614.734 374.125C614.859 374.292 614.927 374.38 614.938 374.391L614.891 373.969C614.87 373.677 614.844 373.333 614.812 372.938C614.792 372.531 614.781 372.193 614.781 371.922V357.234H616.922V379.219H616.531ZM627.641 379V359.281H620.953V357.234H636.625V359.281H629.938V379H627.641ZM641.312 372.125H649.703L646.344 363.797C646.219 363.484 646.089 363.12 645.953 362.703C645.818 362.276 645.708 361.927 645.625 361.656C645.552 361.385 645.516 361.234 645.516 361.203C645.516 361.214 645.469 361.365 645.375 361.656C645.292 361.938 645.177 362.286 645.031 362.703C644.896 363.12 644.766 363.474 644.641 363.766L641.312 372.125ZM636.297 379L645.312 357.016H645.703L654.922 379H652.484L650.5 374.109H640.516L638.562 379H636.297ZM659.047 379V357.234H664.328C667.943 357.234 670.807 358.224 672.922 360.203C675.047 362.172 676.109 364.812 676.109 368.125C676.109 371.438 675.052 374.078 672.938 376.047C670.823 378.016 667.953 379 664.328 379H659.047ZM661.359 376.922H664.172C665.745 376.922 667.141 376.708 668.359 376.281C669.578 375.854 670.573 375.25 671.344 374.469C672.115 373.688 672.693 372.766 673.078 371.703C673.474 370.63 673.672 369.438 673.672 368.125C673.672 365.438 672.865 363.297 671.25 361.703C669.646 360.109 667.286 359.312 664.172 359.312H661.359V376.922ZM690.719 379.25C688.667 379.25 686.792 378.786 685.094 377.859C683.406 376.922 682.062 375.599 681.062 373.891C680.062 372.182 679.562 370.26 679.562 368.125C679.562 365.99 680.062 364.068 681.062 362.359C682.062 360.641 683.411 359.318 685.109 358.391C686.807 357.453 688.677 356.984 690.719 356.984C692.771 356.984 694.646 357.453 696.344 358.391C698.052 359.318 699.406 360.641 700.406 362.359C701.417 364.068 701.922 365.99 701.922 368.125C701.922 370.26 701.417 372.182 700.406 373.891C699.406 375.599 698.057 376.922 696.359 377.859C694.661 378.786 692.781 379.25 690.719 379.25ZM690.719 377.172C693.26 377.172 695.365 376.312 697.031 374.594C698.698 372.875 699.531 370.719 699.531 368.125C699.531 366.417 699.151 364.875 698.391 363.5C697.641 362.115 696.594 361.031 695.25 360.25C693.906 359.458 692.396 359.062 690.719 359.062C688.198 359.062 686.104 359.922 684.438 361.641C682.781 363.359 681.953 365.521 681.953 368.125C681.953 369.406 682.172 370.609 682.609 371.734C683.057 372.849 683.667 373.807 684.438 374.609C685.208 375.401 686.135 376.026 687.219 376.484C688.302 376.943 689.469 377.172 690.719 377.172ZM714.203 379V357.234H720.578C722.964 357.234 724.849 357.812 726.234 358.969C727.63 360.115 728.328 361.786 728.328 363.984C728.328 366.151 727.63 367.823 726.234 369C724.849 370.167 722.964 370.75 720.578 370.75H716.516V379H714.203ZM716.516 368.703H720.453C722.276 368.703 723.646 368.307 724.562 367.516C725.49 366.714 725.953 365.536 725.953 363.984C725.953 360.849 724.12 359.281 720.453 359.281H716.516V368.703ZM742.75 379.25C740.698 379.25 738.823 378.786 737.125 377.859C735.438 376.922 734.094 375.599 733.094 373.891C732.094 372.182 731.594 370.26 731.594 368.125C731.594 365.99 732.094 364.068 733.094 362.359C734.094 360.641 735.443 359.318 737.141 358.391C738.839 357.453 740.708 356.984 742.75 356.984C744.802 356.984 746.677 357.453 748.375 358.391C750.083 359.318 751.438 360.641 752.438 362.359C753.448 364.068 753.953 365.99 753.953 368.125C753.953 370.26 753.448 372.182 752.438 373.891C751.438 375.599 750.089 376.922 748.391 377.859C746.693 378.786 744.812 379.25 742.75 379.25ZM742.75 377.172C745.292 377.172 747.396 376.312 749.062 374.594C750.729 372.875 751.562 370.719 751.562 368.125C751.562 366.417 751.182 364.875 750.422 363.5C749.672 362.115 748.625 361.031 747.281 360.25C745.938 359.458 744.427 359.062 742.75 359.062C740.229 359.062 738.135 359.922 736.469 361.641C734.812 363.359 733.984 365.521 733.984 368.125C733.984 369.406 734.203 370.609 734.641 371.734C735.089 372.849 735.698 373.807 736.469 374.609C737.24 375.401 738.167 376.026 739.25 376.484C740.333 376.943 741.5 377.172 742.75 377.172ZM758.641 379V357.234H765.172C767.536 357.234 769.417 357.797 770.812 358.922C772.219 360.047 772.922 361.703 772.922 363.891C772.922 365.464 772.516 366.776 771.703 367.828C770.901 368.87 769.781 369.609 768.344 370.047L773.656 379H770.938L765.938 370.422C765.729 370.443 765.391 370.453 764.922 370.453H760.953V379H758.641ZM760.953 368.469H765.047C766.839 368.469 768.198 368.089 769.125 367.328C770.052 366.557 770.516 365.411 770.516 363.891C770.516 360.818 768.693 359.281 765.047 359.281H760.953V368.469Z" fill="white"/>
<g clip-path="url(#clip0_16_371)">
<path fill-rule="evenodd" clip-rule="evenodd" d="M440.558 425.912C441.61 425.78 442.682 425.816 443.738 425.912C445.681 426.088 447.592 426.544 449.499 426.964C450.952 427.284 453.82 428.082 453.82 428.082C454.153 428.173 454.733 428.168 455.178 428.082C455.768 427.968 456.536 427.68 456.856 427.407C457.079 427.487 457.255 427.536 457.526 427.745L444.249 437.101C442.625 438.245 440.206 440.327 440.206 441.511V464.495L427.105 473.514C427.296 472.26 428.958 471.118 428.958 469.334V446.12C428.958 444.319 441.565 437.792 441.565 435.927C441.565 435.002 439.165 434.147 437.811 433.558C436.657 433.056 435.411 432.761 434.167 432.6C432.275 432.355 430.339 432.363 428.447 432.6C426.442 432.851 423.478 434.143 422.567 434.095C424.357 432.917 428.837 429.502 432.369 427.995C434.964 426.888 437.765 426.262 440.558 425.912ZM467.433 426.41C469.462 426.41 470.676 428.564 474.159 433.098C475.022 434.207 479.033 439.094 479.033 441.442V443.29C479.033 448.049 466.426 452.823 466.426 454.801C466.426 456.167 473.057 455.524 476.013 457.486C478.841 459.35 480.039 463.305 480.039 465.492V471.183C480.039 474.575 475.358 475.861 469.622 480.201C467.097 482.098 458.501 487.886 457.862 487.886C457.862 487.886 453.41 485.538 451.061 484.669C448.525 483.731 445.918 482.891 443.242 482.532C441.13 482.249 438.967 482.281 436.851 482.532C433.535 482.926 427.616 484.879 427.105 484.879C427.105 484.879 430.391 481.668 435.103 478.943C438.579 476.932 442.969 475.819 447.109 475.185C449.321 474.847 451.608 474.843 453.82 475.185C456.373 475.581 459.971 477.131 461.217 477.533V435.091C461.217 434.69 460.69 433.934 459.875 433.934C458.006 433.934 456.68 437.31 456.68 437.439V462.662L442.06 473.514C442.06 473.514 442.135 472.985 442.394 472.646C443.398 471.334 443.913 471.006 443.913 469.848V442.454C443.913 442.117 451.128 436.405 455.002 433.757C458.98 431.038 464.541 426.41 467.433 426.41ZM463.582 437.937C463.582 437.937 468.951 443.773 468.951 447.293C468.951 449.962 466.889 451.007 463.582 452.968V437.937ZM463.582 457.647C464.093 457.775 467.097 459.576 467.097 460.829V480.025H466.426C465.372 480.025 463.582 479.205 463.582 478.192V457.647ZM591.964 450.46L603.9 456.312V482.034L592.635 487.548L580.54 482.372V455.476L591.964 450.46ZM536.841 449.705L544.063 456.875V478.931L547.418 482.275L541.874 487.612L535.994 482.098V461.553C535.898 461.489 532.319 457.952 531.632 457.711L527.589 461.392V479.092L530.625 482.098L524.905 487.612L519.696 482.613V460.395C519.696 460.395 517.22 458.338 516.165 457.051L523.227 449.865L530.114 456.376L536.841 449.705ZM564.562 450.637L577.68 456.151C577.073 456.891 573.078 459.801 571.624 460.154C571.624 460.154 560.919 455.991 560.695 455.975V477.693L569.707 482.147C569.707 482.147 574.9 480.362 576.162 480.362C576.306 480.362 576.529 480.41 576.833 480.362V480.861L566.591 487.548H565.233L552.291 481.697V456.473L564.562 450.637ZM498.35 450.026C506.514 454.094 510.11 454.592 510.11 456.376V477.758L515.318 482.934L510.445 487.612C506.882 484.719 505.572 483.449 505.572 483.449L496.624 487.902L484.401 482.34V468.241L496.337 462.389L502.888 465.073V459.222L492.422 455.605L487.166 456.232L486.926 455.38L498.35 450.026ZM588.353 455.476L596.166 459.157V482.034L588.257 478.529L588.353 455.476ZM491.799 467.244L502.888 472.758V483.111L491.799 477.983V467.244ZM644.915 434.947C645.426 434.947 647.631 435.799 651.306 437.615C653.287 438.596 656.85 439.352 656.85 441.12V482.548L645.762 487.725L633.491 481.889V455.653L645.25 450.476C645.666 450.525 649.452 451.988 649.452 451.988V443.628L639.642 439.464C638.044 439.561 636.159 441.088 634.242 441.425L634.657 439.786C634.657 439.786 643.509 434.947 644.915 434.947ZM676.008 450.316L686.936 462.341L670.959 474.028V477.211C670.959 477.87 680.37 482.147 680.37 482.147C680.37 482.147 685.035 478.979 687.096 480.217C686.984 480.362 675.832 487.564 675.832 487.564L663.913 482.388V455.991L676.008 450.316ZM641.224 455.492L649.277 459.157V482.05H649.117L641.224 478.545V455.492ZM671.134 455.991L679.139 464.334L671.134 470.186V455.991ZM822.732 479.253L825.751 482.082L819.695 487.757L813.993 482.082V443.66L822.732 435.156V479.253ZM776.173 434.079V458.29L784.912 449.769L791.462 456.296V487.018L783.235 495.04H783.06V460.46L779.865 457.454L776.173 460.636V478.835L779.368 481.841V482.018L773.49 487.854L767.767 482.179V442.422L776.173 434.239V434.079ZM801.211 434.079H801.386L807.091 439.754V439.914L801.211 445.766L795.33 439.914L801.211 434.079ZM842.562 450.685C842.881 450.685 853.49 462.228 853.651 462.711L837.688 473.899V478.417L846.731 482.484C846.731 482.484 851.477 481.857 853.153 480.41L855.567 481.005C855.359 481.311 844.461 487.934 842.562 487.934C842.147 487.934 833.996 484.831 830.626 482.58V457.035C830.626 455.894 842.53 450.685 842.562 450.685ZM801.386 449.769H801.547L806.755 454.946V478.674L809.95 481.68L803.911 487.516L798.191 481.841V458.129L795.506 455.621L801.386 449.769ZM837.846 456.36L845.5 464.19L837.896 469.061L837.846 456.36ZM743.496 429.881C743.879 429.656 744.33 429.786 744.33 429.786C744.034 430.52 741.222 432.138 738.153 434.105C735.575 435.756 733.264 437.384 731.211 439.48C728.482 442.267 725.688 445.558 724.219 448.899C723.091 451.464 722.559 454.465 722.823 458.627C723.174 464.19 727.583 472.436 732.729 475.394C734.312 476.295 738.761 478.861 743.993 479.237C745.848 479.37 747.096 479.351 749.075 479.12V438.291C749.075 437.792 747.844 435.14 746.679 435.14C746.343 435.14 745.848 435.751 745.848 436.136V464.029C745.848 465.073 744.871 466.569 740.126 469.704C735.269 472.919 733.768 473.996 733.241 473.883C733.353 473.578 734.406 472.73 734.406 472.212V443.146C734.406 440.284 738.625 438.596 742.317 435.799C746.92 432.29 749.927 430.844 751.131 430.347C751.424 430.208 752.509 430.1 753.23 430.124C757.27 430.141 759.795 434.963 760.292 435.461C761.236 436.422 762.838 436.657 764.157 436.297C764.909 436.092 766.506 435.3 767.513 435.461C764.798 437.824 755.93 443.322 755.93 443.322C755.581 443.52 754.979 443.473 754.587 443.322C753.626 442.953 753.004 442.374 751.887 441.811V478.56C752.963 478.24 754.537 477.561 756.243 476.546C757.671 475.697 758.936 474.747 759.787 474.069C760.147 473.783 760.302 473.669 760.626 473.385C760.755 473.272 761.017 473.262 761.138 473.385C761.41 473.662 761.233 474.18 761.138 474.558C760.703 476.282 759.678 477.826 758.613 479.237C757.57 480.619 756.186 481.802 754.9 482.851C750.552 486.394 745.566 488.158 739.105 488.207C724.421 488.304 714.02 477.742 712.901 461.36C711.782 445.059 723.335 431.651 736.931 430.783C738.911 430.67 741.34 430.815 741.644 430.783C741.883 430.754 742.696 430.352 743.496 429.881Z" fill="white"/>
</g>
<defs>
<clipPath id="clip0_16_371">
<rect width="433" height="86" fill="white" transform="translate(423.5 409)"/>
</clipPath>
</defs>
</svg>
