<svg width="1280" height="560" viewBox="0 0 1280 560" fill="none" xmlns="http://www.w3.org/2000/svg">
<rect width="1280" height="560" fill="#002464"/>
<path d="M680.124 65.5C659.327 65.5 652.231 76.2487 640.067 91.801C627.905 76.2487 620.795 65.5 600.01 65.5C577.704 65.5 563 81.9018 563 106.517C563 114.781 564.93 123.591 569.095 132.4V160.881C569.095 163.175 570.961 165.026 573.246 165.026C575.531 165.026 577.398 163.163 577.398 160.881V145.963C578.897 147.927 580.509 149.866 582.261 151.793L599.249 170.654V205.244C599.249 207.539 601.103 209.389 603.414 209.389C605.724 209.389 607.565 207.539 607.565 205.244V179.881L640.079 216.018L654.668 199.832V231.355C654.668 233.65 656.535 235.5 658.833 235.5C661.13 235.5 662.984 233.65 662.984 231.355V190.605L684.492 166.674V196.537C684.492 198.831 686.358 200.681 688.656 200.681C690.954 200.681 692.808 198.818 692.808 196.537V157.434L697.873 151.805C711.306 137.102 717.133 120.979 717.133 106.542C717.133 81.927 702.432 65.5253 680.111 65.5253L680.124 65.5Z" fill="#EA0029"/>
<path d="M617.341 153C608.17 153 602.003 148.292 599 142.042L606.142 138.39C608.252 143.26 612.309 145.614 617.341 145.614C622.859 145.614 627.079 142.042 627.079 135.711C627.079 129.299 622.697 125.808 616.448 125.808C613.202 125.808 611.254 126.458 609.631 127.188L608.982 126.377L619.775 112.497C620.912 110.873 622.454 109.575 622.454 109.575C622.454 109.575 620.1 109.899 618.071 109.899H603.382V103H634.708V103.731L623.833 117.61C622.778 118.99 621.48 119.964 621.48 119.964C629.595 121.019 635.763 126.62 635.763 135.873C635.763 145.289 629.108 153 617.341 153Z" fill="white"/>
<path d="M657.74 153C648.732 153 642.97 148.455 640.617 143.26L647.677 139.607C649.381 143.016 652.303 145.614 657.659 145.614C663.502 145.614 667.235 141.636 667.235 136.117C667.235 130.435 663.746 126.62 657.01 126.62C651.816 126.62 648.408 128.731 645.973 130.76L645.161 130.435V103H672.186V109.899H652.06V121.263C653.52 120.37 656.036 119.558 659.201 119.558C669.264 119.558 676 126.782 676 136.198C676 145.532 669.427 153 657.74 153Z" fill="white"/>
<path d="M158.887 306V263.149H163.439V301.97H183.65V306H158.887ZM208.813 306.492C204.773 306.492 201.082 305.58 197.739 303.754C194.417 301.909 191.771 299.304 189.802 295.941C187.833 292.578 186.849 288.794 186.849 284.59C186.849 280.386 187.833 276.602 189.802 273.239C191.771 269.855 194.427 267.25 197.77 265.425C201.112 263.58 204.793 262.657 208.813 262.657C212.853 262.657 216.544 263.58 219.887 265.425C223.25 267.25 225.917 269.855 227.885 273.239C229.875 276.602 230.869 280.386 230.869 284.59C230.869 288.794 229.875 292.578 227.885 295.941C225.917 299.304 223.261 301.909 219.918 303.754C216.575 305.58 212.874 306.492 208.813 306.492ZM208.813 302.401C213.817 302.401 217.959 300.709 221.241 297.325C224.522 293.941 226.163 289.696 226.163 284.59C226.163 281.227 225.414 278.191 223.917 275.484C222.44 272.757 220.379 270.624 217.734 269.086C215.088 267.527 212.115 266.748 208.813 266.748C203.85 266.748 199.728 268.44 196.447 271.824C193.186 275.208 191.556 279.463 191.556 284.59C191.556 287.112 191.986 289.481 192.848 291.696C193.729 293.89 194.929 295.777 196.447 297.356C197.964 298.915 199.79 300.145 201.922 301.047C204.055 301.95 206.352 302.401 208.813 302.401ZM250.403 306.492C248.434 306.492 246.619 306.256 244.958 305.785C243.297 305.313 241.872 304.667 240.682 303.847C239.493 303.006 238.467 302.093 237.606 301.109C236.765 300.125 236.047 299.027 235.453 297.817L239.236 295.787C239.79 296.771 240.375 297.633 240.99 298.371C241.605 299.109 242.343 299.807 243.205 300.463C244.086 301.099 245.122 301.591 246.312 301.939C247.501 302.288 248.824 302.462 250.28 302.462C252.843 302.462 254.956 301.806 256.617 300.494C258.298 299.161 259.139 297.387 259.139 295.172C259.139 293.101 258.503 291.409 257.232 290.096C255.981 288.784 253.93 287.492 251.08 286.22L247.696 284.651C245.522 283.667 243.779 282.683 242.466 281.698C241.174 280.714 240.149 279.494 239.39 278.038C238.631 276.582 238.252 274.879 238.252 272.931C238.252 269.875 239.308 267.404 241.42 265.518C243.553 263.61 246.25 262.657 249.511 262.657C254.658 262.657 258.524 264.8 261.108 269.086L257.447 271.362C256.545 269.886 255.468 268.737 254.217 267.917C252.966 267.097 251.397 266.687 249.511 266.687C247.419 266.687 245.758 267.25 244.527 268.378C243.317 269.486 242.712 270.962 242.712 272.808C242.712 274.633 243.215 276.079 244.22 277.146C245.225 278.212 246.988 279.33 249.511 280.499L252.925 282.067C256.637 283.708 259.354 285.533 261.077 287.543C262.82 289.532 263.692 292.075 263.692 295.172C263.692 298.638 262.451 301.396 259.97 303.447C257.509 305.477 254.32 306.492 250.403 306.492ZM287.901 306V262.657H288.547L308.45 287.543L328.23 262.657H328.938V306H324.508V277.699C324.508 277.146 324.518 276.479 324.539 275.7C324.58 274.92 324.61 274.254 324.631 273.7L324.692 272.87C324.672 272.89 324.498 273.157 324.169 273.669C323.862 274.162 323.462 274.767 322.97 275.484C322.498 276.202 322.067 276.797 321.678 277.269L308.696 293.665H307.958L295.161 277.269C294.771 276.797 294.32 276.212 293.808 275.515C293.315 274.818 292.916 274.233 292.608 273.762C292.321 273.27 292.146 272.972 292.085 272.87L292.116 273.208C292.136 273.434 292.157 273.721 292.177 274.069C292.198 274.418 292.218 274.797 292.239 275.208C292.259 275.597 292.28 276.028 292.3 276.5C292.321 276.951 292.331 277.351 292.331 277.699V306H287.901ZM340.627 306V263.149H366.713V267.179H345.18V282.498H364.406V286.466H345.18V301.97H367.605V306H340.627ZM384.493 306.492C379.428 306.492 375.736 304.349 373.419 300.063L377.11 297.756C378.895 300.853 381.294 302.401 384.309 302.401C386.503 302.401 388.226 301.765 389.477 300.494C390.728 299.202 391.353 297.233 391.353 294.587V263.149H395.967V294.71C395.967 298.525 394.911 301.447 392.799 303.478C390.707 305.487 387.938 306.492 384.493 306.492ZM427.16 306.492C423.12 306.492 419.428 305.58 416.085 303.754C412.763 301.909 410.118 299.304 408.149 295.941C406.18 292.578 405.196 288.794 405.196 284.59C405.196 280.386 406.18 276.602 408.149 273.239C410.118 269.855 412.773 267.25 416.116 265.425C419.459 263.58 423.14 262.657 427.16 262.657C431.2 262.657 434.891 263.58 438.234 265.425C441.597 267.25 444.263 269.855 446.232 273.239C448.221 276.602 449.216 280.386 449.216 284.59C449.216 288.794 448.221 292.578 446.232 295.941C444.263 299.304 441.607 301.909 438.265 303.754C434.922 305.58 431.22 306.492 427.16 306.492ZM427.16 302.401C432.164 302.401 436.306 300.709 439.587 297.325C442.869 293.941 444.509 289.696 444.509 284.59C444.509 281.227 443.761 278.191 442.264 275.484C440.787 272.757 438.726 270.624 436.081 269.086C433.435 267.527 430.461 266.748 427.16 266.748C422.197 266.748 418.075 268.44 414.793 271.824C411.533 275.208 409.902 279.463 409.902 284.59C409.902 287.112 410.333 289.481 411.194 291.696C412.076 293.89 413.276 295.777 414.793 297.356C416.311 298.915 418.136 300.145 420.269 301.047C422.402 301.95 424.699 302.401 427.16 302.401ZM458.444 306V263.149H471.303C475.958 263.149 479.66 264.256 482.408 266.471C485.176 268.686 486.561 271.947 486.561 276.253C486.561 279.35 485.761 281.934 484.161 284.005C482.582 286.056 480.377 287.512 477.547 288.374L488.006 306H482.654L472.81 289.112C472.4 289.153 471.733 289.173 470.811 289.173H462.997V306H458.444ZM462.997 285.267H471.057C474.584 285.267 477.26 284.518 479.085 283.021C480.911 281.503 481.823 279.248 481.823 276.253C481.823 270.204 478.234 267.179 471.057 267.179H462.997V285.267ZM496.712 306V263.149H522.798V267.179H501.265V282.498H520.491V286.466H501.265V301.97H523.69V306H496.712ZM544.177 306.492C542.208 306.492 540.394 306.256 538.732 305.785C537.071 305.313 535.646 304.667 534.457 303.847C533.267 303.006 532.242 302.093 531.38 301.109C530.54 300.125 529.822 299.027 529.227 297.817L533.011 295.787C533.564 296.771 534.149 297.633 534.764 298.371C535.379 299.109 536.118 299.807 536.979 300.463C537.861 301.099 538.896 301.591 540.086 301.939C541.275 302.288 542.598 302.462 544.054 302.462C546.618 302.462 548.73 301.806 550.391 300.494C552.073 299.161 552.914 297.387 552.914 295.172C552.914 293.101 552.278 291.409 551.006 290.096C549.755 288.784 547.705 287.492 544.854 286.22L541.47 284.651C539.296 283.667 537.553 282.683 536.241 281.698C534.949 280.714 533.923 279.494 533.165 278.038C532.406 276.582 532.026 274.879 532.026 272.931C532.026 269.875 533.083 267.404 535.195 265.518C537.328 263.61 540.024 262.657 543.285 262.657C548.433 262.657 552.298 264.8 554.882 269.086L551.222 271.362C550.319 269.886 549.243 268.737 547.992 267.917C546.741 267.097 545.172 266.687 543.285 266.687C541.193 266.687 539.532 267.25 538.302 268.378C537.092 269.486 536.487 270.962 536.487 272.808C536.487 274.633 536.989 276.079 537.994 277.146C538.999 278.212 540.763 279.33 543.285 280.499L546.7 282.067C550.412 283.708 553.129 285.533 554.852 287.543C556.595 289.532 557.466 292.075 557.466 295.172C557.466 298.638 556.226 301.396 553.744 303.447C551.283 305.477 548.094 306.492 544.177 306.492ZM591.266 312.489C584.147 312.489 579.359 308.835 577.028 303.984L582.572 301.149C584.21 304.929 587.36 306.756 591.266 306.756C595.55 306.756 598.826 303.984 598.826 299.07C598.826 294.093 595.424 291.384 590.573 291.384C588.053 291.384 586.541 291.888 585.281 292.455L584.777 291.825L593.156 281.052C594.038 279.792 595.235 278.784 595.235 278.784C595.235 278.784 593.408 279.036 591.833 279.036H580.43V273.681H604.748V274.248L596.306 285.021C595.487 286.092 594.479 286.848 594.479 286.848C600.779 287.667 605.567 292.014 605.567 299.196C605.567 306.504 600.401 312.489 591.266 312.489ZM622.628 312.489C615.635 312.489 611.162 308.961 609.335 304.929L614.816 302.094C616.139 304.74 618.407 306.756 622.565 306.756C627.101 306.756 629.999 303.669 629.999 299.385C629.999 294.975 627.29 292.014 622.061 292.014C618.029 292.014 615.383 293.652 613.493 295.227L612.863 294.975V273.681H633.842V279.036H618.218V287.856C619.352 287.163 621.305 286.533 623.762 286.533C631.574 286.533 636.803 292.14 636.803 299.448C636.803 306.693 631.7 312.489 622.628 312.489ZM658.949 293.418C657.801 290.67 657.227 287.728 657.227 284.59C657.227 281.452 657.801 278.52 658.949 275.792C660.118 273.044 661.687 270.716 663.656 268.809C665.625 266.902 667.952 265.405 670.639 264.318C673.346 263.21 676.207 262.657 679.221 262.657C686.871 262.657 692.582 265.487 696.355 271.147L691.249 274.808C689.998 272.88 688.357 271.373 686.327 270.286C684.297 269.199 681.928 268.655 679.221 268.655C674.792 268.655 671.151 270.163 668.301 273.177C665.471 276.192 664.056 279.996 664.056 284.59C664.056 289.184 665.481 292.998 668.332 296.033C671.182 299.068 674.812 300.586 679.221 300.586C684.635 300.586 688.86 298.34 691.895 293.849L697.001 297.417C695.094 300.309 692.633 302.555 689.619 304.154C686.604 305.754 683.138 306.554 679.221 306.554C676.207 306.554 673.346 306.01 670.639 304.923C667.952 303.816 665.625 302.309 663.656 300.401C661.687 298.474 660.118 296.146 658.949 293.418ZM699.585 306L717.919 262.718H718.688L737.453 306H730.532L727.394 298.187H709.183L706.015 306H699.585ZM711.429 292.649H724.995L720.319 280.991C720.032 280.293 719.714 279.442 719.365 278.438C719.037 277.433 718.76 276.592 718.535 275.915C718.33 275.218 718.217 274.808 718.196 274.685C718.196 274.705 718.145 274.869 718.042 275.177C717.96 275.464 717.848 275.833 717.704 276.284C717.581 276.735 717.438 277.228 717.273 277.761C717.109 278.273 716.915 278.827 716.689 279.422C716.484 280.017 716.289 280.54 716.104 280.991L711.429 292.649ZM744.467 306V263.149H771.168V269.024H751.142V282.806H769.292V288.743H751.142V306H744.467ZM779.474 306V263.149H806.698V269.024H786.149V281.606H804.36V287.358H786.149V300.155H807.559V306H779.474ZM812.912 297.694L818.387 294.649C819.556 296.577 820.879 298.063 822.355 299.109C823.853 300.135 825.811 300.647 828.231 300.647C830.405 300.647 832.179 300.114 833.553 299.048C834.947 297.961 835.645 296.536 835.645 294.772C835.645 293.029 835.091 291.645 833.983 290.619C832.896 289.594 831.061 288.507 828.477 287.358L825.647 286.097C822.243 284.6 819.72 282.918 818.08 281.052C816.439 279.166 815.619 276.664 815.619 273.546C815.619 270.347 816.736 267.732 818.972 265.702C821.207 263.672 824.099 262.657 827.646 262.657C830.477 262.657 832.876 263.21 834.845 264.318C836.813 265.405 838.444 267.097 839.736 269.394L834.506 272.624C833.666 271.167 832.722 270.111 831.676 269.455C830.63 268.778 829.287 268.44 827.646 268.44C825.965 268.44 824.622 268.901 823.617 269.824C822.612 270.747 822.109 271.947 822.109 273.423C822.109 274.961 822.571 276.192 823.494 277.115C824.417 278.038 826.016 278.991 828.292 279.976L831.061 281.237C834.958 282.939 837.798 284.795 839.582 286.805C841.366 288.794 842.258 291.429 842.258 294.71C842.258 298.381 840.966 301.273 838.382 303.385C835.819 305.498 832.476 306.554 828.354 306.554C824.519 306.554 821.31 305.744 818.726 304.124C816.162 302.483 814.224 300.34 812.912 297.694ZM865.976 306V263.149H876.373C883.489 263.149 889.129 265.097 893.292 268.994C897.476 272.87 899.567 278.068 899.567 284.59C899.567 291.111 897.486 296.31 893.323 300.186C889.16 304.062 883.51 306 876.373 306H865.976ZM870.528 301.909H876.065C879.162 301.909 881.91 301.488 884.31 300.647C886.709 299.807 888.667 298.617 890.185 297.079C891.703 295.541 892.841 293.726 893.6 291.634C894.379 289.522 894.769 287.174 894.769 284.59C894.769 279.299 893.179 275.084 890 271.947C886.842 268.809 882.197 267.24 876.065 267.24H870.528V301.909ZM908.796 306V263.149H934.882V267.179H913.349V282.498H932.575V286.466H913.349V301.97H935.774V306H908.796ZM971.211 306.492C969.243 306.492 967.428 306.256 965.767 305.785C964.105 305.313 962.68 304.667 961.491 303.847C960.301 303.006 959.276 302.093 958.415 301.109C957.574 300.125 956.856 299.027 956.261 297.817L960.045 295.787C960.599 296.771 961.183 297.633 961.798 298.371C962.414 299.109 963.152 299.807 964.013 300.463C964.895 301.099 965.931 301.591 967.12 301.939C968.31 302.288 969.632 302.462 971.088 302.462C973.652 302.462 975.764 301.806 977.425 300.494C979.107 299.161 979.948 297.387 979.948 295.172C979.948 293.101 979.312 291.409 978.041 290.096C976.79 288.784 974.739 287.492 971.888 286.22L968.504 284.651C966.331 283.667 964.587 282.683 963.275 281.698C961.983 280.714 960.958 279.494 960.199 278.038C959.44 276.582 959.061 274.879 959.061 272.931C959.061 269.875 960.117 267.404 962.229 265.518C964.362 263.61 967.059 262.657 970.319 262.657C975.467 262.657 979.333 264.8 981.917 269.086L978.256 271.362C977.354 269.886 976.277 268.737 975.026 267.917C973.775 267.097 972.206 266.687 970.319 266.687C968.228 266.687 966.566 267.25 965.336 268.378C964.126 269.486 963.521 270.962 963.521 272.808C963.521 274.633 964.023 276.079 965.028 277.146C966.033 278.212 967.797 279.33 970.319 280.499L973.734 282.067C977.446 283.708 980.163 285.533 981.886 287.543C983.629 289.532 984.5 292.075 984.5 295.172C984.5 298.638 983.26 301.396 980.778 303.447C978.317 305.477 975.128 306.492 971.211 306.492ZM1002.19 306V267.179H989.022V263.149H1019.88V267.179H1006.71V306H1002.19ZM1045.25 306.492C1042.1 306.492 1039.13 305.959 1036.36 304.893C1033.6 303.806 1031.22 302.309 1029.23 300.401C1027.24 298.494 1025.67 296.177 1024.52 293.449C1023.39 290.722 1022.83 287.769 1022.83 284.59C1022.83 280.365 1023.79 276.582 1025.72 273.239C1027.65 269.875 1030.28 267.271 1033.63 265.425C1036.99 263.58 1040.73 262.657 1044.85 262.657C1051.38 262.657 1056.36 264.502 1059.81 268.194L1056.7 271.301C1053.79 268.266 1049.84 266.748 1044.85 266.748C1041.55 266.748 1038.58 267.527 1035.93 269.086C1033.29 270.624 1031.23 272.757 1029.75 275.484C1028.27 278.191 1027.54 281.227 1027.54 284.59C1027.54 289.717 1029.2 293.972 1032.52 297.356C1035.84 300.719 1040.09 302.401 1045.25 302.401C1050.48 302.401 1054.7 301.099 1057.9 298.494V289.481H1045.19V285.451H1062.2V300.586C1060.46 302.288 1058.13 303.703 1055.22 304.831C1052.33 305.938 1049.01 306.492 1045.25 306.492ZM1091.61 306.492C1087.57 306.492 1083.88 305.58 1080.54 303.754C1077.22 301.909 1074.57 299.304 1072.6 295.941C1070.63 292.578 1069.65 288.794 1069.65 284.59C1069.65 280.386 1070.63 276.602 1072.6 273.239C1074.57 269.855 1077.23 267.25 1080.57 265.425C1083.91 263.58 1087.59 262.657 1091.61 262.657C1095.65 262.657 1099.34 263.58 1102.69 265.425C1106.05 267.25 1108.72 269.855 1110.69 273.239C1112.67 276.602 1113.67 280.386 1113.67 284.59C1113.67 288.794 1112.67 292.578 1110.69 295.941C1108.72 299.304 1106.06 301.909 1102.72 303.754C1099.38 305.58 1095.67 306.492 1091.61 306.492ZM1091.61 302.401C1096.62 302.401 1100.76 300.709 1104.04 297.325C1107.32 293.941 1108.96 289.696 1108.96 284.59C1108.96 281.227 1108.21 278.191 1106.72 275.484C1105.24 272.757 1103.18 270.624 1100.53 269.086C1097.89 267.527 1094.91 266.748 1091.61 266.748C1086.65 266.748 1082.53 268.44 1079.25 271.824C1075.99 275.208 1074.36 279.463 1074.36 284.59C1074.36 287.112 1074.79 289.481 1075.65 291.696C1076.53 293.89 1077.73 295.777 1079.25 297.356C1080.76 298.915 1082.59 300.145 1084.72 301.047C1086.85 301.95 1089.15 302.401 1091.61 302.401ZM1120.59 306.431C1119.69 306.431 1118.89 306.092 1118.19 305.416C1117.51 304.739 1117.18 303.929 1117.18 302.985C1117.18 302.042 1117.51 301.242 1118.19 300.586C1118.89 299.909 1119.69 299.571 1120.59 299.571C1121.51 299.571 1122.3 299.899 1122.96 300.555C1123.64 301.211 1123.97 302.021 1123.97 302.985C1123.97 303.949 1123.64 304.77 1122.96 305.446C1122.3 306.103 1121.51 306.431 1120.59 306.431Z" fill="white"/>
<path d="M507.859 379V357.234H514.234C516.62 357.234 518.505 357.812 519.891 358.969C521.286 360.115 521.984 361.786 521.984 363.984C521.984 366.151 521.286 367.823 519.891 369C518.505 370.167 516.62 370.75 514.234 370.75H510.172V379H507.859ZM510.172 368.703H514.109C515.932 368.703 517.302 368.307 518.219 367.516C519.146 366.714 519.609 365.536 519.609 363.984C519.609 360.849 517.776 359.281 514.109 359.281H510.172V368.703ZM526.484 379V357.234H533.016C535.38 357.234 537.26 357.797 538.656 358.922C540.062 360.047 540.766 361.703 540.766 363.891C540.766 365.464 540.359 366.776 539.547 367.828C538.745 368.87 537.625 369.609 536.188 370.047L541.5 379H538.781L533.781 370.422C533.573 370.443 533.234 370.453 532.766 370.453H528.797V379H526.484ZM528.797 368.469H532.891C534.682 368.469 536.042 368.089 536.969 367.328C537.896 366.557 538.359 365.411 538.359 363.891C538.359 360.818 536.536 359.281 532.891 359.281H528.797V368.469ZM545.922 379V357.234H559.172V359.281H548.234V367.062H558V369.078H548.234V376.953H559.625V379H545.922ZM570.031 379.25C569.031 379.25 568.109 379.13 567.266 378.891C566.422 378.651 565.698 378.323 565.094 377.906C564.49 377.479 563.969 377.016 563.531 376.516C563.104 376.016 562.74 375.458 562.438 374.844L564.359 373.812C564.641 374.312 564.938 374.75 565.25 375.125C565.562 375.5 565.938 375.854 566.375 376.188C566.823 376.51 567.349 376.76 567.953 376.938C568.557 377.115 569.229 377.203 569.969 377.203C571.271 377.203 572.344 376.87 573.188 376.203C574.042 375.526 574.469 374.625 574.469 373.5C574.469 372.448 574.146 371.589 573.5 370.922C572.865 370.255 571.823 369.599 570.375 368.953L568.656 368.156C567.552 367.656 566.667 367.156 566 366.656C565.344 366.156 564.823 365.536 564.438 364.797C564.052 364.057 563.859 363.193 563.859 362.203C563.859 360.651 564.396 359.396 565.469 358.438C566.552 357.469 567.922 356.984 569.578 356.984C572.193 356.984 574.156 358.073 575.469 360.25L573.609 361.406C573.151 360.656 572.604 360.073 571.969 359.656C571.333 359.24 570.536 359.031 569.578 359.031C568.516 359.031 567.672 359.318 567.047 359.891C566.432 360.453 566.125 361.203 566.125 362.141C566.125 363.068 566.38 363.802 566.891 364.344C567.401 364.885 568.297 365.453 569.578 366.047L571.312 366.844C573.198 367.677 574.578 368.604 575.453 369.625C576.339 370.635 576.781 371.927 576.781 373.5C576.781 375.26 576.151 376.661 574.891 377.703C573.641 378.734 572.021 379.25 570.031 379.25ZM581.484 379V357.234H594.734V359.281H583.797V367.062H593.562V369.078H583.797V376.953H595.188V379H581.484ZM616.531 379.219L603.547 363.859C603.286 363.557 602.984 363.177 602.641 362.719C602.297 362.26 602.094 361.979 602.031 361.875C602.031 361.906 602.047 362.068 602.078 362.359C602.12 362.651 602.156 362.99 602.188 363.375C602.219 363.75 602.234 364.062 602.234 364.312V379H600.047V357.016H600.438L613.438 372.375C613.573 372.531 613.729 372.729 613.906 372.969C614.083 373.208 614.234 373.422 614.359 373.609C614.495 373.786 614.62 373.958 614.734 374.125C614.859 374.292 614.927 374.38 614.938 374.391L614.891 373.969C614.87 373.677 614.844 373.333 614.812 372.938C614.792 372.531 614.781 372.193 614.781 371.922V357.234H616.922V379.219H616.531ZM627.641 379V359.281H620.953V357.234H636.625V359.281H629.938V379H627.641ZM641.312 372.125H649.703L646.344 363.797C646.219 363.484 646.089 363.12 645.953 362.703C645.818 362.276 645.708 361.927 645.625 361.656C645.552 361.385 645.516 361.234 645.516 361.203C645.516 361.214 645.469 361.365 645.375 361.656C645.292 361.938 645.177 362.286 645.031 362.703C644.896 363.12 644.766 363.474 644.641 363.766L641.312 372.125ZM636.297 379L645.312 357.016H645.703L654.922 379H652.484L650.5 374.109H640.516L638.562 379H636.297ZM659.047 379V357.234H664.328C667.943 357.234 670.807 358.224 672.922 360.203C675.047 362.172 676.109 364.812 676.109 368.125C676.109 371.438 675.052 374.078 672.938 376.047C670.823 378.016 667.953 379 664.328 379H659.047ZM661.359 376.922H664.172C665.745 376.922 667.141 376.708 668.359 376.281C669.578 375.854 670.573 375.25 671.344 374.469C672.115 373.688 672.693 372.766 673.078 371.703C673.474 370.63 673.672 369.438 673.672 368.125C673.672 365.438 672.865 363.297 671.25 361.703C669.646 360.109 667.286 359.312 664.172 359.312H661.359V376.922ZM690.719 379.25C688.667 379.25 686.792 378.786 685.094 377.859C683.406 376.922 682.062 375.599 681.062 373.891C680.062 372.182 679.562 370.26 679.562 368.125C679.562 365.99 680.062 364.068 681.062 362.359C682.062 360.641 683.411 359.318 685.109 358.391C686.807 357.453 688.677 356.984 690.719 356.984C692.771 356.984 694.646 357.453 696.344 358.391C698.052 359.318 699.406 360.641 700.406 362.359C701.417 364.068 701.922 365.99 701.922 368.125C701.922 370.26 701.417 372.182 700.406 373.891C699.406 375.599 698.057 376.922 696.359 377.859C694.661 378.786 692.781 379.25 690.719 379.25ZM690.719 377.172C693.26 377.172 695.365 376.312 697.031 374.594C698.698 372.875 699.531 370.719 699.531 368.125C699.531 366.417 699.151 364.875 698.391 363.5C697.641 362.115 696.594 361.031 695.25 360.25C693.906 359.458 692.396 359.062 690.719 359.062C688.198 359.062 686.104 359.922 684.438 361.641C682.781 363.359 681.953 365.521 681.953 368.125C681.953 369.406 682.172 370.609 682.609 371.734C683.057 372.849 683.667 373.807 684.438 374.609C685.208 375.401 686.135 376.026 687.219 376.484C688.302 376.943 689.469 377.172 690.719 377.172ZM714.203 379V357.234H720.578C722.964 357.234 724.849 357.812 726.234 358.969C727.63 360.115 728.328 361.786 728.328 363.984C728.328 366.151 727.63 367.823 726.234 369C724.849 370.167 722.964 370.75 720.578 370.75H716.516V379H714.203ZM716.516 368.703H720.453C722.276 368.703 723.646 368.307 724.562 367.516C725.49 366.714 725.953 365.536 725.953 363.984C725.953 360.849 724.12 359.281 720.453 359.281H716.516V368.703ZM742.75 379.25C740.698 379.25 738.823 378.786 737.125 377.859C735.438 376.922 734.094 375.599 733.094 373.891C732.094 372.182 731.594 370.26 731.594 368.125C731.594 365.99 732.094 364.068 733.094 362.359C734.094 360.641 735.443 359.318 737.141 358.391C738.839 357.453 740.708 356.984 742.75 356.984C744.802 356.984 746.677 357.453 748.375 358.391C750.083 359.318 751.438 360.641 752.438 362.359C753.448 364.068 753.953 365.99 753.953 368.125C753.953 370.26 753.448 372.182 752.438 373.891C751.438 375.599 750.089 376.922 748.391 377.859C746.693 378.786 744.812 379.25 742.75 379.25ZM742.75 377.172C745.292 377.172 747.396 376.312 749.062 374.594C750.729 372.875 751.562 370.719 751.562 368.125C751.562 366.417 751.182 364.875 750.422 363.5C749.672 362.115 748.625 361.031 747.281 360.25C745.938 359.458 744.427 359.062 742.75 359.062C740.229 359.062 738.135 359.922 736.469 361.641C734.812 363.359 733.984 365.521 733.984 368.125C733.984 369.406 734.203 370.609 734.641 371.734C735.089 372.849 735.698 373.807 736.469 374.609C737.24 375.401 738.167 376.026 739.25 376.484C740.333 376.943 741.5 377.172 742.75 377.172ZM758.641 379V357.234H765.172C767.536 357.234 769.417 357.797 770.812 358.922C772.219 360.047 772.922 361.703 772.922 363.891C772.922 365.464 772.516 366.776 771.703 367.828C770.901 368.87 769.781 369.609 768.344 370.047L773.656 379H770.938L765.938 370.422C765.729 370.443 765.391 370.453 764.922 370.453H760.953V379H758.641ZM760.953 368.469H765.047C766.839 368.469 768.198 368.089 769.125 367.328C770.052 366.557 770.516 365.411 770.516 363.891C770.516 360.818 768.693 359.281 765.047 359.281H760.953V368.469Z" fill="white"/>
<g clip-path="url(#clip0_16_371)">
<path fill-rule="evenodd" clip-rule="evenodd" d="M440.558 425.912C441.61 425.78 442.682 425.816 443.738 425.912C445.681 426.088 447.592 426.544 449.499 426.964C450.952 427.284 453.82 428.082 453.82 428.082C454.153 428.173 454.733 428.168 455.178 428.082C455.768 427.968 456.536 427.68 456.856 427.407C457.079 427.487 457.255 427.536 457.526 427.745L444.249 437.101C442.625 438.245 440.206 440.327 440.206 441.511V464.495L427.105 473.514C427.296 472.259 428.958 471.118 428.958 469.334V446.12C428.958 444.319 441.565 437.792 441.565 435.927C441.565 435.002 439.165 434.147 437.811 433.558C436.657 433.056 435.411 432.761 434.167 432.6C432.275 432.355 430.339 432.363 428.447 432.6C426.442 432.851 423.478 434.143 422.567 434.095C424.357 432.917 428.837 429.502 432.369 427.995C434.964 426.888 437.765 426.262 440.558 425.912ZM467.433 426.41C469.462 426.41 470.676 428.564 474.159 433.098C475.022 434.207 479.033 439.094 479.033 441.441V443.29C479.033 448.049 466.426 452.823 466.426 454.801C466.426 456.167 473.057 455.524 476.013 457.486C478.841 459.35 480.039 463.305 480.039 465.492V471.182C480.039 474.574 475.358 475.861 469.622 480.201C467.097 482.098 458.501 487.886 457.862 487.886C457.862 487.886 453.41 485.538 451.061 484.669C448.525 483.731 445.918 482.891 443.242 482.532C441.13 482.249 438.967 482.281 436.851 482.532C433.535 482.926 427.616 484.879 427.105 484.879C427.105 484.879 430.391 481.668 435.103 478.942C438.579 476.932 442.969 475.819 447.109 475.185C449.321 474.847 451.608 474.843 453.82 475.185C456.373 475.581 459.971 477.131 461.217 477.533V435.091C461.217 434.689 460.69 433.934 459.875 433.934C458.006 433.934 456.68 437.31 456.68 437.439V462.662L442.06 473.514C442.06 473.514 442.135 472.985 442.394 472.646C443.398 471.334 443.913 471.006 443.913 469.848V442.454C443.913 442.117 451.128 436.405 455.002 433.757C458.98 431.038 464.541 426.41 467.433 426.41ZM463.582 437.937C463.582 437.937 468.951 443.773 468.951 447.293C468.951 449.962 466.889 451.007 463.582 452.968V437.937ZM463.582 457.646C464.093 457.775 467.097 459.575 467.097 460.829V480.024H466.426C465.372 480.024 463.582 479.205 463.582 478.192V457.646ZM591.964 450.46L603.9 456.312V482.034L592.635 487.548L580.54 482.372V455.476L591.964 450.46ZM536.841 449.705L544.063 456.875V478.931L547.418 482.275L541.874 487.612L535.994 482.098V461.553C535.898 461.488 532.319 457.952 531.632 457.71L527.589 461.392V479.092L530.625 482.098L524.905 487.612L519.696 482.613V460.395C519.696 460.395 517.22 458.338 516.165 457.051L523.227 449.865L530.114 456.376L536.841 449.705ZM564.562 450.637L577.68 456.151C577.073 456.891 573.078 459.801 571.624 460.154C571.624 460.154 560.919 455.991 560.695 455.974V477.693L569.707 482.146C569.707 482.146 574.9 480.362 576.162 480.362C576.306 480.362 576.529 480.41 576.833 480.362V480.86L566.591 487.548H565.233L552.291 481.696V456.473L564.562 450.637ZM498.35 450.026C506.514 454.093 510.11 454.592 510.11 456.376V477.758L515.318 482.934L510.445 487.612C506.882 484.719 505.572 483.449 505.572 483.449L496.624 487.902L484.401 482.339V468.241L496.337 462.389L502.888 465.073V459.222L492.422 455.605L487.166 456.231L486.926 455.38L498.35 450.026ZM588.353 455.476L596.166 459.157V482.034L588.257 478.529L588.353 455.476ZM491.799 467.244L502.888 472.758V483.111L491.799 477.983V467.244ZM644.915 434.947C645.426 434.947 647.631 435.799 651.306 437.615C653.287 438.596 656.85 439.352 656.85 441.12V482.548L645.762 487.725L633.491 481.889V455.653L645.25 450.476C645.666 450.525 649.452 451.987 649.452 451.987V443.628L639.642 439.464C638.044 439.561 636.159 441.088 634.242 441.425L634.657 439.786C634.657 439.786 643.509 434.947 644.915 434.947ZM676.008 450.316L686.936 462.341L670.959 474.028V477.211C670.959 477.87 680.37 482.146 680.37 482.146C680.37 482.146 685.035 478.979 687.096 480.217C686.984 480.362 675.832 487.564 675.832 487.564L663.913 482.388V455.991L676.008 450.316ZM641.224 455.492L649.277 459.157V482.05H649.117L641.224 478.545V455.492ZM671.134 455.991L679.139 464.334L671.134 470.186V455.991ZM822.732 479.253L825.751 482.082L819.695 487.757L813.993 482.082V443.66L822.732 435.156V479.253ZM776.173 434.079V458.289L784.912 449.769L791.462 456.296V487.017L783.235 495.04H783.06V460.46L779.865 457.453L776.173 460.636V478.835L779.368 481.841V482.018L773.49 487.853L767.767 482.179V442.422L776.173 434.239V434.079ZM801.211 434.079H801.386L807.091 439.753V439.914L801.211 445.766L795.33 439.914L801.211 434.079ZM842.562 450.685C842.881 450.685 853.49 462.228 853.651 462.71L837.688 473.899V478.417L846.731 482.484C846.731 482.484 851.477 481.857 853.153 480.41L855.567 481.005C855.359 481.31 844.461 487.934 842.562 487.934C842.147 487.934 833.996 484.831 830.626 482.58V457.035C830.626 455.894 842.53 450.685 842.562 450.685ZM801.386 449.769H801.547L806.755 454.945V478.674L809.95 481.68L803.911 487.516L798.191 481.841V458.129L795.506 455.621L801.386 449.769ZM837.846 456.36L845.5 464.189L837.896 469.06L837.846 456.36ZM743.496 429.881C743.879 429.656 744.33 429.786 744.33 429.786C744.034 430.52 741.222 432.138 738.153 434.105C735.575 435.756 733.264 437.384 731.211 439.48C728.482 442.267 725.688 445.558 724.219 448.898C723.091 451.464 722.559 454.465 722.823 458.627C723.174 464.189 727.583 472.436 732.729 475.394C734.312 476.295 738.761 478.861 743.993 479.237C745.848 479.37 747.096 479.351 749.075 479.12V438.291C749.075 437.792 747.844 435.14 746.679 435.14C746.343 435.14 745.848 435.75 745.848 436.136V464.029C745.848 465.073 744.871 466.569 740.126 469.703C735.269 472.919 733.768 473.996 733.241 473.883C733.353 473.578 734.406 472.73 734.406 472.211V443.146C734.406 440.284 738.625 438.596 742.317 435.799C746.92 432.29 749.927 430.844 751.131 430.346C751.424 430.208 752.509 430.1 753.23 430.124C757.27 430.141 759.795 434.963 760.292 435.461C761.236 436.422 762.838 436.657 764.157 436.297C764.909 436.092 766.506 435.3 767.513 435.461C764.798 437.824 755.93 443.322 755.93 443.322C755.581 443.52 754.979 443.473 754.587 443.322C753.626 442.953 753.004 442.374 751.887 441.811V478.56C752.963 478.24 754.537 477.561 756.243 476.546C757.671 475.697 758.936 474.747 759.787 474.069C760.147 473.783 760.302 473.669 760.626 473.385C760.755 473.272 761.017 473.262 761.138 473.385C761.41 473.662 761.233 474.18 761.138 474.558C760.703 476.282 759.678 477.826 758.613 479.237C757.57 480.619 756.186 481.802 754.9 482.851C750.552 486.394 745.566 488.158 739.105 488.207C724.421 488.304 714.02 477.742 712.901 461.36C711.782 445.059 723.335 431.651 736.931 430.783C738.911 430.67 741.34 430.815 741.644 430.783C741.883 430.754 742.696 430.352 743.496 429.881Z" fill="white"/>
</g>
<defs>
<clipPath id="clip0_16_371">
<rect width="433" height="86" fill="white" transform="translate(423.5 409)"/>
</clipPath>
</defs>
</svg>
