<svg width="1257" height="1760" viewBox="0 0 1257 1760" fill="none" xmlns="http://www.w3.org/2000/svg">
<rect width="1257" height="1760" fill="black"/>
<path d="M733.773 384C678.86 384 660.119 412.452 628 453.62C595.886 412.452 577.112 384 522.227 384C463.326 384 424.5 427.417 424.5 492.575C424.5 514.45 429.597 537.769 440.593 561.088V636.479C440.593 642.552 445.522 647.451 451.556 647.451C457.59 647.451 462.519 642.519 462.519 636.479V596.989C466.477 602.188 470.733 607.322 475.36 612.422L520.219 662.348V753.911C520.219 759.984 525.114 764.884 531.215 764.884C537.316 764.884 542.178 759.984 542.178 753.911V686.774L628.034 782.431L666.557 739.585V823.029C666.557 829.102 671.486 834 677.553 834C683.62 834 688.516 829.102 688.516 823.029V715.159L745.308 651.813V730.861C745.308 736.935 750.237 741.833 756.304 741.833C762.371 741.833 767.267 736.901 767.267 730.861V627.354L780.64 612.456C816.113 573.535 831.5 530.857 831.5 492.641C831.5 427.483 792.68 384.067 733.74 384.067L733.773 384Z" fill="#EA0029"/>
<path d="M528.121 584.749C528.121 577.687 529.482 570.918 532.204 564.444C535 557.897 539.193 550.65 544.784 542.705L580.538 491.392H606.25L576.896 533.436C575.278 535.716 573.145 538.144 570.496 540.719C567.921 543.294 566.082 544.986 564.979 545.795C570.79 541.896 577.264 539.946 584.4 539.946C596.907 539.946 607.28 544.029 615.52 552.195C623.833 560.361 627.989 571.029 627.989 584.197C627.989 598.028 623.244 609.284 613.754 617.965C604.264 626.646 592.419 630.986 578.221 630.986C564.096 630.986 552.215 626.646 542.577 617.965C532.94 609.284 528.121 598.212 528.121 584.749ZM551.405 584.197C551.405 591.775 553.796 598.102 558.578 603.178C563.36 608.18 569.834 610.682 578 610.682C585.872 610.682 592.272 608.144 597.201 603.067C602.204 597.991 604.705 591.701 604.705 584.197C604.705 576.546 602.277 570.256 597.422 565.327C592.64 560.325 586.166 557.823 578 557.823C569.981 557.823 563.544 560.398 558.688 565.548C553.833 570.698 551.405 576.914 551.405 584.197Z" fill="white"/>
<path d="M639.349 610.138L658.991 599.985C664.582 611.168 673.852 616.759 686.8 616.759C694.892 616.759 701.366 614.405 706.222 609.696C711.077 604.914 713.505 598.735 713.505 591.157C713.505 583.212 711.114 577.032 706.332 572.618C701.55 568.131 694.598 565.887 685.476 565.887C673.484 565.887 662.927 569.712 653.805 577.363L651.598 576.48V498.021H730.168V517.222H670.799V551.21C676.096 547.899 683.011 546.244 691.545 546.244C705.302 546.244 716.448 550.474 724.981 558.935C733.589 567.395 737.893 578.209 737.893 591.378C737.893 604.62 733.331 615.582 724.209 624.263C715.16 632.944 702.764 637.284 687.021 637.284C675.176 637.284 665.134 634.709 656.895 629.56C648.729 624.483 642.88 618.009 639.349 610.138Z" fill="white"/>
<line x1="145" y1="935" x2="1112" y2="935" stroke="white" stroke-width="6" stroke-dasharray="5 5"/>
<path d="M193.33 1070V991.1H201.713V1062.58H238.926V1070H193.33ZM285.258 1070.91C277.819 1070.91 271.022 1069.23 264.867 1065.87C258.75 1062.47 253.879 1057.67 250.254 1051.48C246.629 1045.29 244.816 1038.32 244.816 1030.58C244.816 1022.84 246.629 1015.87 250.254 1009.68C253.879 1003.45 258.769 998.652 264.924 995.291C271.079 991.893 277.857 990.193 285.258 990.193C292.697 990.193 299.493 991.893 305.648 995.291C311.841 998.652 316.75 1003.45 320.375 1009.68C324.038 1015.87 325.869 1022.84 325.869 1030.58C325.869 1038.32 324.038 1045.29 320.375 1051.48C316.75 1057.67 311.86 1062.47 305.705 1065.87C299.55 1069.23 292.734 1070.91 285.258 1070.91ZM285.258 1063.37C294.471 1063.37 302.099 1060.26 308.141 1054.03C314.182 1047.8 317.203 1039.98 317.203 1030.58C317.203 1024.39 315.825 1018.8 313.068 1013.81C310.35 1008.79 306.555 1004.86 301.684 1002.03C296.812 999.161 291.337 997.727 285.258 997.727C276.12 997.727 268.53 1000.84 262.488 1007.07C256.484 1013.3 253.482 1021.14 253.482 1030.58C253.482 1035.22 254.275 1039.58 255.861 1043.66C257.485 1047.7 259.694 1051.18 262.488 1054.08C265.283 1056.95 268.643 1059.22 272.57 1060.88C276.497 1062.54 280.727 1063.37 285.258 1063.37ZM361.836 1070.91C358.211 1070.91 354.869 1070.47 351.811 1069.6C348.752 1068.74 346.128 1067.55 343.938 1066.04C341.747 1064.49 339.859 1062.81 338.273 1060.99C336.725 1059.18 335.404 1057.16 334.309 1054.93L341.275 1051.2C342.295 1053.01 343.371 1054.59 344.504 1055.95C345.637 1057.31 346.996 1058.6 348.582 1059.8C350.206 1060.98 352.113 1061.88 354.303 1062.52C356.493 1063.17 358.928 1063.49 361.609 1063.49C366.329 1063.49 370.219 1062.28 373.277 1059.86C376.374 1057.41 377.922 1054.14 377.922 1050.06C377.922 1046.25 376.751 1043.13 374.41 1040.72C372.107 1038.3 368.331 1035.92 363.082 1033.58L356.852 1030.69C352.849 1028.88 349.639 1027.07 347.223 1025.25C344.844 1023.44 342.956 1021.19 341.559 1018.51C340.161 1015.83 339.463 1012.7 339.463 1009.11C339.463 1003.49 341.408 998.935 345.297 995.461C349.224 991.949 354.189 990.193 360.193 990.193C369.671 990.193 376.789 994.139 381.547 1002.03L374.807 1006.22C373.145 1003.5 371.163 1001.39 368.859 999.879C366.556 998.368 363.667 997.613 360.193 997.613C356.342 997.613 353.283 998.652 351.018 1000.73C348.79 1002.77 347.676 1005.49 347.676 1008.88C347.676 1012.25 348.601 1014.91 350.451 1016.87C352.301 1018.83 355.549 1020.89 360.193 1023.04L366.48 1025.93C373.315 1028.95 378.318 1032.32 381.49 1036.02C384.7 1039.68 386.305 1044.36 386.305 1050.06C386.305 1056.44 384.02 1061.52 379.451 1065.3C374.92 1069.04 369.048 1070.91 361.836 1070.91ZM430.881 1070V990.193H432.07L468.717 1036.02L505.137 990.193H506.439V1070H498.283V1017.89C498.283 1016.87 498.302 1015.64 498.34 1014.21C498.415 1012.77 498.472 1011.55 498.51 1010.53L498.623 1009C498.585 1009.04 498.264 1009.53 497.66 1010.47C497.094 1011.38 496.357 1012.49 495.451 1013.81C494.583 1015.13 493.79 1016.23 493.072 1017.1L469.17 1047.29H467.811L444.248 1017.1C443.531 1016.23 442.7 1015.15 441.756 1013.87C440.85 1012.59 440.113 1011.51 439.547 1010.64C439.018 1009.73 438.697 1009.19 438.584 1009L438.641 1009.62C438.678 1010.04 438.716 1010.57 438.754 1011.21C438.792 1011.85 438.829 1012.55 438.867 1013.3C438.905 1014.02 438.943 1014.81 438.98 1015.68C439.018 1016.51 439.037 1017.25 439.037 1017.89V1070H430.881ZM527.963 1070V991.1H575.994V998.52H536.346V1026.73H571.746V1034.03H536.346V1062.58H577.637V1070H527.963ZM608.732 1070.91C599.406 1070.91 592.609 1066.96 588.342 1059.07L595.139 1054.82C598.424 1060.52 602.842 1063.37 608.393 1063.37C612.433 1063.37 615.605 1062.2 617.908 1059.86C620.212 1057.48 621.363 1053.86 621.363 1048.99V991.1H629.859V1049.21C629.859 1056.24 627.915 1061.62 624.025 1065.36C620.174 1069.06 615.076 1070.91 608.732 1070.91ZM687.293 1070.91C679.854 1070.91 673.057 1069.23 666.902 1065.87C660.785 1062.47 655.914 1057.67 652.289 1051.48C648.664 1045.29 646.852 1038.32 646.852 1030.58C646.852 1022.84 648.664 1015.87 652.289 1009.68C655.914 1003.45 660.804 998.652 666.959 995.291C673.114 991.893 679.892 990.193 687.293 990.193C694.732 990.193 701.529 991.893 707.684 995.291C713.876 998.652 718.785 1003.45 722.41 1009.68C726.073 1015.87 727.904 1022.84 727.904 1030.58C727.904 1038.32 726.073 1045.29 722.41 1051.48C718.785 1057.67 713.895 1062.47 707.74 1065.87C701.585 1069.23 694.77 1070.91 687.293 1070.91ZM687.293 1063.37C696.507 1063.37 704.134 1060.26 710.176 1054.03C716.217 1047.8 719.238 1039.98 719.238 1030.58C719.238 1024.39 717.86 1018.8 715.104 1013.81C712.385 1008.79 708.59 1004.86 703.719 1002.03C698.848 999.161 693.372 997.727 687.293 997.727C678.155 997.727 670.565 1000.84 664.523 1007.07C658.52 1013.3 655.518 1021.14 655.518 1030.58C655.518 1035.22 656.311 1039.58 657.896 1043.66C659.52 1047.7 661.729 1051.18 664.523 1054.08C667.318 1056.95 670.678 1059.22 674.605 1060.88C678.533 1062.54 682.762 1063.37 687.293 1063.37ZM744.896 1070V991.1H768.572C777.144 991.1 783.96 993.139 789.02 997.217C794.117 1001.29 796.666 1007.3 796.666 1015.23C796.666 1020.93 795.193 1025.69 792.248 1029.5C789.34 1033.28 785.281 1035.96 780.07 1037.54L799.328 1070H789.473L771.348 1038.9C770.592 1038.98 769.365 1039.02 767.666 1039.02H753.279V1070H744.896ZM753.279 1031.82H768.119C774.614 1031.82 779.542 1030.45 782.902 1027.69C786.263 1024.9 787.943 1020.74 787.943 1015.23C787.943 1004.09 781.335 998.52 768.119 998.52H753.279V1031.82ZM815.357 1070V991.1H863.389V998.52H823.74V1026.73H859.141V1034.03H823.74V1062.58H865.031V1070H815.357ZM902.754 1070.91C899.129 1070.91 895.787 1070.47 892.729 1069.6C889.67 1068.74 887.046 1067.55 884.855 1066.04C882.665 1064.49 880.777 1062.81 879.191 1060.99C877.643 1059.18 876.322 1057.16 875.227 1054.93L882.193 1051.2C883.213 1053.01 884.289 1054.59 885.422 1055.95C886.555 1057.31 887.914 1058.6 889.5 1059.8C891.124 1060.98 893.031 1061.88 895.221 1062.52C897.411 1063.17 899.846 1063.49 902.527 1063.49C907.247 1063.49 911.137 1062.28 914.195 1059.86C917.292 1057.41 918.84 1054.14 918.84 1050.06C918.84 1046.25 917.669 1043.13 915.328 1040.72C913.025 1038.3 909.249 1035.92 904 1033.58L897.77 1030.69C893.767 1028.88 890.557 1027.07 888.141 1025.25C885.762 1023.44 883.874 1021.19 882.477 1018.51C881.079 1015.83 880.381 1012.7 880.381 1009.11C880.381 1003.49 882.326 998.935 886.215 995.461C890.142 991.949 895.107 990.193 901.111 990.193C910.589 990.193 917.707 994.139 922.465 1002.03L915.725 1006.22C914.063 1003.5 912.081 1001.39 909.777 999.879C907.474 998.368 904.585 997.613 901.111 997.613C897.26 997.613 894.201 998.652 891.936 1000.73C889.708 1002.77 888.594 1005.49 888.594 1008.88C888.594 1012.25 889.519 1014.91 891.369 1016.87C893.219 1018.83 896.467 1020.89 901.111 1023.04L907.398 1025.93C914.233 1028.95 919.236 1032.32 922.408 1036.02C925.618 1039.68 927.223 1044.36 927.223 1050.06C927.223 1056.44 924.938 1061.52 920.369 1065.3C915.838 1069.04 909.966 1070.91 902.754 1070.91ZM1008.11 1064.28C1003.5 1068.7 997.665 1070.91 990.604 1070.91C983.542 1070.91 977.652 1068.74 972.932 1064.39C968.249 1060.05 965.908 1054.46 965.908 1047.63C965.908 1044.46 966.531 1041.38 967.777 1038.39C969.061 1035.37 970.949 1032.03 973.441 1028.37L993.152 999.256H1002.33L986.469 1022.76C985.902 1023.48 985.147 1024.35 984.203 1025.37C983.297 1026.39 982.523 1027.22 981.881 1027.86L980.861 1028.82C984.298 1026.03 988.168 1024.63 992.473 1024.63C998.967 1024.63 1004.35 1026.78 1008.62 1031.09C1012.92 1035.35 1015.07 1040.83 1015.07 1047.51C1015.07 1054.27 1012.75 1059.86 1008.11 1064.28ZM990.49 1063.71C995.286 1063.71 999.213 1062.18 1002.27 1059.12C1005.33 1056.07 1006.86 1052.2 1006.86 1047.51C1006.86 1042.64 1005.39 1038.72 1002.44 1035.73C999.496 1032.75 995.512 1031.26 990.49 1031.26C985.619 1031.26 981.673 1032.84 978.652 1036.02C975.632 1039.15 974.121 1042.98 974.121 1047.51C974.121 1052.23 975.613 1056.12 978.596 1059.18C981.579 1062.2 985.544 1063.71 990.49 1063.71ZM1044.92 1081.95C1039.37 1081.95 1034.58 1080.78 1030.54 1078.44C1026.53 1076.1 1023.59 1073.06 1021.7 1069.32L1028.55 1065.58C1031.95 1071.62 1037.41 1074.64 1044.92 1074.64C1049.87 1074.64 1053.83 1073.19 1056.82 1070.28C1059.8 1067.41 1061.29 1063.6 1061.29 1058.84C1061.29 1053.93 1059.89 1050.12 1057.1 1047.4C1054.34 1044.68 1050.25 1043.32 1044.81 1043.32C1038.65 1043.32 1033.12 1045.38 1028.21 1049.5L1027.19 1049.1V1011.55H1066.05V1018.51H1034.27V1039.47C1037.41 1037.32 1041.5 1036.24 1046.56 1036.24C1053.59 1036.24 1059.21 1038.36 1063.44 1042.59C1067.71 1046.78 1069.84 1052.23 1069.84 1058.96C1069.84 1065.64 1067.54 1071.13 1062.93 1075.44C1058.33 1079.78 1052.32 1081.95 1044.92 1081.95ZM226.125 1214V1135.1H249.801C258.372 1135.1 265.188 1137.14 270.248 1141.22C275.346 1145.29 277.895 1151.3 277.895 1159.23C277.895 1164.93 276.422 1169.69 273.477 1173.5C270.569 1177.28 266.51 1179.96 261.299 1181.54L280.557 1214H270.701L252.576 1182.9C251.821 1182.98 250.594 1183.02 248.895 1183.02H234.508V1214H226.125ZM234.508 1175.82H249.348C255.842 1175.82 260.77 1174.45 264.131 1171.69C267.492 1168.9 269.172 1164.74 269.172 1159.23C269.172 1148.09 262.564 1142.52 249.348 1142.52H234.508V1175.82ZM296.586 1214V1135.1H344.617V1142.52H304.969V1170.73H340.369V1178.03H304.969V1206.58H346.26V1214H296.586ZM383.982 1214.91C380.357 1214.91 377.016 1214.47 373.957 1213.6C370.898 1212.74 368.274 1211.55 366.084 1210.04C363.894 1208.49 362.006 1206.81 360.42 1204.99C358.872 1203.18 357.55 1201.16 356.455 1198.93L363.422 1195.2C364.441 1197.01 365.518 1198.59 366.65 1199.95C367.783 1201.31 369.143 1202.6 370.729 1203.8C372.352 1204.98 374.259 1205.88 376.449 1206.52C378.639 1207.17 381.075 1207.49 383.756 1207.49C388.476 1207.49 392.365 1206.28 395.424 1203.86C398.52 1201.41 400.068 1198.14 400.068 1194.06C400.068 1190.25 398.898 1187.13 396.557 1184.72C394.253 1182.3 390.477 1179.92 385.229 1177.58L378.998 1174.69C374.995 1172.88 371.786 1171.07 369.369 1169.25C366.99 1167.44 365.102 1165.19 363.705 1162.51C362.308 1159.83 361.609 1156.7 361.609 1153.11C361.609 1147.49 363.554 1142.93 367.443 1139.46C371.37 1135.95 376.336 1134.19 382.34 1134.19C391.818 1134.19 398.936 1138.14 403.693 1146.03L396.953 1150.22C395.292 1147.5 393.309 1145.39 391.006 1143.88C388.702 1142.37 385.814 1141.61 382.34 1141.61C378.488 1141.61 375.43 1142.65 373.164 1144.73C370.936 1146.77 369.822 1149.49 369.822 1152.88C369.822 1156.25 370.747 1158.91 372.598 1160.87C374.448 1162.83 377.695 1164.89 382.34 1167.04L388.627 1169.93C395.462 1172.95 400.465 1176.32 403.637 1180.02C406.846 1183.68 408.451 1188.36 408.451 1194.06C408.451 1200.44 406.167 1205.52 401.598 1209.3C397.066 1213.04 391.195 1214.91 383.982 1214.91ZM441.02 1214V1142.52H416.777V1135.1H473.588V1142.52H449.346V1214H441.02ZM490.58 1189.08H520.996L508.818 1158.89C508.365 1157.76 507.893 1156.43 507.402 1154.92C506.911 1153.38 506.515 1152.11 506.213 1151.13C505.949 1150.15 505.816 1149.6 505.816 1149.49C505.816 1149.52 505.646 1150.07 505.307 1151.13C505.005 1152.15 504.589 1153.41 504.061 1154.92C503.57 1156.43 503.098 1157.72 502.645 1158.78L490.58 1189.08ZM472.398 1214L505.08 1134.31H506.496L539.914 1214H531.078L523.885 1196.27H487.691L480.611 1214H472.398ZM580.695 1214.91C572.275 1214.91 565.44 1212.51 560.191 1207.71C554.98 1202.88 552.375 1196.01 552.375 1187.1V1135.1H560.758V1186.53C560.758 1193.4 562.514 1198.61 566.025 1202.16C569.537 1205.71 574.427 1207.49 580.695 1207.49C586.926 1207.49 591.797 1205.71 595.309 1202.16C598.858 1198.61 600.633 1193.4 600.633 1186.53V1135.1H609.016V1187.1C609.016 1196.01 606.372 1202.88 601.086 1207.71C595.837 1212.51 589.04 1214.91 580.695 1214.91ZM629.859 1214V1135.1H653.535C662.107 1135.1 668.923 1137.14 673.982 1141.22C679.08 1145.29 681.629 1151.3 681.629 1159.23C681.629 1164.93 680.156 1169.69 677.211 1173.5C674.303 1177.28 670.244 1179.96 665.033 1181.54L684.291 1214H674.436L656.311 1182.9C655.555 1182.98 654.328 1183.02 652.629 1183.02H638.242V1214H629.859ZM638.242 1175.82H653.082C659.577 1175.82 664.505 1174.45 667.865 1171.69C671.226 1168.9 672.906 1164.74 672.906 1159.23C672.906 1148.09 666.298 1142.52 653.082 1142.52H638.242V1175.82ZM712.045 1189.08H742.461L730.283 1158.89C729.83 1157.76 729.358 1156.43 728.867 1154.92C728.376 1153.38 727.98 1152.11 727.678 1151.13C727.413 1150.15 727.281 1149.6 727.281 1149.49C727.281 1149.52 727.111 1150.07 726.771 1151.13C726.469 1152.15 726.054 1153.41 725.525 1154.92C725.035 1156.43 724.562 1157.72 724.109 1158.78L712.045 1189.08ZM693.863 1214L726.545 1134.31H727.961L761.379 1214H752.543L745.35 1196.27H709.156L702.076 1214H693.863ZM836.088 1214.79L789.02 1159.12C788.076 1158.02 786.98 1156.64 785.734 1154.98C784.488 1153.32 783.752 1152.3 783.525 1151.92C783.525 1152.04 783.582 1152.62 783.695 1153.68C783.846 1154.74 783.979 1155.96 784.092 1157.36C784.205 1158.72 784.262 1159.85 784.262 1160.76V1214H776.332V1134.31H777.748L824.873 1189.98C825.364 1190.55 825.93 1191.27 826.572 1192.14C827.214 1193.01 827.762 1193.78 828.215 1194.46C828.706 1195.1 829.159 1195.72 829.574 1196.33C830.027 1196.93 830.273 1197.25 830.311 1197.29L830.141 1195.76C830.065 1194.7 829.971 1193.46 829.857 1192.02C829.782 1190.55 829.744 1189.32 829.744 1188.34V1135.1H837.504V1214.79H836.088ZM876.359 1214V1142.52H852.117V1135.1H908.928V1142.52H884.686V1214H876.359ZM923.484 1214V1135.1H971.516V1142.52H931.867V1170.73H967.268V1178.03H931.867V1206.58H973.158V1214H923.484ZM1010.88 1214.91C1007.26 1214.91 1003.91 1214.47 1000.86 1213.6C997.797 1212.74 995.173 1211.55 992.982 1210.04C990.792 1208.49 988.904 1206.81 987.318 1204.99C985.77 1203.18 984.449 1201.16 983.354 1198.93L990.32 1195.2C991.34 1197.01 992.416 1198.59 993.549 1199.95C994.682 1201.31 996.041 1202.6 997.627 1203.8C999.251 1204.98 1001.16 1205.88 1003.35 1206.52C1005.54 1207.17 1007.97 1207.49 1010.65 1207.49C1015.37 1207.49 1019.26 1206.28 1022.32 1203.86C1025.42 1201.41 1026.97 1198.14 1026.97 1194.06C1026.97 1190.25 1025.8 1187.13 1023.46 1184.72C1021.15 1182.3 1017.38 1179.92 1012.13 1177.58L1005.9 1174.69C1001.89 1172.88 998.684 1171.07 996.268 1169.25C993.889 1167.44 992.001 1165.19 990.604 1162.51C989.206 1159.83 988.508 1156.7 988.508 1153.11C988.508 1147.49 990.452 1142.93 994.342 1139.46C998.269 1135.95 1003.23 1134.19 1009.24 1134.19C1018.72 1134.19 1025.83 1138.14 1030.59 1146.03L1023.85 1150.22C1022.19 1147.5 1020.21 1145.39 1017.9 1143.88C1015.6 1142.37 1012.71 1141.61 1009.24 1141.61C1005.39 1141.61 1002.33 1142.65 1000.06 1144.73C997.835 1146.77 996.721 1149.49 996.721 1152.88C996.721 1156.25 997.646 1158.91 999.496 1160.87C1001.35 1162.83 1004.59 1164.89 1009.24 1167.04L1015.53 1169.93C1022.36 1172.95 1027.36 1176.32 1030.54 1180.02C1033.74 1183.68 1035.35 1188.36 1035.35 1194.06C1035.35 1200.44 1033.07 1205.52 1028.5 1209.3C1023.96 1213.04 1018.09 1214.91 1010.88 1214.91ZM181.719 1313.37L199.107 1334.44C201.373 1328.96 202.506 1322.58 202.506 1315.29H210.492C210.492 1325.15 208.529 1333.74 204.602 1341.06L218.479 1358H208.396L199.957 1347.8C196.747 1351.39 193.009 1354.15 188.742 1356.07C184.513 1357.96 179.963 1358.91 175.092 1358.91C167.464 1358.91 161.385 1356.96 156.854 1353.07C152.322 1349.18 150.057 1343.99 150.057 1337.5C150.057 1334.97 150.396 1332.61 151.076 1330.42C151.794 1328.23 152.7 1326.32 153.795 1324.7C154.928 1323.07 156.419 1321.47 158.27 1319.88C160.158 1318.29 161.989 1316.94 163.764 1315.8C165.538 1314.67 167.729 1313.39 170.334 1311.95L168.975 1310.2C164.708 1304.91 162.574 1299.66 162.574 1294.45C162.574 1289.77 164.122 1285.9 167.219 1282.84C170.353 1279.74 174.45 1278.19 179.51 1278.19C184.494 1278.19 188.516 1279.72 191.574 1282.78C194.671 1285.84 196.219 1289.69 196.219 1294.34C196.219 1298.15 194.973 1301.6 192.48 1304.7C189.988 1307.76 186.401 1310.65 181.719 1313.37ZM177.414 1308.1C181.077 1305.95 183.852 1303.79 185.74 1301.64C187.628 1299.49 188.572 1297.05 188.572 1294.34C188.572 1291.58 187.742 1289.37 186.08 1287.71C184.419 1286.01 182.266 1285.16 179.623 1285.16C176.904 1285.16 174.714 1285.99 173.053 1287.65C171.429 1289.28 170.617 1291.5 170.617 1294.34C170.617 1298.07 172.146 1301.77 175.205 1305.44L177.414 1308.1ZM194.973 1341.74L174.525 1317.05C171.958 1318.45 169.786 1319.77 168.012 1321.01C166.275 1322.22 164.651 1323.64 163.141 1325.26C161.668 1326.85 160.573 1328.6 159.855 1330.53C159.138 1332.46 158.779 1334.61 158.779 1336.99C158.779 1341.52 160.214 1345.07 163.084 1347.63C165.954 1350.2 169.956 1351.49 175.092 1351.49C183.399 1351.49 190.026 1348.24 194.973 1341.74ZM259.26 1358V1279.1H285.371C292.734 1279.1 298.342 1280.97 302.193 1284.71C306.083 1288.45 308.027 1293.28 308.027 1299.21C308.027 1307.97 304.195 1313.57 296.529 1316.03C306.8 1318.33 311.936 1324.94 311.936 1335.85C311.936 1342.54 309.878 1347.9 305.762 1351.94C301.646 1355.98 295.548 1358 287.467 1358H259.26ZM267.643 1350.58H286.9C292.602 1350.58 296.794 1349.24 299.475 1346.56C302.156 1343.84 303.496 1340.12 303.496 1335.4C303.496 1330.53 302.061 1326.77 299.191 1324.13C296.359 1321.49 292.111 1320.16 286.447 1320.16H267.643V1350.58ZM267.643 1312.86H285.824C290.544 1312.86 294.018 1311.69 296.246 1309.35C298.512 1307 299.645 1303.81 299.645 1299.77C299.645 1295.7 298.436 1292.47 296.02 1290.09C293.603 1287.71 289.827 1286.52 284.691 1286.52H267.643V1312.86ZM340.199 1333.08H370.615L358.438 1302.89C357.984 1301.76 357.512 1300.43 357.021 1298.92C356.531 1297.38 356.134 1296.11 355.832 1295.13C355.568 1294.15 355.436 1293.6 355.436 1293.49C355.436 1293.52 355.266 1294.07 354.926 1295.13C354.624 1296.15 354.208 1297.41 353.68 1298.92C353.189 1300.43 352.717 1301.72 352.264 1302.78L340.199 1333.08ZM322.018 1358L354.699 1278.31H356.115L389.533 1358H380.697L373.504 1340.27H337.311L330.23 1358H322.018ZM404.486 1358V1279.1H428.162C436.734 1279.1 443.549 1281.14 448.609 1285.22C453.707 1289.29 456.256 1295.3 456.256 1303.23C456.256 1308.93 454.783 1313.69 451.838 1317.5C448.93 1321.28 444.871 1323.96 439.66 1325.54L458.918 1358H449.062L430.938 1326.9C430.182 1326.98 428.955 1327.02 427.256 1327.02H412.869V1358H404.486ZM412.869 1319.82H427.709C434.204 1319.82 439.132 1318.45 442.492 1315.69C445.853 1312.9 447.533 1308.74 447.533 1303.23C447.533 1292.09 440.925 1286.52 427.709 1286.52H412.869V1319.82ZM474.947 1358V1279.1H522.979V1286.52H483.33V1314.73H518.73V1322.03H483.33V1350.58H524.621V1358H474.947ZM562.344 1358.91C558.719 1358.91 555.377 1358.47 552.318 1357.6C549.26 1356.74 546.635 1355.55 544.445 1354.04C542.255 1352.49 540.367 1350.81 538.781 1348.99C537.233 1347.18 535.911 1345.16 534.816 1342.93L541.783 1339.2C542.803 1341.01 543.879 1342.59 545.012 1343.95C546.145 1345.31 547.504 1346.6 549.09 1347.8C550.714 1348.98 552.62 1349.88 554.811 1350.52C557.001 1351.17 559.436 1351.49 562.117 1351.49C566.837 1351.49 570.727 1350.28 573.785 1347.86C576.882 1345.41 578.43 1342.14 578.43 1338.06C578.43 1334.25 577.259 1331.13 574.918 1328.72C572.615 1326.3 568.839 1323.92 563.59 1321.58L557.359 1318.69C553.357 1316.88 550.147 1315.07 547.73 1313.25C545.352 1311.44 543.464 1309.19 542.066 1306.51C540.669 1303.83 539.971 1300.7 539.971 1297.11C539.971 1291.49 541.915 1286.93 545.805 1283.46C549.732 1279.95 554.697 1278.19 560.701 1278.19C570.179 1278.19 577.297 1282.14 582.055 1290.03L575.314 1294.22C573.653 1291.5 571.671 1289.39 569.367 1287.88C567.064 1286.37 564.175 1285.61 560.701 1285.61C556.85 1285.61 553.791 1286.65 551.525 1288.73C549.298 1290.77 548.184 1293.49 548.184 1296.88C548.184 1300.25 549.109 1302.91 550.959 1304.87C552.809 1306.83 556.057 1308.89 560.701 1311.04L566.988 1313.93C573.823 1316.95 578.826 1320.32 581.998 1324.02C585.208 1327.68 586.812 1332.36 586.812 1338.06C586.812 1344.44 584.528 1349.52 579.959 1353.3C575.428 1357.04 569.556 1358.91 562.344 1358.91ZM631.389 1358V1279.1H650.533C663.636 1279.1 674.02 1282.69 681.686 1289.86C689.389 1297 693.24 1306.57 693.24 1318.58C693.24 1330.59 689.408 1340.16 681.742 1347.29C674.077 1354.43 663.674 1358 650.533 1358H631.389ZM639.771 1350.47H649.967C655.669 1350.47 660.729 1349.69 665.146 1348.14C669.564 1346.6 673.171 1344.41 675.965 1341.57C678.759 1338.74 680.855 1335.4 682.252 1331.55C683.687 1327.66 684.404 1323.34 684.404 1318.58C684.404 1308.84 681.478 1301.08 675.625 1295.3C669.81 1289.52 661.257 1286.63 649.967 1286.63H639.771V1350.47ZM710.232 1358V1279.1H758.264V1286.52H718.615V1314.73H754.016V1322.03H718.615V1350.58H759.906V1358H710.232ZM825.156 1358.91C821.531 1358.91 818.189 1358.47 815.131 1357.6C812.072 1356.74 809.448 1355.55 807.258 1354.04C805.068 1352.49 803.18 1350.81 801.594 1348.99C800.046 1347.18 798.724 1345.16 797.629 1342.93L804.596 1339.2C805.615 1341.01 806.691 1342.59 807.824 1343.95C808.957 1345.31 810.316 1346.6 811.902 1347.8C813.526 1348.98 815.433 1349.88 817.623 1350.52C819.813 1351.17 822.249 1351.49 824.93 1351.49C829.65 1351.49 833.539 1350.28 836.598 1347.86C839.694 1345.41 841.242 1342.14 841.242 1338.06C841.242 1334.25 840.072 1331.13 837.73 1328.72C835.427 1326.3 831.651 1323.92 826.402 1321.58L820.172 1318.69C816.169 1316.88 812.96 1315.07 810.543 1313.25C808.164 1311.44 806.276 1309.19 804.879 1306.51C803.482 1303.83 802.783 1300.7 802.783 1297.11C802.783 1291.49 804.728 1286.93 808.617 1283.46C812.544 1279.95 817.51 1278.19 823.514 1278.19C832.992 1278.19 840.109 1282.14 844.867 1290.03L838.127 1294.22C836.465 1291.5 834.483 1289.39 832.18 1287.88C829.876 1286.37 826.988 1285.61 823.514 1285.61C819.662 1285.61 816.604 1286.65 814.338 1288.73C812.11 1290.77 810.996 1293.49 810.996 1296.88C810.996 1300.25 811.921 1302.91 813.771 1304.87C815.622 1306.83 818.869 1308.89 823.514 1311.04L829.801 1313.93C836.635 1316.95 841.639 1320.32 844.811 1324.02C848.02 1327.68 849.625 1332.36 849.625 1338.06C849.625 1344.44 847.34 1349.52 842.771 1353.3C838.24 1357.04 832.368 1358.91 825.156 1358.91ZM882.193 1358V1286.52H857.951V1279.1H914.762V1286.52H890.52V1358H882.193ZM961.49 1358.91C955.675 1358.91 950.219 1357.92 945.121 1355.96C940.023 1353.96 935.643 1351.2 931.98 1347.69C928.318 1344.18 925.429 1339.91 923.314 1334.89C921.238 1329.87 920.199 1324.43 920.199 1318.58C920.199 1310.8 921.974 1303.83 925.523 1297.68C929.073 1291.49 933.925 1286.69 940.08 1283.29C946.273 1279.89 953.164 1278.19 960.754 1278.19C972.762 1278.19 981.938 1281.59 988.281 1288.39L982.561 1294.11C977.199 1288.52 969.93 1285.73 960.754 1285.73C954.674 1285.73 949.199 1287.16 944.328 1290.03C939.457 1292.86 935.662 1296.79 932.943 1301.81C930.225 1306.8 928.865 1312.39 928.865 1318.58C928.865 1328.02 931.924 1335.85 938.041 1342.08C944.158 1348.28 951.975 1351.37 961.49 1351.37C971.119 1351.37 978.879 1348.98 984.77 1344.18V1327.58H961.377V1320.16H992.699V1348.03C989.49 1351.17 985.204 1353.77 979.842 1355.85C974.518 1357.89 968.4 1358.91 961.49 1358.91ZM1046.85 1358.91C1039.41 1358.91 1032.61 1357.23 1026.46 1353.87C1020.34 1350.47 1015.47 1345.67 1011.84 1339.48C1008.22 1333.29 1006.41 1326.32 1006.41 1318.58C1006.41 1310.84 1008.22 1303.87 1011.84 1297.68C1015.47 1291.45 1020.36 1286.65 1026.51 1283.29C1032.67 1279.89 1039.45 1278.19 1046.85 1278.19C1054.29 1278.19 1061.08 1279.89 1067.24 1283.29C1073.43 1286.65 1078.34 1291.45 1081.96 1297.68C1085.63 1303.87 1087.46 1310.84 1087.46 1318.58C1087.46 1326.32 1085.63 1333.29 1081.96 1339.48C1078.34 1345.67 1073.45 1350.47 1067.29 1353.87C1061.14 1357.23 1054.32 1358.91 1046.85 1358.91ZM1046.85 1351.37C1056.06 1351.37 1063.69 1348.26 1069.73 1342.03C1075.77 1335.8 1078.79 1327.98 1078.79 1318.58C1078.79 1312.39 1077.41 1306.8 1074.66 1301.81C1071.94 1296.79 1068.14 1292.86 1063.27 1290.03C1058.4 1287.16 1052.93 1285.73 1046.85 1285.73C1037.71 1285.73 1030.12 1288.84 1024.08 1295.07C1018.07 1301.3 1015.07 1309.14 1015.07 1318.58C1015.07 1323.22 1015.87 1327.58 1017.45 1331.66C1019.07 1335.7 1021.28 1339.18 1024.08 1342.08C1026.87 1344.95 1030.23 1347.22 1034.16 1348.88C1038.09 1350.54 1042.32 1351.37 1046.85 1351.37ZM1100.2 1358.79C1098.54 1358.79 1097.07 1358.17 1095.79 1356.92C1094.54 1355.68 1093.92 1354.19 1093.92 1352.45C1093.92 1350.71 1094.54 1349.24 1095.79 1348.03C1097.07 1346.79 1098.54 1346.16 1100.2 1346.16C1101.9 1346.16 1103.36 1346.77 1104.56 1347.97C1105.81 1349.18 1106.43 1350.67 1106.43 1352.45C1106.43 1354.22 1105.81 1355.73 1104.56 1356.98C1103.36 1358.19 1101.9 1358.79 1100.2 1358.79Z" fill="white"/>
<line x1="145" y1="1407" x2="1112" y2="1407" stroke="white" stroke-width="6" stroke-dasharray="5 5"/>
</svg>
