<svg width="900" height="155" viewBox="0 0 900 155" fill="none" xmlns="http://www.w3.org/2000/svg">
<rect width="900" height="155" rx="12" fill="#3A8245"/>
<path d="M45.7061 64L58.2197 34.4585H58.7446L71.5522 64H66.8281L64.6865 58.667H52.2568L50.0942 64H45.7061ZM53.7896 54.8877H63.0488L59.8574 46.9302C59.6615 46.4543 59.4445 45.8734 59.2065 45.1875C58.9826 44.5016 58.7936 43.9277 58.6396 43.4658C58.4997 42.9899 58.4227 42.71 58.4087 42.626C58.4087 42.64 58.3737 42.752 58.3037 42.9619C58.2477 43.1579 58.1707 43.4098 58.0728 43.7178C57.9888 44.0257 57.8908 44.3617 57.7788 44.7256C57.6668 45.0755 57.5339 45.4535 57.3799 45.8594C57.2399 46.2653 57.1069 46.6222 56.981 46.9302L53.7896 54.8877ZM72.6021 49.3867C72.6021 46.5173 73.2459 43.9417 74.5337 41.6602C75.8215 39.3786 77.6061 37.6009 79.8877 36.3271C82.1693 35.0534 84.7448 34.4165 87.6143 34.4165C92.2194 34.4165 95.6768 35.7183 97.9863 38.3218L94.9209 41.3872C93.1012 39.4696 90.6657 38.5107 87.6143 38.5107C84.5768 38.5107 82.0923 39.5396 80.1606 41.5972C78.229 43.6548 77.2632 46.2513 77.2632 49.3867C77.2632 52.5501 78.271 55.1606 80.2866 57.2183C82.3022 59.2759 84.9478 60.3047 88.2231 60.3047C89.6649 60.3047 91.0086 60.1367 92.2544 59.8008C93.5002 59.4508 94.55 58.9889 95.4038 58.415V52.9561H87.5303V48.9878H99.582V60.6406C98.4762 61.6484 96.9225 62.5233 94.9209 63.2651C92.9333 64.007 90.7007 64.3779 88.2231 64.3779C85.9696 64.3779 83.87 64.007 81.9243 63.2651C79.9927 62.5093 78.341 61.4735 76.9692 60.1577C75.6115 58.842 74.5407 57.2603 73.7568 55.4126C72.987 53.5509 72.6021 51.5423 72.6021 49.3867ZM105.818 64V34.7524H124.399V38.7627H110.374V47.3501H122.804V51.2764H110.374V60.0107H124.987V64H105.818ZM131.055 64V34.4585H131.664L147.789 51.7803C148.125 52.1302 148.517 52.5781 148.965 53.124C149.413 53.6699 149.784 54.1318 150.078 54.5098L150.498 55.0557C150.288 53.334 150.183 51.9272 150.183 50.8354V34.7524H154.403V64.2939H153.836L137.711 46.9302C137.375 46.5662 136.976 46.1113 136.514 45.5654C136.052 45.0195 135.674 44.5646 135.38 44.2007L134.96 43.6548C135.17 45.2645 135.275 46.6712 135.275 47.875V64H131.055ZM161.458 64V34.7524H169.499C172.592 34.7524 175.315 35.3613 177.667 36.5791C180.032 37.7829 181.859 39.4976 183.146 41.7231C184.448 43.9347 185.099 46.4893 185.099 49.3867C185.099 53.7819 183.671 57.3162 180.816 59.9897C177.974 62.6632 174.202 64 169.499 64H161.458ZM166.014 60.0107H169.205C171.067 60.0107 172.711 59.7518 174.139 59.2339C175.581 58.716 176.75 57.9811 177.646 57.0293C178.555 56.0775 179.234 54.9647 179.682 53.6909C180.144 52.4032 180.375 50.9684 180.375 49.3867C180.375 47.805 180.144 46.3773 179.682 45.1035C179.234 43.8158 178.555 42.696 177.646 41.7441C176.75 40.7923 175.581 40.0575 174.139 39.5396C172.711 39.0216 171.067 38.7627 169.205 38.7627H166.014V60.0107ZM186.086 64L198.6 34.4585H199.125L211.932 64H207.208L205.066 58.667H192.637L190.474 64H186.086ZM194.169 54.8877H203.429L200.237 46.9302C200.041 46.4543 199.824 45.8734 199.586 45.1875C199.362 44.5016 199.174 43.9277 199.02 43.4658C198.88 42.9899 198.803 42.71 198.789 42.626C198.789 42.64 198.754 42.752 198.684 42.9619C198.628 43.1579 198.551 43.4098 198.453 43.7178C198.369 44.0257 198.271 44.3617 198.159 44.7256C198.047 45.0755 197.914 45.4535 197.76 45.8594C197.62 46.2653 197.487 46.6222 197.361 46.9302L194.169 54.8877ZM226.377 55.4126C225.594 53.5369 225.202 51.5283 225.202 49.3867C225.202 47.2451 225.594 45.2435 226.377 43.3818C227.175 41.5062 228.246 39.9175 229.59 38.6157C230.934 37.314 232.522 36.2922 234.356 35.5503C236.204 34.7944 238.156 34.4165 240.214 34.4165C245.435 34.4165 249.333 36.3481 251.909 40.2114L248.423 42.71C247.569 41.3942 246.45 40.3654 245.064 39.6235C243.678 38.8817 242.062 38.5107 240.214 38.5107C237.19 38.5107 234.706 39.5396 232.76 41.5972C230.829 43.6548 229.863 46.2513 229.863 49.3867C229.863 52.5221 230.836 55.1257 232.781 57.1973C234.727 59.2689 237.204 60.3047 240.214 60.3047C243.909 60.3047 246.793 58.772 248.864 55.7065L252.35 58.1421C251.048 60.1157 249.368 61.6484 247.311 62.7402C245.253 63.832 242.887 64.3779 240.214 64.3779C238.156 64.3779 236.204 64.007 234.356 63.2651C232.522 62.5093 230.934 61.4805 229.59 60.1787C228.246 58.863 227.175 57.2743 226.377 55.4126ZM257.326 53.7329V34.7524H261.882V53.46C261.882 58.0231 264.072 60.3047 268.454 60.3047C272.877 60.3047 275.088 58.0231 275.088 53.46V34.7524H279.603V53.7329C279.603 55.4686 279.316 57.0223 278.742 58.394C278.182 59.7518 277.398 60.8646 276.39 61.7324C275.382 62.6003 274.207 63.2581 272.863 63.7061C271.519 64.154 270.049 64.3779 268.454 64.3779C266.844 64.3779 265.367 64.154 264.023 63.7061C262.68 63.2581 261.504 62.6003 260.496 61.7324C259.502 60.8646 258.725 59.7518 258.166 58.394C257.606 57.0223 257.326 55.4686 257.326 53.7329ZM286.468 64V34.7524H291.024V60.0107H304.525V64H286.468ZM304.273 38.7627V34.7524H326.151V38.7627H317.458V64H312.944V38.7627H304.273ZM330.896 53.7329V34.7524H335.452V53.46C335.452 58.0231 337.643 60.3047 342.024 60.3047C346.447 60.3047 348.659 58.0231 348.659 53.46V34.7524H353.173V53.7329C353.173 55.4686 352.886 57.0223 352.312 58.394C351.752 59.7518 350.968 60.8646 349.96 61.7324C348.953 62.6003 347.777 63.2581 346.433 63.7061C345.089 64.154 343.62 64.3779 342.024 64.3779C340.414 64.3779 338.938 64.154 337.594 63.7061C336.25 63.2581 335.074 62.6003 334.066 61.7324C333.073 60.8646 332.296 59.7518 331.736 58.394C331.176 57.0223 330.896 55.4686 330.896 53.7329ZM360.039 64V34.7524H369.844C371.383 34.7524 372.783 34.9414 374.043 35.3193C375.317 35.6833 376.437 36.2362 377.402 36.978C378.368 37.7199 379.117 38.6927 379.649 39.8965C380.195 41.1003 380.468 42.486 380.468 44.0537C380.468 46.1673 379.936 47.931 378.872 49.3447C377.822 50.7585 376.374 51.7873 374.526 52.4312L381.413 64H376.206L369.886 53.166H364.595V64H360.039ZM364.595 49.3447H369.676C373.749 49.3447 375.786 47.5811 375.786 44.0537C375.786 40.5264 373.749 38.7627 369.676 38.7627H364.595V49.3447ZM384.037 64L396.551 34.4585H397.076L409.883 64H405.159L403.018 58.667H390.588L388.425 64H384.037ZM392.121 54.8877H401.38L398.188 46.9302C397.993 46.4543 397.776 45.8734 397.538 45.1875C397.314 44.5016 397.125 43.9277 396.971 43.4658C396.831 42.9899 396.754 42.71 396.74 42.626C396.74 42.64 396.705 42.752 396.635 42.9619C396.579 43.1579 396.502 43.4098 396.404 43.7178C396.32 44.0257 396.222 44.3617 396.11 44.7256C395.998 45.0755 395.865 45.4535 395.711 45.8594C395.571 46.2653 395.438 46.6222 395.312 46.9302L392.121 54.8877ZM414.67 64V34.7524H419.227V60.0107H432.727V64H414.67Z" fill="white"/>
<path d="M54.0708 94.1953C52.4676 94.1953 51.0028 93.8332 49.6763 93.1089C48.3579 92.3765 47.3081 91.3429 46.5269 90.0083C45.7456 88.6737 45.355 87.1722 45.355 85.5039C45.355 83.8356 45.7456 82.3341 46.5269 80.9995C47.3081 79.6567 48.362 78.6232 49.6885 77.8989C51.015 77.1665 52.4757 76.8003 54.0708 76.8003C57.0981 76.8003 59.3483 77.8989 60.8213 80.0962L59.4541 81.0972C58.8844 80.259 58.1439 79.6038 57.2324 79.1318C56.321 78.6598 55.2671 78.4238 54.0708 78.4238C52.7606 78.4238 51.5806 78.7331 50.5308 79.3516C49.4891 79.9619 48.6753 80.8083 48.0894 81.8906C47.5116 82.9648 47.2227 84.1693 47.2227 85.5039C47.2227 86.5049 47.3936 87.4448 47.7354 88.3237C48.0771 89.1945 48.5492 89.9432 49.1514 90.5698C49.7536 91.1883 50.4779 91.6766 51.3242 92.0347C52.1787 92.3927 53.0942 92.5718 54.0708 92.5718C55.2834 92.5718 56.3617 92.3236 57.3057 91.8271C58.2578 91.3307 59.0472 90.6309 59.6738 89.7275L61.0776 90.7041C60.3208 91.819 59.3402 92.6816 58.1357 93.292C56.9313 93.8942 55.5763 94.1953 54.0708 94.1953ZM64.5444 94V76.9956H66.3633V94H64.5444ZM83.9536 94.1709L73.8096 82.1714C73.6061 81.9354 73.3701 81.6383 73.1016 81.2803C72.833 80.9222 72.6743 80.7025 72.6255 80.6211C72.6255 80.6455 72.6377 80.7716 72.6621 80.9995C72.6947 81.2274 72.7231 81.4919 72.7476 81.793C72.772 82.0859 72.7842 82.3301 72.7842 82.5254V94H71.0752V76.8247H71.3804L81.5366 88.8242C81.6424 88.9463 81.7645 89.1009 81.9028 89.2881C82.0412 89.4753 82.1592 89.6421 82.2568 89.7886C82.3626 89.9269 82.4603 90.0612 82.5498 90.1914C82.6475 90.3216 82.7004 90.3908 82.7085 90.3989L82.6719 90.0693C82.6556 89.8415 82.6353 89.5729 82.6108 89.2637C82.5946 88.9463 82.5864 88.6818 82.5864 88.4702V76.9956H84.2588V94.1709H83.9536ZM88.8975 94V76.9956H99.249V78.5947H90.7041V84.6738H98.3335V86.2485H90.7041V92.4009H99.603V94H88.8975ZM102.423 96.7954L103.399 94.0244C103.131 93.9349 102.911 93.7843 102.74 93.5728C102.577 93.353 102.496 93.0967 102.496 92.8037C102.496 92.4375 102.634 92.1201 102.911 91.8516C103.188 91.583 103.501 91.4487 103.851 91.4487C104.217 91.4487 104.531 91.583 104.791 91.8516C105.06 92.112 105.194 92.4294 105.194 92.8037C105.194 93.0967 105.096 93.4303 104.901 93.8047L103.399 96.7954H102.423ZM114.63 94V76.9956H124.981V78.5947H116.437V84.6738H124.066V86.2485H116.437V92.4009H125.335V94H114.63ZM127.887 94L133.709 84.7471L128.814 76.9956H130.865L134.234 82.3057C134.316 82.4359 134.401 82.5986 134.491 82.7939C134.588 82.9893 134.662 83.152 134.71 83.2822L134.784 83.4775C134.946 82.9811 135.121 82.5905 135.309 82.3057L138.666 76.9956H140.643L135.76 84.7471L141.632 94H139.593L135.26 87.2007C134.942 86.6717 134.751 86.2811 134.686 86.0288C134.678 86.0369 134.645 86.1061 134.588 86.2363C134.54 86.3665 134.474 86.5293 134.393 86.7246C134.312 86.9199 134.234 87.0786 134.161 87.2007L129.864 94H127.887ZM145.001 94V76.9956H149.981C151.845 76.9956 153.318 77.4473 154.4 78.3506C155.491 79.2458 156.036 80.5519 156.036 82.269C156.036 83.9618 155.491 85.2679 154.4 86.1875C153.318 87.099 151.845 87.5547 149.981 87.5547H146.808V94H145.001ZM146.808 85.9556H149.884C151.308 85.9556 152.378 85.6463 153.094 85.0278C153.819 84.4012 154.181 83.4816 154.181 82.269C154.181 79.8195 152.748 78.5947 149.884 78.5947H146.808V85.9556ZM167.303 94.1953C165.7 94.1953 164.235 93.8332 162.909 93.1089C161.59 92.3765 160.541 91.3429 159.759 90.0083C158.978 88.6737 158.587 87.1722 158.587 85.5039C158.587 83.8356 158.978 82.3341 159.759 80.9995C160.541 79.6567 161.594 78.6232 162.921 77.8989C164.247 77.1665 165.708 76.8003 167.303 76.8003C168.906 76.8003 170.371 77.1665 171.698 77.8989C173.032 78.6232 174.09 79.6567 174.872 80.9995C175.661 82.3341 176.056 83.8356 176.056 85.5039C176.056 87.1722 175.661 88.6737 174.872 90.0083C174.09 91.3429 173.036 92.3765 171.71 93.1089C170.383 93.8332 168.915 94.1953 167.303 94.1953ZM167.303 92.5718C169.289 92.5718 170.933 91.9004 172.235 90.5576C173.537 89.2148 174.188 87.5303 174.188 85.5039C174.188 84.1693 173.891 82.9648 173.297 81.8906C172.711 80.8083 171.893 79.9619 170.843 79.3516C169.793 78.7331 168.613 78.4238 167.303 78.4238C165.334 78.4238 163.698 79.0952 162.396 80.438C161.102 81.7808 160.455 83.4694 160.455 85.5039C160.455 86.5049 160.626 87.4448 160.968 88.3237C161.318 89.1945 161.794 89.9432 162.396 90.5698C162.998 91.1883 163.722 91.6766 164.569 92.0347C165.415 92.3927 166.327 92.5718 167.303 92.5718ZM183.807 94.1953C183.026 94.1953 182.306 94.1017 181.646 93.9146C180.987 93.7274 180.422 93.471 179.95 93.1455C179.478 92.8118 179.071 92.4497 178.729 92.0591C178.395 91.6685 178.111 91.2331 177.875 90.7529L179.376 89.9473C179.596 90.3379 179.828 90.6797 180.072 90.9727C180.316 91.2656 180.609 91.5423 180.951 91.8027C181.301 92.055 181.712 92.2503 182.184 92.3887C182.656 92.527 183.181 92.5962 183.758 92.5962C184.776 92.5962 185.614 92.3358 186.273 91.8149C186.94 91.286 187.274 90.582 187.274 89.7031C187.274 88.8812 187.022 88.2098 186.517 87.689C186.021 87.1681 185.207 86.6554 184.076 86.1509L182.733 85.5283C181.87 85.1377 181.179 84.7471 180.658 84.3564C180.145 83.9658 179.738 83.4816 179.437 82.9038C179.136 82.326 178.985 81.6506 178.985 80.8774C178.985 79.6649 179.404 78.6842 180.243 77.9355C181.089 77.1787 182.159 76.8003 183.453 76.8003C185.496 76.8003 187.03 77.6507 188.055 79.3516L186.603 80.2549C186.244 79.6689 185.817 79.2132 185.321 78.8877C184.824 78.5622 184.202 78.3994 183.453 78.3994C182.623 78.3994 181.964 78.6232 181.476 79.0708C180.995 79.5103 180.755 80.0962 180.755 80.8286C180.755 81.5529 180.955 82.1266 181.354 82.5498C181.752 82.973 182.452 83.4165 183.453 83.8804L184.808 84.5029C186.281 85.154 187.359 85.8783 188.043 86.6758C188.735 87.4652 189.081 88.4743 189.081 89.7031C189.081 91.0785 188.588 92.173 187.604 92.9868C186.627 93.7925 185.361 94.1953 183.807 94.1953ZM191.534 96.7954L192.511 94.0244C192.242 93.9349 192.022 93.7843 191.852 93.5728C191.689 93.353 191.607 93.0967 191.607 92.8037C191.607 92.4375 191.746 92.1201 192.022 91.8516C192.299 91.583 192.612 91.4487 192.962 91.4487C193.329 91.4487 193.642 91.583 193.902 91.8516C194.171 92.112 194.305 92.4294 194.305 92.8037C194.305 93.0967 194.208 93.4303 194.012 93.8047L192.511 96.7954H191.534ZM211.493 94.1953C209.889 94.1953 208.425 93.8332 207.098 93.1089C205.78 92.3765 204.73 91.3429 203.949 90.0083C203.167 88.6737 202.777 87.1722 202.777 85.5039C202.777 83.8356 203.167 82.3341 203.949 80.9995C204.73 79.6567 205.784 78.6232 207.11 77.8989C208.437 77.1665 209.898 76.8003 211.493 76.8003C214.52 76.8003 216.77 77.8989 218.243 80.0962L216.876 81.0972C216.306 80.259 215.566 79.6038 214.654 79.1318C213.743 78.6598 212.689 78.4238 211.493 78.4238C210.182 78.4238 209.002 78.7331 207.953 79.3516C206.911 79.9619 206.097 80.8083 205.511 81.8906C204.933 82.9648 204.645 84.1693 204.645 85.5039C204.645 86.5049 204.815 87.4448 205.157 88.3237C205.499 89.1945 205.971 89.9432 206.573 90.5698C207.175 91.1883 207.9 91.6766 208.746 92.0347C209.601 92.3927 210.516 92.5718 211.493 92.5718C212.705 92.5718 213.784 92.3236 214.728 91.8271C215.68 91.3307 216.469 90.6309 217.096 89.7275L218.5 90.7041C217.743 91.819 216.762 92.6816 215.558 93.292C214.353 93.8942 212.998 94.1953 211.493 94.1953ZM229.51 94.1953C227.907 94.1953 226.442 93.8332 225.116 93.1089C223.797 92.3765 222.748 91.3429 221.966 90.0083C221.185 88.6737 220.794 87.1722 220.794 85.5039C220.794 83.8356 221.185 82.3341 221.966 80.9995C222.748 79.6567 223.801 78.6232 225.128 77.8989C226.454 77.1665 227.915 76.8003 229.51 76.8003C231.113 76.8003 232.578 77.1665 233.905 77.8989C235.239 78.6232 236.297 79.6567 237.079 80.9995C237.868 82.3341 238.263 83.8356 238.263 85.5039C238.263 87.1722 237.868 88.6737 237.079 90.0083C236.297 91.3429 235.243 92.3765 233.917 93.1089C232.59 93.8332 231.122 94.1953 229.51 94.1953ZM229.51 92.5718C231.496 92.5718 233.14 91.9004 234.442 90.5576C235.744 89.2148 236.395 87.5303 236.395 85.5039C236.395 84.1693 236.098 82.9648 235.504 81.8906C234.918 80.8083 234.1 79.9619 233.05 79.3516C232 78.7331 230.82 78.4238 229.51 78.4238C227.541 78.4238 225.905 79.0952 224.603 80.438C223.309 81.7808 222.662 83.4694 222.662 85.5039C222.662 86.5049 222.833 87.4448 223.175 88.3237C223.525 89.1945 224.001 89.9432 224.603 90.5698C225.205 91.1883 225.93 91.6766 226.776 92.0347C227.622 92.3927 228.534 92.5718 229.51 92.5718ZM254.803 94.1709L244.659 82.1714C244.456 81.9354 244.22 81.6383 243.951 81.2803C243.683 80.9222 243.524 80.7025 243.475 80.6211C243.475 80.6455 243.487 80.7716 243.512 80.9995C243.544 81.2274 243.573 81.4919 243.597 81.793C243.622 82.0859 243.634 82.3301 243.634 82.5254V94H241.925V76.8247H242.23L252.386 88.8242C252.492 88.9463 252.614 89.1009 252.752 89.2881C252.891 89.4753 253.009 89.6421 253.106 89.7886C253.212 89.9269 253.31 90.0612 253.399 90.1914C253.497 90.3216 253.55 90.3908 253.558 90.3989L253.521 90.0693C253.505 89.8415 253.485 89.5729 253.46 89.2637C253.444 88.9463 253.436 88.6818 253.436 88.4702V76.9956H255.108V94.1709H254.803ZM267.499 94.1953C265.895 94.1953 264.431 93.8332 263.104 93.1089C261.786 92.3765 260.736 91.3429 259.955 90.0083C259.173 88.6737 258.783 87.1722 258.783 85.5039C258.783 83.8356 259.173 82.3341 259.955 80.9995C260.736 79.6567 261.79 78.6232 263.116 77.8989C264.443 77.1665 265.903 76.8003 267.499 76.8003C270.526 76.8003 272.776 77.8989 274.249 80.0962L272.882 81.0972C272.312 80.259 271.572 79.6038 270.66 79.1318C269.749 78.6598 268.695 78.4238 267.499 78.4238C266.188 78.4238 265.008 78.7331 263.958 79.3516C262.917 79.9619 262.103 80.8083 261.517 81.8906C260.939 82.9648 260.65 84.1693 260.65 85.5039C260.65 86.5049 260.821 87.4448 261.163 88.3237C261.505 89.1945 261.977 89.9432 262.579 90.5698C263.181 91.1883 263.906 91.6766 264.752 92.0347C265.606 92.3927 266.522 92.5718 267.499 92.5718C268.711 92.5718 269.789 92.3236 270.733 91.8271C271.686 91.3307 272.475 90.6309 273.102 89.7275L274.505 90.7041C273.749 91.819 272.768 92.6816 271.563 93.292C270.359 93.8942 269.004 94.1953 267.499 94.1953ZM277.972 94V76.9956H279.791V94H277.972ZM284.503 94V76.9956H294.854V78.5947H286.31V84.6738H293.939V86.2485H286.31V92.4009H295.208V94H284.503ZM299.005 94V76.9956H304.107C305.955 76.9956 307.424 77.4351 308.514 78.314C309.613 79.1929 310.162 80.4868 310.162 82.1958C310.162 83.4246 309.845 84.45 309.21 85.272C308.583 86.0858 307.708 86.6636 306.585 87.0054L310.736 94H308.612L304.706 87.2983C304.543 87.3146 304.278 87.3228 303.912 87.3228H300.812V94H299.005ZM300.812 85.7725H304.01C305.41 85.7725 306.472 85.4754 307.196 84.8813C307.92 84.2791 308.282 83.384 308.282 82.1958C308.282 79.7951 306.858 78.5947 304.01 78.5947H300.812V85.7725ZM317.413 94V78.5947H312.188V76.9956H324.432V78.5947H319.208V94H317.413ZM334.32 94.1953C332.717 94.1953 331.252 93.8332 329.925 93.1089C328.607 92.3765 327.557 91.3429 326.776 90.0083C325.995 88.6737 325.604 87.1722 325.604 85.5039C325.604 83.8356 325.995 82.3341 326.776 80.9995C327.557 79.6567 328.611 78.6232 329.938 77.8989C331.264 77.1665 332.725 76.8003 334.32 76.8003C335.923 76.8003 337.388 77.1665 338.714 77.8989C340.049 78.6232 341.107 79.6567 341.888 80.9995C342.678 82.3341 343.072 83.8356 343.072 85.5039C343.072 87.1722 342.678 88.6737 341.888 90.0083C341.107 91.3429 340.053 92.3765 338.727 93.1089C337.4 93.8332 335.931 94.1953 334.32 94.1953ZM334.32 92.5718C336.306 92.5718 337.949 91.9004 339.251 90.5576C340.554 89.2148 341.205 87.5303 341.205 85.5039C341.205 84.1693 340.908 82.9648 340.313 81.8906C339.728 80.8083 338.91 79.9619 337.86 79.3516C336.81 78.7331 335.63 78.4238 334.32 78.4238C332.35 78.4238 330.715 79.0952 329.413 80.438C328.119 81.7808 327.472 83.4694 327.472 85.5039C327.472 86.5049 327.643 87.4448 327.984 88.3237C328.334 89.1945 328.81 89.9432 329.413 90.5698C330.015 91.1883 330.739 91.6766 331.585 92.0347C332.432 92.3927 333.343 92.5718 334.32 92.5718ZM350.824 94.1953C350.042 94.1953 349.322 94.1017 348.663 93.9146C348.004 93.7274 347.438 93.471 346.966 93.1455C346.494 92.8118 346.087 92.4497 345.746 92.0591C345.412 91.6685 345.127 91.2331 344.891 90.7529L346.393 89.9473C346.612 90.3379 346.844 90.6797 347.088 90.9727C347.333 91.2656 347.625 91.5423 347.967 91.8027C348.317 92.055 348.728 92.2503 349.2 92.3887C349.672 92.527 350.197 92.5962 350.775 92.5962C351.792 92.5962 352.63 92.3358 353.29 91.8149C353.957 91.286 354.291 90.582 354.291 89.7031C354.291 88.8812 354.038 88.2098 353.534 87.689C353.037 87.1681 352.223 86.6554 351.092 86.1509L349.75 85.5283C348.887 85.1377 348.195 84.7471 347.674 84.3564C347.162 83.9658 346.755 83.4816 346.454 82.9038C346.153 82.326 346.002 81.6506 346.002 80.8774C346.002 79.6649 346.421 78.6842 347.259 77.9355C348.106 77.1787 349.176 76.8003 350.47 76.8003C352.512 76.8003 354.046 77.6507 355.072 79.3516L353.619 80.2549C353.261 79.6689 352.834 79.2132 352.337 78.8877C351.841 78.5622 351.218 78.3994 350.47 78.3994C349.64 78.3994 348.98 78.6232 348.492 79.0708C348.012 79.5103 347.772 80.0962 347.772 80.8286C347.772 81.5529 347.971 82.1266 348.37 82.5498C348.769 82.973 349.469 83.4165 350.47 83.8804L351.825 84.5029C353.298 85.154 354.376 85.8783 355.06 86.6758C355.751 87.4652 356.097 88.4743 356.097 89.7031C356.097 91.0785 355.605 92.173 354.62 92.9868C353.644 93.7925 352.378 94.1953 350.824 94.1953ZM358.551 96.7954L359.527 94.0244C359.259 93.9349 359.039 93.7843 358.868 93.5728C358.705 93.353 358.624 93.0967 358.624 92.8037C358.624 92.4375 358.762 92.1201 359.039 91.8516C359.316 91.583 359.629 91.4487 359.979 91.4487C360.345 91.4487 360.659 91.583 360.919 91.8516C361.188 92.112 361.322 92.4294 361.322 92.8037C361.322 93.0967 361.224 93.4303 361.029 93.8047L359.527 96.7954H358.551ZM50.0547 125V109.595H44.8301V107.996H57.0737V109.595H51.8491V125H50.0547ZM60.2109 125V107.996H70.5625V109.595H62.0176V115.674H69.647V117.249H62.0176V123.401H70.9165V125H60.2109ZM77.2397 119.629H83.7949L81.1704 113.123C81.0728 112.878 80.971 112.594 80.8652 112.268C80.7594 111.934 80.674 111.662 80.6089 111.45C80.5519 111.239 80.5234 111.121 80.5234 111.096C80.5234 111.104 80.4868 111.222 80.4136 111.45C80.3485 111.67 80.259 111.943 80.145 112.268C80.0392 112.594 79.9375 112.87 79.8398 113.098L77.2397 119.629ZM73.3213 125L80.3647 107.825H80.6699L87.8721 125H85.9678L84.4175 121.179H76.6172L75.0913 125H73.3213ZM92.8281 125V109.595H87.6035V107.996H99.8472V109.595H94.6226V125H92.8281ZM102.984 125V107.996H108.087C109.934 107.996 111.403 108.435 112.494 109.314C113.592 110.193 114.142 111.487 114.142 113.196C114.142 114.425 113.824 115.45 113.189 116.272C112.563 117.086 111.688 117.664 110.565 118.005L114.715 125H112.591L108.685 118.298C108.522 118.315 108.258 118.323 107.892 118.323H104.791V125H102.984ZM104.791 116.772H107.989C109.389 116.772 110.451 116.475 111.175 115.881C111.9 115.279 112.262 114.384 112.262 113.196C112.262 110.795 110.838 109.595 107.989 109.595H104.791V116.772ZM125.921 125.195C124.318 125.195 122.853 124.833 121.527 124.109C120.208 123.376 119.159 122.343 118.377 121.008C117.596 119.674 117.206 118.172 117.206 116.504C117.206 114.836 117.596 113.334 118.377 112C119.159 110.657 120.213 109.623 121.539 108.899C122.866 108.167 124.326 107.8 125.921 107.8C127.525 107.8 128.989 108.167 130.316 108.899C131.651 109.623 132.708 110.657 133.49 112C134.279 113.334 134.674 114.836 134.674 116.504C134.674 118.172 134.279 119.674 133.49 121.008C132.708 122.343 131.655 123.376 130.328 124.109C129.002 124.833 127.533 125.195 125.921 125.195ZM125.921 123.572C127.907 123.572 129.551 122.9 130.853 121.558C132.155 120.215 132.806 118.53 132.806 116.504C132.806 115.169 132.509 113.965 131.915 112.891C131.329 111.808 130.511 110.962 129.461 110.352C128.412 109.733 127.232 109.424 125.921 109.424C123.952 109.424 122.316 110.095 121.014 111.438C119.72 112.781 119.073 114.469 119.073 116.504C119.073 117.505 119.244 118.445 119.586 119.324C119.936 120.194 120.412 120.943 121.014 121.57C121.616 122.188 122.341 122.677 123.187 123.035C124.033 123.393 124.945 123.572 125.921 123.572ZM142.425 125.195C141.644 125.195 140.924 125.102 140.265 124.915C139.605 124.727 139.04 124.471 138.568 124.146C138.096 123.812 137.689 123.45 137.347 123.059C137.014 122.668 136.729 122.233 136.493 121.753L137.994 120.947C138.214 121.338 138.446 121.68 138.69 121.973C138.934 122.266 139.227 122.542 139.569 122.803C139.919 123.055 140.33 123.25 140.802 123.389C141.274 123.527 141.799 123.596 142.376 123.596C143.394 123.596 144.232 123.336 144.891 122.815C145.558 122.286 145.892 121.582 145.892 120.703C145.892 119.881 145.64 119.21 145.135 118.689C144.639 118.168 143.825 117.655 142.694 117.151L141.351 116.528C140.488 116.138 139.797 115.747 139.276 115.356C138.763 114.966 138.356 114.482 138.055 113.904C137.754 113.326 137.604 112.651 137.604 111.877C137.604 110.665 138.023 109.684 138.861 108.936C139.707 108.179 140.777 107.8 142.071 107.8C144.114 107.8 145.648 108.651 146.673 110.352L145.221 111.255C144.863 110.669 144.435 110.213 143.939 109.888C143.443 109.562 142.82 109.399 142.071 109.399C141.241 109.399 140.582 109.623 140.094 110.071C139.614 110.51 139.374 111.096 139.374 111.829C139.374 112.553 139.573 113.127 139.972 113.55C140.37 113.973 141.07 114.417 142.071 114.88L143.426 115.503C144.899 116.154 145.978 116.878 146.661 117.676C147.353 118.465 147.699 119.474 147.699 120.703C147.699 122.078 147.206 123.173 146.222 123.987C145.245 124.792 143.98 125.195 142.425 125.195ZM150.152 127.795L151.129 125.024C150.86 124.935 150.641 124.784 150.47 124.573C150.307 124.353 150.226 124.097 150.226 123.804C150.226 123.438 150.364 123.12 150.641 122.852C150.917 122.583 151.231 122.449 151.581 122.449C151.947 122.449 152.26 122.583 152.521 122.852C152.789 123.112 152.923 123.429 152.923 123.804C152.923 124.097 152.826 124.43 152.63 124.805L151.129 127.795H150.152ZM162.359 125V107.996H172.589V109.595H164.166V116.101H171.82V117.725H164.166V125H162.359ZM176.251 125V107.996H186.603V109.595H178.058V115.674H185.687V117.249H178.058V123.401H186.957V125H176.251ZM190.753 125V107.996H195.855C197.703 107.996 199.172 108.435 200.262 109.314C201.361 110.193 201.91 111.487 201.91 113.196C201.91 114.425 201.593 115.45 200.958 116.272C200.331 117.086 199.457 117.664 198.333 118.005L202.484 125H200.36L196.454 118.298C196.291 118.315 196.026 118.323 195.66 118.323H192.56V125H190.753ZM192.56 116.772H195.758C197.158 116.772 198.22 116.475 198.944 115.881C199.668 115.279 200.03 114.384 200.03 113.196C200.03 110.795 198.606 109.595 195.758 109.595H192.56V116.772ZM206.024 125V107.996H207.843V125H206.024ZM215.082 119.629H221.637L219.012 113.123C218.915 112.878 218.813 112.594 218.707 112.268C218.601 111.934 218.516 111.662 218.451 111.45C218.394 111.239 218.365 111.121 218.365 111.096C218.365 111.104 218.329 111.222 218.255 111.45C218.19 111.67 218.101 111.943 217.987 112.268C217.881 112.594 217.779 112.87 217.682 113.098L215.082 119.629ZM211.163 125L218.207 107.825H218.512L225.714 125H223.81L222.259 121.179H214.459L212.933 125H211.163ZM233.27 125.195C232.489 125.195 231.769 125.102 231.109 124.915C230.45 124.727 229.885 124.471 229.413 124.146C228.941 123.812 228.534 123.45 228.192 123.059C227.858 122.668 227.573 122.233 227.337 121.753L228.839 120.947C229.059 121.338 229.291 121.68 229.535 121.973C229.779 122.266 230.072 122.542 230.414 122.803C230.764 123.055 231.174 123.25 231.646 123.389C232.118 123.527 232.643 123.596 233.221 123.596C234.238 123.596 235.077 123.336 235.736 122.815C236.403 122.286 236.737 121.582 236.737 120.703C236.737 119.881 236.485 119.21 235.98 118.689C235.484 118.168 234.67 117.655 233.539 117.151L232.196 116.528C231.333 116.138 230.641 115.747 230.121 115.356C229.608 114.966 229.201 114.482 228.9 113.904C228.599 113.326 228.448 112.651 228.448 111.877C228.448 110.665 228.867 109.684 229.706 108.936C230.552 108.179 231.622 107.8 232.916 107.8C234.959 107.8 236.493 108.651 237.518 110.352L236.065 111.255C235.707 110.669 235.28 110.213 234.784 109.888C234.287 109.562 233.665 109.399 232.916 109.399C232.086 109.399 231.427 109.623 230.938 110.071C230.458 110.51 230.218 111.096 230.218 111.829C230.218 112.553 230.418 113.127 230.816 113.55C231.215 113.973 231.915 114.417 232.916 114.88L234.271 115.503C235.744 116.154 236.822 116.878 237.506 117.676C238.198 118.465 238.543 119.474 238.543 120.703C238.543 122.078 238.051 123.173 237.066 123.987C236.09 124.792 234.824 125.195 233.27 125.195ZM240.997 127.795L241.974 125.024C241.705 124.935 241.485 124.784 241.314 124.573C241.152 124.353 241.07 124.097 241.07 123.804C241.07 123.438 241.209 123.12 241.485 122.852C241.762 122.583 242.075 122.449 242.425 122.449C242.792 122.449 243.105 122.583 243.365 122.852C243.634 123.112 243.768 123.429 243.768 123.804C243.768 124.097 243.67 124.43 243.475 124.805L241.974 127.795H240.997ZM253.204 125V107.8H253.46L261.358 117.676L269.208 107.8H269.488V125H267.73V113.77C267.73 113.55 267.735 113.285 267.743 112.976C267.759 112.667 267.771 112.402 267.779 112.183L267.804 111.853C267.796 111.861 267.726 111.967 267.596 112.17C267.474 112.366 267.315 112.606 267.12 112.891C266.933 113.175 266.762 113.411 266.607 113.599L261.456 120.105H261.163L256.085 113.599C255.93 113.411 255.751 113.18 255.548 112.903C255.353 112.626 255.194 112.394 255.072 112.207C254.958 112.012 254.889 111.894 254.864 111.853L254.876 111.987C254.885 112.077 254.893 112.191 254.901 112.329C254.909 112.467 254.917 112.618 254.925 112.781C254.933 112.935 254.942 113.106 254.95 113.293C254.958 113.472 254.962 113.631 254.962 113.77V125H253.204ZM274.127 125V107.996H284.479V109.595H275.934V115.674H283.563V117.249H275.934V123.401H284.833V125H274.127ZM288.629 125V107.996H293.731C295.579 107.996 297.048 108.435 298.138 109.314C299.237 110.193 299.786 111.487 299.786 113.196C299.786 114.425 299.469 115.45 298.834 116.272C298.207 117.086 297.333 117.664 296.209 118.005L300.36 125H298.236L294.33 118.298C294.167 118.315 293.902 118.323 293.536 118.323H290.436V125H288.629ZM290.436 116.772H293.634C295.034 116.772 296.096 116.475 296.82 115.881C297.544 115.279 297.906 114.384 297.906 113.196C297.906 110.795 296.482 109.595 293.634 109.595H290.436V116.772ZM311.566 125.195C309.963 125.195 308.498 124.833 307.171 124.109C305.853 123.376 304.803 122.343 304.022 121.008C303.241 119.674 302.85 118.172 302.85 116.504C302.85 114.836 303.241 113.334 304.022 112C304.803 110.657 305.857 109.623 307.184 108.899C308.51 108.167 309.971 107.8 311.566 107.8C314.593 107.8 316.843 108.899 318.316 111.096L316.949 112.097C316.38 111.259 315.639 110.604 314.728 110.132C313.816 109.66 312.762 109.424 311.566 109.424C310.256 109.424 309.076 109.733 308.026 110.352C306.984 110.962 306.17 111.808 305.584 112.891C305.007 113.965 304.718 115.169 304.718 116.504C304.718 117.505 304.889 118.445 305.23 119.324C305.572 120.194 306.044 120.943 306.646 121.57C307.249 122.188 307.973 122.677 308.819 123.035C309.674 123.393 310.589 123.572 311.566 123.572C312.778 123.572 313.857 123.324 314.801 122.827C315.753 122.331 316.542 121.631 317.169 120.728L318.573 121.704C317.816 122.819 316.835 123.682 315.631 124.292C314.426 124.894 313.071 125.195 311.566 125.195ZM324.09 119.629H330.646L328.021 113.123C327.923 112.878 327.822 112.594 327.716 112.268C327.61 111.934 327.525 111.662 327.459 111.45C327.403 111.239 327.374 111.121 327.374 111.096C327.374 111.104 327.337 111.222 327.264 111.45C327.199 111.67 327.11 111.943 326.996 112.268C326.89 112.594 326.788 112.87 326.69 113.098L324.09 119.629ZM320.172 125L327.215 107.825H327.521L334.723 125H332.818L331.268 121.179H323.468L321.942 125H320.172ZM337.945 125V107.996H342.071C344.895 107.996 347.133 108.769 348.785 110.315C350.445 111.853 351.275 113.916 351.275 116.504C351.275 119.092 350.449 121.155 348.797 122.693C347.145 124.231 344.903 125 342.071 125H337.945ZM339.752 123.376H341.949C343.178 123.376 344.269 123.21 345.221 122.876C346.173 122.542 346.95 122.07 347.552 121.46C348.154 120.85 348.606 120.129 348.907 119.299C349.216 118.461 349.371 117.529 349.371 116.504C349.371 114.404 348.74 112.732 347.479 111.487C346.226 110.242 344.382 109.619 341.949 109.619H339.752V123.376ZM362.689 125.195C361.086 125.195 359.621 124.833 358.294 124.109C356.976 123.376 355.926 122.343 355.145 121.008C354.364 119.674 353.973 118.172 353.973 116.504C353.973 114.836 354.364 113.334 355.145 112C355.926 110.657 356.98 109.623 358.307 108.899C359.633 108.167 361.094 107.8 362.689 107.8C364.292 107.8 365.757 108.167 367.083 108.899C368.418 109.623 369.476 110.657 370.257 112C371.047 113.334 371.441 114.836 371.441 116.504C371.441 118.172 371.047 119.674 370.257 121.008C369.476 122.343 368.422 123.376 367.096 124.109C365.769 124.833 364.3 125.195 362.689 125.195ZM362.689 123.572C364.675 123.572 366.319 122.9 367.621 121.558C368.923 120.215 369.574 118.53 369.574 116.504C369.574 115.169 369.277 113.965 368.683 112.891C368.097 111.808 367.279 110.962 366.229 110.352C365.179 109.733 363.999 109.424 362.689 109.424C360.72 109.424 359.084 110.095 357.782 111.438C356.488 112.781 355.841 114.469 355.841 116.504C355.841 117.505 356.012 118.445 356.354 119.324C356.703 120.194 357.18 120.943 357.782 121.57C358.384 122.188 359.108 122.677 359.955 123.035C360.801 123.393 361.712 123.572 362.689 123.572ZM379.193 125.195C378.412 125.195 377.691 125.102 377.032 124.915C376.373 124.727 375.807 124.471 375.335 124.146C374.863 123.812 374.457 123.45 374.115 123.059C373.781 122.668 373.496 122.233 373.26 121.753L374.762 120.947C374.981 121.338 375.213 121.68 375.458 121.973C375.702 122.266 375.995 122.542 376.336 122.803C376.686 123.055 377.097 123.25 377.569 123.389C378.041 123.527 378.566 123.596 379.144 123.596C380.161 123.596 381 123.336 381.659 122.815C382.326 122.286 382.66 121.582 382.66 120.703C382.66 119.881 382.407 119.21 381.903 118.689C381.406 118.168 380.593 117.655 379.461 117.151L378.119 116.528C377.256 116.138 376.564 115.747 376.043 115.356C375.531 114.966 375.124 114.482 374.823 113.904C374.522 113.326 374.371 112.651 374.371 111.877C374.371 110.665 374.79 109.684 375.628 108.936C376.475 108.179 377.545 107.8 378.839 107.8C380.882 107.8 382.416 108.651 383.441 110.352L381.988 111.255C381.63 110.669 381.203 110.213 380.707 109.888C380.21 109.562 379.588 109.399 378.839 109.399C378.009 109.399 377.35 109.623 376.861 110.071C376.381 110.51 376.141 111.096 376.141 111.829C376.141 112.553 376.34 113.127 376.739 113.55C377.138 113.973 377.838 114.417 378.839 114.88L380.194 115.503C381.667 116.154 382.745 116.878 383.429 117.676C384.12 118.465 384.466 119.474 384.466 120.703C384.466 122.078 383.974 123.173 382.989 123.987C382.013 124.792 380.747 125.195 379.193 125.195ZM398.529 125V118.75L392.608 107.996H394.659L398.749 115.527C398.854 115.715 398.964 115.946 399.078 116.223C399.192 116.492 399.286 116.728 399.359 116.931C399.432 117.126 399.473 117.232 399.481 117.249C399.489 117.2 399.526 117.086 399.591 116.907C399.656 116.728 399.745 116.504 399.859 116.235C399.981 115.959 400.095 115.723 400.201 115.527L404.278 107.996H406.158L400.384 118.701V125H398.529ZM416.791 122.595V119.47H413.922V117.92H416.791V114.795H418.39V117.92H421.295V119.47H418.39V122.595H416.791Z" fill="white"/>
<path d="M531.195 30C525.123 30 523.051 33.1614 519.5 37.7356C515.949 33.1614 513.874 30 507.805 30C501.293 30 497 34.8241 497 42.0639C497 44.4945 497.564 47.0855 498.779 49.6764V58.0532C498.779 58.728 499.324 59.2724 499.991 59.2724C500.659 59.2724 501.204 58.7243 501.204 58.0532V53.6654C501.641 54.2432 502.112 54.8136 502.623 55.3802L507.583 60.9276V71.1012C507.583 71.7761 508.124 72.3204 508.799 72.3204C509.474 72.3204 510.011 71.7761 510.011 71.1012V63.6416L519.504 74.2701L523.763 69.5095V78.781C523.763 79.4558 524.308 80 524.979 80C525.65 80 526.191 79.4558 526.191 78.781V66.7955L532.47 59.757V68.5402C532.47 69.215 533.015 69.7592 533.686 69.7592C534.357 69.7592 534.898 69.2112 534.898 68.5402V57.0393L536.377 55.3839C540.299 51.0595 542 46.3174 542 42.0712C542 34.8315 537.708 30.0075 531.191 30.0075L531.195 30Z" fill="#EA0029"/>
<path d="M514.671 125V112.757H518.257C519.599 112.757 520.659 113.082 521.438 113.732C522.224 114.377 522.616 115.317 522.616 116.554C522.616 117.772 522.224 118.713 521.438 119.375C520.659 120.031 519.599 120.359 518.257 120.359H515.972V125H514.671ZM515.972 119.208H518.187C519.212 119.208 519.982 118.985 520.498 118.54C521.02 118.089 521.28 117.427 521.28 116.554C521.28 114.79 520.249 113.908 518.187 113.908H515.972V119.208ZM525.147 125V112.757H528.821C530.151 112.757 531.209 113.073 531.994 113.706C532.785 114.339 533.181 115.271 533.181 116.501C533.181 117.386 532.952 118.124 532.495 118.716C532.044 119.302 531.414 119.718 530.605 119.964L533.594 125H532.064L529.252 120.175C529.135 120.187 528.944 120.192 528.681 120.192H526.448V125H525.147ZM526.448 119.076H528.751C529.759 119.076 530.523 118.862 531.045 118.435C531.566 118.001 531.827 117.356 531.827 116.501C531.827 114.772 530.802 113.908 528.751 113.908H526.448V119.076ZM536.081 125V112.757H543.534V113.908H537.382V118.285H542.875V119.419H537.382V123.849H543.789V125H536.081ZM549.643 125.141C549.08 125.141 548.562 125.073 548.087 124.938C547.612 124.804 547.205 124.619 546.865 124.385C546.525 124.145 546.232 123.884 545.986 123.603C545.746 123.321 545.541 123.008 545.371 122.662L546.452 122.082C546.61 122.363 546.777 122.609 546.953 122.82C547.129 123.031 547.34 123.23 547.586 123.418C547.838 123.6 548.134 123.74 548.474 123.84C548.813 123.939 549.191 123.989 549.607 123.989C550.34 123.989 550.943 123.802 551.418 123.427C551.898 123.046 552.139 122.539 552.139 121.906C552.139 121.314 551.957 120.831 551.594 120.456C551.236 120.081 550.65 119.712 549.836 119.349L548.869 118.9C548.248 118.619 547.75 118.338 547.375 118.057C547.006 117.775 546.713 117.427 546.496 117.011C546.279 116.595 546.171 116.108 546.171 115.552C546.171 114.679 546.473 113.973 547.076 113.434C547.686 112.889 548.456 112.616 549.388 112.616C550.858 112.616 551.963 113.229 552.701 114.453L551.655 115.104C551.397 114.682 551.09 114.354 550.732 114.119C550.375 113.885 549.927 113.768 549.388 113.768C548.79 113.768 548.315 113.929 547.964 114.251C547.618 114.567 547.445 114.989 547.445 115.517C547.445 116.038 547.589 116.451 547.876 116.756C548.163 117.061 548.667 117.38 549.388 117.714L550.363 118.162C551.424 118.631 552.2 119.152 552.692 119.727C553.19 120.295 553.439 121.021 553.439 121.906C553.439 122.896 553.085 123.685 552.376 124.271C551.673 124.851 550.762 125.141 549.643 125.141ZM556.085 125V112.757H563.538V113.908H557.386V118.285H562.879V119.419H557.386V123.849H563.793V125H556.085ZM575.799 125.123L568.495 116.483C568.349 116.313 568.179 116.1 567.985 115.842C567.792 115.584 567.678 115.426 567.643 115.367C567.643 115.385 567.651 115.476 567.669 115.64C567.692 115.804 567.713 115.994 567.73 116.211C567.748 116.422 567.757 116.598 567.757 116.738V125H566.526V112.634H566.746L574.059 121.273C574.135 121.361 574.223 121.473 574.322 121.607C574.422 121.742 574.507 121.862 574.577 121.968C574.653 122.067 574.724 122.164 574.788 122.258C574.858 122.352 574.896 122.401 574.902 122.407L574.876 122.17C574.864 122.006 574.85 121.812 574.832 121.59C574.82 121.361 574.814 121.171 574.814 121.019V112.757H576.019V125.123H575.799ZM582.048 125V113.908H578.286V112.757H587.102V113.908H583.34V125H582.048ZM589.738 121.133H594.458L592.568 116.448C592.498 116.272 592.425 116.067 592.349 115.833C592.272 115.593 592.211 115.396 592.164 115.244C592.123 115.092 592.103 115.007 592.103 114.989C592.103 114.995 592.076 115.08 592.023 115.244C591.977 115.402 591.912 115.599 591.83 115.833C591.754 116.067 591.681 116.267 591.61 116.431L589.738 121.133ZM586.917 125L591.988 112.634H592.208L597.394 125H596.022L594.906 122.249H589.29L588.191 125H586.917ZM599.714 125V112.757H602.685C604.718 112.757 606.329 113.313 607.519 114.427C608.714 115.534 609.312 117.02 609.312 118.883C609.312 120.746 608.717 122.231 607.527 123.339C606.338 124.446 604.724 125 602.685 125H599.714ZM601.015 123.831H602.597C603.481 123.831 604.267 123.711 604.952 123.471C605.638 123.23 606.197 122.891 606.631 122.451C607.064 122.012 607.39 121.493 607.606 120.896C607.829 120.292 607.94 119.621 607.94 118.883C607.94 117.371 607.486 116.167 606.578 115.271C605.676 114.374 604.349 113.926 602.597 113.926H601.015V123.831ZM617.529 125.141C616.375 125.141 615.32 124.88 614.365 124.358C613.416 123.831 612.66 123.087 612.098 122.126C611.535 121.165 611.254 120.084 611.254 118.883C611.254 117.682 611.535 116.601 612.098 115.64C612.66 114.673 613.419 113.929 614.374 113.407C615.329 112.88 616.381 112.616 617.529 112.616C618.684 112.616 619.738 112.88 620.693 113.407C621.654 113.929 622.416 114.673 622.979 115.64C623.547 116.601 623.831 117.682 623.831 118.883C623.831 120.084 623.547 121.165 622.979 122.126C622.416 123.087 621.657 123.831 620.702 124.358C619.747 124.88 618.689 125.141 617.529 125.141ZM617.529 123.972C618.959 123.972 620.143 123.488 621.08 122.521C622.018 121.555 622.486 120.342 622.486 118.883C622.486 117.922 622.272 117.055 621.845 116.281C621.423 115.502 620.834 114.893 620.078 114.453C619.322 114.008 618.473 113.785 617.529 113.785C616.111 113.785 614.934 114.269 613.996 115.235C613.064 116.202 612.599 117.418 612.599 118.883C612.599 119.604 612.722 120.28 612.968 120.913C613.22 121.54 613.562 122.079 613.996 122.53C614.43 122.976 614.951 123.327 615.561 123.585C616.17 123.843 616.826 123.972 617.529 123.972ZM630.739 125V112.757H634.325C635.667 112.757 636.728 113.082 637.507 113.732C638.292 114.377 638.685 115.317 638.685 116.554C638.685 117.772 638.292 118.713 637.507 119.375C636.728 120.031 635.667 120.359 634.325 120.359H632.04V125H630.739ZM632.04 119.208H634.255C635.28 119.208 636.051 118.985 636.566 118.54C637.088 118.089 637.349 117.427 637.349 116.554C637.349 114.79 636.317 113.908 634.255 113.908H632.04V119.208ZM646.797 125.141C645.643 125.141 644.588 124.88 643.633 124.358C642.684 123.831 641.928 123.087 641.365 122.126C640.803 121.165 640.521 120.084 640.521 118.883C640.521 117.682 640.803 116.601 641.365 115.64C641.928 114.673 642.687 113.929 643.642 113.407C644.597 112.88 645.648 112.616 646.797 112.616C647.951 112.616 649.006 112.88 649.961 113.407C650.922 113.929 651.684 114.673 652.246 115.64C652.814 116.601 653.099 117.682 653.099 118.883C653.099 120.084 652.814 121.165 652.246 122.126C651.684 123.087 650.925 123.831 649.97 124.358C649.015 124.88 647.957 125.141 646.797 125.141ZM646.797 123.972C648.227 123.972 649.41 123.488 650.348 122.521C651.285 121.555 651.754 120.342 651.754 118.883C651.754 117.922 651.54 117.055 651.112 116.281C650.69 115.502 650.102 114.893 649.346 114.453C648.59 114.008 647.74 113.785 646.797 113.785C645.379 113.785 644.201 114.269 643.264 115.235C642.332 116.202 641.866 117.418 641.866 118.883C641.866 119.604 641.989 120.28 642.235 120.913C642.487 121.54 642.83 122.079 643.264 122.53C643.697 122.976 644.219 123.327 644.828 123.585C645.438 123.843 646.094 123.972 646.797 123.972ZM655.735 125V112.757H659.409C660.739 112.757 661.797 113.073 662.582 113.706C663.373 114.339 663.769 115.271 663.769 116.501C663.769 117.386 663.54 118.124 663.083 118.716C662.632 119.302 662.002 119.718 661.193 119.964L664.182 125H662.652L659.84 120.175C659.723 120.187 659.532 120.192 659.269 120.192H657.036V125H655.735ZM657.036 119.076H659.339C660.347 119.076 661.111 118.862 661.633 118.435C662.154 118.001 662.415 117.356 662.415 116.501C662.415 114.772 661.39 113.908 659.339 113.908H657.036V119.076Z" fill="white"/>
<g clip-path="url(#clip0_16_252)">
<mask id="mask0_16_252" style="mask-type:luminance" maskUnits="userSpaceOnUse" x="678" y="74" width="178" height="51">
<path d="M855.869 74.9574H678.063V124.994H855.869V74.9574Z" fill="white"/>
</mask>
<g mask="url(#mask0_16_252)">
<path d="M728.046 74.9574H678.063V124.994H728.046V74.9574Z" fill="white"/>
<path d="M726.231 76.7694H679.874V123.176H726.231V76.7694Z" fill="#014C94"/>
<path fill-rule="evenodd" clip-rule="evenodd" d="M726.231 123.176H679.874V108.955L705.362 93.7985L726.231 107.072V123.176Z" fill="#3A8245"/>
<path d="M727.328 110.938C717.845 107.355 710.957 102.194 705.869 94.94C698.832 102.985 689.289 108.417 678.783 110.353C687.184 99.5446 693.171 94.0524 697.78 88.3102C699.024 86.7598 700.492 84.9807 701.464 83.4633C716.268 87.0602 724.998 100.262 727.328 110.938Z" fill="white"/>
<path d="M707.151 114.2C704.986 111.804 705.633 108.909 707.163 107.533C708.168 106.63 712.476 106.83 714.689 109.132C715.164 109.589 715.524 110.149 715.745 110.771C715.966 111.392 716.04 112.056 715.962 112.709C715.883 113.364 715.654 113.99 715.294 114.541C714.932 115.091 714.449 115.55 713.88 115.882C712.265 116.924 709.954 117.3 707.153 114.204" fill="#F0A31F"/>
<path fill-rule="evenodd" clip-rule="evenodd" d="M756.755 107.57L746.979 84.407H742.959L733.262 107.57H736.968L739.174 102.149H750.489L752.695 107.57H756.755ZM749.503 99.6434H740.121L743.551 91.4089C744.039 90.2733 744.448 89.1027 744.771 87.9109H744.851C745.151 89.095 745.548 90.2539 746.034 91.374L749.503 99.6434Z" fill="white"/>
<path d="M781.34 85.0911C778.965 84.4322 776.513 84.0989 774.051 84.0989C765.105 84.0989 759.664 89.3469 759.664 96.4516C759.664 103.622 764.828 107.876 772.87 107.876C775.851 107.872 778.812 107.421 781.659 106.537V95.7655H778.072V104.516C776.542 104.926 774.965 105.134 773.381 105.13C767.39 105.13 763.526 101.837 763.526 96.0717C763.526 89.8973 768.217 86.8082 773.695 86.8082C776.114 86.814 778.514 87.2307 780.792 88.0427L781.34 85.0911Z" fill="white"/>
<path d="M810.015 98.719V84.4109H806.469V98.9593C806.469 103.628 804.302 105.308 799.649 105.308C794.288 105.308 793.066 102.736 793.066 99.5446V84.4109H789.44V99.783C789.44 103.899 791.096 107.915 799.413 107.915C806.349 107.915 810.015 104.787 810.015 98.719Z" fill="white"/>
<path fill-rule="evenodd" clip-rule="evenodd" d="M836.878 107.57L827.106 84.407H823.085L813.387 107.57H817.093L819.297 102.149H830.612L832.82 107.57H836.878ZM829.628 99.6434H820.246L823.676 91.4089C824.164 90.2733 824.573 89.1027 824.896 87.9109H824.976C825.276 89.095 825.671 90.2539 826.159 91.374L829.628 99.6434Z" fill="white"/>
<path d="M855.869 100.74C855.869 93.5 843.845 95.3198 843.845 90.3101C843.845 88.1493 845.739 86.7074 849.363 86.7074C850.984 86.7249 852.598 86.9303 854.171 87.3217L854.37 84.5097C852.782 84.2365 851.174 84.0989 849.563 84.0989C843.572 84.0989 840.103 86.845 840.103 90.6512C840.103 98.0272 852.087 95.969 852.087 101.184C852.087 104.033 849.445 105.165 846.255 105.165C844.395 105.14 842.549 104.851 840.771 104.306L840.576 107.33C842.338 107.702 844.136 107.884 845.937 107.876C852.123 107.876 855.869 104.892 855.869 100.74Z" fill="white"/>
<path fill-rule="evenodd" clip-rule="evenodd" d="M762.556 122.886C762.54 122.19 762.523 121.326 762.523 120.562V117.339C762.523 115.729 761.857 114.64 759.538 114.64C758.566 114.647 757.603 114.847 756.708 115.225L756.856 116.475C757.599 116.052 758.438 115.822 759.294 115.808C760.627 115.808 761.066 116.409 761.066 117.531V118.132C758.012 118.132 756.207 119.254 756.207 121.027C756.207 122.31 757.117 123.027 758.45 123.027C759.031 123.047 759.604 122.888 760.094 122.576C760.584 122.262 760.968 121.808 761.196 121.271H761.229C761.157 121.804 761.13 122.343 761.148 122.88L762.556 122.886ZM761.061 119.308C761.061 120.578 760.183 121.88 758.866 121.88C758.709 121.897 758.55 121.882 758.399 121.833C758.248 121.785 758.111 121.705 757.995 121.599C757.878 121.492 757.785 121.362 757.721 121.217C757.659 121.072 757.627 120.915 757.63 120.758C757.63 120.029 758.25 119.165 761.061 119.165V119.308Z" fill="white"/>
<path d="M775.241 122.888V117.227C775.241 115.796 774.658 114.641 772.804 114.641C772.196 114.62 771.593 114.789 771.084 115.124C770.575 115.459 770.181 115.942 769.957 116.51L769.924 116.494C770.015 115.936 770.057 115.37 770.052 114.804H768.64V122.89H770.098V119.004C770.098 117.215 771.057 115.864 772.389 115.864C773.462 115.864 773.772 116.531 773.772 117.671V122.89H775.241V122.888Z" fill="white"/>
<path fill-rule="evenodd" clip-rule="evenodd" d="M788.334 122.886V111.01H786.875V114.769C786.422 114.717 785.967 114.688 785.512 114.684C782.959 114.684 781.332 116.392 781.332 119.223C781.332 121.585 782.326 123.031 784.305 123.031C784.888 123.041 785.46 122.874 785.944 122.55C786.428 122.227 786.804 121.766 787.021 121.223L787.052 121.238C786.963 121.781 786.92 122.33 786.924 122.88L788.334 122.886ZM786.875 118.704C786.875 120.12 786.13 121.824 784.665 121.824C783.445 121.824 782.878 120.833 782.878 119.093C782.878 116.766 783.9 115.839 785.446 115.839C785.928 115.835 786.411 115.897 786.877 116.019L786.875 118.704Z" fill="white"/>
<path fill-rule="evenodd" clip-rule="evenodd" d="M796.372 112.51C796.372 112.384 796.345 112.26 796.296 112.143C796.246 112.027 796.174 111.923 796.085 111.835C795.994 111.748 795.888 111.678 795.77 111.634C795.651 111.587 795.528 111.566 795.402 111.57C795.274 111.564 795.146 111.585 795.026 111.632C794.906 111.678 794.797 111.746 794.704 111.835C794.611 111.924 794.54 112.031 794.489 112.149C794.439 112.267 794.414 112.393 794.414 112.521C794.414 112.649 794.439 112.777 794.489 112.893C794.54 113.012 794.613 113.118 794.704 113.207C794.797 113.297 794.906 113.366 795.026 113.411C795.146 113.457 795.274 113.477 795.402 113.473C795.657 113.473 795.903 113.372 796.085 113.192C796.264 113.01 796.368 112.766 796.372 112.51ZM796.13 114.802H794.666V122.888H796.13V114.802Z" fill="white"/>
<path d="M809.061 122.888V117.227C809.061 115.797 808.474 114.642 806.624 114.642C806.016 114.622 805.415 114.791 804.906 115.124C804.397 115.457 804.003 115.942 803.779 116.51L803.746 116.494C803.837 115.936 803.881 115.37 803.876 114.804H802.464V122.89H803.922V119.004C803.922 117.215 804.881 115.864 806.213 115.864C807.286 115.864 807.592 116.531 807.592 117.671V122.89H809.061V122.888Z" fill="white"/>
<path fill-rule="evenodd" clip-rule="evenodd" d="M821.501 122.886C821.482 122.19 821.47 121.326 821.47 120.562V117.339C821.47 115.729 820.802 114.64 818.48 114.64C817.507 114.647 816.547 114.847 815.652 115.225L815.795 116.475C816.539 116.052 817.379 115.824 818.234 115.808C819.564 115.808 820.004 116.409 820.004 117.531V118.132C816.949 118.132 815.144 119.254 815.144 121.027C815.144 122.31 816.055 123.027 817.387 123.027C817.97 123.047 818.544 122.888 819.032 122.576C819.522 122.262 819.907 121.808 820.134 121.271H820.167C820.095 121.804 820.068 122.343 820.085 122.88L821.501 122.886ZM820.006 119.308C820.006 120.578 819.128 121.88 817.811 121.88C817.654 121.897 817.496 121.882 817.347 121.833C817.195 121.785 817.058 121.705 816.942 121.599C816.826 121.492 816.733 121.362 816.669 121.217C816.607 121.072 816.576 120.915 816.58 120.758C816.58 120.029 817.195 119.165 820.006 119.165V119.308Z" fill="white"/>
<path d="M832.871 120.461C832.871 117.744 829.102 118.703 829.102 116.932C829.102 116.231 829.636 115.777 830.711 115.777C831.263 115.781 831.809 115.868 832.334 116.035L832.367 114.816C831.86 114.713 831.343 114.659 830.823 114.653C828.71 114.653 827.589 115.711 827.589 117.077C827.589 119.926 831.344 118.814 831.344 120.622C831.344 121.368 830.61 121.859 829.539 121.859C828.939 121.855 828.342 121.762 827.769 121.581L827.723 122.884C828.284 122.984 828.856 123.033 829.429 123.027C831.573 123.027 832.875 121.921 832.875 120.455" fill="white"/>
<path fill-rule="evenodd" clip-rule="evenodd" d="M837.649 122.134L837.097 121.359C837.037 121.279 836.975 121.194 836.909 121.109C837.07 121.095 837.219 121.019 837.328 120.901C837.436 120.783 837.496 120.628 837.494 120.467C837.494 119.998 837.167 119.822 836.661 119.822C836.398 119.822 836.181 119.822 836.001 119.835V122.136H836.444V121.184H836.464L837.101 122.136L837.649 122.134ZM837.031 120.51C837.031 120.725 836.868 120.857 836.603 120.857C836.533 120.857 836.473 120.857 836.442 120.851V120.188C836.5 120.18 836.559 120.176 836.617 120.176C836.894 120.176 837.031 120.285 837.031 120.506" fill="white"/>
<path d="M836.76 119.025C837.145 119.025 837.523 119.14 837.843 119.355C838.164 119.57 838.414 119.874 838.561 120.233C838.709 120.589 838.747 120.983 838.672 121.361C838.596 121.74 838.41 122.087 838.137 122.361C837.864 122.634 837.515 122.82 837.138 122.893C836.758 122.969 836.367 122.93 836.01 122.781C835.654 122.634 835.35 122.382 835.135 122.06C834.922 121.738 834.808 121.361 834.808 120.975C834.808 120.719 834.858 120.465 834.957 120.227C835.056 119.99 835.199 119.775 835.381 119.593C835.561 119.411 835.776 119.268 836.014 119.171C836.249 119.076 836.502 119.025 836.76 119.025ZM836.76 119.31C836.429 119.31 836.109 119.407 835.834 119.591C835.561 119.775 835.346 120.035 835.222 120.339C835.096 120.643 835.063 120.979 835.127 121.302C835.193 121.626 835.35 121.923 835.584 122.157C835.817 122.39 836.113 122.549 836.437 122.614C836.758 122.678 837.095 122.645 837.399 122.519C837.703 122.393 837.963 122.18 838.147 121.905C838.331 121.63 838.428 121.308 838.428 120.979C838.428 120.537 838.253 120.112 837.94 119.799C837.624 119.487 837.202 119.31 836.76 119.31Z" fill="white"/>
</g>
</g>
<defs>
<clipPath id="clip0_16_252">
<rect width="178" height="50" fill="white" transform="translate(678 75)"/>
</clipPath>
</defs>
</svg>
