<svg width="1200" height="150" viewBox="0 0 1200 150" fill="none" xmlns="http://www.w3.org/2000/svg">
<rect width="1200" height="150" fill="#002464"/>
<path d="M115.319 35C105.549 35 102.215 40.0582 96.5001 47.3769C90.7864 40.0582 87.4462 35 77.6809 35C67.2013 35 60.2935 42.7185 60.2935 54.3022C60.2935 58.1911 61.2003 62.3368 63.1568 66.4823V79.8852C63.1568 80.9648 64.0337 81.8358 65.1072 81.8358C66.1807 81.8358 67.0577 80.9589 67.0577 79.8852V72.8647C67.762 73.7891 68.5193 74.7017 69.3424 75.6083L77.3238 84.4841V100.762C77.3238 101.842 78.1947 102.713 79.2802 102.713C80.3657 102.713 81.2306 101.842 81.2306 100.762V88.8265L96.506 105.832L103.36 98.2151V113.05C103.36 114.129 104.237 115 105.317 115C106.396 115 107.267 114.129 107.267 113.05V93.8728L117.371 82.6112V96.6642C117.371 97.7439 118.248 98.6147 119.328 98.6147C120.407 98.6147 121.278 97.7379 121.278 96.6642V78.2629L123.658 75.6143C129.969 68.6951 132.707 61.1078 132.707 54.314C132.707 42.7304 125.8 35.0119 115.313 35.0119L115.319 35Z" fill="#EA0029"/>
<path d="M85.4564 76.224C81.2282 76.224 78.3845 74.0373 77 71.1343L80.2928 69.4378C81.2656 71.6998 83.1365 72.7932 85.4564 72.7932C88.0009 72.7932 89.9466 71.1343 89.9466 68.1936C89.9466 65.2152 87.926 63.5941 85.0448 63.5941C83.5481 63.5941 82.6501 63.8957 81.9017 64.235L81.6024 63.858L86.579 57.411C87.1028 56.657 87.8138 56.0538 87.8138 56.0538C87.8138 56.0538 86.7286 56.2046 85.7932 56.2046H79.0206V53H93.4639V53.3393L88.4499 59.7862C87.9634 60.4272 87.3648 60.8796 87.3648 60.8796C91.1065 61.3697 93.9503 63.9711 93.9503 68.269C93.9503 72.6424 90.882 76.224 85.4564 76.224Z" fill="white"/>
<path d="M105.822 77C100.509 77 95.7195 72.7775 95.7195 66.9715C95.7195 61.1278 100.509 57.0183 105.822 57.0183C111.211 57.0183 116 61.1278 116 66.9715C116 72.7775 111.211 77 105.822 77ZM105.822 73.5692C109.302 73.5692 111.996 70.8924 111.996 66.9715C111.996 63.0128 109.302 60.4114 105.822 60.4114C102.417 60.4114 99.7232 63.0128 99.7232 66.9715C99.7232 70.8924 102.417 73.5692 105.822 73.5692Z" fill="white"/>
<path d="M166.027 92V72.7363H166.314L175.16 83.7969L183.951 72.7363H184.266V92H182.297V79.4219C182.297 79.1758 182.301 78.8796 182.311 78.5332C182.329 78.1868 182.342 77.8906 182.352 77.6445L182.379 77.2754C182.37 77.2845 182.292 77.403 182.146 77.6309C182.01 77.8496 181.832 78.1185 181.613 78.4375C181.404 78.7565 181.212 79.0208 181.039 79.2305L175.27 86.5176H174.941L169.254 79.2305C169.081 79.0208 168.88 78.7611 168.652 78.4512C168.434 78.1413 168.256 77.8815 168.119 77.6719C167.992 77.4531 167.914 77.321 167.887 77.2754L167.9 77.4258C167.91 77.526 167.919 77.6536 167.928 77.8086C167.937 77.9635 167.946 78.1322 167.955 78.3145C167.964 78.4876 167.973 78.679 167.982 78.8887C167.992 79.0892 167.996 79.2669 167.996 79.4219V92H166.027ZM198.143 92.2188C196.347 92.2188 194.706 91.8132 193.221 91.002C191.744 90.1816 190.568 89.0241 189.693 87.5293C188.818 86.0345 188.381 84.3529 188.381 82.4844C188.381 80.6159 188.818 78.9342 189.693 77.4395C190.568 75.9355 191.749 74.778 193.234 73.9668C194.72 73.1465 196.356 72.7363 198.143 72.7363C199.938 72.7363 201.579 73.1465 203.064 73.9668C204.559 74.778 205.744 75.9355 206.619 77.4395C207.503 78.9342 207.945 80.6159 207.945 82.4844C207.945 84.3529 207.503 86.0345 206.619 87.5293C205.744 89.0241 204.564 90.1816 203.078 91.002C201.592 91.8132 199.947 92.2188 198.143 92.2188ZM198.143 90.4004C200.367 90.4004 202.208 89.6484 203.666 88.1445C205.124 86.6406 205.854 84.7539 205.854 82.4844C205.854 80.9896 205.521 79.6406 204.855 78.4375C204.199 77.2253 203.283 76.2773 202.107 75.5938C200.932 74.901 199.61 74.5547 198.143 74.5547C195.937 74.5547 194.105 75.3066 192.646 76.8105C191.197 78.3145 190.473 80.2057 190.473 82.4844C190.473 83.6055 190.664 84.6582 191.047 85.6426C191.439 86.6178 191.972 87.4564 192.646 88.1582C193.321 88.8509 194.132 89.3978 195.08 89.7988C196.028 90.1999 197.049 90.4004 198.143 90.4004ZM226.471 92.1914L215.109 78.752C214.882 78.4876 214.617 78.1549 214.316 77.7539C214.016 77.3529 213.838 77.1068 213.783 77.0156C213.783 77.043 213.797 77.1842 213.824 77.4395C213.861 77.6947 213.893 77.9909 213.92 78.3281C213.947 78.6562 213.961 78.9297 213.961 79.1484V92H212.047V72.7637H212.389L223.764 86.2031C223.882 86.3398 224.019 86.513 224.174 86.7227C224.329 86.9323 224.461 87.1191 224.57 87.2832C224.689 87.4382 224.798 87.5885 224.898 87.7344C225.008 87.8802 225.067 87.9577 225.076 87.9668L225.035 87.5977C225.017 87.3424 224.994 87.0417 224.967 86.6953C224.949 86.3398 224.939 86.0436 224.939 85.8066V72.9551H226.812V92.1914H226.471ZM238.68 92.2188C236.647 92.2188 234.997 91.64 233.73 90.4824C232.473 89.3158 231.844 87.6569 231.844 85.5059V72.9551H233.867V85.3691C233.867 87.028 234.291 88.2858 235.139 89.1426C235.986 89.9993 237.167 90.4277 238.68 90.4277C240.184 90.4277 241.359 89.9993 242.207 89.1426C243.064 88.2858 243.492 87.028 243.492 85.3691V72.9551H245.516V85.5059C245.516 87.6569 244.878 89.3158 243.602 90.4824C242.335 91.64 240.694 92.2188 238.68 92.2188ZM250.547 92V72.7363H250.834L259.68 83.7969L268.471 72.7363H268.785V92H266.816V79.4219C266.816 79.1758 266.821 78.8796 266.83 78.5332C266.848 78.1868 266.862 77.8906 266.871 77.6445L266.898 77.2754C266.889 77.2845 266.812 77.403 266.666 77.6309C266.529 77.8496 266.352 78.1185 266.133 78.4375C265.923 78.7565 265.732 79.0208 265.559 79.2305L259.789 86.5176H259.461L253.773 79.2305C253.6 79.0208 253.4 78.7611 253.172 78.4512C252.953 78.1413 252.775 77.8815 252.639 77.6719C252.511 77.4531 252.434 77.321 252.406 77.2754L252.42 77.4258C252.429 77.526 252.438 77.6536 252.447 77.8086C252.456 77.9635 252.465 78.1322 252.475 78.3145C252.484 78.4876 252.493 78.679 252.502 78.8887C252.511 79.0892 252.516 79.2669 252.516 79.4219V92H250.547ZM273.98 92V72.9551H285.574V74.7461H276.004V81.5547H284.549V83.3184H276.004V90.209H285.971V92H273.98ZM304.646 92.1914L293.285 78.752C293.057 78.4876 292.793 78.1549 292.492 77.7539C292.191 77.3529 292.014 77.1068 291.959 77.0156C291.959 77.043 291.973 77.1842 292 77.4395C292.036 77.6947 292.068 77.9909 292.096 78.3281C292.123 78.6562 292.137 78.9297 292.137 79.1484V92H290.223V72.7637H290.564L301.939 86.2031C302.058 86.3398 302.195 86.513 302.35 86.7227C302.505 86.9323 302.637 87.1191 302.746 87.2832C302.865 87.4382 302.974 87.5885 303.074 87.7344C303.184 87.8802 303.243 87.9577 303.252 87.9668L303.211 87.5977C303.193 87.3424 303.17 87.0417 303.143 86.6953C303.124 86.3398 303.115 86.0436 303.115 85.8066V72.9551H304.988V92.1914H304.646ZM314.367 92V74.7461H308.516V72.9551H322.229V74.7461H316.377V92H314.367ZM333.303 92.2188C331.507 92.2188 329.867 91.8132 328.381 91.002C326.904 90.1816 325.729 89.0241 324.854 87.5293C323.979 86.0345 323.541 84.3529 323.541 82.4844C323.541 80.6159 323.979 78.9342 324.854 77.4395C325.729 75.9355 326.909 74.778 328.395 73.9668C329.88 73.1465 331.516 72.7363 333.303 72.7363C335.098 72.7363 336.739 73.1465 338.225 73.9668C339.719 74.778 340.904 75.9355 341.779 77.4395C342.663 78.9342 343.105 80.6159 343.105 82.4844C343.105 84.3529 342.663 86.0345 341.779 87.5293C340.904 89.0241 339.724 90.1816 338.238 91.002C336.753 91.8132 335.107 92.2188 333.303 92.2188ZM333.303 90.4004C335.527 90.4004 337.368 89.6484 338.826 88.1445C340.285 86.6406 341.014 84.7539 341.014 82.4844C341.014 80.9896 340.681 79.6406 340.016 78.4375C339.359 77.2253 338.443 76.2773 337.268 75.5938C336.092 74.901 334.77 74.5547 333.303 74.5547C331.097 74.5547 329.265 75.3066 327.807 76.8105C326.357 78.3145 325.633 80.2057 325.633 82.4844C325.633 83.6055 325.824 84.6582 326.207 85.6426C326.599 86.6178 327.132 87.4564 327.807 88.1582C328.481 88.8509 329.292 89.3978 330.24 89.7988C331.188 90.1999 332.209 90.4004 333.303 90.4004ZM351.787 92.2188C350.912 92.2188 350.105 92.1139 349.367 91.9043C348.629 91.6947 347.995 91.4076 347.467 91.043C346.938 90.6693 346.482 90.2637 346.1 89.8262C345.726 89.3887 345.407 88.901 345.143 88.3633L346.824 87.4609C347.07 87.8984 347.33 88.2812 347.604 88.6094C347.877 88.9375 348.205 89.2474 348.588 89.5391C348.98 89.8216 349.44 90.0404 349.969 90.1953C350.497 90.3503 351.085 90.4277 351.732 90.4277C352.872 90.4277 353.811 90.1361 354.549 89.5527C355.296 88.9603 355.67 88.1719 355.67 87.1875C355.67 86.2669 355.387 85.515 354.822 84.9316C354.266 84.3483 353.355 83.7741 352.088 83.209L350.584 82.5117C349.618 82.0742 348.843 81.6367 348.26 81.1992C347.686 80.7617 347.23 80.2194 346.893 79.5723C346.555 78.9251 346.387 78.1686 346.387 77.3027C346.387 75.9447 346.856 74.8464 347.795 74.0078C348.743 73.1602 349.941 72.7363 351.391 72.7363C353.678 72.7363 355.396 73.6888 356.545 75.5938L354.918 76.6055C354.517 75.9492 354.038 75.4388 353.482 75.0742C352.926 74.7096 352.229 74.5273 351.391 74.5273C350.461 74.5273 349.723 74.778 349.176 75.2793C348.638 75.7715 348.369 76.4277 348.369 77.248C348.369 78.0592 348.592 78.7018 349.039 79.1758C349.486 79.6497 350.27 80.1465 351.391 80.666L352.908 81.3633C354.558 82.0924 355.766 82.9036 356.531 83.7969C357.306 84.681 357.693 85.8112 357.693 87.1875C357.693 88.7279 357.142 89.9538 356.039 90.8652C354.945 91.7676 353.528 92.2188 351.787 92.2188ZM382.877 92.1914L371.516 78.752C371.288 78.4876 371.023 78.1549 370.723 77.7539C370.422 77.3529 370.244 77.1068 370.189 77.0156C370.189 77.043 370.203 77.1842 370.23 77.4395C370.267 77.6947 370.299 77.9909 370.326 78.3281C370.354 78.6562 370.367 78.9297 370.367 79.1484V92H368.453V72.7637H368.795L380.17 86.2031C380.288 86.3398 380.425 86.513 380.58 86.7227C380.735 86.9323 380.867 87.1191 380.977 87.2832C381.095 87.4382 381.204 87.5885 381.305 87.7344C381.414 87.8802 381.473 87.9577 381.482 87.9668L381.441 87.5977C381.423 87.3424 381.4 87.0417 381.373 86.6953C381.355 86.3398 381.346 86.0436 381.346 85.8066V72.9551H383.219V92.1914H382.877ZM391.244 85.9844H398.586L395.646 78.6973C395.537 78.4238 395.423 78.1048 395.305 77.7402C395.186 77.3665 395.09 77.0612 395.018 76.8242C394.954 76.5872 394.922 76.4551 394.922 76.4277C394.922 76.4368 394.881 76.569 394.799 76.8242C394.726 77.0703 394.626 77.3757 394.498 77.7402C394.38 78.1048 394.266 78.4147 394.156 78.6699L391.244 85.9844ZM386.855 92L394.744 72.7637H395.086L403.152 92H401.02L399.283 87.7207H390.547L388.838 92H386.855ZM414.186 92.2188C412.39 92.2188 410.749 91.8132 409.264 91.002C407.787 90.1816 406.611 89.0241 405.736 87.5293C404.861 86.0345 404.424 84.3529 404.424 82.4844C404.424 80.6159 404.861 78.9342 405.736 77.4395C406.611 75.9355 407.792 74.778 409.277 73.9668C410.763 73.1465 412.399 72.7363 414.186 72.7363C417.576 72.7363 420.096 73.9668 421.746 76.4277L420.215 77.5488C419.577 76.61 418.747 75.8763 417.727 75.3477C416.706 74.819 415.525 74.5547 414.186 74.5547C412.718 74.5547 411.396 74.901 410.221 75.5938C409.054 76.2773 408.143 77.2253 407.486 78.4375C406.839 79.6406 406.516 80.9896 406.516 82.4844C406.516 83.6055 406.707 84.6582 407.09 85.6426C407.473 86.6178 408.001 87.4564 408.676 88.1582C409.35 88.8509 410.161 89.3978 411.109 89.7988C412.066 90.1999 413.092 90.4004 414.186 90.4004C415.544 90.4004 416.751 90.1224 417.809 89.5664C418.875 89.0104 419.759 88.2266 420.461 87.2148L422.033 88.3086C421.186 89.5573 420.087 90.5234 418.738 91.207C417.389 91.8815 415.872 92.2188 414.186 92.2188ZM425.916 92V72.9551H427.953V92H425.916ZM441.912 92.2188C440.117 92.2188 438.476 91.8132 436.99 91.002C435.514 90.1816 434.338 89.0241 433.463 87.5293C432.588 86.0345 432.15 84.3529 432.15 82.4844C432.15 80.6159 432.588 78.9342 433.463 77.4395C434.338 75.9355 435.518 74.778 437.004 73.9668C438.49 73.1465 440.126 72.7363 441.912 72.7363C443.708 72.7363 445.348 73.1465 446.834 73.9668C448.329 74.778 449.514 75.9355 450.389 77.4395C451.273 78.9342 451.715 80.6159 451.715 82.4844C451.715 84.3529 451.273 86.0345 450.389 87.5293C449.514 89.0241 448.333 90.1816 446.848 91.002C445.362 91.8132 443.717 92.2188 441.912 92.2188ZM441.912 90.4004C444.136 90.4004 445.977 89.6484 447.436 88.1445C448.894 86.6406 449.623 84.7539 449.623 82.4844C449.623 80.9896 449.29 79.6406 448.625 78.4375C447.969 77.2253 447.053 76.2773 445.877 75.5938C444.701 74.901 443.38 74.5547 441.912 74.5547C439.706 74.5547 437.874 75.3066 436.416 76.8105C434.967 78.3145 434.242 80.2057 434.242 82.4844C434.242 83.6055 434.434 84.6582 434.816 85.6426C435.208 86.6178 435.742 87.4564 436.416 88.1582C437.09 88.8509 437.902 89.3978 438.85 89.7988C439.798 90.1999 440.818 90.4004 441.912 90.4004ZM470.24 92.1914L458.879 78.752C458.651 78.4876 458.387 78.1549 458.086 77.7539C457.785 77.3529 457.607 77.1068 457.553 77.0156C457.553 77.043 457.566 77.1842 457.594 77.4395C457.63 77.6947 457.662 77.9909 457.689 78.3281C457.717 78.6562 457.73 78.9297 457.73 79.1484V92H455.816V72.7637H456.158L467.533 86.2031C467.652 86.3398 467.788 86.513 467.943 86.7227C468.098 86.9323 468.23 87.1191 468.34 87.2832C468.458 87.4382 468.568 87.5885 468.668 87.7344C468.777 87.8802 468.837 87.9577 468.846 87.9668L468.805 87.5977C468.786 87.3424 468.764 87.0417 468.736 86.6953C468.718 86.3398 468.709 86.0436 468.709 85.8066V72.9551H470.582V92.1914H470.24ZM478.607 85.9844H485.949L483.01 78.6973C482.9 78.4238 482.786 78.1048 482.668 77.7402C482.549 77.3665 482.454 77.0612 482.381 76.8242C482.317 76.5872 482.285 76.4551 482.285 76.4277C482.285 76.4368 482.244 76.569 482.162 76.8242C482.089 77.0703 481.989 77.3757 481.861 77.7402C481.743 78.1048 481.629 78.4147 481.52 78.6699L478.607 85.9844ZM474.219 92L482.107 72.7637H482.449L490.516 92H488.383L486.646 87.7207H477.91L476.201 92H474.219ZM494.125 92V72.9551H496.148V90.209H505.131V92H494.125ZM508.891 92V72.9551H520.484V74.7461H510.914V81.5547H519.459V83.3184H510.914V90.209H520.881V92H508.891ZM529.986 92.2188C529.111 92.2188 528.305 92.1139 527.566 91.9043C526.828 91.6947 526.195 91.4076 525.666 91.043C525.137 90.6693 524.682 90.2637 524.299 89.8262C523.925 89.3887 523.606 88.901 523.342 88.3633L525.023 87.4609C525.27 87.8984 525.529 88.2812 525.803 88.6094C526.076 88.9375 526.404 89.2474 526.787 89.5391C527.179 89.8216 527.639 90.0404 528.168 90.1953C528.697 90.3503 529.285 90.4277 529.932 90.4277C531.071 90.4277 532.01 90.1361 532.748 89.5527C533.495 88.9603 533.869 88.1719 533.869 87.1875C533.869 86.2669 533.587 85.515 533.021 84.9316C532.465 84.3483 531.554 83.7741 530.287 83.209L528.783 82.5117C527.817 82.0742 527.042 81.6367 526.459 81.1992C525.885 80.7617 525.429 80.2194 525.092 79.5723C524.755 78.9251 524.586 78.1686 524.586 77.3027C524.586 75.9447 525.055 74.8464 525.994 74.0078C526.942 73.1602 528.141 72.7363 529.59 72.7363C531.878 72.7363 533.596 73.6888 534.744 75.5938L533.117 76.6055C532.716 75.9492 532.238 75.4388 531.682 75.0742C531.126 74.7096 530.428 74.5273 529.59 74.5273C528.66 74.5273 527.922 74.778 527.375 75.2793C526.837 75.7715 526.568 76.4277 526.568 77.248C526.568 78.0592 526.792 78.7018 527.238 79.1758C527.685 79.6497 528.469 80.1465 529.59 80.666L531.107 81.3633C532.757 82.0924 533.965 82.9036 534.73 83.7969C535.505 84.681 535.893 85.8112 535.893 87.1875C535.893 88.7279 535.341 89.9538 534.238 90.8652C533.145 91.7676 531.727 92.2188 529.986 92.2188ZM546.652 92V72.9551H552.23C554.318 72.9551 555.967 73.4609 557.18 74.4727C558.401 75.4753 559.012 76.9382 559.012 78.8613C559.012 80.7572 558.401 82.2201 557.18 83.25C555.967 84.2708 554.318 84.7812 552.23 84.7812H548.676V92H546.652ZM548.676 82.9902H552.121C553.716 82.9902 554.915 82.6439 555.717 81.9512C556.528 81.2493 556.934 80.2194 556.934 78.8613C556.934 76.1178 555.329 74.7461 552.121 74.7461H548.676V82.9902ZM563.811 85.9844H571.152L568.213 78.6973C568.104 78.4238 567.99 78.1048 567.871 77.7402C567.753 77.3665 567.657 77.0612 567.584 76.8242C567.52 76.5872 567.488 76.4551 567.488 76.4277C567.488 76.4368 567.447 76.569 567.365 76.8242C567.292 77.0703 567.192 77.3757 567.064 77.7402C566.946 78.1048 566.832 78.4147 566.723 78.6699L563.811 85.9844ZM559.422 92L567.311 72.7637H567.652L575.719 92H573.586L571.85 87.7207H563.113L561.404 92H559.422ZM579.328 92V72.9551H585.043C587.112 72.9551 588.757 73.4473 589.979 74.4316C591.209 75.416 591.824 76.8652 591.824 78.7793C591.824 80.1556 591.469 81.304 590.758 82.2246C590.056 83.1361 589.076 83.7832 587.818 84.166L592.467 92H590.088L585.713 84.4941C585.531 84.5124 585.234 84.5215 584.824 84.5215H581.352V92H579.328ZM581.352 82.7852H584.934C586.501 82.7852 587.691 82.4525 588.502 81.7871C589.313 81.1126 589.719 80.11 589.719 78.7793C589.719 76.0905 588.124 74.7461 584.934 74.7461H581.352V82.7852ZM599.166 85.9844H606.508L603.568 78.6973C603.459 78.4238 603.345 78.1048 603.227 77.7402C603.108 77.3665 603.012 77.0612 602.939 76.8242C602.876 76.5872 602.844 76.4551 602.844 76.4277C602.844 76.4368 602.803 76.569 602.721 76.8242C602.648 77.0703 602.548 77.3757 602.42 77.7402C602.301 78.1048 602.188 78.4147 602.078 78.6699L599.166 85.9844ZM594.777 92L602.666 72.7637H603.008L611.074 92H608.941L607.205 87.7207H598.469L596.76 92H594.777ZM627.809 92.1914L619.77 72.9551H621.957L627.18 85.8613C627.298 86.1439 627.426 86.5039 627.562 86.9414C627.699 87.3698 627.809 87.7253 627.891 88.0078L628 88.4453C628.273 87.3607 628.542 86.4993 628.807 85.8613L634.016 72.9551H636.066L628.137 92.1914H627.809ZM639.799 92V72.9551H641.836V92H639.799ZM651.967 92.2188C651.092 92.2188 650.285 92.1139 649.547 91.9043C648.809 91.6947 648.175 91.4076 647.646 91.043C647.118 90.6693 646.662 90.2637 646.279 89.8262C645.906 89.3887 645.587 88.901 645.322 88.3633L647.004 87.4609C647.25 87.8984 647.51 88.2812 647.783 88.6094C648.057 88.9375 648.385 89.2474 648.768 89.5391C649.16 89.8216 649.62 90.0404 650.148 90.1953C650.677 90.3503 651.265 90.4277 651.912 90.4277C653.051 90.4277 653.99 90.1361 654.729 89.5527C655.476 88.9603 655.85 88.1719 655.85 87.1875C655.85 86.2669 655.567 85.515 655.002 84.9316C654.446 84.3483 653.535 83.7741 652.268 83.209L650.764 82.5117C649.798 82.0742 649.023 81.6367 648.439 81.1992C647.865 80.7617 647.41 80.2194 647.072 79.5723C646.735 78.9251 646.566 78.1686 646.566 77.3027C646.566 75.9447 647.036 74.8464 647.975 74.0078C648.923 73.1602 650.121 72.7363 651.57 72.7363C653.858 72.7363 655.576 73.6888 656.725 75.5938L655.098 76.6055C654.697 75.9492 654.218 75.4388 653.662 75.0742C653.106 74.7096 652.409 74.5273 651.57 74.5273C650.641 74.5273 649.902 74.778 649.355 75.2793C648.818 75.7715 648.549 76.4277 648.549 77.248C648.549 78.0592 648.772 78.7018 649.219 79.1758C649.665 79.6497 650.449 80.1465 651.57 80.666L653.088 81.3633C654.738 82.0924 655.945 82.9036 656.711 83.7969C657.486 84.681 657.873 85.8112 657.873 87.1875C657.873 88.7279 657.322 89.9538 656.219 90.8652C655.125 91.7676 653.708 92.2188 651.967 92.2188ZM662.084 92V72.9551H664.121V92H662.084ZM673.582 92V74.7461H667.73V72.9551H681.443V74.7461H675.592V92H673.582ZM685.545 85.9844H692.887L689.947 78.6973C689.838 78.4238 689.724 78.1048 689.605 77.7402C689.487 77.3665 689.391 77.0612 689.318 76.8242C689.255 76.5872 689.223 76.4551 689.223 76.4277C689.223 76.4368 689.182 76.569 689.1 76.8242C689.027 77.0703 688.926 77.3757 688.799 77.7402C688.68 78.1048 688.566 78.4147 688.457 78.6699L685.545 85.9844ZM681.156 92L689.045 72.7637H689.387L697.453 92H695.32L693.584 87.7207H684.848L683.139 92H681.156ZM701.062 92V72.9551H706.777C708.846 72.9551 710.492 73.4473 711.713 74.4316C712.943 75.416 713.559 76.8652 713.559 78.7793C713.559 80.1556 713.203 81.304 712.492 82.2246C711.79 83.1361 710.811 83.7832 709.553 84.166L714.201 92H711.822L707.447 84.4941C707.265 84.5124 706.969 84.5215 706.559 84.5215H703.086V92H701.062ZM703.086 82.7852H706.668C708.236 82.7852 709.425 82.4525 710.236 81.7871C711.048 81.1126 711.453 80.11 711.453 78.7793C711.453 76.0905 709.858 74.7461 706.668 74.7461H703.086V82.7852ZM718.74 92.1914C718.339 92.1914 717.984 92.041 717.674 91.7402C717.373 91.4395 717.223 91.0794 717.223 90.6602C717.223 90.2409 717.373 89.8854 717.674 89.5938C717.984 89.293 718.339 89.1426 718.74 89.1426C719.15 89.1426 719.501 89.2884 719.793 89.5801C720.094 89.8717 720.244 90.2318 720.244 90.6602C720.244 91.0885 720.094 91.4531 719.793 91.7539C719.501 92.0456 719.15 92.1914 718.74 92.1914Z" fill="white"/>
<path d="M735.8 92V80.437H739.187C740.454 80.437 741.456 80.7441 742.192 81.3584C742.933 81.9671 743.304 82.8553 743.304 84.0229C743.304 85.174 742.933 86.0622 742.192 86.6875C741.456 87.3073 740.454 87.6172 739.187 87.6172H737.029V92H735.8ZM737.029 86.5298H739.121C740.089 86.5298 740.817 86.3195 741.304 85.8989C741.796 85.4728 742.042 84.8475 742.042 84.0229C742.042 82.3573 741.069 81.5244 739.121 81.5244H737.029V86.5298ZM745.695 92V80.437H749.165C750.421 80.437 751.42 80.7358 752.161 81.3335C752.908 81.9312 753.282 82.811 753.282 83.9731C753.282 84.8088 753.066 85.506 752.634 86.0649C752.208 86.6183 751.613 87.0112 750.85 87.2437L753.672 92H752.228L749.571 87.4429C749.461 87.4539 749.281 87.4595 749.032 87.4595H746.923V92H745.695ZM746.923 86.4053H749.098C750.05 86.4053 750.772 86.2033 751.265 85.7993C751.757 85.3898 752.003 84.7811 752.003 83.9731C752.003 82.3407 751.035 81.5244 749.098 81.5244H746.923V86.4053ZM756.021 92V80.437H763.06V81.5244H757.25V85.6582H762.438V86.729H757.25V90.9126H763.301V92H756.021ZM768.829 92.1328C768.298 92.1328 767.808 92.0692 767.36 91.9419C766.912 91.8146 766.527 91.6403 766.206 91.4189C765.885 91.1921 765.608 90.9458 765.376 90.6802C765.149 90.4146 764.955 90.1185 764.795 89.792L765.816 89.2441C765.965 89.5098 766.123 89.7422 766.289 89.9414C766.455 90.1406 766.654 90.3288 766.887 90.5059C767.125 90.6774 767.404 90.8102 767.725 90.9043C768.046 90.9984 768.403 91.0454 768.796 91.0454C769.488 91.0454 770.058 90.8683 770.506 90.5142C770.96 90.1545 771.187 89.6758 771.187 89.0781C771.187 88.5192 771.015 88.0627 770.672 87.7085C770.334 87.3543 769.781 87.0057 769.012 86.6626L768.099 86.2393C767.512 85.9736 767.042 85.708 766.688 85.4424C766.339 85.1768 766.062 84.8475 765.857 84.4546C765.653 84.0617 765.55 83.6024 765.55 83.0767C765.55 82.2521 765.835 81.5853 766.405 81.0762C766.981 80.5615 767.708 80.3042 768.588 80.3042C769.977 80.3042 771.021 80.8825 771.718 82.0391L770.73 82.6533C770.486 82.2549 770.196 81.945 769.858 81.7236C769.521 81.5023 769.097 81.3916 768.588 81.3916C768.024 81.3916 767.576 81.5438 767.244 81.8481C766.917 82.147 766.754 82.5454 766.754 83.0435C766.754 83.536 766.889 83.9261 767.161 84.2139C767.432 84.5016 767.908 84.8032 768.588 85.1187L769.51 85.542C770.511 85.9847 771.245 86.4772 771.709 87.0195C772.18 87.5563 772.415 88.2425 772.415 89.0781C772.415 90.0133 772.08 90.7576 771.411 91.311C770.747 91.8589 769.886 92.1328 768.829 92.1328ZM774.914 92V80.437H781.953V81.5244H776.142V85.6582H781.33V86.729H776.142V90.9126H782.193V92H774.914ZM793.532 92.1162L786.634 83.9565C786.496 83.7961 786.335 83.5941 786.153 83.3506C785.97 83.1071 785.862 82.9577 785.829 82.9023C785.829 82.9189 785.837 83.0047 785.854 83.1597C785.876 83.3146 785.896 83.4945 785.912 83.6992C785.929 83.8984 785.937 84.0645 785.937 84.1973V92H784.775V80.3208H784.982L791.889 88.4805C791.961 88.5635 792.044 88.6686 792.138 88.7959C792.232 88.9232 792.312 89.0366 792.378 89.1362C792.45 89.2303 792.517 89.3216 792.578 89.4102C792.644 89.4987 792.68 89.5457 792.686 89.5513L792.661 89.3271C792.65 89.1722 792.636 88.9896 792.619 88.7793C792.608 88.5635 792.603 88.3836 792.603 88.2397V80.437H793.74V92.1162H793.532ZM799.434 92V81.5244H795.881V80.437H804.207V81.5244H800.654V92H799.434ZM806.697 88.3477H811.155L809.37 83.9233C809.304 83.7573 809.235 83.5636 809.163 83.3423C809.091 83.1154 809.033 82.93 808.988 82.7861C808.95 82.6423 808.93 82.562 808.93 82.5454C808.93 82.5509 808.905 82.6312 808.855 82.7861C808.811 82.9355 808.75 83.1209 808.673 83.3423C808.601 83.5636 808.532 83.7518 808.465 83.9067L806.697 88.3477ZM804.033 92L808.822 80.3208H809.03L813.927 92H812.632L811.578 89.4019H806.274L805.236 92H804.033ZM816.119 92V80.437H818.924C820.845 80.437 822.366 80.9627 823.49 82.0142C824.619 83.0601 825.183 84.4629 825.183 86.2227C825.183 87.9824 824.621 89.3853 823.498 90.4312C822.375 91.4771 820.85 92 818.924 92H816.119ZM817.347 90.896H818.841C819.677 90.896 820.418 90.7826 821.066 90.5557C821.713 90.3288 822.242 90.0078 822.651 89.5928C823.061 89.1777 823.368 88.688 823.573 88.1235C823.783 87.5535 823.888 86.9199 823.888 86.2227C823.888 84.7949 823.459 83.6577 822.602 82.811C821.749 81.9644 820.496 81.541 818.841 81.541H817.347V90.896ZM832.944 92.1328C831.854 92.1328 830.858 91.8866 829.956 91.394C829.06 90.896 828.346 90.1932 827.814 89.2856C827.283 88.3781 827.018 87.3571 827.018 86.2227C827.018 85.0882 827.283 84.0672 827.814 83.1597C828.346 82.2466 829.062 81.5438 829.964 81.0513C830.866 80.5532 831.86 80.3042 832.944 80.3042C834.035 80.3042 835.031 80.5532 835.933 81.0513C836.84 81.5438 837.56 82.2466 838.091 83.1597C838.628 84.0672 838.896 85.0882 838.896 86.2227C838.896 87.3571 838.628 88.3781 838.091 89.2856C837.56 90.1932 836.843 90.896 835.941 91.394C835.039 91.8866 834.04 92.1328 832.944 92.1328ZM832.944 91.0288C834.295 91.0288 835.412 90.5723 836.298 89.6592C837.183 88.7461 837.626 87.6006 837.626 86.2227C837.626 85.3151 837.424 84.4961 837.02 83.7656C836.622 83.0296 836.065 82.4541 835.352 82.0391C834.638 81.6185 833.835 81.4082 832.944 81.4082C831.605 81.4082 830.493 81.8647 829.607 82.7778C828.728 83.6909 828.288 84.8392 828.288 86.2227C828.288 86.9033 828.404 87.5425 828.636 88.1401C828.874 88.7323 829.198 89.2414 829.607 89.6675C830.017 90.0881 830.509 90.4201 831.085 90.6636C831.66 90.9071 832.28 91.0288 832.944 91.0288ZM845.42 92V80.437H848.807C850.074 80.437 851.076 80.7441 851.812 81.3584C852.554 81.9671 852.924 82.8553 852.924 84.0229C852.924 85.174 852.554 86.0622 851.812 86.6875C851.076 87.3073 850.074 87.6172 848.807 87.6172H846.649V92H845.42ZM846.649 86.5298H848.741C849.709 86.5298 850.437 86.3195 850.924 85.8989C851.416 85.4728 851.663 84.8475 851.663 84.0229C851.663 82.3573 850.689 81.5244 848.741 81.5244H846.649V86.5298ZM860.586 92.1328C859.496 92.1328 858.5 91.8866 857.598 91.394C856.701 90.896 855.987 90.1932 855.456 89.2856C854.925 88.3781 854.659 87.3571 854.659 86.2227C854.659 85.0882 854.925 84.0672 855.456 83.1597C855.987 82.2466 856.704 81.5438 857.606 81.0513C858.508 80.5532 859.501 80.3042 860.586 80.3042C861.676 80.3042 862.672 80.5532 863.574 81.0513C864.482 81.5438 865.201 82.2466 865.732 83.1597C866.269 84.0672 866.538 85.0882 866.538 86.2227C866.538 87.3571 866.269 88.3781 865.732 89.2856C865.201 90.1932 864.485 90.896 863.583 91.394C862.681 91.8866 861.682 92.1328 860.586 92.1328ZM860.586 91.0288C861.936 91.0288 863.054 90.5723 863.939 89.6592C864.825 88.7461 865.268 87.6006 865.268 86.2227C865.268 85.3151 865.066 84.4961 864.662 83.7656C864.263 83.0296 863.707 82.4541 862.993 82.0391C862.279 81.6185 861.477 81.4082 860.586 81.4082C859.247 81.4082 858.134 81.8647 857.249 82.7778C856.369 83.6909 855.929 84.8392 855.929 86.2227C855.929 86.9033 856.045 87.5425 856.278 88.1401C856.516 88.7323 856.84 89.2414 857.249 89.6675C857.659 90.0881 858.151 90.4201 858.727 90.6636C859.302 90.9071 859.922 91.0288 860.586 91.0288ZM869.028 92V80.437H872.498C873.754 80.437 874.753 80.7358 875.494 81.3335C876.241 81.9312 876.615 82.811 876.615 83.9731C876.615 84.8088 876.399 85.506 875.967 86.0649C875.541 86.6183 874.946 87.0112 874.183 87.2437L877.005 92H875.561L872.904 87.4429C872.794 87.4539 872.614 87.4595 872.365 87.4595H870.256V92H869.028ZM870.256 86.4053H872.431C873.383 86.4053 874.105 86.2033 874.598 85.7993C875.09 85.3898 875.336 84.7811 875.336 83.9731C875.336 82.3407 874.368 81.5244 872.431 81.5244H870.256V86.4053Z" fill="white"/>
<g clip-path="url(#clip0_14_49)">
<path fill-rule="evenodd" clip-rule="evenodd" d="M917.14 55.0459C917.703 54.9754 918.278 54.9947 918.843 55.0459C919.885 55.1401 920.908 55.3839 921.93 55.6087C922.708 55.7799 924.245 56.2068 924.245 56.2068C924.424 56.2554 924.734 56.2529 924.973 56.2068C925.289 56.1455 925.7 55.9918 925.872 55.8456C925.991 55.8886 926.086 55.9144 926.231 56.0262L919.117 61.0307C918.247 61.6428 916.951 62.7564 916.951 63.3895V75.6833L909.931 80.5073C910.034 79.8365 910.924 79.226 910.924 78.2715V65.8547C910.924 64.8916 917.679 61.4005 917.679 60.403C917.679 59.908 916.393 59.451 915.668 59.1359C915.05 58.8674 914.382 58.7092 913.715 58.623C912.702 58.4921 911.664 58.4963 910.65 58.623C909.576 58.7573 907.988 59.4485 907.5 59.4227C908.459 58.7929 910.86 56.9659 912.752 56.1601C914.142 55.5681 915.643 55.233 917.14 55.0459ZM931.539 55.3125C932.626 55.3125 933.277 56.4647 935.143 58.8896C935.605 59.4829 937.754 62.097 937.754 63.3524V64.3413C937.754 66.8866 931 69.4405 931 70.4981C931 71.2291 934.552 70.8851 936.136 71.9342C937.651 72.9316 938.293 75.047 938.293 76.2164V79.2604C938.293 81.0747 935.785 81.7628 932.712 84.0845C931.359 85.0991 926.753 88.1947 926.411 88.1947C926.411 88.1947 924.026 86.9391 922.767 86.4741C921.408 85.9722 920.011 85.5233 918.578 85.3312C917.446 85.1795 916.287 85.1967 915.153 85.3312C913.377 85.5418 910.205 86.5867 909.931 86.5867C909.931 86.5867 911.692 84.8692 914.217 83.4111C916.079 82.3357 918.431 81.7402 920.65 81.4015C921.835 81.2205 923.06 81.2182 924.245 81.4015C925.613 81.6131 927.541 82.442 928.209 82.6569V59.9559C928.209 59.7409 927.926 59.3368 927.49 59.3368C926.488 59.3368 925.778 61.1425 925.778 61.2113V74.7031L917.944 80.5073C917.944 80.5073 917.985 80.2248 918.124 80.0432C918.661 79.3413 918.937 79.1658 918.937 78.5467V63.8942C918.937 63.7136 922.803 60.6583 924.879 59.2422C927.01 57.788 929.989 55.3125 931.539 55.3125ZM929.476 61.4779C929.476 61.4779 932.352 64.5993 932.352 66.4824C932.352 67.9099 931.248 68.4688 929.476 69.5179V61.4779ZM929.476 72.0202C929.75 72.0889 931.359 73.052 931.359 73.7227V83.9898H931C930.435 83.9898 929.476 83.5513 929.476 83.0095V72.0202ZM998.262 68.1764L1004.66 71.3064V85.0647L998.622 88.0142L992.141 85.2453V70.8593L998.262 68.1764ZM968.727 67.7723L972.597 71.6075V83.405L974.395 85.1937L971.424 88.0484L968.274 85.0991V74.1096C968.222 74.0752 966.305 72.1835 965.937 72.0545L963.771 74.0236V83.4911L965.397 85.0991L962.332 88.0484L959.542 85.3742V73.4906C959.542 73.4906 958.215 72.39 957.65 71.7019L961.434 67.8583L965.123 71.3408L968.727 67.7723ZM983.581 68.271L990.609 71.2205C990.284 71.6161 988.144 73.1725 987.364 73.3616C987.364 73.3616 981.629 71.1345 981.509 71.1259V82.743L986.337 85.1249C986.337 85.1249 989.119 84.1703 989.796 84.1703C989.873 84.1703 989.993 84.1961 990.155 84.1703V84.437L984.668 88.0142H983.94L977.006 84.8842V71.3924L983.581 68.271ZM948.104 67.9442C952.479 70.1198 954.405 70.3863 954.405 71.3408V82.7774L957.196 85.5462L954.585 88.0484C952.676 86.5006 951.974 85.8214 951.974 85.8214L947.18 88.2033L940.631 85.2281V77.6868L947.026 74.5568L950.536 75.9928V72.8628L944.928 70.9281L942.112 71.2634L941.983 70.8077L948.104 67.9442ZM996.328 70.8593L1000.51 72.8284V85.0647L996.276 83.1901L996.328 70.8593ZM944.594 77.1536L950.536 80.1031V85.6409L944.594 82.8978V77.1536ZM1026.63 59.8785C1026.91 59.8785 1028.09 60.3342 1030.06 61.3059C1031.12 61.8304 1033.03 62.2346 1033.03 63.1805V85.3398L1027.09 88.1086L1020.51 84.9872V70.9539L1026.81 68.185C1027.04 68.2108 1029.06 68.9933 1029.06 68.9933V64.5219L1023.81 62.2948C1022.95 62.3464 1021.94 63.1633 1020.91 63.3438L1021.14 62.4668C1021.14 62.4668 1025.88 59.8785 1026.63 59.8785ZM1043.29 68.099L1049.15 74.531L1040.59 80.7824V82.4851C1040.59 82.8376 1045.63 85.1249 1045.63 85.1249C1045.63 85.1249 1048.13 83.4308 1049.23 84.0931C1049.17 84.1703 1043.2 88.0228 1043.2 88.0228L1036.81 85.2539V71.1345L1043.29 68.099ZM1024.66 70.8679L1028.97 72.8284V85.0733H1028.88L1024.66 83.1987V70.8679ZM1040.68 71.1345L1044.97 75.5972L1040.68 78.7272V71.1345ZM1121.91 83.5771L1123.52 85.0905L1120.28 88.1258L1117.22 85.0905V64.5391L1121.91 59.9903V83.5771ZM1096.96 59.4141V72.3642L1101.64 67.8067L1105.15 71.2978V87.7303L1100.75 92.0211H1100.65V73.525L1098.94 71.917L1096.96 73.6195V83.3534L1098.67 84.9614V85.0561L1095.52 88.1775L1092.46 85.1421V63.877L1096.96 59.5001V59.4141ZM1110.38 59.4141H1110.47L1113.53 62.4495V62.5355L1110.38 65.6655L1107.23 62.5355L1110.38 59.4141ZM1132.53 68.2968C1132.7 68.2968 1138.39 74.4708 1138.47 74.7289L1129.92 80.7136V83.1299L1134.77 85.3054C1134.77 85.3054 1137.31 84.97 1138.21 84.1961L1139.5 84.5144C1139.39 84.6777 1133.55 88.2205 1132.53 88.2205C1132.31 88.2205 1127.94 86.5608 1126.14 85.357V71.6933C1126.14 71.0829 1132.51 68.2968 1132.53 68.2968ZM1110.47 67.8067H1110.56L1113.35 70.5755V83.2676L1115.06 84.8756L1111.82 87.997L1108.76 84.9614V72.2781L1107.32 70.9367L1110.47 67.8067ZM1130.01 71.3322L1134.11 75.52L1130.03 78.1254L1130.01 71.3322ZM1079.45 57.1689C1079.66 57.0484 1079.9 57.1182 1079.9 57.1182C1079.74 57.5109 1078.23 58.3761 1076.59 59.4281C1075.21 60.3113 1073.97 61.1822 1072.87 62.3034C1071.41 63.7941 1069.91 65.5542 1069.12 67.3411C1068.52 68.7135 1068.23 70.3183 1068.38 72.5446C1068.56 75.52 1070.93 79.9311 1073.68 81.5133C1074.53 81.9949 1076.92 83.3675 1079.72 83.5685C1080.71 83.6397 1081.38 83.6296 1082.44 83.506V61.667C1082.44 61.4005 1081.78 59.9817 1081.16 59.9817C1080.98 59.9817 1080.71 60.3084 1080.71 60.5148V75.4339C1080.71 75.9928 1080.19 76.7925 1077.65 78.4693C1075.04 80.1892 1074.24 80.7652 1073.96 80.705C1074.02 80.5417 1074.58 80.0879 1074.58 79.8108V64.2639C1074.58 62.7333 1076.84 61.8304 1078.82 60.3342C1081.29 58.4574 1082.9 57.684 1083.54 57.4179C1083.7 57.3437 1084.28 57.286 1084.67 57.2988C1086.83 57.3078 1088.19 59.8871 1088.45 60.1536C1088.96 60.6674 1089.82 60.7932 1090.52 60.6008C1090.93 60.4912 1091.78 60.0677 1092.32 60.1536C1090.87 61.4177 1086.11 64.3585 1086.11 64.3585C1085.93 64.4641 1085.61 64.4391 1085.4 64.3585C1084.88 64.1609 1084.55 63.8512 1083.95 63.5502V83.2067C1084.52 83.0354 1085.37 82.6722 1086.28 82.1294C1087.05 81.6754 1087.73 81.1668 1088.18 80.8044C1088.37 80.6513 1088.46 80.5904 1088.63 80.4385C1088.7 80.3778 1088.84 80.3728 1088.91 80.4385C1089.05 80.5864 1088.96 80.8635 1088.91 81.0661C1088.67 81.988 1088.12 82.8138 1087.55 83.5685C1086.99 84.3078 1086.25 84.9408 1085.56 85.5015C1083.23 87.3969 1080.56 88.3402 1077.1 88.3667C1069.23 88.4182 1063.66 82.7688 1063.06 74.0064C1062.46 65.2872 1068.65 58.1157 1075.94 57.6514C1077 57.5912 1078.3 57.6686 1078.46 57.6514C1078.59 57.6358 1079.02 57.4208 1079.45 57.1689Z" fill="white"/>
</g>
<line x1="163" y1="103.5" x2="1140" y2="103.5" stroke="white" stroke-dasharray="2 2"/>
<defs>
<clipPath id="clip0_14_49">
<rect width="232" height="46" fill="white" transform="translate(908 46)"/>
</clipPath>
</defs>
</svg>
