<svg width="1200" height="150" viewBox="0 0 1200 150" fill="none" xmlns="http://www.w3.org/2000/svg">
<rect width="1200" height="150" fill="#002464"/>
<path d="M115.319 35C105.549 35 102.215 40.0582 96.5001 47.3769C90.7864 40.0582 87.4462 35 77.6809 35C67.2013 35 60.2935 42.7185 60.2935 54.3022C60.2935 58.1911 61.2003 62.3368 63.1568 66.4823V79.8852C63.1568 80.9648 64.0337 81.8358 65.1072 81.8358C66.1807 81.8358 67.0577 80.9589 67.0577 79.8852V72.8647C67.762 73.7891 68.5193 74.7017 69.3424 75.6083L77.3238 84.4841V100.762C77.3238 101.842 78.1947 102.713 79.2802 102.713C80.3657 102.713 81.2306 101.842 81.2306 100.762V88.8265L96.506 105.832L103.36 98.2151V113.05C103.36 114.129 104.237 115 105.317 115C106.396 115 107.267 114.129 107.267 113.05V93.8728L117.371 82.6112V96.6642C117.371 97.7439 118.248 98.6147 119.328 98.6147C120.407 98.6147 121.278 97.7379 121.278 96.6642V78.2629L123.658 75.6143C129.969 68.6951 132.707 61.1078 132.707 54.314C132.707 42.7304 125.8 35.0119 115.313 35.0119L115.319 35Z" fill="#EA0029"/>
<path d="M85.3686 75.81C81.1843 75.81 78.3701 73.6623 77 70.8111L80.2586 69.1447C81.2213 71.3665 83.0728 72.4403 85.3686 72.4403C87.8866 72.4403 89.8121 70.8111 89.8121 67.9228C89.8121 64.9975 87.8125 63.4052 84.9613 63.4052C83.4801 63.4052 82.5914 63.7014 81.8508 64.0347L81.5546 63.6644L86.4795 57.3324C86.9979 56.5918 87.7014 55.9994 87.7014 55.9994C87.7014 55.9994 86.6276 56.1475 85.7019 56.1475H78.9996V53H93.2929V53.3333L88.3309 59.6653C87.8496 60.2948 87.2571 60.7391 87.2571 60.7391C90.96 61.2205 93.7742 63.7755 93.7742 67.9968C93.7742 72.2922 90.7378 75.81 85.3686 75.81Z" fill="white"/>
<path d="M103.802 75.81C99.692 75.81 97.0629 73.7364 95.989 71.3665L99.2106 69.7002C99.9882 71.2554 101.321 72.4403 103.765 72.4403C106.431 72.4403 108.135 70.6259 108.135 68.1079C108.135 65.5159 106.542 63.7755 103.469 63.7755C101.099 63.7755 99.5438 64.7383 98.433 65.664L98.0627 65.5159V53H110.393V56.1475H101.21V61.3316C101.877 60.9243 103.025 60.554 104.469 60.554C109.06 60.554 112.134 63.8496 112.134 68.1449C112.134 72.4033 109.134 75.81 103.802 75.81Z" fill="white"/>
<path d="M165.756 92V72.9551H167.779V90.209H176.762V92H165.756ZM187.945 92.2188C186.15 92.2188 184.509 91.8132 183.023 91.002C181.547 90.1816 180.371 89.0241 179.496 87.5293C178.621 86.0345 178.184 84.3529 178.184 82.4844C178.184 80.6159 178.621 78.9342 179.496 77.4395C180.371 75.9355 181.551 74.778 183.037 73.9668C184.523 73.1465 186.159 72.7363 187.945 72.7363C189.741 72.7363 191.382 73.1465 192.867 73.9668C194.362 74.778 195.547 75.9355 196.422 77.4395C197.306 78.9342 197.748 80.6159 197.748 82.4844C197.748 84.3529 197.306 86.0345 196.422 87.5293C195.547 89.0241 194.367 90.1816 192.881 91.002C191.395 91.8132 189.75 92.2188 187.945 92.2188ZM187.945 90.4004C190.169 90.4004 192.01 89.6484 193.469 88.1445C194.927 86.6406 195.656 84.7539 195.656 82.4844C195.656 80.9896 195.324 79.6406 194.658 78.4375C194.002 77.2253 193.086 76.2773 191.91 75.5938C190.734 74.901 189.413 74.5547 187.945 74.5547C185.74 74.5547 183.908 75.3066 182.449 76.8105C181 78.3145 180.275 80.2057 180.275 82.4844C180.275 83.6055 180.467 84.6582 180.85 85.6426C181.242 86.6178 181.775 87.4564 182.449 88.1582C183.124 88.8509 183.935 89.3978 184.883 89.7988C185.831 90.1999 186.852 90.4004 187.945 90.4004ZM206.43 92.2188C205.555 92.2188 204.748 92.1139 204.01 91.9043C203.271 91.6947 202.638 91.4076 202.109 91.043C201.581 90.6693 201.125 90.2637 200.742 89.8262C200.368 89.3887 200.049 88.901 199.785 88.3633L201.467 87.4609C201.713 87.8984 201.973 88.2812 202.246 88.6094C202.52 88.9375 202.848 89.2474 203.23 89.5391C203.622 89.8216 204.083 90.0404 204.611 90.1953C205.14 90.3503 205.728 90.4277 206.375 90.4277C207.514 90.4277 208.453 90.1361 209.191 89.5527C209.939 88.9603 210.312 88.1719 210.312 87.1875C210.312 86.2669 210.03 85.515 209.465 84.9316C208.909 84.3483 207.997 83.7741 206.73 83.209L205.227 82.5117C204.26 82.0742 203.486 81.6367 202.902 81.1992C202.328 80.7617 201.872 80.2194 201.535 79.5723C201.198 78.9251 201.029 78.1686 201.029 77.3027C201.029 75.9447 201.499 74.8464 202.438 74.0078C203.385 73.1602 204.584 72.7363 206.033 72.7363C208.321 72.7363 210.039 73.6888 211.188 75.5938L209.561 76.6055C209.16 75.9492 208.681 75.4388 208.125 75.0742C207.569 74.7096 206.872 74.5273 206.033 74.5273C205.104 74.5273 204.365 74.778 203.818 75.2793C203.281 75.7715 203.012 76.4277 203.012 77.248C203.012 78.0592 203.235 78.7018 203.682 79.1758C204.128 79.6497 204.912 80.1465 206.033 80.666L207.551 81.3633C209.201 82.0924 210.408 82.9036 211.174 83.7969C211.949 84.681 212.336 85.8112 212.336 87.1875C212.336 88.7279 211.785 89.9538 210.682 90.8652C209.588 91.7676 208.171 92.2188 206.43 92.2188ZM223.096 92V72.7363H223.383L232.229 83.7969L241.02 72.7363H241.334V92H239.365V79.4219C239.365 79.1758 239.37 78.8796 239.379 78.5332C239.397 78.1868 239.411 77.8906 239.42 77.6445L239.447 77.2754C239.438 77.2845 239.361 77.403 239.215 77.6309C239.078 77.8496 238.9 78.1185 238.682 78.4375C238.472 78.7565 238.281 79.0208 238.107 79.2305L232.338 86.5176H232.01L226.322 79.2305C226.149 79.0208 225.949 78.7611 225.721 78.4512C225.502 78.1413 225.324 77.8815 225.188 77.6719C225.06 77.4531 224.982 77.321 224.955 77.2754L224.969 77.4258C224.978 77.526 224.987 77.6536 224.996 77.8086C225.005 77.9635 225.014 78.1322 225.023 78.3145C225.033 78.4876 225.042 78.679 225.051 78.8887C225.06 79.0892 225.064 79.2669 225.064 79.4219V92H223.096ZM246.529 92V72.9551H258.123V74.7461H248.553V81.5547H257.098V83.3184H248.553V90.209H258.52V92H246.529ZM266.025 92.2188C263.774 92.2188 262.133 91.2663 261.104 89.3613L262.744 88.3359C263.537 89.7122 264.604 90.4004 265.943 90.4004C266.919 90.4004 267.684 90.1178 268.24 89.5527C268.796 88.9785 269.074 88.1035 269.074 86.9277V72.9551H271.125V86.9824C271.125 88.6777 270.656 89.9766 269.717 90.8789C268.787 91.7721 267.557 92.2188 266.025 92.2188ZM284.988 92.2188C283.193 92.2188 281.552 91.8132 280.066 91.002C278.59 90.1816 277.414 89.0241 276.539 87.5293C275.664 86.0345 275.227 84.3529 275.227 82.4844C275.227 80.6159 275.664 78.9342 276.539 77.4395C277.414 75.9355 278.594 74.778 280.08 73.9668C281.566 73.1465 283.202 72.7363 284.988 72.7363C286.784 72.7363 288.424 73.1465 289.91 73.9668C291.405 74.778 292.59 75.9355 293.465 77.4395C294.349 78.9342 294.791 80.6159 294.791 82.4844C294.791 84.3529 294.349 86.0345 293.465 87.5293C292.59 89.0241 291.41 90.1816 289.924 91.002C288.438 91.8132 286.793 92.2188 284.988 92.2188ZM284.988 90.4004C287.212 90.4004 289.053 89.6484 290.512 88.1445C291.97 86.6406 292.699 84.7539 292.699 82.4844C292.699 80.9896 292.367 79.6406 291.701 78.4375C291.045 77.2253 290.129 76.2773 288.953 75.5938C287.777 74.901 286.456 74.5547 284.988 74.5547C282.783 74.5547 280.951 75.3066 279.492 76.8105C278.043 78.3145 277.318 80.2057 277.318 82.4844C277.318 83.6055 277.51 84.6582 277.893 85.6426C278.285 86.6178 278.818 87.4564 279.492 88.1582C280.167 88.8509 280.978 89.3978 281.926 89.7988C282.874 90.1999 283.895 90.4004 284.988 90.4004ZM298.893 92V72.9551H304.607C306.676 72.9551 308.322 73.4473 309.543 74.4316C310.773 75.416 311.389 76.8652 311.389 78.7793C311.389 80.1556 311.033 81.304 310.322 82.2246C309.62 83.1361 308.641 83.7832 307.383 84.166L312.031 92H309.652L305.277 84.4941C305.095 84.5124 304.799 84.5215 304.389 84.5215H300.916V92H298.893ZM300.916 82.7852H304.498C306.066 82.7852 307.255 82.4525 308.066 81.7871C308.878 81.1126 309.283 80.11 309.283 78.7793C309.283 76.0905 307.688 74.7461 304.498 74.7461H300.916V82.7852ZM315.9 92V72.9551H327.494V74.7461H317.924V81.5547H326.469V83.3184H317.924V90.209H327.891V92H315.9ZM336.996 92.2188C336.121 92.2188 335.314 92.1139 334.576 91.9043C333.838 91.6947 333.204 91.4076 332.676 91.043C332.147 90.6693 331.691 90.2637 331.309 89.8262C330.935 89.3887 330.616 88.901 330.352 88.3633L332.033 87.4609C332.279 87.8984 332.539 88.2812 332.812 88.6094C333.086 88.9375 333.414 89.2474 333.797 89.5391C334.189 89.8216 334.649 90.0404 335.178 90.1953C335.706 90.3503 336.294 90.4277 336.941 90.4277C338.081 90.4277 339.02 90.1361 339.758 89.5527C340.505 88.9603 340.879 88.1719 340.879 87.1875C340.879 86.2669 340.596 85.515 340.031 84.9316C339.475 84.3483 338.564 83.7741 337.297 83.209L335.793 82.5117C334.827 82.0742 334.052 81.6367 333.469 81.1992C332.895 80.7617 332.439 80.2194 332.102 79.5723C331.764 78.9251 331.596 78.1686 331.596 77.3027C331.596 75.9447 332.065 74.8464 333.004 74.0078C333.952 73.1602 335.15 72.7363 336.6 72.7363C338.887 72.7363 340.605 73.6888 341.754 75.5938L340.127 76.6055C339.726 75.9492 339.247 75.4388 338.691 75.0742C338.135 74.7096 337.438 74.5273 336.6 74.5273C335.67 74.5273 334.932 74.778 334.385 75.2793C333.847 75.7715 333.578 76.4277 333.578 77.248C333.578 78.0592 333.801 78.7018 334.248 79.1758C334.695 79.6497 335.479 80.1465 336.6 80.666L338.117 81.3633C339.767 82.0924 340.975 82.9036 341.74 83.7969C342.515 84.681 342.902 85.8112 342.902 87.1875C342.902 88.7279 342.351 89.9538 341.248 90.8652C340.154 91.7676 338.737 92.2188 336.996 92.2188ZM357.723 94.8848C356.31 94.8848 355.079 94.5612 354.031 93.9141C352.983 93.2669 352.199 92.3783 351.68 91.248L353.389 90.373C354.227 92.2051 355.672 93.1211 357.723 93.1211C358.853 93.1211 359.796 92.7747 360.553 92.082C361.318 91.3984 361.701 90.446 361.701 89.2246C361.701 88.0397 361.318 87.1419 360.553 86.5312C359.796 85.9206 358.762 85.6152 357.449 85.6152C356.592 85.6152 355.799 85.7839 355.07 86.1211L354.879 85.834L359.377 80.3789C359.486 80.2331 359.609 80.0827 359.746 79.9277C359.892 79.7728 360.006 79.6543 360.088 79.5723L360.225 79.4492C359.751 79.5312 359.299 79.5723 358.871 79.5723H353.115V77.8906H363.301V78.082L358.926 83.3457C358.762 83.5553 358.589 83.7422 358.406 83.9062C358.224 84.0612 358.101 84.1478 358.037 84.166C359.678 84.166 361.045 84.6263 362.139 85.5469C363.232 86.4674 363.779 87.7025 363.779 89.252C363.779 90.9199 363.21 92.2734 362.07 93.3125C360.94 94.3607 359.491 94.8848 357.723 94.8848ZM371.34 94.8848C370 94.8848 368.842 94.6022 367.867 94.0371C366.901 93.472 366.19 92.7383 365.734 91.8359L367.389 90.9336C368.209 92.3919 369.526 93.1211 371.34 93.1211C372.534 93.1211 373.491 92.7702 374.211 92.0684C374.931 91.3757 375.291 90.4551 375.291 89.3066C375.291 88.1217 374.954 87.2012 374.279 86.5449C373.614 85.8887 372.625 85.5605 371.312 85.5605C369.827 85.5605 368.492 86.0573 367.307 87.0508L367.061 86.9551V77.8906H376.439V79.5723H368.77V84.6309C369.526 84.1113 370.515 83.8516 371.736 83.8516C373.432 83.8516 374.79 84.362 375.811 85.3828C376.84 86.3945 377.355 87.7116 377.355 89.334C377.355 90.9473 376.799 92.2734 375.688 93.3125C374.576 94.3607 373.126 94.8848 371.34 94.8848ZM396.387 92.2188C394.591 92.2188 392.951 91.8132 391.465 91.002C389.988 90.1816 388.812 89.0241 387.938 87.5293C387.062 86.0345 386.625 84.3529 386.625 82.4844C386.625 80.6159 387.062 78.9342 387.938 77.4395C388.812 75.9355 389.993 74.778 391.479 73.9668C392.964 73.1465 394.6 72.7363 396.387 72.7363C399.777 72.7363 402.298 73.9668 403.947 76.4277L402.416 77.5488C401.778 76.61 400.949 75.8763 399.928 75.3477C398.907 74.819 397.727 74.5547 396.387 74.5547C394.919 74.5547 393.598 74.901 392.422 75.5938C391.255 76.2773 390.344 77.2253 389.688 78.4375C389.04 79.6406 388.717 80.9896 388.717 82.4844C388.717 83.6055 388.908 84.6582 389.291 85.6426C389.674 86.6178 390.202 87.4564 390.877 88.1582C391.551 88.8509 392.363 89.3978 393.311 89.7988C394.268 90.1999 395.293 90.4004 396.387 90.4004C397.745 90.4004 398.952 90.1224 400.01 89.5664C401.076 89.0104 401.96 88.2266 402.662 87.2148L404.234 88.3086C403.387 89.5573 402.288 90.5234 400.939 91.207C399.59 91.8815 398.073 92.2188 396.387 92.2188ZM410.414 85.9844H417.756L414.816 78.6973C414.707 78.4238 414.593 78.1048 414.475 77.7402C414.356 77.3665 414.26 77.0612 414.188 76.8242C414.124 76.5872 414.092 76.4551 414.092 76.4277C414.092 76.4368 414.051 76.569 413.969 76.8242C413.896 77.0703 413.796 77.3757 413.668 77.7402C413.549 78.1048 413.436 78.4147 413.326 78.6699L410.414 85.9844ZM406.025 92L413.914 72.7637H414.256L422.322 92H420.189L418.453 87.7207H409.717L408.008 92H406.025ZM425.932 92V72.9551H437.389V74.7461H427.955V82.0332H436.527V83.8516H427.955V92H425.932ZM441.49 92V72.9551H453.084V74.7461H443.514V81.5547H452.059V83.3184H443.514V90.209H453.48V92H441.49ZM462.586 92.2188C461.711 92.2188 460.904 92.1139 460.166 91.9043C459.428 91.6947 458.794 91.4076 458.266 91.043C457.737 90.6693 457.281 90.2637 456.898 89.8262C456.525 89.3887 456.206 88.901 455.941 88.3633L457.623 87.4609C457.869 87.8984 458.129 88.2812 458.402 88.6094C458.676 88.9375 459.004 89.2474 459.387 89.5391C459.779 89.8216 460.239 90.0404 460.768 90.1953C461.296 90.3503 461.884 90.4277 462.531 90.4277C463.671 90.4277 464.609 90.1361 465.348 89.5527C466.095 88.9603 466.469 88.1719 466.469 87.1875C466.469 86.2669 466.186 85.515 465.621 84.9316C465.065 84.3483 464.154 83.7741 462.887 83.209L461.383 82.5117C460.417 82.0742 459.642 81.6367 459.059 81.1992C458.484 80.7617 458.029 80.2194 457.691 79.5723C457.354 78.9251 457.186 78.1686 457.186 77.3027C457.186 75.9447 457.655 74.8464 458.594 74.0078C459.542 73.1602 460.74 72.7363 462.189 72.7363C464.477 72.7363 466.195 73.6888 467.344 75.5938L465.717 76.6055C465.316 75.9492 464.837 75.4388 464.281 75.0742C463.725 74.7096 463.028 74.5273 462.189 74.5273C461.26 74.5273 460.521 74.778 459.975 75.2793C459.437 75.7715 459.168 76.4277 459.168 77.248C459.168 78.0592 459.391 78.7018 459.838 79.1758C460.285 79.6497 461.068 80.1465 462.189 80.666L463.707 81.3633C465.357 82.0924 466.564 82.9036 467.33 83.7969C468.105 84.681 468.492 85.8112 468.492 87.1875C468.492 88.7279 467.941 89.9538 466.838 90.8652C465.744 91.7676 464.327 92.2188 462.586 92.2188ZM479.252 92V72.9551H483.873C487.036 72.9551 489.542 73.821 491.393 75.5527C493.252 77.2754 494.182 79.5859 494.182 82.4844C494.182 85.3828 493.257 87.6934 491.406 89.416C489.556 91.1387 487.045 92 483.873 92H479.252ZM481.275 90.1816H483.736C485.113 90.1816 486.334 89.9948 487.4 89.6211C488.467 89.2474 489.337 88.7188 490.012 88.0352C490.686 87.3516 491.192 86.5449 491.529 85.6152C491.876 84.6764 492.049 83.6328 492.049 82.4844C492.049 80.1328 491.342 78.2598 489.93 76.8652C488.526 75.4707 486.462 74.7734 483.736 74.7734H481.275V90.1816ZM498.283 92V72.9551H509.877V74.7461H500.307V81.5547H508.852V83.3184H500.307V90.209H510.273V92H498.283ZM526.023 92.2188C525.148 92.2188 524.342 92.1139 523.604 91.9043C522.865 91.6947 522.232 91.4076 521.703 91.043C521.174 90.6693 520.719 90.2637 520.336 89.8262C519.962 89.3887 519.643 88.901 519.379 88.3633L521.061 87.4609C521.307 87.8984 521.566 88.2812 521.84 88.6094C522.113 88.9375 522.441 89.2474 522.824 89.5391C523.216 89.8216 523.676 90.0404 524.205 90.1953C524.734 90.3503 525.322 90.4277 525.969 90.4277C527.108 90.4277 528.047 90.1361 528.785 89.5527C529.533 88.9603 529.906 88.1719 529.906 87.1875C529.906 86.2669 529.624 85.515 529.059 84.9316C528.503 84.3483 527.591 83.7741 526.324 83.209L524.82 82.5117C523.854 82.0742 523.079 81.6367 522.496 81.1992C521.922 80.7617 521.466 80.2194 521.129 79.5723C520.792 78.9251 520.623 78.1686 520.623 77.3027C520.623 75.9447 521.092 74.8464 522.031 74.0078C522.979 73.1602 524.178 72.7363 525.627 72.7363C527.915 72.7363 529.633 73.6888 530.781 75.5938L529.154 76.6055C528.753 75.9492 528.275 75.4388 527.719 75.0742C527.163 74.7096 526.465 74.5273 525.627 74.5273C524.697 74.5273 523.959 74.778 523.412 75.2793C522.874 75.7715 522.605 76.4277 522.605 77.248C522.605 78.0592 522.829 78.7018 523.275 79.1758C523.722 79.6497 524.506 80.1465 525.627 80.666L527.145 81.3633C528.794 82.0924 530.002 82.9036 530.768 83.7969C531.542 84.681 531.93 85.8112 531.93 87.1875C531.93 88.7279 531.378 89.9538 530.275 90.8652C529.182 91.7676 527.764 92.2188 526.023 92.2188ZM539.791 92V74.7461H533.939V72.9551H547.652V74.7461H541.801V92H539.791ZM558.932 92.2188C557.528 92.2188 556.211 91.9818 554.98 91.5078C553.75 91.0247 552.693 90.3594 551.809 89.5117C550.924 88.6641 550.227 87.6341 549.717 86.4219C549.215 85.2096 548.965 83.8971 548.965 82.4844C548.965 80.6068 549.393 78.9251 550.25 77.4395C551.107 75.9447 552.278 74.7871 553.764 73.9668C555.258 73.1465 556.922 72.7363 558.754 72.7363C561.652 72.7363 563.867 73.5566 565.398 75.1973L564.018 76.5781C562.723 75.2292 560.969 74.5547 558.754 74.5547C557.286 74.5547 555.965 74.901 554.789 75.5938C553.613 76.2773 552.697 77.2253 552.041 78.4375C551.385 79.6406 551.057 80.9896 551.057 82.4844C551.057 84.763 551.795 86.6543 553.271 88.1582C554.748 89.653 556.635 90.4004 558.932 90.4004C561.256 90.4004 563.129 89.8216 564.551 88.6641V84.6582H558.904V82.8672H566.465V89.5938C565.69 90.3503 564.656 90.9792 563.361 91.4805C562.076 91.9727 560.6 92.2188 558.932 92.2188ZM579.535 92.2188C577.74 92.2188 576.099 91.8132 574.613 91.002C573.137 90.1816 571.961 89.0241 571.086 87.5293C570.211 86.0345 569.773 84.3529 569.773 82.4844C569.773 80.6159 570.211 78.9342 571.086 77.4395C571.961 75.9355 573.141 74.778 574.627 73.9668C576.113 73.1465 577.749 72.7363 579.535 72.7363C581.331 72.7363 582.971 73.1465 584.457 73.9668C585.952 74.778 587.137 75.9355 588.012 77.4395C588.896 78.9342 589.338 80.6159 589.338 82.4844C589.338 84.3529 588.896 86.0345 588.012 87.5293C587.137 89.0241 585.956 90.1816 584.471 91.002C582.985 91.8132 581.34 92.2188 579.535 92.2188ZM579.535 90.4004C581.759 90.4004 583.6 89.6484 585.059 88.1445C586.517 86.6406 587.246 84.7539 587.246 82.4844C587.246 80.9896 586.913 79.6406 586.248 78.4375C585.592 77.2253 584.676 76.2773 583.5 75.5938C582.324 74.901 581.003 74.5547 579.535 74.5547C577.329 74.5547 575.497 75.3066 574.039 76.8105C572.59 78.3145 571.865 80.2057 571.865 82.4844C571.865 83.6055 572.057 84.6582 572.439 85.6426C572.831 86.6178 573.365 87.4564 574.039 88.1582C574.714 88.8509 575.525 89.3978 576.473 89.7988C577.421 90.1999 578.441 90.4004 579.535 90.4004Z" fill="white"/>
<path d="M604.8 92V80.437H608.187C609.454 80.437 610.456 80.7441 611.192 81.3584C611.933 81.9671 612.304 82.8553 612.304 84.0229C612.304 85.174 611.933 86.0622 611.192 86.6875C610.456 87.3073 609.454 87.6172 608.187 87.6172H606.029V92H604.8ZM606.029 86.5298H608.121C609.089 86.5298 609.817 86.3195 610.304 85.8989C610.796 85.4728 611.042 84.8475 611.042 84.0229C611.042 82.3573 610.069 81.5244 608.121 81.5244H606.029V86.5298ZM614.695 92V80.437H618.165C619.421 80.437 620.42 80.7358 621.161 81.3335C621.908 81.9312 622.282 82.811 622.282 83.9731C622.282 84.8088 622.066 85.506 621.634 86.0649C621.208 86.6183 620.613 87.0112 619.85 87.2437L622.672 92H621.228L618.571 87.4429C618.461 87.4539 618.281 87.4595 618.032 87.4595H615.923V92H614.695ZM615.923 86.4053H618.098C619.05 86.4053 619.772 86.2033 620.265 85.7993C620.757 85.3898 621.003 84.7811 621.003 83.9731C621.003 82.3407 620.035 81.5244 618.098 81.5244H615.923V86.4053ZM625.021 92V80.437H632.06V81.5244H626.25V85.6582H631.438V86.729H626.25V90.9126H632.301V92H625.021ZM637.829 92.1328C637.298 92.1328 636.808 92.0692 636.36 91.9419C635.912 91.8146 635.527 91.6403 635.206 91.4189C634.885 91.1921 634.608 90.9458 634.376 90.6802C634.149 90.4146 633.955 90.1185 633.795 89.792L634.816 89.2441C634.965 89.5098 635.123 89.7422 635.289 89.9414C635.455 90.1406 635.654 90.3288 635.887 90.5059C636.125 90.6774 636.404 90.8102 636.725 90.9043C637.046 90.9984 637.403 91.0454 637.796 91.0454C638.488 91.0454 639.058 90.8683 639.506 90.5142C639.96 90.1545 640.187 89.6758 640.187 89.0781C640.187 88.5192 640.015 88.0627 639.672 87.7085C639.334 87.3543 638.781 87.0057 638.012 86.6626L637.099 86.2393C636.512 85.9736 636.042 85.708 635.688 85.4424C635.339 85.1768 635.062 84.8475 634.857 84.4546C634.653 84.0617 634.55 83.6024 634.55 83.0767C634.55 82.2521 634.835 81.5853 635.405 81.0762C635.981 80.5615 636.708 80.3042 637.588 80.3042C638.977 80.3042 640.021 80.8825 640.718 82.0391L639.73 82.6533C639.486 82.2549 639.196 81.945 638.858 81.7236C638.521 81.5023 638.097 81.3916 637.588 81.3916C637.024 81.3916 636.576 81.5438 636.244 81.8481C635.917 82.147 635.754 82.5454 635.754 83.0435C635.754 83.536 635.889 83.9261 636.161 84.2139C636.432 84.5016 636.908 84.8032 637.588 85.1187L638.51 85.542C639.511 85.9847 640.245 86.4772 640.709 87.0195C641.18 87.5563 641.415 88.2425 641.415 89.0781C641.415 90.0133 641.08 90.7576 640.411 91.311C639.747 91.8589 638.886 92.1328 637.829 92.1328ZM643.914 92V80.437H650.953V81.5244H645.142V85.6582H650.33V86.729H645.142V90.9126H651.193V92H643.914ZM662.532 92.1162L655.634 83.9565C655.496 83.7961 655.335 83.5941 655.153 83.3506C654.97 83.1071 654.862 82.9577 654.829 82.9023C654.829 82.9189 654.837 83.0047 654.854 83.1597C654.876 83.3146 654.896 83.4945 654.912 83.6992C654.929 83.8984 654.937 84.0645 654.937 84.1973V92H653.775V80.3208H653.982L660.889 88.4805C660.961 88.5635 661.044 88.6686 661.138 88.7959C661.232 88.9232 661.312 89.0366 661.378 89.1362C661.45 89.2303 661.517 89.3216 661.578 89.4102C661.644 89.4987 661.68 89.5457 661.686 89.5513L661.661 89.3271C661.65 89.1722 661.636 88.9896 661.619 88.7793C661.608 88.5635 661.603 88.3836 661.603 88.2397V80.437H662.74V92.1162H662.532ZM668.434 92V81.5244H664.881V80.437H673.207V81.5244H669.654V92H668.434ZM675.697 88.3477H680.155L678.37 83.9233C678.304 83.7573 678.235 83.5636 678.163 83.3423C678.091 83.1154 678.033 82.93 677.988 82.7861C677.95 82.6423 677.93 82.562 677.93 82.5454C677.93 82.5509 677.905 82.6312 677.855 82.7861C677.811 82.9355 677.75 83.1209 677.673 83.3423C677.601 83.5636 677.532 83.7518 677.465 83.9067L675.697 88.3477ZM673.033 92L677.822 80.3208H678.03L682.927 92H681.632L680.578 89.4019H675.274L674.236 92H673.033ZM685.119 92V80.437H687.924C689.845 80.437 691.366 80.9627 692.49 82.0142C693.619 83.0601 694.183 84.4629 694.183 86.2227C694.183 87.9824 693.621 89.3853 692.498 90.4312C691.375 91.4771 689.85 92 687.924 92H685.119ZM686.347 90.896H687.841C688.677 90.896 689.418 90.7826 690.066 90.5557C690.713 90.3288 691.242 90.0078 691.651 89.5928C692.061 89.1777 692.368 88.688 692.573 88.1235C692.783 87.5535 692.888 86.9199 692.888 86.2227C692.888 84.7949 692.459 83.6577 691.602 82.811C690.749 81.9644 689.496 81.541 687.841 81.541H686.347V90.896ZM701.944 92.1328C700.854 92.1328 699.858 91.8866 698.956 91.394C698.06 90.896 697.346 90.1932 696.814 89.2856C696.283 88.3781 696.018 87.3571 696.018 86.2227C696.018 85.0882 696.283 84.0672 696.814 83.1597C697.346 82.2466 698.062 81.5438 698.964 81.0513C699.866 80.5532 700.86 80.3042 701.944 80.3042C703.035 80.3042 704.031 80.5532 704.933 81.0513C705.84 81.5438 706.56 82.2466 707.091 83.1597C707.628 84.0672 707.896 85.0882 707.896 86.2227C707.896 87.3571 707.628 88.3781 707.091 89.2856C706.56 90.1932 705.843 90.896 704.941 91.394C704.039 91.8866 703.04 92.1328 701.944 92.1328ZM701.944 91.0288C703.295 91.0288 704.412 90.5723 705.298 89.6592C706.183 88.7461 706.626 87.6006 706.626 86.2227C706.626 85.3151 706.424 84.4961 706.02 83.7656C705.622 83.0296 705.065 82.4541 704.352 82.0391C703.638 81.6185 702.835 81.4082 701.944 81.4082C700.605 81.4082 699.493 81.8647 698.607 82.7778C697.728 83.6909 697.288 84.8392 697.288 86.2227C697.288 86.9033 697.404 87.5425 697.636 88.1401C697.874 88.7323 698.198 89.2414 698.607 89.6675C699.017 90.0881 699.509 90.4201 700.085 90.6636C700.66 90.9071 701.28 91.0288 701.944 91.0288ZM714.42 92V80.437H717.807C719.074 80.437 720.076 80.7441 720.812 81.3584C721.554 81.9671 721.924 82.8553 721.924 84.0229C721.924 85.174 721.554 86.0622 720.812 86.6875C720.076 87.3073 719.074 87.6172 717.807 87.6172H715.649V92H714.42ZM715.649 86.5298H717.741C718.709 86.5298 719.437 86.3195 719.924 85.8989C720.416 85.4728 720.663 84.8475 720.663 84.0229C720.663 82.3573 719.689 81.5244 717.741 81.5244H715.649V86.5298ZM729.586 92.1328C728.496 92.1328 727.5 91.8866 726.598 91.394C725.701 90.896 724.987 90.1932 724.456 89.2856C723.925 88.3781 723.659 87.3571 723.659 86.2227C723.659 85.0882 723.925 84.0672 724.456 83.1597C724.987 82.2466 725.704 81.5438 726.606 81.0513C727.508 80.5532 728.501 80.3042 729.586 80.3042C730.676 80.3042 731.672 80.5532 732.574 81.0513C733.482 81.5438 734.201 82.2466 734.732 83.1597C735.269 84.0672 735.538 85.0882 735.538 86.2227C735.538 87.3571 735.269 88.3781 734.732 89.2856C734.201 90.1932 733.485 90.896 732.583 91.394C731.681 91.8866 730.682 92.1328 729.586 92.1328ZM729.586 91.0288C730.936 91.0288 732.054 90.5723 732.939 89.6592C733.825 88.7461 734.268 87.6006 734.268 86.2227C734.268 85.3151 734.066 84.4961 733.662 83.7656C733.263 83.0296 732.707 82.4541 731.993 82.0391C731.279 81.6185 730.477 81.4082 729.586 81.4082C728.247 81.4082 727.134 81.8647 726.249 82.7778C725.369 83.6909 724.929 84.8392 724.929 86.2227C724.929 86.9033 725.045 87.5425 725.278 88.1401C725.516 88.7323 725.84 89.2414 726.249 89.6675C726.659 90.0881 727.151 90.4201 727.727 90.6636C728.302 90.9071 728.922 91.0288 729.586 91.0288ZM738.028 92V80.437H741.498C742.754 80.437 743.753 80.7358 744.494 81.3335C745.241 81.9312 745.615 82.811 745.615 83.9731C745.615 84.8088 745.399 85.506 744.967 86.0649C744.541 86.6183 743.946 87.0112 743.183 87.2437L746.005 92H744.561L741.904 87.4429C741.794 87.4539 741.614 87.4595 741.365 87.4595H739.256V92H738.028ZM739.256 86.4053H741.431C742.383 86.4053 743.105 86.2033 743.598 85.7993C744.09 85.3898 744.336 84.7811 744.336 83.9731C744.336 82.3407 743.368 81.5244 741.431 81.5244H739.256V86.4053Z" fill="white"/>
<g clip-path="url(#clip0_36_11)">
<path fill-rule="evenodd" clip-rule="evenodd" d="M917.14 55.0459C917.703 54.9754 918.278 54.9947 918.843 55.0459C919.885 55.1401 920.908 55.3839 921.93 55.6087C922.708 55.7799 924.245 56.2068 924.245 56.2068C924.424 56.2554 924.734 56.2529 924.973 56.2068C925.289 56.1455 925.7 55.9918 925.872 55.8456C925.991 55.8886 926.086 55.9144 926.231 56.0262L919.117 61.0307C918.247 61.6428 916.951 62.7564 916.951 63.3895V75.6833L909.931 80.5073C910.034 79.8365 910.924 79.226 910.924 78.2715V65.8547C910.924 64.8916 917.679 61.4005 917.679 60.403C917.679 59.908 916.393 59.451 915.668 59.1359C915.05 58.8674 914.382 58.7092 913.715 58.623C912.702 58.4921 911.664 58.4963 910.65 58.623C909.576 58.7573 907.988 59.4485 907.5 59.4227C908.459 58.7929 910.86 56.9659 912.752 56.1601C914.142 55.5681 915.643 55.233 917.14 55.0459ZM931.539 55.3125C932.626 55.3125 933.277 56.4647 935.143 58.8896C935.605 59.4829 937.754 62.097 937.754 63.3524V64.3413C937.754 66.8866 931 69.4405 931 70.4981C931 71.2291 934.552 70.8851 936.136 71.9342C937.651 72.9316 938.293 75.047 938.293 76.2164V79.2604C938.293 81.0747 935.785 81.7628 932.712 84.0845C931.359 85.0991 926.753 88.1947 926.411 88.1947C926.411 88.1947 924.026 86.9391 922.767 86.4741C921.408 85.9722 920.011 85.5233 918.578 85.3312C917.446 85.1795 916.287 85.1967 915.153 85.3312C913.377 85.5418 910.205 86.5867 909.931 86.5867C909.931 86.5867 911.692 84.8692 914.217 83.4111C916.079 82.3357 918.431 81.7402 920.65 81.4015C921.835 81.2205 923.06 81.2182 924.245 81.4015C925.613 81.6131 927.541 82.442 928.209 82.6569V59.9559C928.209 59.7409 927.926 59.3368 927.49 59.3368C926.488 59.3368 925.778 61.1425 925.778 61.2113V74.7031L917.944 80.5073C917.944 80.5073 917.985 80.2248 918.124 80.0432C918.661 79.3413 918.937 79.1658 918.937 78.5467V63.8942C918.937 63.7136 922.803 60.6583 924.879 59.2422C927.01 57.788 929.989 55.3125 931.539 55.3125ZM929.476 61.4779C929.476 61.4779 932.352 64.5993 932.352 66.4824C932.352 67.9099 931.248 68.4688 929.476 69.5179V61.4779ZM929.476 72.0202C929.75 72.0889 931.359 73.052 931.359 73.7227V83.9898H931C930.435 83.9898 929.476 83.5513 929.476 83.0095V72.0202ZM998.262 68.1764L1004.66 71.3064V85.0647L998.622 88.0142L992.141 85.2453V70.8593L998.262 68.1764ZM968.727 67.7723L972.597 71.6075V83.405L974.395 85.1937L971.424 88.0484L968.274 85.0991V74.1096C968.222 74.0752 966.305 72.1835 965.937 72.0545L963.771 74.0236V83.4911L965.397 85.0991L962.332 88.0484L959.542 85.3742V73.4906C959.542 73.4906 958.215 72.39 957.65 71.7019L961.434 67.8583L965.123 71.3408L968.727 67.7723ZM983.581 68.271L990.609 71.2205C990.284 71.6161 988.144 73.1725 987.364 73.3616C987.364 73.3616 981.629 71.1345 981.509 71.1259V82.743L986.337 85.1249C986.337 85.1249 989.119 84.1703 989.796 84.1703C989.873 84.1703 989.993 84.1961 990.155 84.1703V84.437L984.668 88.0142H983.94L977.006 84.8842V71.3924L983.581 68.271ZM948.104 67.9442C952.479 70.1198 954.405 70.3863 954.405 71.3408V82.7774L957.196 85.5462L954.585 88.0484C952.676 86.5006 951.974 85.8214 951.974 85.8214L947.18 88.2033L940.631 85.2281V77.6868L947.026 74.5568L950.536 75.9928V72.8628L944.928 70.9281L942.112 71.2634L941.983 70.8077L948.104 67.9442ZM996.328 70.8593L1000.51 72.8284V85.0647L996.276 83.1901L996.328 70.8593ZM944.594 77.1536L950.536 80.1031V85.6409L944.594 82.8978V77.1536ZM1026.63 59.8785C1026.91 59.8785 1028.09 60.3342 1030.06 61.3059C1031.12 61.8304 1033.03 62.2346 1033.03 63.1805V85.3398L1027.09 88.1086L1020.51 84.9872V70.9539L1026.81 68.185C1027.04 68.2108 1029.06 68.9933 1029.06 68.9933V64.5219L1023.81 62.2948C1022.95 62.3464 1021.94 63.1633 1020.91 63.3438L1021.14 62.4668C1021.14 62.4668 1025.88 59.8785 1026.63 59.8785ZM1043.29 68.099L1049.15 74.531L1040.59 80.7824V82.4851C1040.59 82.8376 1045.63 85.1249 1045.63 85.1249C1045.63 85.1249 1048.13 83.4308 1049.23 84.0931C1049.17 84.1703 1043.2 88.0228 1043.2 88.0228L1036.81 85.2539V71.1345L1043.29 68.099ZM1024.66 70.8679L1028.97 72.8284V85.0733H1028.88L1024.66 83.1987V70.8679ZM1040.68 71.1345L1044.97 75.5972L1040.68 78.7272V71.1345ZM1121.91 83.5771L1123.52 85.0905L1120.28 88.1258L1117.22 85.0905V64.5391L1121.91 59.9903V83.5771ZM1096.96 59.4141V72.3642L1101.64 67.8067L1105.15 71.2978V87.7303L1100.75 92.0211H1100.65V73.525L1098.94 71.917L1096.96 73.6195V83.3534L1098.67 84.9614V85.0561L1095.52 88.1775L1092.46 85.1421V63.877L1096.96 59.5001V59.4141ZM1110.38 59.4141H1110.47L1113.53 62.4495V62.5355L1110.38 65.6655L1107.23 62.5355L1110.38 59.4141ZM1132.53 68.2968C1132.7 68.2968 1138.39 74.4708 1138.47 74.7289L1129.92 80.7136V83.1299L1134.77 85.3054C1134.77 85.3054 1137.31 84.97 1138.21 84.1961L1139.5 84.5144C1139.39 84.6777 1133.55 88.2205 1132.53 88.2205C1132.31 88.2205 1127.94 86.5608 1126.14 85.357V71.6933C1126.14 71.0829 1132.51 68.2968 1132.53 68.2968ZM1110.47 67.8067H1110.56L1113.35 70.5755V83.2676L1115.06 84.8756L1111.82 87.997L1108.76 84.9614V72.2781L1107.32 70.9367L1110.47 67.8067ZM1130.01 71.3322L1134.11 75.52L1130.03 78.1254L1130.01 71.3322ZM1079.45 57.1689C1079.66 57.0484 1079.9 57.1182 1079.9 57.1182C1079.74 57.5109 1078.23 58.3761 1076.59 59.4281C1075.21 60.3113 1073.97 61.1822 1072.87 62.3034C1071.41 63.7941 1069.91 65.5542 1069.12 67.3411C1068.52 68.7135 1068.23 70.3183 1068.38 72.5446C1068.56 75.52 1070.93 79.9311 1073.68 81.5133C1074.53 81.9949 1076.92 83.3675 1079.72 83.5685C1080.71 83.6397 1081.38 83.6296 1082.44 83.506V61.667C1082.44 61.4005 1081.78 59.9817 1081.16 59.9817C1080.98 59.9817 1080.71 60.3084 1080.71 60.5148V75.4339C1080.71 75.9928 1080.19 76.7925 1077.65 78.4693C1075.04 80.1892 1074.24 80.7652 1073.96 80.705C1074.02 80.5417 1074.58 80.0879 1074.58 79.8108V64.2639C1074.58 62.7333 1076.84 61.8304 1078.82 60.3342C1081.29 58.4574 1082.9 57.684 1083.54 57.4179C1083.7 57.3437 1084.28 57.286 1084.67 57.2988C1086.83 57.3078 1088.19 59.8871 1088.45 60.1536C1088.96 60.6674 1089.82 60.7932 1090.52 60.6008C1090.93 60.4912 1091.78 60.0677 1092.32 60.1536C1090.87 61.4177 1086.11 64.3585 1086.11 64.3585C1085.93 64.4641 1085.61 64.4391 1085.4 64.3585C1084.88 64.1609 1084.55 63.8512 1083.95 63.5502V83.2067C1084.52 83.0354 1085.37 82.6722 1086.28 82.1294C1087.05 81.6754 1087.73 81.1668 1088.18 80.8044C1088.37 80.6513 1088.46 80.5904 1088.63 80.4385C1088.7 80.3778 1088.84 80.3728 1088.91 80.4385C1089.05 80.5864 1088.96 80.8635 1088.91 81.0661C1088.67 81.988 1088.12 82.8138 1087.55 83.5685C1086.99 84.3078 1086.25 84.9408 1085.56 85.5015C1083.23 87.3969 1080.56 88.3402 1077.1 88.3667C1069.23 88.4182 1063.66 82.7688 1063.06 74.0064C1062.46 65.2872 1068.65 58.1157 1075.94 57.6514C1077 57.5912 1078.3 57.6686 1078.46 57.6514C1078.59 57.6358 1079.02 57.4208 1079.45 57.1689Z" fill="white"/>
</g>
<line x1="163" y1="103.5" x2="1140" y2="103.5" stroke="white" stroke-dasharray="2 2"/>
<defs>
<clipPath id="clip0_36_11">
<rect width="232" height="46" fill="white" transform="translate(908 46)"/>
</clipPath>
</defs>
</svg>
