<svg width="1200" height="150" viewBox="0 0 1200 150" fill="none" xmlns="http://www.w3.org/2000/svg">
<rect width="1200" height="150" fill="#002464"/>
<path d="M115.319 35C105.549 35 102.215 40.0582 96.5001 47.3769C90.7864 40.0582 87.4462 35 77.6809 35C67.2013 35 60.2935 42.7185 60.2935 54.3022C60.2935 58.1911 61.2003 62.3368 63.1568 66.4823V79.8852C63.1568 80.9648 64.0337 81.8358 65.1072 81.8358C66.1807 81.8358 67.0577 80.9589 67.0577 79.8852V72.8647C67.762 73.7891 68.5193 74.7017 69.3424 75.6083L77.3238 84.4841V100.762C77.3238 101.842 78.1947 102.713 79.2802 102.713C80.3657 102.713 81.2306 101.842 81.2306 100.762V88.8265L96.506 105.832L103.36 98.2151V113.05C103.36 114.129 104.237 115 105.317 115C106.396 115 107.267 114.129 107.267 113.05V93.8728L117.371 82.6112V96.6642C117.371 97.7439 118.248 98.6147 119.328 98.6147C120.407 98.6147 121.278 97.7379 121.278 96.6642V78.2629L123.658 75.6143C129.969 68.6951 132.707 61.1078 132.707 54.314C132.707 42.7304 125.8 35.0119 115.313 35.0119L115.319 35Z" fill="#EA0029"/>
<path d="M85.4564 76.224C81.2282 76.224 78.3845 74.0373 77 71.1343L80.2928 69.4377C81.2656 71.6998 83.1365 72.7932 85.4564 72.7932C88.0009 72.7932 89.9466 71.1343 89.9466 68.1936C89.9466 65.2152 87.926 63.5941 85.0448 63.5941C83.5481 63.5941 82.6501 63.8957 81.9017 64.235L81.6024 63.858L86.579 57.411C87.1028 56.657 87.8138 56.0538 87.8138 56.0538C87.8138 56.0538 86.7286 56.2046 85.7932 56.2046H79.0206V53H93.4639V53.3393L88.4499 59.7862C87.9634 60.4271 87.3648 60.8796 87.3648 60.8796C91.1065 61.3697 93.9503 63.9711 93.9503 68.269C93.9503 72.6424 90.882 76.224 85.4564 76.224Z" fill="white"/>
<path d="M105.822 77C100.509 77 95.7195 72.7775 95.7195 66.9715C95.7195 61.1278 100.509 57.0183 105.822 57.0183C111.211 57.0183 116 61.1278 116 66.9715C116 72.7775 111.211 77 105.822 77ZM105.822 73.5692C109.302 73.5692 111.996 70.8924 111.996 66.9715C111.996 63.0128 109.302 60.4114 105.822 60.4114C102.417 60.4114 99.7232 63.0128 99.7232 66.9715C99.7232 70.8924 102.417 73.5692 105.822 73.5692Z" fill="white"/>
<path d="M166.061 92V72.9551H168.084V90.209H177.066V92H166.061ZM188.25 92.2188C186.454 92.2188 184.814 91.8132 183.328 91.002C181.852 90.1816 180.676 89.0241 179.801 87.5293C178.926 86.0345 178.488 84.3529 178.488 82.4844C178.488 80.6159 178.926 78.9342 179.801 77.4395C180.676 75.9355 181.856 74.778 183.342 73.9668C184.827 73.1465 186.464 72.7363 188.25 72.7363C190.046 72.7363 191.686 73.1465 193.172 73.9668C194.667 74.778 195.852 75.9355 196.727 77.4395C197.611 78.9342 198.053 80.6159 198.053 82.4844C198.053 84.3529 197.611 86.0345 196.727 87.5293C195.852 89.0241 194.671 90.1816 193.186 91.002C191.7 91.8132 190.055 92.2188 188.25 92.2188ZM188.25 90.4004C190.474 90.4004 192.315 89.6484 193.773 88.1445C195.232 86.6406 195.961 84.7539 195.961 82.4844C195.961 80.9896 195.628 79.6406 194.963 78.4375C194.307 77.2253 193.391 76.2773 192.215 75.5938C191.039 74.901 189.717 74.5547 188.25 74.5547C186.044 74.5547 184.212 75.3066 182.754 76.8105C181.305 78.3145 180.58 80.2057 180.58 82.4844C180.58 83.6055 180.771 84.6582 181.154 85.6426C181.546 86.6178 182.079 87.4564 182.754 88.1582C183.428 88.8509 184.24 89.3978 185.188 89.7988C186.135 90.1999 187.156 90.4004 188.25 90.4004ZM206.734 92.2188C205.859 92.2188 205.053 92.1139 204.314 91.9043C203.576 91.6947 202.943 91.4076 202.414 91.043C201.885 90.6693 201.43 90.2637 201.047 89.8262C200.673 89.3887 200.354 88.901 200.09 88.3633L201.771 87.4609C202.018 87.8984 202.277 88.2812 202.551 88.6094C202.824 88.9375 203.152 89.2474 203.535 89.5391C203.927 89.8216 204.387 90.0404 204.916 90.1953C205.445 90.3503 206.033 90.4277 206.68 90.4277C207.819 90.4277 208.758 90.1361 209.496 89.5527C210.243 88.9603 210.617 88.1719 210.617 87.1875C210.617 86.2669 210.335 85.515 209.77 84.9316C209.214 84.3483 208.302 83.7741 207.035 83.209L205.531 82.5117C204.565 82.0742 203.79 81.6367 203.207 81.1992C202.633 80.7617 202.177 80.2194 201.84 79.5723C201.503 78.9251 201.334 78.1686 201.334 77.3027C201.334 75.9447 201.803 74.8464 202.742 74.0078C203.69 73.1602 204.889 72.7363 206.338 72.7363C208.626 72.7363 210.344 73.6888 211.492 75.5938L209.865 76.6055C209.464 75.9492 208.986 75.4388 208.43 75.0742C207.874 74.7096 207.176 74.5273 206.338 74.5273C205.408 74.5273 204.67 74.778 204.123 75.2793C203.585 75.7715 203.316 76.4277 203.316 77.248C203.316 78.0592 203.54 78.7018 203.986 79.1758C204.433 79.6497 205.217 80.1465 206.338 80.666L207.855 81.3633C209.505 82.0924 210.713 82.9036 211.479 83.7969C212.253 84.681 212.641 85.8112 212.641 87.1875C212.641 88.7279 212.089 89.9538 210.986 90.8652C209.893 91.7676 208.475 92.2188 206.734 92.2188ZM223.4 92V72.7363H223.688L232.533 83.7969L241.324 72.7363H241.639V92H239.67V79.4219C239.67 79.1758 239.674 78.8796 239.684 78.5332C239.702 78.1868 239.715 77.8906 239.725 77.6445L239.752 77.2754C239.743 77.2845 239.665 77.403 239.52 77.6309C239.383 77.8496 239.205 78.1185 238.986 78.4375C238.777 78.7565 238.585 79.0208 238.412 79.2305L232.643 86.5176H232.314L226.627 79.2305C226.454 79.0208 226.253 78.7611 226.025 78.4512C225.807 78.1413 225.629 77.8815 225.492 77.6719C225.365 77.4531 225.287 77.321 225.26 77.2754L225.273 77.4258C225.283 77.526 225.292 77.6536 225.301 77.8086C225.31 77.9635 225.319 78.1322 225.328 78.3145C225.337 78.4876 225.346 78.679 225.355 78.8887C225.365 79.0892 225.369 79.2669 225.369 79.4219V92H223.4ZM246.834 92V72.9551H258.428V74.7461H248.857V81.5547H257.402V83.3184H248.857V90.209H258.824V92H246.834ZM266.33 92.2188C264.079 92.2188 262.438 91.2663 261.408 89.3613L263.049 88.3359C263.842 89.7122 264.908 90.4004 266.248 90.4004C267.223 90.4004 267.989 90.1178 268.545 89.5527C269.101 88.9785 269.379 88.1035 269.379 86.9277V72.9551H271.43V86.9824C271.43 88.6777 270.96 89.9766 270.021 90.8789C269.092 91.7721 267.861 92.2188 266.33 92.2188ZM285.293 92.2188C283.497 92.2188 281.857 91.8132 280.371 91.002C278.895 90.1816 277.719 89.0241 276.844 87.5293C275.969 86.0345 275.531 84.3529 275.531 82.4844C275.531 80.6159 275.969 78.9342 276.844 77.4395C277.719 75.9355 278.899 74.778 280.385 73.9668C281.87 73.1465 283.507 72.7363 285.293 72.7363C287.089 72.7363 288.729 73.1465 290.215 73.9668C291.71 74.778 292.895 75.9355 293.77 77.4395C294.654 78.9342 295.096 80.6159 295.096 82.4844C295.096 84.3529 294.654 86.0345 293.77 87.5293C292.895 89.0241 291.714 90.1816 290.229 91.002C288.743 91.8132 287.098 92.2188 285.293 92.2188ZM285.293 90.4004C287.517 90.4004 289.358 89.6484 290.816 88.1445C292.275 86.6406 293.004 84.7539 293.004 82.4844C293.004 80.9896 292.671 79.6406 292.006 78.4375C291.35 77.2253 290.434 76.2773 289.258 75.5938C288.082 74.901 286.76 74.5547 285.293 74.5547C283.087 74.5547 281.255 75.3066 279.797 76.8105C278.348 78.3145 277.623 80.2057 277.623 82.4844C277.623 83.6055 277.814 84.6582 278.197 85.6426C278.589 86.6178 279.122 87.4564 279.797 88.1582C280.471 88.8509 281.283 89.3978 282.23 89.7988C283.178 90.1999 284.199 90.4004 285.293 90.4004ZM299.197 92V72.9551H304.912C306.981 72.9551 308.626 73.4473 309.848 74.4316C311.078 75.416 311.693 76.8652 311.693 78.7793C311.693 80.1556 311.338 81.304 310.627 82.2246C309.925 83.1361 308.945 83.7832 307.688 84.166L312.336 92H309.957L305.582 84.4941C305.4 84.5124 305.104 84.5215 304.693 84.5215H301.221V92H299.197ZM301.221 82.7852H304.803C306.37 82.7852 307.56 82.4525 308.371 81.7871C309.182 81.1126 309.588 80.11 309.588 78.7793C309.588 76.0905 307.993 74.7461 304.803 74.7461H301.221V82.7852ZM316.205 92V72.9551H327.799V74.7461H318.229V81.5547H326.773V83.3184H318.229V90.209H328.195V92H316.205ZM337.301 92.2188C336.426 92.2188 335.619 92.1139 334.881 91.9043C334.143 91.6947 333.509 91.4076 332.98 91.043C332.452 90.6693 331.996 90.2637 331.613 89.8262C331.24 89.3887 330.921 88.901 330.656 88.3633L332.338 87.4609C332.584 87.8984 332.844 88.2812 333.117 88.6094C333.391 88.9375 333.719 89.2474 334.102 89.5391C334.493 89.8216 334.954 90.0404 335.482 90.1953C336.011 90.3503 336.599 90.4277 337.246 90.4277C338.385 90.4277 339.324 90.1361 340.062 89.5527C340.81 88.9603 341.184 88.1719 341.184 87.1875C341.184 86.2669 340.901 85.515 340.336 84.9316C339.78 84.3483 338.868 83.7741 337.602 83.209L336.098 82.5117C335.132 82.0742 334.357 81.6367 333.773 81.1992C333.199 80.7617 332.743 80.2194 332.406 79.5723C332.069 78.9251 331.9 78.1686 331.9 77.3027C331.9 75.9447 332.37 74.8464 333.309 74.0078C334.257 73.1602 335.455 72.7363 336.904 72.7363C339.192 72.7363 340.91 73.6888 342.059 75.5938L340.432 76.6055C340.031 75.9492 339.552 75.4388 338.996 75.0742C338.44 74.7096 337.743 74.5273 336.904 74.5273C335.975 74.5273 335.236 74.778 334.689 75.2793C334.152 75.7715 333.883 76.4277 333.883 77.248C333.883 78.0592 334.106 78.7018 334.553 79.1758C334.999 79.6497 335.783 80.1465 336.904 80.666L338.422 81.3633C340.072 82.0924 341.279 82.9036 342.045 83.7969C342.82 84.681 343.207 85.8112 343.207 87.1875C343.207 88.7279 342.656 89.9538 341.553 90.8652C340.459 91.7676 339.042 92.2188 337.301 92.2188ZM358.027 94.8848C356.615 94.8848 355.384 94.5612 354.336 93.9141C353.288 93.2669 352.504 92.3783 351.984 91.248L353.693 90.373C354.532 92.2051 355.977 93.1211 358.027 93.1211C359.158 93.1211 360.101 92.7747 360.857 92.082C361.623 91.3984 362.006 90.446 362.006 89.2246C362.006 88.0397 361.623 87.1419 360.857 86.5312C360.101 85.9206 359.066 85.6152 357.754 85.6152C356.897 85.6152 356.104 85.7839 355.375 86.1211L355.184 85.834L359.682 80.3789C359.791 80.2331 359.914 80.0827 360.051 79.9277C360.197 79.7728 360.311 79.6543 360.393 79.5723L360.529 79.4492C360.055 79.5312 359.604 79.5723 359.176 79.5723H353.42V77.8906H363.605V78.082L359.23 83.3457C359.066 83.5553 358.893 83.7422 358.711 83.9062C358.529 84.0612 358.406 84.1478 358.342 84.166C359.982 84.166 361.35 84.6263 362.443 85.5469C363.537 86.4674 364.084 87.7025 364.084 89.252C364.084 90.9199 363.514 92.2734 362.375 93.3125C361.245 94.3607 359.796 94.8848 358.027 94.8848ZM377.25 91.2891C376.12 91.9089 374.898 92.2188 373.586 92.2188C372.273 92.2188 371.052 91.9089 369.922 91.2891C368.801 90.6602 367.898 89.7852 367.215 88.6641C366.531 87.543 366.189 86.3034 366.189 84.9453C366.189 83.569 366.531 82.3203 367.215 81.1992C367.898 80.069 368.801 79.1986 369.922 78.5879C371.052 77.9681 372.273 77.6582 373.586 77.6582C374.57 77.6582 375.514 77.8405 376.416 78.2051C377.318 78.5697 378.107 79.071 378.781 79.709C379.456 80.3379 379.993 81.1081 380.395 82.0195C380.796 82.931 380.996 83.9062 380.996 84.9453C380.996 86.3034 380.654 87.543 379.971 88.6641C379.296 89.7852 378.389 90.6602 377.25 91.2891ZM373.586 90.4551C375.099 90.4551 376.37 89.931 377.4 88.8828C378.439 87.8346 378.959 86.5221 378.959 84.9453C378.959 83.332 378.444 82.0104 377.414 80.9805C376.384 79.9414 375.108 79.4219 373.586 79.4219C372.073 79.4219 370.806 79.9368 369.785 80.9668C368.773 81.9967 368.268 83.3229 368.268 84.9453C368.268 86.5312 368.778 87.8483 369.799 88.8965C370.82 89.9355 372.082 90.4551 373.586 90.4551ZM400.082 92.2188C398.286 92.2188 396.646 91.8132 395.16 91.002C393.684 90.1816 392.508 89.0241 391.633 87.5293C390.758 86.0345 390.32 84.3529 390.32 82.4844C390.32 80.6159 390.758 78.9342 391.633 77.4395C392.508 75.9355 393.688 74.778 395.174 73.9668C396.66 73.1465 398.296 72.7363 400.082 72.7363C403.473 72.7363 405.993 73.9668 407.643 76.4277L406.111 77.5488C405.473 76.61 404.644 75.8763 403.623 75.3477C402.602 74.819 401.422 74.5547 400.082 74.5547C398.615 74.5547 397.293 74.901 396.117 75.5938C394.951 76.2773 394.039 77.2253 393.383 78.4375C392.736 79.6406 392.412 80.9896 392.412 82.4844C392.412 83.6055 392.604 84.6582 392.986 85.6426C393.369 86.6178 393.898 87.4564 394.572 88.1582C395.247 88.8509 396.058 89.3978 397.006 89.7988C397.963 90.1999 398.988 90.4004 400.082 90.4004C401.44 90.4004 402.648 90.1224 403.705 89.5664C404.771 89.0104 405.656 88.2266 406.357 87.2148L407.93 88.3086C407.082 89.5573 405.984 90.5234 404.635 91.207C403.286 91.8815 401.768 92.2188 400.082 92.2188ZM414.109 85.9844H421.451L418.512 78.6973C418.402 78.4238 418.288 78.1048 418.17 77.7402C418.051 77.3665 417.956 77.0612 417.883 76.8242C417.819 76.5872 417.787 76.4551 417.787 76.4277C417.787 76.4368 417.746 76.569 417.664 76.8242C417.591 77.0703 417.491 77.3757 417.363 77.7402C417.245 78.1048 417.131 78.4147 417.021 78.6699L414.109 85.9844ZM409.721 92L417.609 72.7637H417.951L426.018 92H423.885L422.148 87.7207H413.412L411.703 92H409.721ZM429.627 92V72.9551H441.084V74.7461H431.65V82.0332H440.223V83.8516H431.65V92H429.627ZM445.186 92V72.9551H456.779V74.7461H447.209V81.5547H455.754V83.3184H447.209V90.209H457.176V92H445.186ZM466.281 92.2188C465.406 92.2188 464.6 92.1139 463.861 91.9043C463.123 91.6947 462.49 91.4076 461.961 91.043C461.432 90.6693 460.977 90.2637 460.594 89.8262C460.22 89.3887 459.901 88.901 459.637 88.3633L461.318 87.4609C461.564 87.8984 461.824 88.2812 462.098 88.6094C462.371 88.9375 462.699 89.2474 463.082 89.5391C463.474 89.8216 463.934 90.0404 464.463 90.1953C464.992 90.3503 465.579 90.4277 466.227 90.4277C467.366 90.4277 468.305 90.1361 469.043 89.5527C469.79 88.9603 470.164 88.1719 470.164 87.1875C470.164 86.2669 469.882 85.515 469.316 84.9316C468.76 84.3483 467.849 83.7741 466.582 83.209L465.078 82.5117C464.112 82.0742 463.337 81.6367 462.754 81.1992C462.18 80.7617 461.724 80.2194 461.387 79.5723C461.049 78.9251 460.881 78.1686 460.881 77.3027C460.881 75.9447 461.35 74.8464 462.289 74.0078C463.237 73.1602 464.436 72.7363 465.885 72.7363C468.173 72.7363 469.891 73.6888 471.039 75.5938L469.412 76.6055C469.011 75.9492 468.533 75.4388 467.977 75.0742C467.421 74.7096 466.723 74.5273 465.885 74.5273C464.955 74.5273 464.217 74.778 463.67 75.2793C463.132 75.7715 462.863 76.4277 462.863 77.248C462.863 78.0592 463.087 78.7018 463.533 79.1758C463.98 79.6497 464.764 80.1465 465.885 80.666L467.402 81.3633C469.052 82.0924 470.26 82.9036 471.025 83.7969C471.8 84.681 472.188 85.8112 472.188 87.1875C472.188 88.7279 471.636 89.9538 470.533 90.8652C469.439 91.7676 468.022 92.2188 466.281 92.2188ZM482.947 92V72.9551H487.568C490.731 72.9551 493.238 73.821 495.088 75.5527C496.947 77.2754 497.877 79.5859 497.877 82.4844C497.877 85.3828 496.952 87.6934 495.102 89.416C493.251 91.1387 490.74 92 487.568 92H482.947ZM484.971 90.1816H487.432C488.808 90.1816 490.029 89.9948 491.096 89.6211C492.162 89.2474 493.033 88.7188 493.707 88.0352C494.382 87.3516 494.887 86.5449 495.225 85.6152C495.571 84.6764 495.744 83.6328 495.744 82.4844C495.744 80.1328 495.038 78.2598 493.625 76.8652C492.221 75.4707 490.157 74.7734 487.432 74.7734H484.971V90.1816ZM501.979 92V72.9551H513.572V74.7461H504.002V81.5547H512.547V83.3184H504.002V90.209H513.969V92H501.979ZM529.719 92.2188C528.844 92.2188 528.037 92.1139 527.299 91.9043C526.561 91.6947 525.927 91.4076 525.398 91.043C524.87 90.6693 524.414 90.2637 524.031 89.8262C523.658 89.3887 523.339 88.901 523.074 88.3633L524.756 87.4609C525.002 87.8984 525.262 88.2812 525.535 88.6094C525.809 88.9375 526.137 89.2474 526.52 89.5391C526.911 89.8216 527.372 90.0404 527.9 90.1953C528.429 90.3503 529.017 90.4277 529.664 90.4277C530.803 90.4277 531.742 90.1361 532.48 89.5527C533.228 88.9603 533.602 88.1719 533.602 87.1875C533.602 86.2669 533.319 85.515 532.754 84.9316C532.198 84.3483 531.286 83.7741 530.02 83.209L528.516 82.5117C527.549 82.0742 526.775 81.6367 526.191 81.1992C525.617 80.7617 525.161 80.2194 524.824 79.5723C524.487 78.9251 524.318 78.1686 524.318 77.3027C524.318 75.9447 524.788 74.8464 525.727 74.0078C526.674 73.1602 527.873 72.7363 529.322 72.7363C531.61 72.7363 533.328 73.6888 534.477 75.5938L532.85 76.6055C532.449 75.9492 531.97 75.4388 531.414 75.0742C530.858 74.7096 530.161 74.5273 529.322 74.5273C528.393 74.5273 527.654 74.778 527.107 75.2793C526.57 75.7715 526.301 76.4277 526.301 77.248C526.301 78.0592 526.524 78.7018 526.971 79.1758C527.417 79.6497 528.201 80.1465 529.322 80.666L530.84 81.3633C532.49 82.0924 533.697 82.9036 534.463 83.7969C535.238 84.681 535.625 85.8112 535.625 87.1875C535.625 88.7279 535.074 89.9538 533.971 90.8652C532.877 91.7676 531.46 92.2188 529.719 92.2188ZM543.486 92V74.7461H537.635V72.9551H551.348V74.7461H545.496V92H543.486ZM562.627 92.2188C561.223 92.2188 559.906 91.9818 558.676 91.5078C557.445 91.0247 556.388 90.3594 555.504 89.5117C554.62 88.6641 553.923 87.6341 553.412 86.4219C552.911 85.2096 552.66 83.8971 552.66 82.4844C552.66 80.6068 553.089 78.9251 553.945 77.4395C554.802 75.9447 555.973 74.7871 557.459 73.9668C558.954 73.1465 560.617 72.7363 562.449 72.7363C565.348 72.7363 567.562 73.5566 569.094 75.1973L567.713 76.5781C566.419 75.2292 564.664 74.5547 562.449 74.5547C560.982 74.5547 559.66 74.901 558.484 75.5938C557.309 76.2773 556.393 77.2253 555.736 78.4375C555.08 79.6406 554.752 80.9896 554.752 82.4844C554.752 84.763 555.49 86.6543 556.967 88.1582C558.443 89.653 560.33 90.4004 562.627 90.4004C564.951 90.4004 566.824 89.8216 568.246 88.6641V84.6582H562.6V82.8672H570.16V89.5938C569.385 90.3503 568.351 90.9792 567.057 91.4805C565.771 91.9727 564.295 92.2188 562.627 92.2188ZM583.23 92.2188C581.435 92.2188 579.794 91.8132 578.309 91.002C576.832 90.1816 575.656 89.0241 574.781 87.5293C573.906 86.0345 573.469 84.3529 573.469 82.4844C573.469 80.6159 573.906 78.9342 574.781 77.4395C575.656 75.9355 576.837 74.778 578.322 73.9668C579.808 73.1465 581.444 72.7363 583.23 72.7363C585.026 72.7363 586.667 73.1465 588.152 73.9668C589.647 74.778 590.832 75.9355 591.707 77.4395C592.591 78.9342 593.033 80.6159 593.033 82.4844C593.033 84.3529 592.591 86.0345 591.707 87.5293C590.832 89.0241 589.652 90.1816 588.166 91.002C586.68 91.8132 585.035 92.2188 583.23 92.2188ZM583.23 90.4004C585.454 90.4004 587.296 89.6484 588.754 88.1445C590.212 86.6406 590.941 84.7539 590.941 82.4844C590.941 80.9896 590.609 79.6406 589.943 78.4375C589.287 77.2253 588.371 76.2773 587.195 75.5938C586.02 74.901 584.698 74.5547 583.23 74.5547C581.025 74.5547 579.193 75.3066 577.734 76.8105C576.285 78.3145 575.561 80.2057 575.561 82.4844C575.561 83.6055 575.752 84.6582 576.135 85.6426C576.527 86.6178 577.06 87.4564 577.734 88.1582C578.409 88.8509 579.22 89.3978 580.168 89.7988C581.116 90.1999 582.137 90.4004 583.23 90.4004Z" fill="white"/>
<path d="M608.8 92V80.437H612.187C613.454 80.437 614.456 80.7441 615.192 81.3584C615.933 81.9671 616.304 82.8553 616.304 84.0229C616.304 85.174 615.933 86.0622 615.192 86.6875C614.456 87.3073 613.454 87.6172 612.187 87.6172H610.029V92H608.8ZM610.029 86.5298H612.121C613.089 86.5298 613.817 86.3195 614.304 85.8989C614.796 85.4728 615.042 84.8475 615.042 84.0229C615.042 82.3573 614.069 81.5244 612.121 81.5244H610.029V86.5298ZM618.695 92V80.437H622.165C623.421 80.437 624.42 80.7358 625.161 81.3335C625.908 81.9312 626.282 82.811 626.282 83.9731C626.282 84.8088 626.066 85.506 625.634 86.0649C625.208 86.6183 624.613 87.0112 623.85 87.2437L626.672 92H625.228L622.571 87.4429C622.461 87.4539 622.281 87.4595 622.032 87.4595H619.923V92H618.695ZM619.923 86.4053H622.098C623.05 86.4053 623.772 86.2033 624.265 85.7993C624.757 85.3898 625.003 84.7811 625.003 83.9731C625.003 82.3407 624.035 81.5244 622.098 81.5244H619.923V86.4053ZM629.021 92V80.437H636.06V81.5244H630.25V85.6582H635.438V86.729H630.25V90.9126H636.301V92H629.021ZM641.829 92.1328C641.298 92.1328 640.808 92.0692 640.36 91.9419C639.912 91.8146 639.527 91.6403 639.206 91.4189C638.885 91.1921 638.608 90.9458 638.376 90.6802C638.149 90.4146 637.955 90.1185 637.795 89.792L638.816 89.2441C638.965 89.5098 639.123 89.7422 639.289 89.9414C639.455 90.1406 639.654 90.3288 639.887 90.5059C640.125 90.6774 640.404 90.8102 640.725 90.9043C641.046 90.9984 641.403 91.0454 641.796 91.0454C642.488 91.0454 643.058 90.8683 643.506 90.5142C643.96 90.1545 644.187 89.6758 644.187 89.0781C644.187 88.5192 644.015 88.0627 643.672 87.7085C643.334 87.3543 642.781 87.0057 642.012 86.6626L641.099 86.2393C640.512 85.9736 640.042 85.708 639.688 85.4424C639.339 85.1768 639.062 84.8475 638.857 84.4546C638.653 84.0617 638.55 83.6024 638.55 83.0767C638.55 82.2521 638.835 81.5853 639.405 81.0762C639.981 80.5615 640.708 80.3042 641.588 80.3042C642.977 80.3042 644.021 80.8825 644.718 82.0391L643.73 82.6533C643.486 82.2549 643.196 81.945 642.858 81.7236C642.521 81.5023 642.097 81.3916 641.588 81.3916C641.024 81.3916 640.576 81.5438 640.244 81.8481C639.917 82.147 639.754 82.5454 639.754 83.0435C639.754 83.536 639.889 83.9261 640.161 84.2139C640.432 84.5016 640.908 84.8032 641.588 85.1187L642.51 85.542C643.511 85.9847 644.245 86.4772 644.709 87.0195C645.18 87.5563 645.415 88.2425 645.415 89.0781C645.415 90.0133 645.08 90.7576 644.411 91.311C643.747 91.8589 642.886 92.1328 641.829 92.1328ZM647.914 92V80.437H654.953V81.5244H649.142V85.6582H654.33V86.729H649.142V90.9126H655.193V92H647.914ZM666.532 92.1162L659.634 83.9565C659.496 83.7961 659.335 83.5941 659.153 83.3506C658.97 83.1071 658.862 82.9577 658.829 82.9023C658.829 82.9189 658.837 83.0047 658.854 83.1597C658.876 83.3146 658.896 83.4945 658.912 83.6992C658.929 83.8984 658.937 84.0645 658.937 84.1973V92H657.775V80.3208H657.982L664.889 88.4805C664.961 88.5635 665.044 88.6686 665.138 88.7959C665.232 88.9232 665.312 89.0366 665.378 89.1362C665.45 89.2303 665.517 89.3216 665.578 89.4102C665.644 89.4987 665.68 89.5457 665.686 89.5513L665.661 89.3271C665.65 89.1722 665.636 88.9896 665.619 88.7793C665.608 88.5635 665.603 88.3836 665.603 88.2397V80.437H666.74V92.1162H666.532ZM672.434 92V81.5244H668.881V80.437H677.207V81.5244H673.654V92H672.434ZM679.697 88.3477H684.155L682.37 83.9233C682.304 83.7573 682.235 83.5636 682.163 83.3423C682.091 83.1154 682.033 82.93 681.988 82.7861C681.95 82.6423 681.93 82.562 681.93 82.5454C681.93 82.5509 681.905 82.6312 681.855 82.7861C681.811 82.9355 681.75 83.1209 681.673 83.3423C681.601 83.5636 681.532 83.7518 681.465 83.9067L679.697 88.3477ZM677.033 92L681.822 80.3208H682.03L686.927 92H685.632L684.578 89.4019H679.274L678.236 92H677.033ZM689.119 92V80.437H691.924C693.845 80.437 695.366 80.9627 696.49 82.0142C697.619 83.0601 698.183 84.4629 698.183 86.2227C698.183 87.9824 697.621 89.3853 696.498 90.4312C695.375 91.4771 693.85 92 691.924 92H689.119ZM690.347 90.896H691.841C692.677 90.896 693.418 90.7826 694.066 90.5557C694.713 90.3288 695.242 90.0078 695.651 89.5928C696.061 89.1777 696.368 88.688 696.573 88.1235C696.783 87.5535 696.888 86.9199 696.888 86.2227C696.888 84.7949 696.459 83.6577 695.602 82.811C694.749 81.9644 693.496 81.541 691.841 81.541H690.347V90.896ZM705.944 92.1328C704.854 92.1328 703.858 91.8866 702.956 91.394C702.06 90.896 701.346 90.1932 700.814 89.2856C700.283 88.3781 700.018 87.3571 700.018 86.2227C700.018 85.0882 700.283 84.0672 700.814 83.1597C701.346 82.2466 702.062 81.5438 702.964 81.0513C703.866 80.5532 704.86 80.3042 705.944 80.3042C707.035 80.3042 708.031 80.5532 708.933 81.0513C709.84 81.5438 710.56 82.2466 711.091 83.1597C711.628 84.0672 711.896 85.0882 711.896 86.2227C711.896 87.3571 711.628 88.3781 711.091 89.2856C710.56 90.1932 709.843 90.896 708.941 91.394C708.039 91.8866 707.04 92.1328 705.944 92.1328ZM705.944 91.0288C707.295 91.0288 708.412 90.5723 709.298 89.6592C710.183 88.7461 710.626 87.6006 710.626 86.2227C710.626 85.3151 710.424 84.4961 710.02 83.7656C709.622 83.0296 709.065 82.4541 708.352 82.0391C707.638 81.6185 706.835 81.4082 705.944 81.4082C704.605 81.4082 703.493 81.8647 702.607 82.7778C701.728 83.6909 701.288 84.8392 701.288 86.2227C701.288 86.9033 701.404 87.5425 701.636 88.1401C701.874 88.7323 702.198 89.2414 702.607 89.6675C703.017 90.0881 703.509 90.4201 704.085 90.6636C704.66 90.9071 705.28 91.0288 705.944 91.0288ZM718.42 92V80.437H721.807C723.074 80.437 724.076 80.7441 724.812 81.3584C725.554 81.9671 725.924 82.8553 725.924 84.0229C725.924 85.174 725.554 86.0622 724.812 86.6875C724.076 87.3073 723.074 87.6172 721.807 87.6172H719.649V92H718.42ZM719.649 86.5298H721.741C722.709 86.5298 723.437 86.3195 723.924 85.8989C724.416 85.4728 724.663 84.8475 724.663 84.0229C724.663 82.3573 723.689 81.5244 721.741 81.5244H719.649V86.5298ZM733.586 92.1328C732.496 92.1328 731.5 91.8866 730.598 91.394C729.701 90.896 728.987 90.1932 728.456 89.2856C727.925 88.3781 727.659 87.3571 727.659 86.2227C727.659 85.0882 727.925 84.0672 728.456 83.1597C728.987 82.2466 729.704 81.5438 730.606 81.0513C731.508 80.5532 732.501 80.3042 733.586 80.3042C734.676 80.3042 735.672 80.5532 736.574 81.0513C737.482 81.5438 738.201 82.2466 738.732 83.1597C739.269 84.0672 739.538 85.0882 739.538 86.2227C739.538 87.3571 739.269 88.3781 738.732 89.2856C738.201 90.1932 737.485 90.896 736.583 91.394C735.681 91.8866 734.682 92.1328 733.586 92.1328ZM733.586 91.0288C734.936 91.0288 736.054 90.5723 736.939 89.6592C737.825 88.7461 738.268 87.6006 738.268 86.2227C738.268 85.3151 738.066 84.4961 737.662 83.7656C737.263 83.0296 736.707 82.4541 735.993 82.0391C735.279 81.6185 734.477 81.4082 733.586 81.4082C732.247 81.4082 731.134 81.8647 730.249 82.7778C729.369 83.6909 728.929 84.8392 728.929 86.2227C728.929 86.9033 729.045 87.5425 729.278 88.1401C729.516 88.7323 729.84 89.2414 730.249 89.6675C730.659 90.0881 731.151 90.4201 731.727 90.6636C732.302 90.9071 732.922 91.0288 733.586 91.0288ZM742.028 92V80.437H745.498C746.754 80.437 747.753 80.7358 748.494 81.3335C749.241 81.9312 749.615 82.811 749.615 83.9731C749.615 84.8088 749.399 85.506 748.967 86.0649C748.541 86.6183 747.946 87.0112 747.183 87.2437L750.005 92H748.561L745.904 87.4429C745.794 87.4539 745.614 87.4595 745.365 87.4595H743.256V92H742.028ZM743.256 86.4053H745.431C746.383 86.4053 747.105 86.2033 747.598 85.7993C748.09 85.3898 748.336 84.7811 748.336 83.9731C748.336 82.3407 747.368 81.5244 745.431 81.5244H743.256V86.4053Z" fill="white"/>
<g clip-path="url(#clip0_36_11)">
<path fill-rule="evenodd" clip-rule="evenodd" d="M917.14 55.0459C917.703 54.9754 918.278 54.9947 918.843 55.0459C919.885 55.1401 920.908 55.3839 921.93 55.6087C922.708 55.7799 924.245 56.2068 924.245 56.2068C924.424 56.2554 924.734 56.2529 924.973 56.2068C925.289 56.1455 925.7 55.9918 925.872 55.8456C925.991 55.8886 926.086 55.9144 926.231 56.0262L919.117 61.0307C918.247 61.6428 916.951 62.7564 916.951 63.3895V75.6833L909.931 80.5073C910.034 79.8365 910.924 79.226 910.924 78.2715V65.8547C910.924 64.8916 917.679 61.4005 917.679 60.403C917.679 59.908 916.393 59.451 915.668 59.1359C915.05 58.8674 914.382 58.7092 913.715 58.623C912.702 58.4921 911.664 58.4963 910.65 58.623C909.576 58.7573 907.988 59.4485 907.5 59.4227C908.459 58.7929 910.86 56.9659 912.752 56.1601C914.142 55.5681 915.643 55.233 917.14 55.0459ZM931.539 55.3125C932.626 55.3125 933.277 56.4647 935.143 58.8896C935.605 59.4829 937.754 62.097 937.754 63.3524V64.3413C937.754 66.8866 931 69.4405 931 70.4981C931 71.2291 934.552 70.8851 936.136 71.9342C937.651 72.9316 938.293 75.047 938.293 76.2164V79.2604C938.293 81.0747 935.785 81.7628 932.712 84.0845C931.359 85.0991 926.753 88.1947 926.411 88.1947C926.411 88.1947 924.026 86.9391 922.767 86.4741C921.408 85.9722 920.011 85.5233 918.578 85.3312C917.446 85.1795 916.287 85.1967 915.153 85.3312C913.377 85.5418 910.205 86.5867 909.931 86.5867C909.931 86.5867 911.692 84.8692 914.217 83.4111C916.079 82.3357 918.431 81.7402 920.65 81.4015C921.835 81.2205 923.06 81.2182 924.245 81.4015C925.613 81.6131 927.541 82.442 928.209 82.6569V59.9559C928.209 59.7409 927.926 59.3368 927.49 59.3368C926.488 59.3368 925.778 61.1425 925.778 61.2113V74.7031L917.944 80.5073C917.944 80.5073 917.985 80.2248 918.124 80.0432C918.661 79.3413 918.937 79.1658 918.937 78.5467V63.8942C918.937 63.7136 922.803 60.6583 924.879 59.2422C927.01 57.788 929.989 55.3125 931.539 55.3125ZM929.476 61.4779C929.476 61.4779 932.352 64.5993 932.352 66.4824C932.352 67.9099 931.248 68.4688 929.476 69.5179V61.4779ZM929.476 72.0202C929.75 72.0889 931.359 73.052 931.359 73.7227V83.9898H931C930.435 83.9898 929.476 83.5513 929.476 83.0095V72.0202ZM998.262 68.1764L1004.66 71.3064V85.0647L998.622 88.0142L992.141 85.2453V70.8593L998.262 68.1764ZM968.727 67.7723L972.597 71.6075V83.405L974.395 85.1937L971.424 88.0484L968.274 85.0991V74.1096C968.222 74.0752 966.305 72.1835 965.937 72.0545L963.771 74.0236V83.4911L965.397 85.0991L962.332 88.0484L959.542 85.3742V73.4906C959.542 73.4906 958.215 72.39 957.65 71.7019L961.434 67.8583L965.123 71.3408L968.727 67.7723ZM983.581 68.271L990.609 71.2205C990.284 71.6161 988.144 73.1725 987.364 73.3616C987.364 73.3616 981.629 71.1345 981.509 71.1259V82.743L986.337 85.1249C986.337 85.1249 989.119 84.1703 989.796 84.1703C989.873 84.1703 989.993 84.1961 990.155 84.1703V84.437L984.668 88.0142H983.94L977.006 84.8842V71.3924L983.581 68.271ZM948.104 67.9442C952.479 70.1198 954.405 70.3863 954.405 71.3408V82.7774L957.196 85.5462L954.585 88.0484C952.676 86.5006 951.974 85.8214 951.974 85.8214L947.18 88.2033L940.631 85.2281V77.6868L947.026 74.5568L950.536 75.9928V72.8628L944.928 70.9281L942.112 71.2634L941.983 70.8077L948.104 67.9442ZM996.328 70.8593L1000.51 72.8284V85.0647L996.276 83.1901L996.328 70.8593ZM944.594 77.1536L950.536 80.1031V85.6409L944.594 82.8978V77.1536ZM1026.63 59.8785C1026.91 59.8785 1028.09 60.3342 1030.06 61.3059C1031.12 61.8304 1033.03 62.2346 1033.03 63.1805V85.3398L1027.09 88.1086L1020.51 84.9872V70.9539L1026.81 68.185C1027.04 68.2108 1029.06 68.9933 1029.06 68.9933V64.5219L1023.81 62.2948C1022.95 62.3464 1021.94 63.1633 1020.91 63.3438L1021.14 62.4668C1021.14 62.4668 1025.88 59.8785 1026.63 59.8785ZM1043.29 68.099L1049.15 74.531L1040.59 80.7824V82.4851C1040.59 82.8376 1045.63 85.1249 1045.63 85.1249C1045.63 85.1249 1048.13 83.4308 1049.23 84.0931C1049.17 84.1703 1043.2 88.0228 1043.2 88.0228L1036.81 85.2539V71.1345L1043.29 68.099ZM1024.66 70.8679L1028.97 72.8284V85.0733H1028.88L1024.66 83.1987V70.8679ZM1040.68 71.1345L1044.97 75.5972L1040.68 78.7272V71.1345ZM1121.91 83.5771L1123.52 85.0905L1120.28 88.1258L1117.22 85.0905V64.5391L1121.91 59.9903V83.5771ZM1096.96 59.4141V72.3642L1101.64 67.8067L1105.15 71.2978V87.7303L1100.75 92.0211H1100.65V73.525L1098.94 71.917L1096.96 73.6195V83.3534L1098.67 84.9614V85.0561L1095.52 88.1775L1092.46 85.1421V63.877L1096.96 59.5001V59.4141ZM1110.38 59.4141H1110.47L1113.53 62.4495V62.5355L1110.38 65.6655L1107.23 62.5355L1110.38 59.4141ZM1132.53 68.2968C1132.7 68.2968 1138.39 74.4708 1138.47 74.7289L1129.92 80.7136V83.1299L1134.77 85.3054C1134.77 85.3054 1137.31 84.97 1138.21 84.1961L1139.5 84.5144C1139.39 84.6777 1133.55 88.2205 1132.53 88.2205C1132.31 88.2205 1127.94 86.5608 1126.14 85.357V71.6933C1126.14 71.0829 1132.51 68.2968 1132.53 68.2968ZM1110.47 67.8067H1110.56L1113.35 70.5755V83.2676L1115.06 84.8756L1111.82 87.997L1108.76 84.9614V72.2781L1107.32 70.9367L1110.47 67.8067ZM1130.01 71.3322L1134.11 75.52L1130.03 78.1254L1130.01 71.3322ZM1079.45 57.1689C1079.66 57.0484 1079.9 57.1182 1079.9 57.1182C1079.74 57.5109 1078.23 58.3761 1076.59 59.4281C1075.21 60.3113 1073.97 61.1822 1072.87 62.3034C1071.41 63.7941 1069.91 65.5542 1069.12 67.3411C1068.52 68.7135 1068.23 70.3183 1068.38 72.5446C1068.56 75.52 1070.93 79.9311 1073.68 81.5133C1074.53 81.9949 1076.92 83.3675 1079.72 83.5685C1080.71 83.6397 1081.38 83.6296 1082.44 83.506V61.667C1082.44 61.4005 1081.78 59.9817 1081.16 59.9817C1080.98 59.9817 1080.71 60.3084 1080.71 60.5148V75.4339C1080.71 75.9928 1080.19 76.7925 1077.65 78.4693C1075.04 80.1892 1074.24 80.7652 1073.96 80.705C1074.02 80.5417 1074.58 80.0879 1074.58 79.8108V64.2639C1074.58 62.7333 1076.84 61.8304 1078.82 60.3342C1081.29 58.4574 1082.9 57.684 1083.54 57.4179C1083.7 57.3437 1084.28 57.286 1084.67 57.2988C1086.83 57.3078 1088.19 59.8871 1088.45 60.1536C1088.96 60.6674 1089.82 60.7932 1090.52 60.6008C1090.93 60.4912 1091.78 60.0677 1092.32 60.1536C1090.87 61.4177 1086.11 64.3585 1086.11 64.3585C1085.93 64.4641 1085.61 64.4391 1085.4 64.3585C1084.88 64.1609 1084.55 63.8512 1083.95 63.5502V83.2067C1084.52 83.0354 1085.37 82.6722 1086.28 82.1294C1087.05 81.6754 1087.73 81.1668 1088.18 80.8044C1088.37 80.6513 1088.46 80.5904 1088.63 80.4385C1088.7 80.3778 1088.84 80.3728 1088.91 80.4385C1089.05 80.5864 1088.96 80.8635 1088.91 81.0661C1088.67 81.988 1088.12 82.8138 1087.55 83.5685C1086.99 84.3078 1086.25 84.9408 1085.56 85.5015C1083.23 87.3969 1080.56 88.3402 1077.1 88.3667C1069.23 88.4182 1063.66 82.7688 1063.06 74.0064C1062.46 65.2872 1068.65 58.1157 1075.94 57.6514C1077 57.5912 1078.3 57.6686 1078.46 57.6514C1078.59 57.6358 1079.02 57.4208 1079.45 57.1689Z" fill="white"/>
</g>
<line x1="163" y1="103.5" x2="1140" y2="103.5" stroke="white" stroke-dasharray="2 2"/>
<defs>
<clipPath id="clip0_36_11">
<rect width="232" height="46" fill="white" transform="translate(908 46)"/>
</clipPath>
</defs>
</svg>
