<svg width="820" height="1148" viewBox="0 0 820 1148" fill="none" xmlns="http://www.w3.org/2000/svg">
<rect width="820" height="1148" fill="black"/>
<path d="M475.751 97C441.615 97 429.966 114.64 410 140.165C390.037 114.64 378.367 97 344.249 97C307.635 97 283.5 123.918 283.5 164.316C283.5 177.879 286.668 192.337 293.504 206.795V253.537C293.504 257.302 296.568 260.34 300.319 260.34C304.069 260.34 307.133 257.281 307.133 253.537V229.053C309.594 232.277 312.24 235.46 315.115 238.622L343.001 269.576V326.345C343.001 330.11 346.044 333.148 349.837 333.148C353.629 333.148 356.651 330.11 356.651 326.345V284.72L410.021 344.027L433.968 317.463V369.198C433.968 372.964 437.032 376 440.803 376C444.575 376 447.618 372.964 447.618 369.198V302.319L482.921 263.044V312.054C482.921 315.819 485.985 318.856 489.757 318.856C493.528 318.856 496.571 315.799 496.571 312.054V247.879L504.885 238.642C526.935 214.512 536.5 188.051 536.5 164.357C536.5 123.96 512.368 97.0416 475.73 97.0416L475.751 97Z" fill="#EA0029"/>
<path d="M400.041 231.786C395.037 236.585 388.7 238.984 381.03 238.984C373.36 238.984 366.962 236.626 361.835 231.909C356.749 227.192 354.206 221.122 354.206 213.698C354.206 210.253 354.883 206.91 356.236 203.67C357.631 200.389 359.682 196.759 362.389 192.78L383.799 161.157H393.766L376.539 186.689C375.924 187.469 375.104 188.412 374.078 189.52C373.094 190.627 372.253 191.529 371.556 192.227L370.448 193.272C374.181 190.237 378.385 188.72 383.061 188.72C390.115 188.72 395.96 191.058 400.595 195.733C405.271 200.368 407.608 206.315 407.608 213.575C407.608 220.917 405.086 226.987 400.041 231.786ZM380.907 231.171C386.116 231.171 390.382 229.51 393.704 226.188C397.026 222.865 398.688 218.661 398.688 213.575C398.688 208.284 397.088 204.019 393.889 200.778C390.689 197.538 386.362 195.918 380.907 195.918C375.616 195.918 371.33 197.641 368.049 201.086C364.768 204.49 363.127 208.653 363.127 213.575C363.127 218.702 364.747 222.927 367.987 226.249C371.228 229.53 375.534 231.171 380.907 231.171ZM440.031 250.981C434.002 250.981 428.793 249.71 424.404 247.167C420.057 244.624 416.857 241.322 414.807 237.262L422.251 233.201C425.942 239.764 431.869 243.045 440.031 243.045C445.404 243.045 449.711 241.466 452.951 238.308C456.191 235.19 457.812 231.048 457.812 225.88C457.812 220.548 456.294 216.405 453.259 213.452C450.265 210.499 445.814 209.022 439.908 209.022C433.223 209.022 427.214 211.258 421.882 215.729L420.774 215.298V174.508H462.979V182.075H428.465V204.839C431.869 202.501 436.319 201.332 441.815 201.332C449.444 201.332 455.556 203.629 460.149 208.223C464.784 212.775 467.102 218.702 467.102 226.003C467.102 233.263 464.6 239.23 459.596 243.906C454.592 248.623 448.07 250.981 440.031 250.981Z" fill="white"/>
<line x1="93" y1="509" x2="727" y2="509" stroke="white" stroke-dasharray="2 2"/>
<path d="M124.889 602.5V550.807H130.381V597.639H154.762V602.5H124.889ZM185.117 603.094C180.243 603.094 175.79 601.993 171.758 599.791C167.75 597.564 164.559 594.423 162.184 590.365C159.809 586.308 158.621 581.743 158.621 576.672C158.621 571.6 159.809 567.036 162.184 562.979C164.559 558.896 167.762 555.755 171.795 553.553C175.827 551.326 180.268 550.213 185.117 550.213C189.991 550.213 194.444 551.326 198.477 553.553C202.534 555.755 205.75 558.896 208.125 562.979C210.525 567.036 211.725 571.6 211.725 576.672C211.725 581.743 210.525 586.308 208.125 590.365C205.75 594.423 202.546 597.564 198.514 599.791C194.481 601.993 190.016 603.094 185.117 603.094ZM185.117 598.158C191.154 598.158 196.151 596.117 200.109 592.035C204.068 587.953 206.047 582.832 206.047 576.672C206.047 572.615 205.144 568.953 203.338 565.688C201.557 562.397 199.07 559.824 195.879 557.969C192.688 556.089 189.1 555.148 185.117 555.148C179.13 555.148 174.158 557.189 170.199 561.271C166.266 565.354 164.299 570.487 164.299 576.672C164.299 579.715 164.818 582.572 165.857 585.244C166.921 587.891 168.368 590.167 170.199 592.072C172.03 593.952 174.232 595.437 176.805 596.525C179.378 597.614 182.148 598.158 185.117 598.158ZM235.289 603.094C232.914 603.094 230.725 602.809 228.721 602.24C226.717 601.671 224.997 600.892 223.562 599.902C222.128 598.888 220.891 597.787 219.852 596.6C218.837 595.412 217.971 594.089 217.254 592.629L221.818 590.18C222.486 591.367 223.191 592.406 223.934 593.297C224.676 594.188 225.566 595.029 226.605 595.82C227.669 596.587 228.919 597.181 230.354 597.602C231.788 598.022 233.384 598.232 235.141 598.232C238.233 598.232 240.781 597.441 242.785 595.857C244.814 594.249 245.828 592.109 245.828 589.438C245.828 586.939 245.061 584.898 243.527 583.314C242.018 581.731 239.544 580.173 236.105 578.639L232.023 576.746C229.401 575.559 227.298 574.371 225.715 573.184C224.156 571.996 222.919 570.524 222.004 568.768C221.089 567.011 220.631 564.958 220.631 562.607C220.631 558.921 221.905 555.94 224.453 553.664C227.026 551.363 230.279 550.213 234.213 550.213C240.423 550.213 245.086 552.798 248.203 557.969L243.787 560.715C242.699 558.934 241.4 557.548 239.891 556.559C238.382 555.569 236.489 555.074 234.213 555.074C231.689 555.074 229.686 555.755 228.201 557.115C226.742 558.451 226.012 560.232 226.012 562.459C226.012 564.661 226.618 566.405 227.83 567.691C229.042 568.978 231.17 570.326 234.213 571.736L238.332 573.629C242.81 575.608 246.088 577.81 248.166 580.234C250.269 582.634 251.32 585.702 251.32 589.438C251.32 593.618 249.824 596.946 246.83 599.42C243.861 601.869 240.014 603.094 235.289 603.094ZM280.525 602.5V550.213H281.305L305.314 580.234L329.176 550.213H330.029V602.5H324.686V568.359C324.686 567.691 324.698 566.887 324.723 565.947C324.772 565.007 324.809 564.203 324.834 563.535L324.908 562.533C324.883 562.558 324.673 562.88 324.277 563.498C323.906 564.092 323.424 564.822 322.83 565.688C322.261 566.553 321.742 567.271 321.271 567.84L305.611 587.619H304.721L289.283 567.84C288.813 567.271 288.269 566.566 287.65 565.725C287.057 564.883 286.574 564.178 286.203 563.609C285.857 563.016 285.646 562.657 285.572 562.533L285.609 562.941C285.634 563.214 285.659 563.56 285.684 563.98C285.708 564.401 285.733 564.859 285.758 565.354C285.783 565.824 285.807 566.343 285.832 566.912C285.857 567.456 285.869 567.939 285.869 568.359V602.5H280.525ZM344.131 602.5V550.807H375.6V555.668H349.623V574.148H372.816V578.936H349.623V597.639H376.676V602.5H344.131ZM397.049 603.094C390.938 603.094 386.485 600.508 383.689 595.338L388.143 592.555C390.295 596.29 393.189 598.158 396.826 598.158C399.473 598.158 401.551 597.391 403.061 595.857C404.57 594.299 405.324 591.924 405.324 588.732V550.807H410.891V588.881C410.891 593.482 409.617 597.008 407.068 599.457C404.545 601.882 401.205 603.094 397.049 603.094ZM448.52 603.094C443.646 603.094 439.193 601.993 435.16 599.791C431.152 597.564 427.961 594.423 425.586 590.365C423.211 586.308 422.023 581.743 422.023 576.672C422.023 571.6 423.211 567.036 425.586 562.979C427.961 558.896 431.165 555.755 435.197 553.553C439.23 551.326 443.671 550.213 448.52 550.213C453.393 550.213 457.846 551.326 461.879 553.553C465.936 555.755 469.152 558.896 471.527 562.979C473.927 567.036 475.127 571.6 475.127 576.672C475.127 581.743 473.927 586.308 471.527 590.365C469.152 594.423 465.949 597.564 461.916 599.791C457.883 601.993 453.418 603.094 448.52 603.094ZM448.52 598.158C454.556 598.158 459.553 596.117 463.512 592.035C467.47 587.953 469.449 582.832 469.449 576.672C469.449 572.615 468.546 568.953 466.74 565.688C464.959 562.397 462.473 559.824 459.281 557.969C456.09 556.089 452.503 555.148 448.52 555.148C442.533 555.148 437.56 557.189 433.602 561.271C429.668 565.354 427.701 570.487 427.701 576.672C427.701 579.715 428.221 582.572 429.26 585.244C430.324 587.891 431.771 590.167 433.602 592.072C435.432 593.952 437.634 595.437 440.207 596.525C442.78 597.614 445.551 598.158 448.52 598.158ZM486.26 602.5V550.807H501.771C507.387 550.807 511.853 552.143 515.168 554.814C518.508 557.486 520.178 561.42 520.178 566.615C520.178 570.351 519.213 573.468 517.283 575.967C515.378 578.441 512.719 580.197 509.305 581.236L521.922 602.5H515.465L503.59 582.127C503.095 582.176 502.291 582.201 501.178 582.201H491.752V602.5H486.26ZM491.752 577.488H501.475C505.73 577.488 508.958 576.585 511.16 574.779C513.362 572.949 514.463 570.227 514.463 566.615C514.463 559.317 510.133 555.668 501.475 555.668H491.752V577.488ZM532.424 602.5V550.807H563.893V555.668H537.916V574.148H561.109V578.936H537.916V597.639H564.969V602.5H532.424ZM589.684 603.094C587.309 603.094 585.119 602.809 583.115 602.24C581.111 601.671 579.392 600.892 577.957 599.902C576.522 598.888 575.285 597.787 574.246 596.6C573.232 595.412 572.366 594.089 571.648 592.629L576.213 590.18C576.881 591.367 577.586 592.406 578.328 593.297C579.07 594.188 579.961 595.029 581 595.82C582.064 596.587 583.313 597.181 584.748 597.602C586.183 598.022 587.779 598.232 589.535 598.232C592.628 598.232 595.176 597.441 597.18 595.857C599.208 594.249 600.223 592.109 600.223 589.438C600.223 586.939 599.456 584.898 597.922 583.314C596.413 581.731 593.939 580.173 590.5 578.639L586.418 576.746C583.796 575.559 581.693 574.371 580.109 573.184C578.551 571.996 577.314 570.524 576.398 568.768C575.483 567.011 575.025 564.958 575.025 562.607C575.025 558.921 576.299 555.94 578.848 553.664C581.421 551.363 584.674 550.213 588.607 550.213C594.817 550.213 599.48 552.798 602.598 557.969L598.182 560.715C597.093 558.934 595.794 557.548 594.285 556.559C592.776 555.569 590.883 555.074 588.607 555.074C586.084 555.074 584.08 555.755 582.596 557.115C581.136 558.451 580.406 560.232 580.406 562.459C580.406 564.661 581.012 566.405 582.225 567.691C583.437 568.978 585.564 570.326 588.607 571.736L592.727 573.629C597.204 575.608 600.482 577.81 602.561 580.234C604.663 582.634 605.715 585.702 605.715 589.438C605.715 593.618 604.218 596.946 601.225 599.42C598.256 601.869 594.409 603.094 589.684 603.094ZM658.707 598.752C655.689 601.646 651.867 603.094 647.24 603.094C642.614 603.094 638.755 601.671 635.662 598.826C632.594 595.981 631.061 592.32 631.061 587.842C631.061 585.764 631.469 583.747 632.285 581.793C633.126 579.814 634.363 577.624 635.996 575.225L648.91 556.15H654.922L644.531 571.551C644.16 572.021 643.665 572.59 643.047 573.258C642.453 573.926 641.946 574.47 641.525 574.891L640.857 575.521C643.109 573.691 645.645 572.775 648.465 572.775C652.72 572.775 656.245 574.186 659.041 577.006C661.861 579.801 663.271 583.389 663.271 587.768C663.271 592.196 661.75 595.857 658.707 598.752ZM647.166 598.381C650.308 598.381 652.881 597.379 654.885 595.375C656.889 593.371 657.891 590.835 657.891 587.768C657.891 584.576 656.926 582.003 654.996 580.049C653.066 578.094 650.456 577.117 647.166 577.117C643.975 577.117 641.389 578.156 639.41 580.234C637.431 582.288 636.441 584.799 636.441 587.768C636.441 590.86 637.419 593.408 639.373 595.412C641.327 597.391 643.925 598.381 647.166 598.381ZM682.828 610.33C679.191 610.33 676.049 609.563 673.402 608.029C670.78 606.495 668.85 604.504 667.613 602.055L672.104 599.605C674.33 603.564 677.905 605.543 682.828 605.543C686.069 605.543 688.667 604.59 690.621 602.686C692.576 600.805 693.553 598.307 693.553 595.189C693.553 591.973 692.637 589.475 690.807 587.693C689.001 585.912 686.316 585.021 682.754 585.021C678.721 585.021 675.097 586.37 671.881 589.066L671.213 588.807V564.203H696.67V568.768H675.852V582.498C677.905 581.088 680.589 580.383 683.904 580.383C688.506 580.383 692.192 581.768 694.963 584.539C697.758 587.285 699.156 590.86 699.156 595.264C699.156 599.643 697.647 603.242 694.629 606.062C691.611 608.908 687.677 610.33 682.828 610.33ZM146.375 696.5V644.807H161.887C167.503 644.807 171.968 646.143 175.283 648.814C178.623 651.486 180.293 655.42 180.293 660.615C180.293 664.351 179.328 667.468 177.398 669.967C175.493 672.441 172.834 674.197 169.42 675.236L182.037 696.5H175.58L163.705 676.127C163.21 676.176 162.406 676.201 161.293 676.201H151.867V696.5H146.375ZM151.867 671.488H161.59C165.845 671.488 169.074 670.585 171.275 668.779C173.477 666.949 174.578 664.227 174.578 660.615C174.578 653.317 170.249 649.668 161.59 649.668H151.867V671.488ZM192.539 696.5V644.807H224.008V649.668H198.031V668.148H221.225V672.936H198.031V691.639H225.084V696.5H192.539ZM249.799 697.094C247.424 697.094 245.234 696.809 243.23 696.24C241.227 695.671 239.507 694.892 238.072 693.902C236.637 692.888 235.4 691.787 234.361 690.6C233.347 689.412 232.481 688.089 231.764 686.629L236.328 684.18C236.996 685.367 237.701 686.406 238.443 687.297C239.186 688.188 240.076 689.029 241.115 689.82C242.179 690.587 243.428 691.181 244.863 691.602C246.298 692.022 247.894 692.232 249.65 692.232C252.743 692.232 255.291 691.441 257.295 689.857C259.324 688.249 260.338 686.109 260.338 683.438C260.338 680.939 259.571 678.898 258.037 677.314C256.528 675.731 254.054 674.173 250.615 672.639L246.533 670.746C243.911 669.559 241.808 668.371 240.225 667.184C238.666 665.996 237.429 664.524 236.514 662.768C235.598 661.011 235.141 658.958 235.141 656.607C235.141 652.921 236.415 649.94 238.963 647.664C241.536 645.363 244.789 644.213 248.723 644.213C254.932 644.213 259.596 646.798 262.713 651.969L258.297 654.715C257.208 652.934 255.91 651.548 254.4 650.559C252.891 649.569 250.999 649.074 248.723 649.074C246.199 649.074 244.195 649.755 242.711 651.115C241.251 652.451 240.521 654.232 240.521 656.459C240.521 658.661 241.128 660.405 242.34 661.691C243.552 662.978 245.68 664.326 248.723 665.736L252.842 667.629C257.32 669.608 260.598 671.81 262.676 674.234C264.779 676.634 265.83 679.702 265.83 683.438C265.83 687.618 264.333 690.946 261.34 693.42C258.371 695.869 254.524 697.094 249.799 697.094ZM287.168 696.5V649.668H271.285V644.807H308.506V649.668H292.623V696.5H287.168ZM319.639 680.172H339.566L331.588 660.393C331.291 659.65 330.982 658.785 330.66 657.795C330.339 656.781 330.079 655.952 329.881 655.309C329.708 654.665 329.621 654.307 329.621 654.232C329.621 654.257 329.51 654.616 329.287 655.309C329.089 655.977 328.817 656.805 328.471 657.795C328.149 658.785 327.84 659.626 327.543 660.318L319.639 680.172ZM307.727 696.5L329.139 644.287H330.066L351.961 696.5H346.172L341.459 684.885H317.746L313.107 696.5H307.727ZM378.68 697.094C373.163 697.094 368.685 695.523 365.246 692.381C361.832 689.214 360.125 684.712 360.125 678.873V644.807H365.617V678.502C365.617 683.005 366.768 686.419 369.068 688.744C371.369 691.07 374.573 692.232 378.68 692.232C382.762 692.232 385.953 691.07 388.254 688.744C390.579 686.419 391.742 683.005 391.742 678.502V644.807H397.234V678.873C397.234 684.712 395.503 689.214 392.039 692.381C388.6 695.523 384.147 697.094 378.68 697.094ZM410.891 696.5V644.807H426.402C432.018 644.807 436.484 646.143 439.799 648.814C443.139 651.486 444.809 655.42 444.809 660.615C444.809 664.351 443.844 667.468 441.914 669.967C440.009 672.441 437.35 674.197 433.936 675.236L446.553 696.5H440.096L428.221 676.127C427.726 676.176 426.922 676.201 425.809 676.201H416.383V696.5H410.891ZM416.383 671.488H426.105C430.361 671.488 433.589 670.585 435.791 668.779C437.993 666.949 439.094 664.227 439.094 660.615C439.094 653.317 434.764 649.668 426.105 649.668H416.383V671.488ZM464.736 680.172H484.664L476.686 660.393C476.389 659.65 476.079 658.785 475.758 657.795C475.436 656.781 475.176 655.952 474.979 655.309C474.805 654.665 474.719 654.307 474.719 654.232C474.719 654.257 474.607 654.616 474.385 655.309C474.187 655.977 473.915 656.805 473.568 657.795C473.247 658.785 472.938 659.626 472.641 660.318L464.736 680.172ZM452.824 696.5L474.236 644.287H475.164L497.059 696.5H491.27L486.557 684.885H462.844L458.205 696.5H452.824ZM546.006 697.02L515.168 660.541C514.549 659.824 513.832 658.921 513.016 657.832C512.199 656.743 511.717 656.076 511.568 655.828C511.568 655.902 511.605 656.286 511.68 656.979C511.779 657.671 511.865 658.475 511.939 659.391C512.014 660.281 512.051 661.023 512.051 661.617V696.5H506.855V644.287H507.783L538.658 680.766C538.98 681.137 539.351 681.607 539.771 682.176C540.192 682.745 540.551 683.252 540.848 683.697C541.169 684.118 541.466 684.526 541.738 684.922C542.035 685.318 542.196 685.528 542.221 685.553L542.109 684.551C542.06 683.858 541.998 683.042 541.924 682.102C541.874 681.137 541.85 680.333 541.85 679.689V644.807H546.934V697.02H546.006ZM572.391 696.5V649.668H556.508V644.807H593.729V649.668H577.846V696.5H572.391ZM603.266 696.5V644.807H634.734V649.668H608.758V668.148H631.951V672.936H608.758V691.639H635.811V696.5H603.266ZM660.525 697.094C658.15 697.094 655.961 696.809 653.957 696.24C651.953 695.671 650.234 694.892 648.799 693.902C647.364 692.888 646.127 691.787 645.088 690.6C644.074 689.412 643.208 688.089 642.49 686.629L647.055 684.18C647.723 685.367 648.428 686.406 649.17 687.297C649.912 688.188 650.803 689.029 651.842 689.82C652.906 690.587 654.155 691.181 655.59 691.602C657.025 692.022 658.62 692.232 660.377 692.232C663.469 692.232 666.018 691.441 668.021 689.857C670.05 688.249 671.064 686.109 671.064 683.438C671.064 680.939 670.298 678.898 668.764 677.314C667.255 675.731 664.781 674.173 661.342 672.639L657.26 670.746C654.637 669.559 652.535 668.371 650.951 667.184C649.393 665.996 648.156 664.524 647.24 662.768C646.325 661.011 645.867 658.958 645.867 656.607C645.867 652.921 647.141 649.94 649.689 647.664C652.262 645.363 655.516 644.213 659.449 644.213C665.659 644.213 670.322 646.798 673.439 651.969L669.023 654.715C667.935 652.934 666.636 651.548 665.127 650.559C663.618 649.569 661.725 649.074 659.449 649.074C656.926 649.074 654.922 649.755 653.438 651.115C651.978 652.451 651.248 654.232 651.248 656.459C651.248 658.661 651.854 660.405 653.066 661.691C654.279 662.978 656.406 664.326 659.449 665.736L663.568 667.629C668.046 669.608 671.324 671.81 673.402 674.234C675.505 676.634 676.557 679.702 676.557 683.438C676.557 687.618 675.06 690.946 672.066 693.42C669.098 695.869 665.251 697.094 660.525 697.094ZM117.281 761.258L128.674 775.062C130.158 771.475 130.9 767.294 130.9 762.52H136.133C136.133 768.977 134.846 774.605 132.273 779.404L141.365 790.5H134.76L129.23 783.82C127.128 786.171 124.678 787.977 121.883 789.238C119.112 790.475 116.131 791.094 112.939 791.094C107.942 791.094 103.959 789.82 100.99 787.271C98.0215 784.723 96.5371 781.322 96.5371 777.066C96.5371 775.409 96.7598 773.863 97.2051 772.428C97.6751 770.993 98.2689 769.743 98.9863 768.68C99.7285 767.616 100.706 766.564 101.918 765.525C103.155 764.486 104.355 763.596 105.518 762.854C106.68 762.111 108.115 761.27 109.822 760.33L108.932 759.18C106.136 755.716 104.738 752.277 104.738 748.863C104.738 745.796 105.753 743.26 107.781 741.256C109.835 739.227 112.519 738.213 115.834 738.213C119.1 738.213 121.734 739.215 123.738 741.219C125.767 743.223 126.781 745.746 126.781 748.789C126.781 751.288 125.965 753.551 124.332 755.58C122.699 757.584 120.349 759.477 117.281 761.258ZM114.461 757.807C116.861 756.396 118.679 754.986 119.916 753.576C121.153 752.166 121.771 750.57 121.771 748.789C121.771 746.983 121.227 745.536 120.139 744.447C119.05 743.334 117.64 742.777 115.908 742.777C114.127 742.777 112.692 743.322 111.604 744.41C110.54 745.474 110.008 746.934 110.008 748.789C110.008 751.238 111.01 753.663 113.014 756.062L114.461 757.807ZM125.965 779.85L112.568 763.67C110.886 764.585 109.464 765.451 108.301 766.268C107.163 767.059 106.099 767.987 105.109 769.051C104.145 770.09 103.427 771.24 102.957 772.502C102.487 773.764 102.252 775.174 102.252 776.732C102.252 779.701 103.192 782.027 105.072 783.709C106.952 785.391 109.575 786.232 112.939 786.232C118.382 786.232 122.724 784.105 125.965 779.85ZM168.084 790.5V738.807H185.191C190.016 738.807 193.689 740.031 196.213 742.48C198.761 744.93 200.035 748.096 200.035 751.98C200.035 757.72 197.524 761.394 192.502 763.002C199.231 764.511 202.596 768.84 202.596 775.99C202.596 780.369 201.247 783.882 198.551 786.529C195.854 789.176 191.859 790.5 186.564 790.5H168.084ZM173.576 785.639H186.193C189.929 785.639 192.675 784.76 194.432 783.004C196.188 781.223 197.066 778.786 197.066 775.693C197.066 772.502 196.126 770.04 194.246 768.309C192.391 766.577 189.607 765.711 185.896 765.711H173.576V785.639ZM173.576 760.924H185.488C188.581 760.924 190.857 760.157 192.316 758.623C193.801 757.089 194.543 754.999 194.543 752.352C194.543 749.68 193.751 747.564 192.168 746.006C190.585 744.447 188.111 743.668 184.746 743.668H173.576V760.924ZM221.113 774.172H241.041L233.062 754.393C232.766 753.65 232.456 752.785 232.135 751.795C231.813 750.781 231.553 749.952 231.355 749.309C231.182 748.665 231.096 748.307 231.096 748.232C231.096 748.257 230.984 748.616 230.762 749.309C230.564 749.977 230.292 750.805 229.945 751.795C229.624 752.785 229.314 753.626 229.018 754.318L221.113 774.172ZM209.201 790.5L230.613 738.287H231.541L253.436 790.5H247.646L242.934 778.885H219.221L214.582 790.5H209.201ZM263.232 790.5V738.807H278.744C284.36 738.807 288.826 740.143 292.141 742.814C295.48 745.486 297.15 749.42 297.15 754.615C297.15 758.351 296.186 761.468 294.256 763.967C292.351 766.441 289.691 768.197 286.277 769.236L298.895 790.5H292.438L280.562 770.127C280.068 770.176 279.264 770.201 278.15 770.201H268.725V790.5H263.232ZM268.725 765.488H278.447C282.702 765.488 285.931 764.585 288.133 762.779C290.335 760.949 291.436 758.227 291.436 754.615C291.436 747.317 287.106 743.668 278.447 743.668H268.725V765.488ZM309.396 790.5V738.807H340.865V743.668H314.889V762.148H338.082V766.936H314.889V785.639H341.941V790.5H309.396ZM366.656 791.094C364.281 791.094 362.092 790.809 360.088 790.24C358.084 789.671 356.365 788.892 354.93 787.902C353.495 786.888 352.258 785.787 351.219 784.6C350.204 783.412 349.339 782.089 348.621 780.629L353.186 778.18C353.854 779.367 354.559 780.406 355.301 781.297C356.043 782.188 356.934 783.029 357.973 783.82C359.036 784.587 360.286 785.181 361.721 785.602C363.156 786.022 364.751 786.232 366.508 786.232C369.6 786.232 372.148 785.441 374.152 783.857C376.181 782.249 377.195 780.109 377.195 777.438C377.195 774.939 376.428 772.898 374.895 771.314C373.385 769.731 370.911 768.173 367.473 766.639L363.391 764.746C360.768 763.559 358.665 762.371 357.082 761.184C355.523 759.996 354.286 758.524 353.371 756.768C352.456 755.011 351.998 752.958 351.998 750.607C351.998 746.921 353.272 743.94 355.82 741.664C358.393 739.363 361.646 738.213 365.58 738.213C371.79 738.213 376.453 740.798 379.57 745.969L375.154 748.715C374.066 746.934 372.767 745.548 371.258 744.559C369.749 743.569 367.856 743.074 365.58 743.074C363.057 743.074 361.053 743.755 359.568 745.115C358.109 746.451 357.379 748.232 357.379 750.459C357.379 752.661 357.985 754.405 359.197 755.691C360.41 756.978 362.537 758.326 365.58 759.736L369.699 761.629C374.177 763.608 377.455 765.81 379.533 768.234C381.636 770.634 382.688 773.702 382.688 777.438C382.688 781.618 381.191 784.946 378.197 787.42C375.229 789.869 371.382 791.094 366.656 791.094ZM411.893 790.5V738.807H424.436C433.02 738.807 439.824 741.157 444.846 745.857C449.893 750.533 452.416 756.805 452.416 764.672C452.416 772.539 449.905 778.811 444.883 783.486C439.861 788.162 433.045 790.5 424.436 790.5H411.893ZM417.385 785.564H424.064C427.8 785.564 431.115 785.057 434.01 784.043C436.904 783.029 439.267 781.594 441.098 779.738C442.928 777.883 444.301 775.693 445.217 773.17C446.157 770.622 446.627 767.789 446.627 764.672C446.627 758.289 444.71 753.205 440.875 749.42C437.065 745.635 431.462 743.742 424.064 743.742H417.385V785.564ZM463.549 790.5V738.807H495.018V743.668H469.041V762.148H492.234V766.936H469.041V785.639H496.094V790.5H463.549ZM538.844 791.094C536.469 791.094 534.279 790.809 532.275 790.24C530.271 789.671 528.552 788.892 527.117 787.902C525.682 786.888 524.445 785.787 523.406 784.6C522.392 783.412 521.526 782.089 520.809 780.629L525.373 778.18C526.041 779.367 526.746 780.406 527.488 781.297C528.23 782.188 529.121 783.029 530.16 783.82C531.224 784.587 532.473 785.181 533.908 785.602C535.343 786.022 536.939 786.232 538.695 786.232C541.788 786.232 544.336 785.441 546.34 783.857C548.368 782.249 549.383 780.109 549.383 777.438C549.383 774.939 548.616 772.898 547.082 771.314C545.573 769.731 543.099 768.173 539.66 766.639L535.578 764.746C532.956 763.559 530.853 762.371 529.27 761.184C527.711 759.996 526.474 758.524 525.559 756.768C524.643 755.011 524.186 752.958 524.186 750.607C524.186 746.921 525.46 743.94 528.008 741.664C530.581 739.363 533.834 738.213 537.768 738.213C543.977 738.213 548.641 740.798 551.758 745.969L547.342 748.715C546.253 746.934 544.954 745.548 543.445 744.559C541.936 743.569 540.044 743.074 537.768 743.074C535.244 743.074 533.24 743.755 531.756 745.115C530.296 746.451 529.566 748.232 529.566 750.459C529.566 752.661 530.173 754.405 531.385 755.691C532.597 756.978 534.725 758.326 537.768 759.736L541.887 761.629C546.365 763.608 549.643 765.81 551.721 768.234C553.824 770.634 554.875 773.702 554.875 777.438C554.875 781.618 553.378 784.946 550.385 787.42C547.416 789.869 543.569 791.094 538.844 791.094ZM576.213 790.5V743.668H560.33V738.807H597.551V743.668H581.668V790.5H576.213ZM628.166 791.094C624.356 791.094 620.781 790.451 617.441 789.164C614.102 787.853 611.232 786.047 608.832 783.746C606.432 781.445 604.54 778.65 603.154 775.359C601.794 772.069 601.113 768.507 601.113 764.672C601.113 759.576 602.276 755.011 604.602 750.979C606.927 746.921 610.106 743.779 614.139 741.553C618.196 739.326 622.711 738.213 627.684 738.213C635.551 738.213 641.562 740.439 645.719 744.893L641.971 748.641C638.458 744.979 633.695 743.148 627.684 743.148C623.701 743.148 620.113 744.089 616.922 745.969C613.73 747.824 611.244 750.397 609.463 753.688C607.682 756.953 606.791 760.615 606.791 764.672C606.791 770.857 608.795 775.99 612.803 780.072C616.811 784.13 621.932 786.158 628.166 786.158C634.475 786.158 639.559 784.587 643.418 781.445V770.572H628.092V765.711H648.613V783.969C646.51 786.022 643.702 787.729 640.189 789.09C636.701 790.426 632.693 791.094 628.166 791.094ZM684.09 791.094C679.216 791.094 674.763 789.993 670.73 787.791C666.723 785.564 663.531 782.423 661.156 778.365C658.781 774.308 657.594 769.743 657.594 764.672C657.594 759.6 658.781 755.036 661.156 750.979C663.531 746.896 666.735 743.755 670.768 741.553C674.8 739.326 679.241 738.213 684.09 738.213C688.964 738.213 693.417 739.326 697.449 741.553C701.507 743.755 704.723 746.896 707.098 750.979C709.497 755.036 710.697 759.6 710.697 764.672C710.697 769.743 709.497 774.308 707.098 778.365C704.723 782.423 701.519 785.564 697.486 787.791C693.454 789.993 688.988 791.094 684.09 791.094ZM684.09 786.158C690.126 786.158 695.124 784.117 699.082 780.035C703.04 775.953 705.02 770.832 705.02 764.672C705.02 760.615 704.117 756.953 702.311 753.688C700.529 750.397 698.043 747.824 694.852 745.969C691.66 744.089 688.073 743.148 684.09 743.148C678.103 743.148 673.13 745.189 669.172 749.271C665.238 753.354 663.271 758.487 663.271 764.672C663.271 767.715 663.791 770.572 664.83 773.244C665.894 775.891 667.341 778.167 669.172 780.072C671.003 781.952 673.204 783.437 675.777 784.525C678.35 785.614 681.121 786.158 684.09 786.158ZM719.047 791.02C717.958 791.02 716.993 790.611 716.152 789.795C715.336 788.979 714.928 788.001 714.928 786.863C714.928 785.725 715.336 784.76 716.152 783.969C716.993 783.152 717.958 782.744 719.047 782.744C720.16 782.744 721.113 783.14 721.904 783.932C722.721 784.723 723.129 785.701 723.129 786.863C723.129 788.026 722.721 789.016 721.904 789.832C721.113 790.624 720.16 791.02 719.047 791.02Z" fill="white"/>
<line x1="93" y1="831" x2="727" y2="831" stroke="white" stroke-dasharray="2 2"/>
<g clip-path="url(#clip0_16_341)">
<path d="M308.528 994.952H319.722V995.313L316.111 998.561C316.111 1003.97 315.75 1009.39 316.111 1014.08C316.111 1018.77 316.111 1023.46 316.472 1027.43H312.139C312.139 1027.07 312.139 1026.71 311.778 1026.35C311.417 1025.99 311.056 1025.63 311.056 1025.27L291.917 1001.45C291.917 1008.67 291.917 1016.24 292.278 1023.82L296.25 1027.07V1027.43H285.417V1027.07L289.028 1023.82C289.389 1017.33 289.389 1009.03 289.028 998.561L284.694 995.313V994.952H294.083C294.806 996.035 295.528 997.117 296.611 998.2C297.694 999.643 299.139 1001.45 300.944 1003.61C302.75 1005.78 304.556 1007.94 306.722 1010.83C308.889 1013.72 311.417 1016.6 313.944 1019.85C313.944 1015.88 313.944 1012.27 313.944 1008.67C313.944 1005.06 313.944 1001.81 313.944 998.922L308.528 994.952ZM338.861 997.839L342.472 995.313V994.952H329.472V995.313L333.083 997.839C333.083 1006.5 333.083 1015.16 333.083 1024.18L329.111 1026.71V1027.07H342.472V1026.71L338.5 1024.18C338.5 1015.88 338.5 1007.22 338.861 997.839ZM374.972 1024.54C370.278 1024.9 365.944 1024.9 361.972 1024.54C361.972 1020.21 361.972 1016.24 361.972 1011.91C364.5 1011.91 367.75 1011.91 372.083 1011.91L374.611 1015.52H374.972V1005.42H374.611L372.083 1009.03C366.306 1009.03 363.056 1009.03 361.972 1009.03C361.972 1007.22 361.972 1005.42 361.972 1003.61C361.972 1001.81 361.972 1000 361.972 997.839C364.139 997.839 366.306 997.478 368.111 997.478C370.278 997.478 372.444 997.478 374.972 997.478L377.5 1001.09H377.861V994.591H352.583V994.952L356.194 997.478C356.194 1005.06 356.194 1013.72 356.194 1023.82L352.583 1026.35V1026.71H378.222V1019.49H377.861L374.972 1024.54ZM264.111 995.313L268.444 998.561C268.444 1001.45 268.444 1004.7 268.444 1008.3C268.444 1011.91 268.444 1015.52 268.444 1019.49C265.917 1015.88 263.389 1013 261.222 1010.47C259.056 1007.94 257.25 1005.42 255.444 1003.25C253.639 1001.09 252.556 999.643 251.472 997.839C250.75 996.757 249.667 995.674 248.944 994.591H239.556V994.952L243.889 998.2C244.25 1008.67 244.25 1016.97 243.889 1023.46L240.278 1026.71V1027.07H251.111V1026.71L247.5 1023.82C247.139 1016.24 247.139 1009.03 247.139 1001.45L266.278 1025.63C266.639 1025.99 267 1026.35 267 1026.71C267.361 1027.07 267.361 1027.43 267.361 1027.79H271.694C271.333 1023.82 271.333 1019.13 271.333 1014.44C271.333 1009.75 271.333 1004.7 271.694 998.922L275.306 995.674V995.313H264.111ZM126.528 987.013L131.583 990.261L131.944 1024.9C131.944 1026.35 131.944 1027.43 131.944 1028.51C131.944 1029.6 131.944 1030.32 131.583 1031.4C131.583 1032.12 131.222 1033.2 130.861 1033.93C130.5 1034.65 130.139 1035.37 129.417 1036.09C128.694 1037.17 127.611 1037.9 126.528 1038.26C125.444 1038.98 124.361 1038.98 122.917 1038.98C122.917 1038.98 123.278 1038.62 123.278 1038.26C123.278 1037.9 123.639 1037.9 123.639 1037.53C123.639 1037.17 123.639 1036.81 123.639 1036.81C123.639 1036.45 123.639 1036.09 123.278 1035.73C123.278 1035.37 122.917 1035.01 122.556 1034.65C122.194 1034.29 121.833 1034.29 121.472 1033.93C121.111 1033.57 120.75 1033.57 120.389 1033.57C120.028 1033.57 119.667 1033.57 119.306 1033.93C118.944 1033.93 118.583 1034.29 118.222 1034.65C117.861 1035.01 117.5 1035.37 117.5 1035.73C117.5 1036.09 117.5 1036.81 117.5 1037.17C117.5 1037.9 117.5 1038.62 117.861 1038.98C118.222 1039.34 118.583 1040.06 119.306 1040.42C119.667 1040.78 120.389 1041.14 121.111 1041.14C121.833 1041.14 122.194 1041.5 122.917 1041.5C124 1041.5 125.444 1041.14 126.528 1040.78C127.611 1040.42 128.694 1039.7 129.778 1038.98C130.861 1038.26 131.583 1037.53 132.667 1036.45C133.389 1035.37 134.111 1034.29 134.833 1033.2C135.556 1032.12 135.917 1031.04 136.278 1030.32C136.639 1029.23 137.361 1028.15 137.361 1027.07C137.722 1025.99 138.083 1024.54 138.083 1023.46C138.083 1022.02 138.444 1020.57 138.444 1019.13C138.444 1017.33 138.444 1015.52 138.444 1013.72C138.444 1011.91 138.444 1009.75 138.444 1007.58C138.444 1005.42 138.444 1002.89 138.444 1000C138.444 997.117 138.444 993.87 138.444 990.261L142.417 987.735V986.652L126.528 987.013ZM179.25 1017.69C179.972 1015.52 180.333 1013.36 180.333 1011.19C180.333 1009.03 179.972 1007.22 179.611 1005.06C179.25 1003.25 178.528 1001.81 177.444 1000.37C176.361 998.922 175.278 997.839 173.833 997.117C172.389 996.396 170.583 996.035 169.139 996.035C167.333 996.035 165.889 996.396 164.444 997.117C163 997.839 161.917 998.922 160.833 1000.37C159.75 1001.81 159.028 1003.25 158.667 1005.06C158.306 1006.86 157.944 1009.03 157.944 1011.19C157.944 1013.36 158.306 1015.52 159.028 1017.33C159.75 1019.13 160.472 1020.57 161.556 1022.02C162.639 1023.1 163.722 1024.18 165.167 1024.9C166.611 1025.63 168.056 1025.99 169.5 1025.99C170.944 1025.99 172.389 1025.63 173.833 1024.9C175.278 1024.18 176.361 1023.1 177.444 1022.02C177.806 1020.93 178.889 1019.49 179.25 1017.69ZM183.944 1002.17C184.667 1003.61 185.389 1005.06 185.75 1006.5C186.833 1010.11 186.472 1014.44 185.028 1018.05C184.306 1020.21 182.861 1022.02 181.417 1023.46C179.972 1025.27 178.167 1026.35 176 1027.43C173.833 1028.51 171.667 1028.87 169.139 1028.87C166.611 1028.87 164.444 1028.51 162.278 1027.43C160.111 1026.35 158.306 1025.27 156.5 1023.46C154.694 1022.02 153.611 1019.85 152.528 1018.05C151.444 1015.88 151.083 1013.72 151.083 1011.19C151.083 1007.58 152.167 1004.33 153.972 1001.45C155.778 998.561 158.667 996.396 161.917 994.952C164.083 993.87 166.611 993.509 169.139 993.509C170.583 993.509 172.028 993.509 173.472 994.23C174.917 994.591 176.361 995.313 177.444 996.035C178.889 996.757 179.972 997.839 181.056 998.922C182.5 999.643 183.222 1000.73 183.944 1002.17ZM217.528 995.313L221.139 997.839V1009.03C215.361 1009.03 209.583 1009.03 204.167 1009.03V997.839L207.778 995.313V994.952H194.778V995.313L198.389 997.839V1024.18L194.778 1026.71V1027.07H207.778V1026.71L204.167 1024.18V1011.55C209.944 1011.55 215.361 1011.55 221.139 1011.55V1024.18L217.528 1026.71V1027.07H230.167V1026.71L226.556 1024.18C226.556 1015.88 226.556 1007.22 226.556 997.839L230.167 995.313V994.952L217.528 995.313ZM508.583 987.013C509.306 987.374 509.667 987.735 510.389 988.096C511.111 988.457 511.472 988.817 512.194 989.539C511.111 993.87 510.028 997.478 508.944 1001.09C507.861 1004.7 507.139 1007.58 506.417 1010.11C505.694 1012.63 504.972 1014.8 504.611 1016.24C504.25 1018.05 503.889 1018.77 503.889 1019.49L494.861 989.9C495.583 989.178 495.944 988.817 496.667 988.096C497.028 987.735 497.75 987.374 498.472 987.013V986.652H484.389V987.013L488 989.9C486.917 993.148 486.194 996.035 485.472 998.922C484.75 1001.81 484.028 1004.33 483.306 1006.86C482.583 1009.39 481.861 1011.55 481.5 1013.72C480.778 1015.88 480.417 1017.69 479.694 1019.85L471.389 990.622L475 987.735V986.652H460.556V987.013C461.278 987.374 461.639 987.735 462 988.096C462.361 988.457 462.722 988.457 463.083 988.817C463.444 989.178 463.444 989.178 463.806 989.539C463.806 989.9 464.167 989.9 464.167 990.261C464.528 991.704 465.25 993.509 465.972 996.035C466.694 998.561 467.778 1001.81 468.861 1005.06C469.944 1008.3 471.028 1011.91 472.472 1015.88C473.556 1019.85 475 1023.82 476.083 1028.15H480.417V1027.79C480.417 1027.43 480.417 1027.07 480.417 1027.07C480.417 1026.71 480.417 1026.35 480.778 1026.35C480.778 1025.99 481.139 1025.99 481.139 1025.63C481.5 1024.18 481.861 1022.74 482.222 1020.93C482.583 1019.13 483.306 1017.33 483.667 1015.52C484.028 1013.72 484.75 1011.91 485.111 1009.75C485.472 1007.94 486.194 1006.14 486.917 1003.97C487.639 1002.17 488 1000.37 488.361 998.561C488.722 996.757 489.444 995.313 489.806 993.509L500.278 1027.79H504.611C504.611 1027.07 504.972 1025.63 505.694 1023.82C506.417 1021.66 507.139 1019.13 507.861 1015.88C508.944 1012.63 510.028 1009.03 511.111 1004.7C512.556 1000.37 514 995.313 515.444 989.9C516.528 989.178 517.25 988.457 517.611 987.735C518.333 987.013 518.694 987.013 518.694 986.652L508.583 987.013ZM540 1013L534.583 999.283L529.528 1013H540ZM550.472 1023.82L554.083 1027.07V1027.43H540V1027.07L543.972 1023.82L540.722 1015.16C537.111 1015.16 532.778 1015.16 528.806 1015.16L525.917 1023.82L529.889 1027.07V1027.43H519.056V1027.07L522.667 1023.82L533.861 994.591H538.556L550.472 1023.82ZM658.083 1024.54C653.389 1024.9 649.056 1024.9 645.083 1024.54C645.083 1020.21 645.083 1016.24 645.083 1011.91C647.611 1011.91 650.861 1011.91 655.194 1011.91L657.722 1015.52H658.083V1005.42H657.722L655.194 1009.03C649.417 1009.03 646.167 1009.03 645.083 1009.03C645.083 1007.22 645.083 1005.42 645.083 1003.61C645.083 1001.81 645.083 1000 645.083 997.839C646.889 997.839 649.056 997.478 651.222 997.478C653.389 997.478 655.556 997.478 658.083 997.478L660.611 1001.09H660.972V994.591H635.694V994.952L639.306 997.478C639.306 1005.06 639.306 1013.72 639.306 1023.82L635.694 1026.35V1026.71H661.333V1019.49H660.972L658.083 1024.54ZM685.167 1010.83C688.056 1010.83 689.861 1010.11 691.306 1009.03C692.75 1007.94 693.472 1006.14 693.472 1003.97C693.472 1003.25 693.472 1002.17 693.111 1001.45C692.75 1000.73 692.389 1000 691.667 999.283C690.944 998.561 690.222 998.2 689.5 997.839C688.417 997.478 687.694 997.478 686.611 997.478H685.889C685.528 997.478 685.167 997.478 684.806 997.478C684.444 997.478 683.722 997.478 683.361 997.478C683 997.478 682.278 997.478 681.917 997.478V1010.83C682.278 1010.83 682.639 1010.83 682.639 1010.83C683 1010.83 683.361 1010.83 683.722 1010.83H685.167ZM701.778 1026.35C702.139 1026.71 702.139 1026.71 702.5 1027.07V1027.43H695.278L687.694 1014.8C687.333 1014.44 686.972 1014.08 686.611 1013.72C686.25 1013.36 685.528 1013.36 685.167 1013.36H683.722C683 1013.36 682.278 1013.36 681.556 1013.36V1024.54L685.167 1027.07V1027.43H672.167V1027.07L676.139 1024.54V998.561L672.528 995.674V995.313H687.333C689.139 995.313 690.944 995.313 692.389 996.035C693.833 996.396 695.278 997.117 696.361 997.839C697.444 998.561 698.167 999.643 698.889 1000.73C699.611 1001.81 699.972 1002.89 699.972 1004.33C699.972 1005.42 699.611 1006.5 699.25 1007.58C698.889 1008.67 697.806 1009.39 697.083 1010.11C696 1010.83 694.917 1011.55 693.833 1011.91C692.389 1012.27 690.944 1012.63 689.5 1012.63C690.583 1012.63 691.306 1013 692.389 1013.72C693.111 1014.44 693.833 1015.16 694.194 1015.88L699.25 1023.82C699.611 1024.18 699.611 1024.54 699.972 1024.9C700.333 1025.27 700.694 1025.63 701.056 1026.35C701.056 1025.63 701.417 1025.99 701.778 1026.35ZM610.056 1008.67C612.944 1006.14 615.111 1003.61 617.278 1001.81C619.083 1000 620.528 998.561 621.611 997.839L626.306 995.313V994.952H615.472V995.313L617.278 997.839C616.194 998.922 615.111 1000 614.028 1001.45C612.944 1002.53 611.861 1003.61 610.417 1004.7C609.333 1005.78 608.25 1006.86 607.167 1007.58C606.083 1008.67 605 1009.39 604.278 1010.11C607.889 1013.72 612.222 1018.41 617.278 1024.18L615.833 1026.71V1027.07H627.389V1026.71L624.861 1024.18C617.639 1017.33 612.944 1011.91 610.056 1008.67ZM603.917 998.2L607.528 995.674V995.313H594.528V995.674L598.139 998.2C598.139 1006.86 598.139 1015.52 598.139 1024.54L594.167 1027.07V1027.43H607.528V1027.07L603.556 1024.54C603.917 1015.16 603.917 1006.5 603.917 998.2ZM582.972 1024.54H576.472C574.306 1024.54 572.5 1024.54 571.056 1024.54C571.056 1015.52 571.056 1006.86 571.056 998.2L575.028 995.674V995.313H561.667V995.674L565.278 998.2C565.278 1006.86 565.278 1015.52 565.278 1024.54L561.667 1027.07V1027.43H586.222V1020.21H585.861L582.972 1024.54ZM403.139 1016.24C402.417 1015.88 402.056 1014.8 402.056 1013C402.056 1011.55 402.417 1010.11 403.139 1008.67C403.861 1007.22 404.944 1006.14 406.028 1005.06C409.278 1002.89 411.806 1002.53 412.889 1002.17C411.083 1002.17 410 1001.09 410 1000.37C410 1000 410.722 1000.73 411.806 1000.73C413.25 1000.73 414.333 1000.37 415.778 999.283C416.139 998.922 416.5 999.283 416.5 999.643C417.583 998.561 418.306 997.117 418.306 995.313C418.667 996.035 420.111 996.396 421.194 996.757C421.917 996.757 424.444 997.478 424.806 997.478C424.444 997.478 422.639 996.396 421.556 996.035C420.833 995.674 420.472 995.674 420.111 995.313C419.75 995.313 419.389 994.952 419.028 994.952C419.028 994.952 419.028 994.952 418.667 994.952C418.667 994.952 418.667 994.952 418.306 994.591C416.861 993.148 415.778 991.343 415.056 989.539C414.333 988.096 413.611 986.652 413.611 984.848C413.611 984.487 413.611 984.126 413.611 983.765C413.611 983.404 413.611 983.043 413.611 982.683C413.611 982.322 413.611 982.322 413.972 981.961C413.972 981.961 413.972 981.6 414.333 981.6C414.694 981.239 414.694 981.239 415.056 980.878C415.056 980.878 415.056 980.878 415.417 980.878C415.778 980.878 415.056 981.6 414.694 982.683C414.333 984.487 415.778 985.93 416.5 986.652C418.667 988.817 419.75 989.539 420.833 990.983C420.833 991.343 420.833 991.343 420.472 991.343C420.111 991.343 419.389 990.983 419.389 991.343C419.75 991.704 419.75 991.704 420.111 992.065C420.472 992.065 420.833 992.426 421.194 992.426H421.556C421.917 992.426 421.917 992.426 422.278 992.787H422.639H423C423 992.787 423.361 992.787 423.361 993.148C423.361 993.148 423.361 993.148 423 993.148H422.639H422.278C421.917 993.148 421.556 993.148 421.556 993.148C421.194 993.148 421.194 993.148 420.833 993.148C420.472 993.148 420.472 993.148 420.111 993.148C419.389 992.787 418.306 992.426 419.028 993.148C419.028 993.148 419.028 993.148 419.389 993.509C419.75 993.87 420.472 994.23 420.833 994.23C421.194 994.23 421.194 994.23 421.556 994.23C421.917 994.23 421.917 994.23 422.278 994.23C422.639 994.23 423 994.23 423.361 994.23C424.083 994.23 424.806 994.23 425.167 994.23C425.167 994.23 425.167 994.23 425.528 994.23C425.528 994.23 425.528 993.87 425.167 993.509C424.806 993.509 424.806 993.509 424.444 993.148C424.083 993.148 423.722 992.787 423.361 992.426C423.361 992.426 423.361 992.426 423 992.065C423 992.065 422.639 992.065 422.639 991.704C422.639 991.704 422.278 991.704 422.278 991.343V990.983C422.278 990.622 422.278 990.622 421.917 990.261C421.194 988.817 420.472 987.374 419.389 985.93C418.667 985.209 418.306 984.848 417.583 984.126C417.222 983.765 417.222 982.683 417.583 982.683C417.944 982.683 419.389 985.209 419.75 985.57C419.75 985.57 419.75 984.848 419.389 984.126C419.389 983.765 419.028 983.404 419.028 983.043C418.667 982.683 418.306 981.961 417.944 981.6C417.583 981.239 417.222 981.239 416.861 980.878C416.861 980.878 416.861 980.517 417.944 980.878C418.667 981.239 418.667 981.239 419.028 981.239C418.667 980.878 417.944 980.517 417.222 980.157C416.861 980.157 417.944 979.435 419.389 979.796C420.472 979.796 421.556 980.157 422.278 980.517C422.639 980.517 422.278 980.157 421.917 979.796C421.556 979.435 420.833 979.074 420.472 979.074C420.472 979.074 421.556 979.074 422.278 979.074C422.639 979.074 422.278 978.713 421.917 978.713C421.556 978.352 420.833 978.713 421.194 978.352C421.556 978.352 421.556 977.991 421.556 977.991C421.556 977.991 421.917 977.63 421.917 977.27C421.917 976.548 421.917 976.548 421.917 976.187C421.917 976.187 422.639 976.909 424.083 978.713C425.528 980.517 426.611 982.322 427.694 984.487C428.778 986.652 429.5 989.178 429.5 991.704C429.5 991.704 429.5 991.704 429.861 991.704C430.583 990.622 430.944 987.735 431.306 986.291C431.306 985.57 431.306 985.209 430.944 984.848C430.583 984.126 430.944 983.765 430.944 983.043C430.944 982.322 430.583 982.322 430.222 981.961C429.861 981.239 429.861 981.239 429.861 981.239C429.861 981.239 430.222 981.239 430.944 981.239C431.667 981.239 432.028 981.239 432.75 981.6C433.111 981.961 433.472 982.683 434.556 982.683C434.917 982.683 435.278 982.683 435.278 983.043C435.639 983.043 435.639 983.404 436 983.765C436 984.126 436.361 984.126 436.722 984.487C436.722 984.487 436.722 984.848 436.361 984.848V985.209C436.361 985.57 436.361 985.57 436.722 985.93C436.722 985.93 436.722 985.93 437.083 985.93V985.57C437.083 985.209 437.444 984.848 437.444 985.209C437.444 985.209 437.444 985.209 437.444 985.57C437.444 985.57 437.444 985.57 437.444 985.93L437.806 986.291C438.167 986.652 438.889 987.013 439.611 987.374C438.528 986.652 438.528 986.652 438.167 986.291L437.806 985.93C437.806 985.93 437.806 985.57 437.444 985.209H437.806C437.806 985.209 437.806 985.209 437.806 984.848H437.444C437.444 984.848 437.444 984.848 437.083 984.848C437.083 984.848 437.083 984.848 436.722 984.848C436.361 984.487 436 984.487 435.639 984.126C435.278 983.765 436 984.126 436 983.765C436.361 983.404 435.639 982.683 435.278 983.043C434.917 983.404 434.917 983.043 434.917 982.683C434.917 982.322 434.917 981.961 434.917 981.961C434.917 981.961 434.917 981.6 435.278 981.6L435.639 981.961C435.639 981.961 435.639 981.961 436 981.961H436.361C436.361 981.961 436.361 981.961 436.722 981.961C436.722 981.961 436.722 981.961 437.083 981.961V981.6C437.083 981.6 437.083 981.6 436.722 981.6H436.361V981.239C436 980.878 435.639 980.878 435.278 980.517C434.917 980.157 434.556 980.157 434.194 979.796C434.194 979.796 433.833 979.435 433.833 979.074C433.833 978.713 433.472 978.352 433.472 978.352C433.472 977.991 433.111 977.991 433.111 977.991C433.111 977.991 433.833 977.991 433.833 978.352C433.833 978.352 433.833 978.713 434.194 978.713C434.194 978.352 434.194 978.352 434.194 977.991C434.194 977.63 434.194 977.63 434.556 977.27V977.63C434.556 977.63 434.556 977.63 434.556 977.991C434.556 977.991 434.556 977.991 434.556 978.352C434.556 978.713 434.556 979.435 434.556 979.435C434.556 979.435 434.556 979.796 434.917 979.796L435.278 979.435V979.074V978.713H434.917V978.352C434.917 977.991 434.556 978.352 434.556 978.352V977.991C434.556 977.63 434.556 977.63 434.194 977.63C434.194 977.27 435.278 977.63 435.278 977.63H435.639C435.639 977.63 435.639 977.63 435.639 977.991V978.352H436C436 978.352 436 978.352 436.361 978.352C436.361 978.352 436.361 978.352 436.361 978.713C436.361 979.074 436.722 979.435 436.722 980.157C436.722 980.517 437.083 980.517 437.083 980.878L437.444 981.239V981.6C437.444 981.6 437.444 981.961 437.806 981.961C437.806 981.961 437.806 981.961 438.167 981.961C438.167 981.961 438.167 981.961 438.528 981.961C438.889 981.961 438.889 982.322 439.25 982.683C439.25 982.683 439.25 982.683 439.25 983.043C439.611 983.765 439.972 984.487 440.333 984.848C441.417 986.291 442.5 988.096 442.5 988.817C442.5 989.178 441.417 989.9 441.056 989.9C440.694 989.9 438.167 990.261 435.278 989.9C433.833 989.9 432.389 989.539 430.944 988.817C430.944 990.261 430.583 991.704 430.222 993.148C429.861 994.23 429.5 996.035 429.139 996.757C429.139 996.757 429.139 996.757 428.778 996.757H428.417L427.694 996.396C427.333 996.396 426.972 996.035 426.611 996.035C425.889 996.035 425.167 996.035 424.444 996.035C424.083 996.035 423.722 996.035 423.361 996.035C422.639 996.035 423 996.396 424.083 996.757C424.806 996.757 425.528 996.757 426.25 996.757C426.611 996.757 426.972 996.757 426.972 996.757C427.333 996.757 427.694 996.757 428.056 996.757L428.778 997.117H429.139C429.861 997.478 430.222 997.478 430.944 997.478C431.306 997.478 431.306 997.478 431.667 997.478H432.028C432.389 997.478 432.75 997.478 432.75 997.478C433.111 997.478 433.111 997.478 433.472 997.478C433.472 997.478 433.472 997.478 433.472 997.839C433.472 997.839 433.472 997.839 433.111 997.839H432.75L432.389 998.2C432.028 998.2 432.028 998.561 431.667 998.561C431.667 997.478 431.667 997.839 431.306 998.2C431.306 998.561 431.306 998.922 431.306 999.283C431.306 1000 432.028 1000 432.028 1000.37C432.028 1000.37 432.028 1000.73 431.667 1000.73H431.306C430.944 1000.73 430.583 1000.73 430.222 1000.37C430.222 1000 430.583 1000 430.222 999.643C429.861 999.283 429.139 999.283 429.5 1000C429.5 1000 429.5 1000.37 429.861 1000.37C429.139 1000 429.139 1000 428.778 999.643V999.283C428.778 999.283 428.778 999.283 428.778 998.922C428.778 998.922 428.778 998.922 428.417 998.922H428.056H427.694C427.694 998.922 428.417 999.283 429.139 999.643C429.139 1000.37 428.778 1001.81 428.417 1002.17C428.056 1002.53 427.333 1000.73 426.972 1000.37C426.972 1000.37 426.972 1000.37 426.972 1000.73C426.611 1001.09 426.25 1001.45 425.889 1001.81C425.167 1001.81 424.806 1001.81 424.083 1001.81C420.833 1001.81 416.861 1003.97 415.417 1004.33C415.056 1004.33 415.056 1004.33 414.694 1004.7C415.778 1004.7 416.5 1004.33 417.222 1003.97C417.944 1003.61 418.306 1003.61 419.389 1003.25H419.75L419.389 1003.61C418.667 1004.33 418.306 1005.06 416.5 1006.5C415.417 1007.22 414.333 1007.58 413.25 1007.94H412.889C408.917 1009.03 406.75 1009.03 404.583 1010.11C403.139 1010.83 402.778 1011.91 402.778 1013C402.778 1012.63 403.139 1012.27 403.139 1011.91C403.5 1011.55 403.5 1011.19 404.222 1010.83C405.306 1010.11 406.75 1009.75 408.194 1009.39C406.389 1010.47 402.778 1013 403.139 1016.24ZM426.611 991.343C426.25 991.704 426.25 991.704 426.611 991.343C426.25 991.704 426.25 991.704 426.25 992.065C426.25 992.065 426.25 992.426 426.611 992.426H426.972C426.972 992.426 427.333 992.426 427.333 992.065V991.704C426.972 991.704 426.972 991.704 426.611 991.343ZM425.889 989.539C426.25 989.178 426.25 989.178 426.25 988.817C426.25 988.817 426.25 988.817 425.889 988.817C425.889 988.817 425.889 988.817 425.528 988.817C425.528 988.817 425.528 988.817 425.528 989.178C425.528 989.178 425.528 989.178 425.528 989.539C425.528 989.539 425.528 989.539 425.889 989.539ZM421.556 983.404C421.556 983.404 423.361 984.848 425.167 986.291C425.889 987.013 426.25 987.374 426.25 987.735C426.25 987.735 426.611 988.096 426.25 987.374C425.889 986.652 425.167 985.93 424.806 985.57C423.722 984.487 423 983.765 423 983.765C423 983.404 423.722 983.043 423.361 982.683C422.278 982.683 421.917 983.043 421.556 983.404ZM425.167 977.991C424.806 977.991 424.806 977.991 425.167 977.991C424.806 977.63 423.722 978.352 424.444 978.352C424.444 978.352 424.806 978.352 425.167 977.991C425.167 978.352 424.806 978.352 425.167 977.991ZM429.139 985.209C429.139 984.848 428.417 984.848 428.417 985.209C428.417 985.57 428.417 985.57 428.417 985.57C429.139 985.57 429.139 985.57 429.139 985.209C429.139 985.57 429.139 985.57 429.139 985.209ZM421.194 970.052C421.194 970.774 422.278 971.135 423 971.135C423 971.135 423.361 971.135 423.722 971.135C423.722 971.496 423.722 971.496 423 971.496H422.639H422.278C422.278 971.496 422.278 971.496 421.917 971.857V972.217C421.917 972.939 422.278 973.661 422.278 974.022C422.278 974.383 421.917 974.383 421.917 974.383C421.917 974.383 421.917 974.383 421.556 974.383C421.556 974.383 421.556 974.743 421.917 974.743H422.278C422.639 974.743 422.639 974.743 423 974.743H423.361C423.722 974.743 423.722 975.104 424.083 975.104L424.444 975.465L424.806 975.104C424.806 975.104 424.806 975.104 424.444 975.104C424.444 975.104 424.444 975.104 424.083 975.104C424.083 975.104 424.083 974.743 423.722 974.383C423.722 974.022 423.361 974.022 423.361 973.661V973.3C423.361 973.3 423.361 972.939 423.722 972.939C423.722 972.939 423.722 972.939 424.083 972.939H424.444C424.806 972.939 424.806 973.3 424.806 973.661C424.806 973.661 424.806 973.661 424.806 974.022L425.167 974.383V974.743C425.167 974.743 425.167 974.743 425.167 975.104C425.167 975.465 425.167 975.465 425.167 975.465L425.889 975.826C426.25 975.826 426.25 975.826 426.25 975.826C425.889 975.465 425.889 975.104 425.889 974.743C425.889 974.383 425.889 974.383 425.889 974.022H426.25H426.611H426.972C426.972 974.022 426.972 974.022 426.972 974.383C426.972 974.383 426.972 974.383 427.333 974.383C427.333 974.383 427.333 974.383 427.333 974.743C427.694 974.743 428.056 974.743 428.417 974.743C428.417 974.743 428.778 974.743 429.139 974.743C429.139 975.104 429.139 975.465 429.139 975.826C429.139 976.187 429.139 976.187 429.139 976.548H428.778C428.778 976.548 428.778 976.909 428.417 976.909C428.417 976.909 428.417 976.909 428.417 977.27V977.63C428.417 977.63 428.417 977.63 428.417 977.991C428.417 977.991 428.417 978.352 428.417 978.713V979.074C428.417 979.074 428.417 979.074 428.417 979.435H428.056H427.694L427.333 979.074C427.333 979.074 427.333 979.074 427.694 979.435C427.694 979.435 427.694 979.796 428.056 979.796C428.778 980.517 429.5 980.157 429.861 979.796C429.861 979.435 430.222 979.074 430.944 978.352C431.306 977.63 431.667 977.63 432.028 976.909C432.028 976.548 432.389 976.187 432.389 975.465C432.028 975.465 431.667 975.104 431.306 974.743C430.944 974.383 430.944 974.383 430.583 974.022C430.222 973.661 429.861 972.939 429.5 972.578C429.139 972.217 429.139 972.217 428.778 971.857C428.778 971.857 428.778 971.857 428.778 971.496C428.778 971.496 428.778 971.496 429.139 971.496C429.861 971.857 430.583 972.217 431.306 972.939C431.667 973.3 431.667 973.661 432.028 974.022C432.389 974.383 432.389 974.743 432.75 974.743C433.472 975.104 434.194 975.104 434.917 975.104C435.278 975.104 435.639 974.743 435.639 974.743C435.639 974.743 435.639 974.743 436 975.104H436.361H436.722H437.083C437.083 975.104 437.083 975.104 436.722 974.383C436.361 974.022 436 973.661 435.639 973.661C435.639 973.661 435.278 973.661 435.278 974.022V974.383C434.917 974.383 434.917 974.022 434.556 974.022C434.194 974.022 433.833 973.661 433.472 973.3C433.833 972.578 434.194 971.857 434.917 971.135C435.639 970.413 436 970.052 436.361 969.691C436.361 969.33 435.639 967.165 433.472 965.722C428.417 965 426.611 965 426.25 965C425.528 965 425.528 965.361 425.528 965.722C425.528 966.443 425.528 966.804 425.167 967.526C425.167 967.887 425.167 968.248 424.806 968.609C424.806 968.609 424.806 968.97 425.167 968.97C425.167 968.97 426.611 970.052 426.611 970.413C426.972 970.774 426.611 970.774 426.25 970.413C425.889 970.052 425.167 969.691 424.444 969.691C423.722 969.33 423 969.33 422.278 969.33C421.917 969.33 421.194 969.691 421.194 970.052ZM427.694 980.517C427.333 980.517 427.333 980.517 427.333 980.517C426.972 980.517 426.972 980.878 426.611 980.517C425.889 979.796 425.528 979.435 425.167 979.796C425.167 980.157 425.167 980.157 425.167 980.517C425.167 981.239 425.528 981.961 425.528 981.961C425.528 981.961 425.528 982.322 425.889 981.961C426.25 981.961 426.25 981.961 426.611 981.6C426.611 981.6 426.611 981.6 426.972 981.961C426.972 981.961 426.972 981.961 427.333 981.961H427.694L428.056 981.6C428.417 981.6 429.139 982.322 428.778 981.6C428.778 981.239 428.778 981.239 428.778 980.878C428.778 980.517 428.778 980.517 429.139 980.157C429.139 980.157 429.5 979.796 429.139 979.796C428.778 979.796 428.778 979.796 428.417 979.796C428.056 980.157 427.694 980.517 427.694 980.517ZM429.139 987.374C429.5 987.013 429.5 987.013 429.5 986.652C429.5 986.291 428.778 986.291 428.778 986.652C429.139 987.013 429.139 987.013 429.139 987.374ZM434.194 977.27C434.556 976.909 434.556 976.548 434.556 976.548C434.194 976.909 434.194 977.27 434.194 977.27ZM426.25 976.909C426.611 976.548 426.972 976.548 426.611 976.548H426.25C425.889 976.548 425.889 976.909 426.25 976.909ZM409.278 1030.32C409.639 1030.32 409.639 1030.32 409.278 1030.32C409.278 1030.68 408.917 1031.4 408.194 1032.12C407.472 1032.84 405.306 1036.09 404.583 1037.53C404.222 1038.26 404.222 1038.62 403.861 1039.34C403.861 1039.34 403.861 1039.34 403.5 1039.34C403.5 1039.34 403.5 1039.34 403.139 1039.34C403.139 1039.34 403.139 1039.34 402.778 1039.34C402.417 1039.34 402.778 1039.7 403.139 1039.7C403.5 1039.7 403.5 1040.06 403.5 1040.06C403.5 1040.06 403.5 1040.06 403.5 1040.42V1040.78C403.5 1040.78 403.5 1040.78 403.139 1041.14C403.139 1041.87 403.139 1042.95 403.5 1043.67C403.861 1044.39 404.222 1045.11 404.583 1045.47C404.944 1045.83 405.667 1046.2 406.028 1046.56L406.389 1046.92C406.389 1047.28 406.389 1047.28 406.389 1047.64C406.389 1047.64 406.75 1047.64 406.389 1048C406.389 1048 406.028 1048.36 405.306 1048.36C404.222 1048.36 403.139 1048.36 402.417 1047.64C401.333 1047.28 400.972 1046.92 400.25 1045.83C399.889 1044.75 399.167 1043.67 399.167 1043.67H398.444C398.083 1043.31 398.083 1042.95 397.722 1042.59C397.361 1041.87 397.361 1041.5 397.722 1040.78C397.722 1040.42 397.722 1040.06 398.083 1039.7C398.083 1040.06 398.444 1040.06 398.806 1040.06C398.806 1039.7 399.167 1039.7 399.528 1039.34C399.889 1038.98 399.889 1038.98 399.528 1038.98H399.167H398.806L399.167 1038.62C399.167 1038.26 399.528 1038.26 399.528 1037.9C399.889 1037.53 399.889 1036.81 399.889 1036.45C400.25 1035.37 400.611 1033.2 400.972 1032.48C401.333 1031.4 402.056 1030.32 402.778 1029.6C402.778 1029.6 402.778 1029.6 402.778 1029.96C402.778 1029.96 402.778 1030.32 403.139 1030.32L403.5 1030.68C403.139 1031.4 402.778 1032.12 402.417 1032.84C402.056 1033.57 400.972 1036.09 400.611 1037.9C400.25 1039.7 400.611 1038.62 400.972 1037.9C400.972 1037.17 401.694 1035.37 402.056 1034.65C402.417 1033.57 403.5 1031.76 403.861 1031.4C404.222 1031.04 404.222 1031.04 404.222 1031.4C405.306 1029.96 406.028 1029.96 406.389 1029.96C407.472 1030.32 408.194 1030.32 409.278 1030.32ZM400.972 1044.39C401.333 1044.03 400.972 1043.67 400.611 1042.95C400.25 1042.59 399.889 1042.23 399.889 1041.87C399.889 1041.5 399.889 1041.14 399.528 1041.14C399.528 1041.14 399.528 1041.14 399.528 1041.87C399.528 1042.59 400.25 1042.95 400.25 1043.31C400.611 1043.67 400.972 1044.39 400.972 1044.39ZM403.5 1045.83C403.139 1045.47 403.139 1045.47 403.139 1045.47C402.778 1045.47 402.417 1045.83 402.778 1045.83C403.139 1046.2 403.5 1046.2 403.861 1046.2C403.861 1046.2 404.222 1046.2 404.583 1046.2H404.222C403.861 1046.2 403.5 1045.83 403.5 1045.83ZM402.417 1045.11C402.778 1045.11 403.139 1044.75 402.778 1044.75C402.778 1044.75 402.417 1044.75 402.417 1045.11C402.056 1044.75 402.056 1044.75 402.056 1045.11C401.694 1045.47 401.694 1045.47 402.056 1045.47C402.056 1045.47 402.056 1045.11 402.417 1045.11ZM434.556 1000C434.917 1000 435.278 1000 435.639 999.643C436 999.283 436 999.283 436.361 999.283C436.361 999.283 436.361 999.283 436.722 998.922C436.722 998.922 436.722 998.922 436.722 998.561C436.722 998.561 436.722 998.2 437.083 998.2C437.083 998.2 437.083 998.2 437.444 998.2C437.444 998.2 437.444 998.2 437.444 997.839V997.478C437.444 997.478 437.444 997.478 437.806 997.478C438.167 997.478 438.528 997.478 438.528 997.117C438.528 996.757 438.528 996.757 438.528 996.396C438.528 996.396 438.528 996.396 438.167 996.396H437.806C437.444 996.396 437.083 996.035 437.083 996.035H436.722C436.722 996.396 436.722 996.396 436.722 996.396C436.722 996.396 436.722 996.396 436.361 996.396C436 996.396 436 996.757 436 996.757C436 996.757 436 996.757 436 997.117C436 997.117 436 997.117 436 997.478L435.639 997.839C435.639 997.839 435.639 998.2 435.278 998.2C434.917 998.2 434.917 998.2 434.194 998.561C433.833 998.561 433.472 998.561 433.111 998.561C433.111 998.922 433.111 998.922 433.472 998.922C433.833 998.922 433.833 998.922 433.472 999.283C433.111 999.283 433.833 999.643 433.833 999.643C432.75 1001.81 419.389 1028.15 419.389 1028.51C419.028 1029.23 434.556 1000 434.556 1000ZM435.639 996.035C435.639 996.396 436 995.674 436.361 995.674H436.722L437.083 995.313C437.444 995.313 437.806 995.313 437.806 994.952C438.167 994.591 438.167 994.23 438.167 994.23C438.167 993.87 438.167 993.509 437.806 993.509C437.444 993.148 437.083 993.148 437.083 993.148C436.722 993.148 436.722 993.148 436.361 993.509H436.722C436.722 993.509 436.722 993.509 436.722 993.87C436.722 994.23 436.361 994.23 436.361 994.591C436.361 994.952 436.361 994.952 436.722 995.313C435.639 995.313 435.639 995.674 435.639 996.035ZM447.556 1040.06C447.556 1040.06 447.917 1040.06 447.917 1040.42C447.556 1041.87 446.472 1042.95 445.389 1043.67C444.306 1044.39 442.5 1044.39 441.778 1044.75L441.417 1045.11V1045.83C441.056 1046.2 440.694 1046.2 440.333 1046.56C439.972 1046.92 439.611 1046.92 439.25 1046.92L438.528 1046.2C438.167 1045.83 437.806 1045.11 437.444 1044.75C437.444 1044.75 437.444 1044.39 437.083 1044.39V1044.03C437.083 1043.67 436.722 1043.31 436.722 1043.31C436.722 1043.31 436.361 1042.95 436.361 1042.59V1042.23C436.361 1042.23 436.361 1042.23 436.361 1041.87C436.722 1041.5 436.361 1041.5 436 1041.5C436 1041.5 436 1041.5 435.639 1041.5V1041.14V1040.78C435.639 1040.78 435.278 1040.42 435.278 1040.06L434.917 1039.7C433.833 1038.62 433.111 1037.17 432.028 1036.09C431.306 1035.01 430.583 1033.93 430.222 1032.48C430.222 1032.48 430.583 1032.12 430.944 1032.12C430.944 1032.12 431.306 1032.12 431.306 1032.48C431.306 1032.48 431.306 1032.48 431.306 1032.84C431.306 1033.57 431.667 1033.93 432.028 1034.29C432.389 1035.01 432.75 1035.73 433.111 1036.45C433.833 1037.53 434.917 1038.62 436 1039.7C436.361 1040.06 435.639 1038.62 434.556 1037.53C433.472 1036.09 432.75 1034.29 432.389 1032.84C432.389 1032.84 432.389 1032.48 432.028 1032.48C432.028 1032.48 432.028 1032.48 431.667 1032.48C431.667 1032.48 432.028 1032.12 432.75 1031.76C433.472 1031.04 433.472 1030.32 433.833 1029.6C433.833 1029.23 434.194 1028.87 434.194 1028.51C434.194 1027.79 434.194 1027.07 434.194 1027.43C434.194 1027.43 434.194 1027.79 434.194 1028.15V1028.51C434.556 1030.68 435.278 1032.48 436 1034.65C436.722 1036.45 437.444 1038.26 438.167 1040.06L438.528 1040.42C438.889 1040.42 438.889 1040.42 438.889 1040.42C438.889 1040.42 438.889 1040.42 438.889 1040.78C439.25 1040.78 439.25 1041.14 439.611 1041.14C441.056 1041.5 442.139 1041.87 443.222 1041.5H443.583C443.583 1041.5 443.583 1041.5 443.222 1041.87C442.861 1042.23 442.861 1042.23 442.5 1042.23C442.139 1042.23 441.778 1042.23 441.417 1042.23C441.778 1042.59 442.861 1042.23 443.222 1042.23C443.583 1041.87 443.583 1041.87 443.944 1042.23C443.944 1042.23 443.944 1042.23 444.306 1042.23C444.306 1042.23 444.306 1041.87 444.667 1041.5C444.667 1041.14 444.667 1041.14 445.028 1040.78C445.028 1040.78 445.389 1040.78 445.75 1040.78C446.833 1040.06 446.833 1040.06 447.556 1040.06C447.194 1040.42 447.194 1040.06 447.556 1040.06C447.194 1040.06 447.194 1040.06 447.556 1040.06ZM437.806 1044.39C437.806 1044.39 437.806 1044.39 437.806 1043.67C437.806 1043.67 437.806 1043.31 437.806 1042.95C437.444 1042.95 437.083 1042.95 437.083 1043.31C437.083 1043.67 437.083 1043.67 437.444 1044.03C437.083 1044.39 437.444 1044.75 437.806 1044.39ZM441.417 1044.39C441.778 1044.39 441.778 1044.03 441.417 1044.39C441.417 1044.39 441.056 1044.39 440.694 1044.39C440.333 1044.39 439.25 1044.39 439.25 1044.75C438.889 1045.11 438.889 1045.83 439.25 1045.47C439.611 1045.11 439.972 1045.11 440.333 1044.75C440.694 1044.75 441.056 1044.39 441.417 1044.39ZM431.667 1030.68C432.389 1029.96 432.75 1028.87 433.111 1028.15C433.472 1027.43 433.833 1026.71 434.194 1026.35C434.194 1026.35 434.194 1025.63 433.833 1025.27C433.833 1025.27 433.833 1025.27 433.472 1025.27C433.472 1024.9 433.472 1024.54 433.833 1024.18C433.833 1023.82 433.833 1023.1 433.833 1022.74C433.833 1022.38 433.833 1022.38 433.472 1022.02C433.472 1022.02 433.472 1022.38 433.472 1022.74C433.472 1023.1 433.472 1023.82 433.111 1024.18C432.75 1024.54 432.389 1025.27 432.389 1025.63C432.389 1025.99 432.389 1026.35 432.75 1026.35C432.75 1026.35 432.75 1026.35 433.111 1026.71C433.111 1027.07 433.111 1027.43 432.028 1028.51C431.667 1028.87 431.306 1029.23 430.583 1029.6V1029.96C430.583 1030.32 430.583 1030.32 430.222 1030.68C429.861 1031.04 430.222 1031.76 430.222 1031.76C430.222 1031.76 430.222 1031.4 431.667 1030.68ZM419.75 1016.6C420.472 1015.16 421.556 1013.72 422.639 1012.27C423 1011.91 423.361 1011.55 424.083 1010.83C424.444 1010.47 424.083 1010.47 422.639 1011.55C421.917 1011.91 421.556 1012.63 420.833 1013.36C419.75 1015.16 418.667 1016.6 417.944 1018.41C417.583 1019.49 416.861 1020.21 416.139 1020.93C415.417 1021.66 414.333 1022.02 413.972 1022.38C413.972 1022.38 413.972 1022.38 413.972 1022.74V1023.1V1023.46V1023.82C413.611 1024.18 413.25 1024.18 412.889 1024.18H412.528C412.167 1024.18 411.806 1024.54 412.167 1024.54H412.528C412.889 1024.54 412.889 1024.54 412.889 1024.9C412.889 1024.9 412.528 1025.27 411.806 1025.63C410.722 1025.99 410 1025.99 408.917 1025.99C408.556 1025.99 407.833 1025.99 407.472 1025.99C407.472 1025.99 407.472 1026.35 407.833 1026.35C408.194 1026.35 408.917 1026.71 409.278 1026.71C409.639 1026.71 409.278 1027.07 409.278 1027.07C408.556 1027.07 407.833 1027.07 407.111 1027.07H406.75C406.389 1027.07 406.028 1026.71 406.028 1026.35C406.028 1026.35 406.028 1025.99 405.667 1025.99L404.944 1026.71C404.944 1026.71 404.944 1027.07 405.306 1027.43V1027.07C405.306 1027.07 405.667 1026.71 405.667 1027.07C405.667 1027.07 405.667 1027.07 405.667 1027.43C405.667 1027.43 405.667 1027.43 405.667 1027.79C405.667 1027.79 405.667 1027.79 405.667 1028.15C406.028 1028.51 406.389 1028.51 407.111 1028.87C408.194 1029.23 409.278 1029.23 410 1028.87H410.361V1029.23C410.361 1029.6 410.361 1029.6 410.361 1029.6L410.722 1029.23L411.444 1028.51C411.806 1028.15 412.167 1027.79 412.167 1027.79V1027.43C412.167 1027.07 412.167 1027.07 412.889 1026.71C413.25 1026.35 413.611 1026.35 413.972 1025.99C414.333 1025.63 413.972 1025.27 414.333 1024.9C414.694 1024.54 415.417 1024.18 415.417 1024.18C415.778 1023.82 415.778 1023.46 416.139 1023.1C416.861 1022.38 417.222 1021.66 417.944 1020.93C418.667 1019.49 419.028 1018.41 419.75 1016.6ZM432.75 997.478C432.389 997.478 432.028 997.478 432.75 997.478C432.389 997.839 432.75 997.839 433.111 997.839C433.472 997.478 433.833 997.478 433.472 997.478C433.111 997.117 432.75 997.117 432.75 997.478ZM411.083 1008.67C410 1009.03 409.639 1009.03 409.278 1009.03C407.111 1010.83 408.194 1012.63 408.917 1013C409.278 1013.36 408.917 1013 410.722 1010.47C411.444 1009.75 412.167 1009.03 413.25 1008.3C412.889 1008.3 412.167 1008.67 411.083 1008.67ZM437.083 995.674C437.444 995.674 437.806 996.035 438.167 996.396C438.167 996.396 438.167 996.396 438.528 996.757C438.528 996.757 438.528 996.757 438.889 996.757C438.889 996.757 438.889 996.757 438.889 996.396C438.889 996.035 438.889 996.035 438.528 996.035C437.444 995.674 437.444 995.674 437.083 995.674Z" fill="#725817"/>
</g>
<defs>
<clipPath id="clip0_16_341">
<rect width="585" height="83" fill="white" transform="translate(117.5 965)"/>
</clipPath>
</defs>
</svg>
