<svg width="708" height="136" viewBox="0 0 708 136" fill="none" xmlns="http://www.w3.org/2000/svg">
<rect width="708" height="136" rx="12" fill="#3A8245"/>
<path d="M38.1763 47.3398H46.3047L43.0503 39.272C42.9292 38.9692 42.8031 38.616 42.6719 38.2124C42.5407 37.7987 42.4347 37.4606 42.354 37.1982C42.2834 36.9359 42.248 36.7896 42.248 36.7593C42.248 36.7694 42.2026 36.9157 42.1118 37.1982C42.0311 37.4707 41.9201 37.8088 41.7788 38.2124C41.6476 38.616 41.5215 38.9591 41.4004 39.2417L38.1763 47.3398ZM33.3174 54L42.0513 32.7026H42.4297L51.3604 54H48.999L47.0767 49.2622H37.4043L35.5122 54H33.3174ZM63.8027 54.2422C62.2487 54.2422 60.7905 53.9798 59.4282 53.4551C58.0659 52.9202 56.8953 52.1836 55.9165 51.2451C54.9377 50.3066 54.1657 49.1663 53.6006 47.8242C53.0456 46.4821 52.7681 45.029 52.7681 43.4648C52.7681 41.3861 53.2424 39.5243 54.1909 37.8794C55.1395 36.2244 56.4362 34.9429 58.0811 34.0347C59.736 33.1265 61.5776 32.6724 63.606 32.6724C66.8149 32.6724 69.2671 33.5806 70.9624 35.397L69.4336 36.9258C68.0007 35.4323 66.0581 34.6855 63.606 34.6855C61.9813 34.6855 60.5181 35.069 59.2163 35.8359C57.9146 36.5928 56.9004 37.6423 56.1738 38.9844C55.4473 40.3164 55.084 41.8099 55.084 43.4648C55.084 45.9876 55.9014 48.0815 57.5361 49.7466C59.1709 51.4015 61.2598 52.229 63.8027 52.229C66.376 52.229 68.4497 51.5882 70.0239 50.3066V45.8716H63.7725V43.8887H72.1431V51.3359C71.2853 52.1735 70.14 52.8698 68.707 53.4248C67.2842 53.9697 65.6494 54.2422 63.8027 54.2422ZM77.002 54V32.9146H89.8379V34.8975H79.2422V42.4355H88.7026V44.3882H79.2422V52.0171H90.2769V54H77.002ZM110.954 54.2119L98.375 39.3325C98.1227 39.0399 97.8301 38.6715 97.4971 38.2275C97.1641 37.7835 96.9673 37.5111 96.9067 37.4102C96.9067 37.4404 96.9219 37.5968 96.9521 37.8794C96.9925 38.1619 97.0278 38.4899 97.0581 38.8633C97.0884 39.2266 97.1035 39.5293 97.1035 39.7715V54H94.9844V32.7026H95.3628L107.957 47.582C108.088 47.7334 108.239 47.9251 108.411 48.1572C108.582 48.3893 108.729 48.5962 108.85 48.7778C108.981 48.9494 109.102 49.1159 109.213 49.2773C109.334 49.4388 109.4 49.5246 109.41 49.5347L109.364 49.126C109.344 48.8434 109.319 48.5104 109.289 48.127C109.268 47.7334 109.258 47.4054 109.258 47.1431V32.9146H111.332V54.2119H110.954ZM117.084 54V32.9146H122.2C125.702 32.9146 128.477 33.8732 130.525 35.7905C132.584 37.6978 133.613 40.2559 133.613 43.4648C133.613 46.6738 132.589 49.2319 130.541 51.1392C128.492 53.0464 125.712 54 122.2 54H117.084ZM119.324 51.9868H122.049C123.573 51.9868 124.925 51.7799 126.105 51.3662C127.286 50.9525 128.25 50.3672 128.997 49.6104C129.743 48.8535 130.303 47.9604 130.677 46.9312C131.06 45.8918 131.252 44.7363 131.252 43.4648C131.252 40.8613 130.47 38.7876 128.906 37.2437C127.352 35.6997 125.066 34.9277 122.049 34.9277H119.324V51.9868ZM139.895 47.3398H148.023L144.769 39.272C144.648 38.9692 144.522 38.616 144.391 38.2124C144.259 37.7987 144.153 37.4606 144.073 37.1982C144.002 36.9359 143.967 36.7896 143.967 36.7593C143.967 36.7694 143.921 36.9157 143.831 37.1982C143.75 37.4707 143.639 37.8088 143.498 38.2124C143.366 38.616 143.24 38.9591 143.119 39.2417L139.895 47.3398ZM135.036 54L143.77 32.7026H144.148L153.079 54H150.718L148.795 49.2622H139.123L137.231 54H135.036ZM174.043 54.2422C172.056 54.2422 170.239 53.7931 168.594 52.895C166.959 51.9868 165.658 50.7052 164.689 49.0503C163.72 47.3953 163.236 45.5335 163.236 43.4648C163.236 41.3962 163.72 39.5343 164.689 37.8794C165.658 36.2144 166.965 34.9328 168.609 34.0347C170.254 33.1265 172.066 32.6724 174.043 32.6724C177.797 32.6724 180.588 34.0347 182.414 36.7593L180.719 38.0005C180.012 36.9611 179.094 36.1488 177.964 35.5635C176.834 34.9782 175.527 34.6855 174.043 34.6855C172.419 34.6855 170.956 35.069 169.654 35.8359C168.362 36.5928 167.353 37.6423 166.626 38.9844C165.91 40.3164 165.552 41.8099 165.552 43.4648C165.552 44.7061 165.764 45.8716 166.188 46.9614C166.611 48.0412 167.197 48.9696 167.943 49.7466C168.69 50.5135 169.588 51.119 170.638 51.563C171.697 52.007 172.833 52.229 174.043 52.229C175.547 52.229 176.884 51.9212 178.055 51.3057C179.235 50.6901 180.214 49.8223 180.991 48.7021L182.732 49.9131C181.793 51.2956 180.577 52.3652 179.084 53.1221C177.59 53.8688 175.91 54.2422 174.043 54.2422ZM194.312 54.2422C192.061 54.2422 190.235 53.6014 188.832 52.3198C187.439 51.0282 186.743 49.1916 186.743 46.8101V32.9146H188.983V46.6587C188.983 48.4953 189.453 49.8879 190.391 50.8364C191.33 51.785 192.636 52.2593 194.312 52.2593C195.977 52.2593 197.278 51.785 198.217 50.8364C199.165 49.8879 199.64 48.4953 199.64 46.6587V32.9146H201.88V46.8101C201.88 49.1916 201.174 51.0282 199.761 52.3198C198.358 53.6014 196.542 54.2422 194.312 54.2422ZM207.45 54V32.9146H209.69V52.0171H219.635V54H207.45ZM226.099 54V34.8975H219.62V32.9146H234.802V34.8975H228.324V54H226.099ZM246.079 54.2422C243.829 54.2422 242.002 53.6014 240.6 52.3198C239.207 51.0282 238.511 49.1916 238.511 46.8101V32.9146H240.751V46.6587C240.751 48.4953 241.22 49.8879 242.159 50.8364C243.097 51.785 244.404 52.2593 246.079 52.2593C247.744 52.2593 249.046 51.785 249.984 50.8364C250.933 49.8879 251.407 48.4953 251.407 46.6587V32.9146H253.647V46.8101C253.647 49.1916 252.941 51.0282 251.528 52.3198C250.126 53.6014 248.309 54.2422 246.079 54.2422ZM259.218 54V32.9146H265.545C267.836 32.9146 269.657 33.4595 271.009 34.5493C272.372 35.6392 273.053 37.2437 273.053 39.3628C273.053 40.8866 272.659 42.158 271.872 43.1772C271.095 44.1864 270.01 44.9028 268.618 45.3267L273.764 54H271.13L266.287 45.6899C266.085 45.7101 265.757 45.7202 265.303 45.7202H261.458V54H259.218ZM261.458 43.7979H265.424C267.16 43.7979 268.476 43.4295 269.375 42.6929C270.273 41.9461 270.722 40.8361 270.722 39.3628C270.722 36.3859 268.956 34.8975 265.424 34.8975H261.458V43.7979ZM281.181 47.3398H289.31L286.055 39.272C285.934 38.9692 285.808 38.616 285.677 38.2124C285.546 37.7987 285.44 37.4606 285.359 37.1982C285.288 36.9359 285.253 36.7896 285.253 36.7593C285.253 36.7694 285.208 36.9157 285.117 37.1982C285.036 37.4707 284.925 37.8088 284.784 38.2124C284.653 38.616 284.526 38.9591 284.405 39.2417L281.181 47.3398ZM276.322 54L285.056 32.7026H285.435L294.365 54H292.004L290.082 49.2622H280.409L278.517 54H276.322ZM298.361 54V32.9146H300.602V52.0171H310.546V54H298.361Z" fill="white"/>
<path d="M40.0566 81.1562C38.7741 81.1562 37.6022 80.8665 36.541 80.2871C35.4863 79.7012 34.6465 78.8743 34.0215 77.8066C33.3965 76.7389 33.084 75.5378 33.084 74.2031C33.084 72.8685 33.3965 71.6673 34.0215 70.5996C34.6465 69.5254 35.4896 68.6986 36.5508 68.1191C37.612 67.5332 38.7806 67.2402 40.0566 67.2402C42.4785 67.2402 44.2786 68.1191 45.457 69.877L44.3633 70.6777C43.9076 70.0072 43.3151 69.4831 42.5859 69.1055C41.8568 68.7279 41.0137 68.5391 40.0566 68.5391C39.0085 68.5391 38.0645 68.7865 37.2246 69.2812C36.3913 69.7695 35.7402 70.4466 35.2715 71.3125C34.8092 72.1719 34.5781 73.1354 34.5781 74.2031C34.5781 75.0039 34.7148 75.7559 34.9883 76.459C35.2617 77.1556 35.6393 77.7546 36.1211 78.2559C36.6029 78.7507 37.1823 79.1413 37.8594 79.4277C38.543 79.7142 39.2754 79.8574 40.0566 79.8574C41.0267 79.8574 41.8893 79.6589 42.6445 79.2617C43.4062 78.8646 44.0378 78.3047 44.5391 77.582L45.6621 78.3633C45.0566 79.2552 44.2721 79.9453 43.3086 80.4336C42.3451 80.9154 41.2611 81.1562 40.0566 81.1562ZM48.4355 81V67.3965H49.8906V81H48.4355ZM63.9629 81.1367L55.8477 71.5371C55.6849 71.3483 55.4961 71.1107 55.2812 70.8242C55.0664 70.5378 54.9395 70.362 54.9004 70.2969C54.9004 70.3164 54.9102 70.4173 54.9297 70.5996C54.9557 70.7819 54.9785 70.9935 54.998 71.2344C55.0176 71.4688 55.0273 71.6641 55.0273 71.8203V81H53.6602V67.2598H53.9043L62.0293 76.8594C62.1139 76.957 62.2116 77.0807 62.3223 77.2305C62.4329 77.3802 62.5273 77.5137 62.6055 77.6309C62.6901 77.7415 62.7682 77.849 62.8398 77.9531C62.918 78.0573 62.9603 78.1126 62.9668 78.1191L62.9375 77.8555C62.9245 77.6732 62.9082 77.4583 62.8887 77.2109C62.8757 76.957 62.8691 76.7454 62.8691 76.5762V67.3965H64.207V81.1367H63.9629ZM67.918 81V67.3965H76.1992V68.6758H69.3633V73.5391H75.4668V74.7988H69.3633V79.7207H76.4824V81H67.918ZM78.7383 83.2363L79.5195 81.0195C79.3047 80.9479 79.1289 80.8275 78.9922 80.6582C78.862 80.4824 78.7969 80.2773 78.7969 80.043C78.7969 79.75 78.9076 79.4961 79.1289 79.2812C79.3503 79.0664 79.6009 78.959 79.8809 78.959C80.1738 78.959 80.4245 79.0664 80.6328 79.2812C80.8477 79.4896 80.9551 79.7435 80.9551 80.043C80.9551 80.2773 80.877 80.5443 80.7207 80.8438L79.5195 83.2363H78.7383ZM88.5039 81V67.3965H96.7852V68.6758H89.9492V73.5391H96.0527V74.7988H89.9492V79.7207H97.0684V81H88.5039ZM99.1094 81L103.768 73.5977L99.8516 67.3965H101.492L104.188 71.6445C104.253 71.7487 104.321 71.8789 104.393 72.0352C104.471 72.1914 104.529 72.3216 104.568 72.4258L104.627 72.582C104.757 72.1849 104.897 71.8724 105.047 71.6445L107.732 67.3965H109.314L105.408 73.5977L110.105 81H108.475L105.008 75.5605C104.754 75.1374 104.601 74.8249 104.549 74.623C104.542 74.6296 104.516 74.6849 104.471 74.7891C104.432 74.8932 104.38 75.0234 104.314 75.1797C104.249 75.3359 104.188 75.4629 104.129 75.5605L100.691 81H99.1094ZM112.801 81V67.3965H116.785C118.276 67.3965 119.454 67.7578 120.32 68.4805C121.193 69.1966 121.629 70.2415 121.629 71.6152C121.629 72.9694 121.193 74.0143 120.32 74.75C119.454 75.4792 118.276 75.8438 116.785 75.8438H114.246V81H112.801ZM114.246 74.5645H116.707C117.846 74.5645 118.702 74.3171 119.275 73.8223C119.855 73.321 120.145 72.5853 120.145 71.6152C120.145 69.6556 118.999 68.6758 116.707 68.6758H114.246V74.5645ZM130.643 81.1562C129.36 81.1562 128.188 80.8665 127.127 80.2871C126.072 79.7012 125.232 78.8743 124.607 77.8066C123.982 76.7389 123.67 75.5378 123.67 74.2031C123.67 72.8685 123.982 71.6673 124.607 70.5996C125.232 69.5254 126.076 68.6986 127.137 68.1191C128.198 67.5332 129.367 67.2402 130.643 67.2402C131.925 67.2402 133.097 67.5332 134.158 68.1191C135.226 68.6986 136.072 69.5254 136.697 70.5996C137.329 71.6673 137.645 72.8685 137.645 74.2031C137.645 75.5378 137.329 76.7389 136.697 77.8066C136.072 78.8743 135.229 79.7012 134.168 80.2871C133.107 80.8665 131.932 81.1562 130.643 81.1562ZM130.643 79.8574C132.231 79.8574 133.546 79.3203 134.588 78.2461C135.63 77.1719 136.15 75.8242 136.15 74.2031C136.15 73.1354 135.913 72.1719 135.438 71.3125C134.969 70.4466 134.314 69.7695 133.475 69.2812C132.635 68.7865 131.691 68.5391 130.643 68.5391C129.067 68.5391 127.758 69.0762 126.717 70.1504C125.682 71.2246 125.164 72.5755 125.164 74.2031C125.164 75.0039 125.301 75.7559 125.574 76.459C125.854 77.1556 126.235 77.7546 126.717 78.2559C127.199 78.7507 127.778 79.1413 128.455 79.4277C129.132 79.7142 129.861 79.8574 130.643 79.8574ZM143.846 81.1562C143.221 81.1562 142.645 81.0814 142.117 80.9316C141.59 80.7819 141.137 80.5768 140.76 80.3164C140.382 80.0495 140.057 79.7598 139.783 79.4473C139.516 79.1348 139.288 78.7865 139.1 78.4023L140.301 77.7578C140.477 78.0703 140.662 78.3438 140.857 78.5781C141.053 78.8125 141.287 79.0339 141.561 79.2422C141.84 79.444 142.169 79.6003 142.547 79.7109C142.924 79.8216 143.344 79.877 143.807 79.877C144.62 79.877 145.291 79.6686 145.818 79.252C146.352 78.8288 146.619 78.2656 146.619 77.5625C146.619 76.9049 146.417 76.3678 146.014 75.9512C145.617 75.5345 144.965 75.1243 144.061 74.7207L142.986 74.2227C142.296 73.9102 141.743 73.5977 141.326 73.2852C140.916 72.9727 140.59 72.5853 140.35 72.123C140.109 71.6608 139.988 71.1204 139.988 70.502C139.988 69.5319 140.324 68.7474 140.994 68.1484C141.671 67.543 142.527 67.2402 143.562 67.2402C145.197 67.2402 146.424 67.9206 147.244 69.2812L146.082 70.0039C145.796 69.5352 145.454 69.1706 145.057 68.9102C144.66 68.6497 144.161 68.5195 143.562 68.5195C142.898 68.5195 142.371 68.6986 141.98 69.0566C141.596 69.4082 141.404 69.877 141.404 70.4629C141.404 71.0423 141.564 71.5013 141.883 71.8398C142.202 72.1784 142.762 72.5332 143.562 72.9043L144.646 73.4023C145.825 73.9232 146.688 74.5026 147.234 75.1406C147.788 75.7721 148.064 76.5794 148.064 77.5625C148.064 78.6628 147.671 79.5384 146.883 80.1895C146.102 80.834 145.089 81.1562 143.846 81.1562ZM150.027 83.2363L150.809 81.0195C150.594 80.9479 150.418 80.8275 150.281 80.6582C150.151 80.4824 150.086 80.2773 150.086 80.043C150.086 79.75 150.197 79.4961 150.418 79.2812C150.639 79.0664 150.89 78.959 151.17 78.959C151.463 78.959 151.714 79.0664 151.922 79.2812C152.137 79.4896 152.244 79.7435 152.244 80.043C152.244 80.2773 152.166 80.5443 152.01 80.8438L150.809 83.2363H150.027ZM165.994 81.1562C164.712 81.1562 163.54 80.8665 162.479 80.2871C161.424 79.7012 160.584 78.8743 159.959 77.8066C159.334 76.7389 159.021 75.5378 159.021 74.2031C159.021 72.8685 159.334 71.6673 159.959 70.5996C160.584 69.5254 161.427 68.6986 162.488 68.1191C163.549 67.5332 164.718 67.2402 165.994 67.2402C168.416 67.2402 170.216 68.1191 171.395 69.877L170.301 70.6777C169.845 70.0072 169.253 69.4831 168.523 69.1055C167.794 68.7279 166.951 68.5391 165.994 68.5391C164.946 68.5391 164.002 68.7865 163.162 69.2812C162.329 69.7695 161.678 70.4466 161.209 71.3125C160.747 72.1719 160.516 73.1354 160.516 74.2031C160.516 75.0039 160.652 75.7559 160.926 76.459C161.199 77.1556 161.577 77.7546 162.059 78.2559C162.54 78.7507 163.12 79.1413 163.797 79.4277C164.48 79.7142 165.213 79.8574 165.994 79.8574C166.964 79.8574 167.827 79.6589 168.582 79.2617C169.344 78.8646 169.975 78.3047 170.477 77.582L171.6 78.3633C170.994 79.2552 170.21 79.9453 169.246 80.4336C168.283 80.9154 167.199 81.1562 165.994 81.1562ZM180.408 81.1562C179.126 81.1562 177.954 80.8665 176.893 80.2871C175.838 79.7012 174.998 78.8743 174.373 77.8066C173.748 76.7389 173.436 75.5378 173.436 74.2031C173.436 72.8685 173.748 71.6673 174.373 70.5996C174.998 69.5254 175.841 68.6986 176.902 68.1191C177.964 67.5332 179.132 67.2402 180.408 67.2402C181.691 67.2402 182.863 67.5332 183.924 68.1191C184.992 68.6986 185.838 69.5254 186.463 70.5996C187.094 71.6673 187.41 72.8685 187.41 74.2031C187.41 75.5378 187.094 76.7389 186.463 77.8066C185.838 78.8743 184.995 79.7012 183.934 80.2871C182.872 80.8665 181.697 81.1562 180.408 81.1562ZM180.408 79.8574C181.997 79.8574 183.312 79.3203 184.354 78.2461C185.395 77.1719 185.916 75.8242 185.916 74.2031C185.916 73.1354 185.678 72.1719 185.203 71.3125C184.734 70.4466 184.08 69.7695 183.24 69.2812C182.4 68.7865 181.456 68.5391 180.408 68.5391C178.833 68.5391 177.524 69.0762 176.482 70.1504C175.447 71.2246 174.93 72.5755 174.93 74.2031C174.93 75.0039 175.066 75.7559 175.34 76.459C175.62 77.1556 176.001 77.7546 176.482 78.2559C176.964 78.7507 177.544 79.1413 178.221 79.4277C178.898 79.7142 179.627 79.8574 180.408 79.8574ZM200.643 81.1367L192.527 71.5371C192.365 71.3483 192.176 71.1107 191.961 70.8242C191.746 70.5378 191.619 70.362 191.58 70.2969C191.58 70.3164 191.59 70.4173 191.609 70.5996C191.635 70.7819 191.658 70.9935 191.678 71.2344C191.697 71.4688 191.707 71.6641 191.707 71.8203V81H190.34V67.2598H190.584L198.709 76.8594C198.794 76.957 198.891 77.0807 199.002 77.2305C199.113 77.3802 199.207 77.5137 199.285 77.6309C199.37 77.7415 199.448 77.849 199.52 77.9531C199.598 78.0573 199.64 78.1126 199.646 78.1191L199.617 77.8555C199.604 77.6732 199.588 77.4583 199.568 77.2109C199.555 76.957 199.549 76.7454 199.549 76.5762V67.3965H200.887V81.1367H200.643ZM210.799 81.1562C209.516 81.1562 208.344 80.8665 207.283 80.2871C206.229 79.7012 205.389 78.8743 204.764 77.8066C204.139 76.7389 203.826 75.5378 203.826 74.2031C203.826 72.8685 204.139 71.6673 204.764 70.5996C205.389 69.5254 206.232 68.6986 207.293 68.1191C208.354 67.5332 209.523 67.2402 210.799 67.2402C213.221 67.2402 215.021 68.1191 216.199 69.877L215.105 70.6777C214.65 70.0072 214.057 69.4831 213.328 69.1055C212.599 68.7279 211.756 68.5391 210.799 68.5391C209.751 68.5391 208.807 68.7865 207.967 69.2812C207.133 69.7695 206.482 70.4466 206.014 71.3125C205.551 72.1719 205.32 73.1354 205.32 74.2031C205.32 75.0039 205.457 75.7559 205.73 76.459C206.004 77.1556 206.382 77.7546 206.863 78.2559C207.345 78.7507 207.924 79.1413 208.602 79.4277C209.285 79.7142 210.018 79.8574 210.799 79.8574C211.769 79.8574 212.632 79.6589 213.387 79.2617C214.148 78.8646 214.78 78.3047 215.281 77.582L216.404 78.3633C215.799 79.2552 215.014 79.9453 214.051 80.4336C213.087 80.9154 212.003 81.1562 210.799 81.1562ZM219.178 81V67.3965H220.633V81H219.178ZM224.402 81V67.3965H232.684V68.6758H225.848V73.5391H231.951V74.7988H225.848V79.7207H232.967V81H224.402ZM236.004 81V67.3965H240.086C241.564 67.3965 242.739 67.748 243.611 68.4512C244.49 69.1543 244.93 70.1895 244.93 71.5566C244.93 72.5397 244.676 73.36 244.168 74.0176C243.667 74.6686 242.967 75.1309 242.068 75.4043L245.389 81H243.689L240.564 75.6387C240.434 75.6517 240.223 75.6582 239.93 75.6582H237.449V81H236.004ZM237.449 74.418H240.008C241.128 74.418 241.977 74.1803 242.557 73.7051C243.136 73.2233 243.426 72.5072 243.426 71.5566C243.426 69.6361 242.286 68.6758 240.008 68.6758H237.449V74.418ZM250.73 81V68.6758H246.551V67.3965H256.346V68.6758H252.166V81H250.73ZM264.256 81.1562C262.973 81.1562 261.801 80.8665 260.74 80.2871C259.686 79.7012 258.846 78.8743 258.221 77.8066C257.596 76.7389 257.283 75.5378 257.283 74.2031C257.283 72.8685 257.596 71.6673 258.221 70.5996C258.846 69.5254 259.689 68.6986 260.75 68.1191C261.811 67.5332 262.98 67.2402 264.256 67.2402C265.538 67.2402 266.71 67.5332 267.771 68.1191C268.839 68.6986 269.686 69.5254 270.311 70.5996C270.942 71.6673 271.258 72.8685 271.258 74.2031C271.258 75.5378 270.942 76.7389 270.311 77.8066C269.686 78.8743 268.842 79.7012 267.781 80.2871C266.72 80.8665 265.545 81.1562 264.256 81.1562ZM264.256 79.8574C265.844 79.8574 267.16 79.3203 268.201 78.2461C269.243 77.1719 269.764 75.8242 269.764 74.2031C269.764 73.1354 269.526 72.1719 269.051 71.3125C268.582 70.4466 267.928 69.7695 267.088 69.2812C266.248 68.7865 265.304 68.5391 264.256 68.5391C262.68 68.5391 261.372 69.0762 260.33 70.1504C259.295 71.2246 258.777 72.5755 258.777 74.2031C258.777 75.0039 258.914 75.7559 259.188 76.459C259.467 77.1556 259.848 77.7546 260.33 78.2559C260.812 78.7507 261.391 79.1413 262.068 79.4277C262.745 79.7142 263.475 79.8574 264.256 79.8574ZM277.459 81.1562C276.834 81.1562 276.258 81.0814 275.73 80.9316C275.203 80.7819 274.751 80.5768 274.373 80.3164C273.995 80.0495 273.67 79.7598 273.396 79.4473C273.13 79.1348 272.902 78.7865 272.713 78.4023L273.914 77.7578C274.09 78.0703 274.275 78.3438 274.471 78.5781C274.666 78.8125 274.9 79.0339 275.174 79.2422C275.454 79.444 275.783 79.6003 276.16 79.7109C276.538 79.8216 276.958 79.877 277.42 79.877C278.234 79.877 278.904 79.6686 279.432 79.252C279.965 78.8288 280.232 78.2656 280.232 77.5625C280.232 76.9049 280.031 76.3678 279.627 75.9512C279.23 75.5345 278.579 75.1243 277.674 74.7207L276.6 74.2227C275.91 73.9102 275.356 73.5977 274.939 73.2852C274.529 72.9727 274.204 72.5853 273.963 72.123C273.722 71.6608 273.602 71.1204 273.602 70.502C273.602 69.5319 273.937 68.7474 274.607 68.1484C275.285 67.543 276.141 67.2402 277.176 67.2402C278.81 67.2402 280.037 67.9206 280.857 69.2812L279.695 70.0039C279.409 69.5352 279.067 69.1706 278.67 68.9102C278.273 68.6497 277.775 68.5195 277.176 68.5195C276.512 68.5195 275.984 68.6986 275.594 69.0566C275.21 69.4082 275.018 69.877 275.018 70.4629C275.018 71.0423 275.177 71.5013 275.496 71.8398C275.815 72.1784 276.375 72.5332 277.176 72.9043L278.26 73.4023C279.438 73.9232 280.301 74.5026 280.848 75.1406C281.401 75.7721 281.678 76.5794 281.678 77.5625C281.678 78.6628 281.284 79.5384 280.496 80.1895C279.715 80.834 278.702 81.1562 277.459 81.1562ZM283.641 83.2363L284.422 81.0195C284.207 80.9479 284.031 80.8275 283.895 80.6582C283.764 80.4824 283.699 80.2773 283.699 80.043C283.699 79.75 283.81 79.4961 284.031 79.2812C284.253 79.0664 284.503 78.959 284.783 78.959C285.076 78.959 285.327 79.0664 285.535 79.2812C285.75 79.4896 285.857 79.7435 285.857 80.043C285.857 80.2773 285.779 80.5443 285.623 80.8438L284.422 83.2363H283.641ZM36.8438 106V93.6758H32.6641V92.3965H42.459V93.6758H38.2793V106H36.8438ZM44.9688 106V92.3965H53.25V93.6758H46.4141V98.5391H52.5176V99.7988H46.4141V104.721H53.5332V106H44.9688ZM58.5918 101.703H63.8359L61.7363 96.498C61.6582 96.3027 61.5768 96.0749 61.4922 95.8145C61.4076 95.5475 61.3392 95.3294 61.2871 95.1602C61.2415 94.9909 61.2188 94.8965 61.2188 94.877C61.2188 94.8835 61.1895 94.9779 61.1309 95.1602C61.0788 95.3359 61.0072 95.554 60.916 95.8145C60.8314 96.0749 60.75 96.2962 60.6719 96.4785L58.5918 101.703ZM55.457 106L61.0918 92.2598H61.3359L67.0977 106H65.5742L64.334 102.943H58.0938L56.873 106H55.457ZM71.0625 106V93.6758H66.8828V92.3965H76.6777V93.6758H72.498V106H71.0625ZM79.1875 106V92.3965H83.2695C84.7474 92.3965 85.9225 92.748 86.7949 93.4512C87.6738 94.1543 88.1133 95.1895 88.1133 96.5566C88.1133 97.5397 87.8594 98.36 87.3516 99.0176C86.8503 99.6686 86.1504 100.131 85.252 100.404L88.5723 106H86.873L83.748 100.639C83.6178 100.652 83.4062 100.658 83.1133 100.658H80.6328V106H79.1875ZM80.6328 99.418H83.1914C84.3112 99.418 85.1608 99.1803 85.7402 98.7051C86.3197 98.2233 86.6094 97.5072 86.6094 96.5566C86.6094 94.6361 85.4701 93.6758 83.1914 93.6758H80.6328V99.418ZM97.5371 106.156C96.2546 106.156 95.0827 105.867 94.0215 105.287C92.9668 104.701 92.127 103.874 91.502 102.807C90.877 101.739 90.5645 100.538 90.5645 99.2031C90.5645 97.8685 90.877 96.6673 91.502 95.5996C92.127 94.5254 92.9701 93.6986 94.0312 93.1191C95.0924 92.5332 96.2611 92.2402 97.5371 92.2402C98.8197 92.2402 99.9915 92.5332 101.053 93.1191C102.12 93.6986 102.967 94.5254 103.592 95.5996C104.223 96.6673 104.539 97.8685 104.539 99.2031C104.539 100.538 104.223 101.739 103.592 102.807C102.967 103.874 102.124 104.701 101.062 105.287C100.001 105.867 98.8262 106.156 97.5371 106.156ZM97.5371 104.857C99.1257 104.857 100.441 104.32 101.482 103.246C102.524 102.172 103.045 100.824 103.045 99.2031C103.045 98.1354 102.807 97.1719 102.332 96.3125C101.863 95.4466 101.209 94.7695 100.369 94.2812C99.5293 93.7865 98.5853 93.5391 97.5371 93.5391C95.9616 93.5391 94.653 94.0762 93.6113 95.1504C92.5762 96.2246 92.0586 97.5755 92.0586 99.2031C92.0586 100.004 92.1953 100.756 92.4688 101.459C92.7487 102.156 93.1296 102.755 93.6113 103.256C94.0931 103.751 94.6725 104.141 95.3496 104.428C96.0267 104.714 96.7559 104.857 97.5371 104.857ZM110.74 106.156C110.115 106.156 109.539 106.081 109.012 105.932C108.484 105.782 108.032 105.577 107.654 105.316C107.277 105.049 106.951 104.76 106.678 104.447C106.411 104.135 106.183 103.786 105.994 103.402L107.195 102.758C107.371 103.07 107.557 103.344 107.752 103.578C107.947 103.812 108.182 104.034 108.455 104.242C108.735 104.444 109.064 104.6 109.441 104.711C109.819 104.822 110.239 104.877 110.701 104.877C111.515 104.877 112.186 104.669 112.713 104.252C113.247 103.829 113.514 103.266 113.514 102.562C113.514 101.905 113.312 101.368 112.908 100.951C112.511 100.535 111.86 100.124 110.955 99.7207L109.881 99.2227C109.191 98.9102 108.637 98.5977 108.221 98.2852C107.811 97.9727 107.485 97.5853 107.244 97.123C107.003 96.6608 106.883 96.1204 106.883 95.502C106.883 94.5319 107.218 93.7474 107.889 93.1484C108.566 92.543 109.422 92.2402 110.457 92.2402C112.091 92.2402 113.318 92.9206 114.139 94.2812L112.977 95.0039C112.69 94.5352 112.348 94.1706 111.951 93.9102C111.554 93.6497 111.056 93.5195 110.457 93.5195C109.793 93.5195 109.266 93.6986 108.875 94.0566C108.491 94.4082 108.299 94.877 108.299 95.4629C108.299 96.0423 108.458 96.5013 108.777 96.8398C109.096 97.1784 109.656 97.5332 110.457 97.9043L111.541 98.4023C112.719 98.9232 113.582 99.5026 114.129 100.141C114.682 100.772 114.959 101.579 114.959 102.562C114.959 103.663 114.565 104.538 113.777 105.189C112.996 105.834 111.984 106.156 110.74 106.156ZM116.922 108.236L117.703 106.02C117.488 105.948 117.312 105.827 117.176 105.658C117.046 105.482 116.98 105.277 116.98 105.043C116.98 104.75 117.091 104.496 117.312 104.281C117.534 104.066 117.785 103.959 118.064 103.959C118.357 103.959 118.608 104.066 118.816 104.281C119.031 104.49 119.139 104.743 119.139 105.043C119.139 105.277 119.061 105.544 118.904 105.844L117.703 108.236H116.922ZM126.688 106V92.3965H134.871V93.6758H128.133V98.8809H134.256V100.18H128.133V106H126.688ZM137.801 106V92.3965H146.082V93.6758H139.246V98.5391H145.35V99.7988H139.246V104.721H146.365V106H137.801ZM149.402 106V92.3965H153.484C154.962 92.3965 156.137 92.748 157.01 93.4512C157.889 94.1543 158.328 95.1895 158.328 96.5566C158.328 97.5397 158.074 98.36 157.566 99.0176C157.065 99.6686 156.365 100.131 155.467 100.404L158.787 106H157.088L153.963 100.639C153.833 100.652 153.621 100.658 153.328 100.658H150.848V106H149.402ZM150.848 99.418H153.406C154.526 99.418 155.376 99.1803 155.955 98.7051C156.535 98.2233 156.824 97.5072 156.824 96.5566C156.824 94.6361 155.685 93.6758 153.406 93.6758H150.848V99.418ZM161.619 106V92.3965H163.074V106H161.619ZM168.865 101.703H174.109L172.01 96.498C171.932 96.3027 171.85 96.0749 171.766 95.8145C171.681 95.5475 171.613 95.3294 171.561 95.1602C171.515 94.9909 171.492 94.8965 171.492 94.877C171.492 94.8835 171.463 94.9779 171.404 95.1602C171.352 95.3359 171.281 95.554 171.189 95.8145C171.105 96.0749 171.023 96.2962 170.945 96.4785L168.865 101.703ZM165.73 106L171.365 92.2598H171.609L177.371 106H175.848L174.607 102.943H168.367L167.146 106H165.73ZM183.416 106.156C182.791 106.156 182.215 106.081 181.688 105.932C181.16 105.782 180.708 105.577 180.33 105.316C179.952 105.049 179.627 104.76 179.354 104.447C179.087 104.135 178.859 103.786 178.67 103.402L179.871 102.758C180.047 103.07 180.232 103.344 180.428 103.578C180.623 103.812 180.857 104.034 181.131 104.242C181.411 104.444 181.74 104.6 182.117 104.711C182.495 104.822 182.915 104.877 183.377 104.877C184.191 104.877 184.861 104.669 185.389 104.252C185.923 103.829 186.189 103.266 186.189 102.562C186.189 101.905 185.988 101.368 185.584 100.951C185.187 100.535 184.536 100.124 183.631 99.7207L182.557 99.2227C181.867 98.9102 181.313 98.5977 180.896 98.2852C180.486 97.9727 180.161 97.5853 179.92 97.123C179.679 96.6608 179.559 96.1204 179.559 95.502C179.559 94.5319 179.894 93.7474 180.564 93.1484C181.242 92.543 182.098 92.2402 183.133 92.2402C184.767 92.2402 185.994 92.9206 186.814 94.2812L185.652 95.0039C185.366 94.5352 185.024 94.1706 184.627 93.9102C184.23 93.6497 183.732 93.5195 183.133 93.5195C182.469 93.5195 181.941 93.6986 181.551 94.0566C181.167 94.4082 180.975 94.877 180.975 95.4629C180.975 96.0423 181.134 96.5013 181.453 96.8398C181.772 97.1784 182.332 97.5332 183.133 97.9043L184.217 98.4023C185.395 98.9232 186.258 99.5026 186.805 100.141C187.358 100.772 187.635 101.579 187.635 102.562C187.635 103.663 187.241 104.538 186.453 105.189C185.672 105.834 184.66 106.156 183.416 106.156ZM189.598 108.236L190.379 106.02C190.164 105.948 189.988 105.827 189.852 105.658C189.721 105.482 189.656 105.277 189.656 105.043C189.656 104.75 189.767 104.496 189.988 104.281C190.21 104.066 190.46 103.959 190.74 103.959C191.033 103.959 191.284 104.066 191.492 104.281C191.707 104.49 191.814 104.743 191.814 105.043C191.814 105.277 191.736 105.544 191.58 105.844L190.379 108.236H189.598ZM199.363 106V92.2402H199.568L205.887 100.141L212.166 92.2402H212.391V106H210.984V97.0156C210.984 96.8398 210.988 96.6283 210.994 96.3809C211.007 96.1335 211.017 95.9219 211.023 95.7461L211.043 95.4824C211.036 95.4889 210.981 95.5736 210.877 95.7363C210.779 95.8926 210.652 96.0846 210.496 96.3125C210.346 96.5404 210.21 96.7292 210.086 96.8789L205.965 102.084H205.73L201.668 96.8789C201.544 96.7292 201.401 96.5436 201.238 96.3223C201.082 96.1009 200.955 95.9154 200.857 95.7656C200.766 95.6094 200.711 95.515 200.691 95.4824L200.701 95.5898C200.708 95.6615 200.714 95.7526 200.721 95.8633C200.727 95.974 200.734 96.0944 200.74 96.2246C200.747 96.3483 200.753 96.485 200.76 96.6348C200.766 96.778 200.77 96.9049 200.77 97.0156V106H199.363ZM216.102 106V92.3965H224.383V93.6758H217.547V98.5391H223.65V99.7988H217.547V104.721H224.666V106H216.102ZM227.703 106V92.3965H231.785C233.263 92.3965 234.438 92.748 235.311 93.4512C236.189 94.1543 236.629 95.1895 236.629 96.5566C236.629 97.5397 236.375 98.36 235.867 99.0176C235.366 99.6686 234.666 100.131 233.768 100.404L237.088 106H235.389L232.264 100.639C232.133 100.652 231.922 100.658 231.629 100.658H229.148V106H227.703ZM229.148 99.418H231.707C232.827 99.418 233.676 99.1803 234.256 98.7051C234.835 98.2233 235.125 97.5072 235.125 96.5566C235.125 94.6361 233.986 93.6758 231.707 93.6758H229.148V99.418ZM246.053 106.156C244.77 106.156 243.598 105.867 242.537 105.287C241.482 104.701 240.643 103.874 240.018 102.807C239.393 101.739 239.08 100.538 239.08 99.2031C239.08 97.8685 239.393 96.6673 240.018 95.5996C240.643 94.5254 241.486 93.6986 242.547 93.1191C243.608 92.5332 244.777 92.2402 246.053 92.2402C248.475 92.2402 250.275 93.1191 251.453 94.877L250.359 95.6777C249.904 95.0072 249.311 94.4831 248.582 94.1055C247.853 93.7279 247.01 93.5391 246.053 93.5391C245.005 93.5391 244.061 93.7865 243.221 94.2812C242.387 94.7695 241.736 95.4466 241.268 96.3125C240.805 97.1719 240.574 98.1354 240.574 99.2031C240.574 100.004 240.711 100.756 240.984 101.459C241.258 102.156 241.635 102.755 242.117 103.256C242.599 103.751 243.178 104.141 243.855 104.428C244.539 104.714 245.271 104.857 246.053 104.857C247.023 104.857 247.885 104.659 248.641 104.262C249.402 103.865 250.034 103.305 250.535 102.582L251.658 103.363C251.053 104.255 250.268 104.945 249.305 105.434C248.341 105.915 247.257 106.156 246.053 106.156ZM256.072 101.703H261.316L259.217 96.498C259.139 96.3027 259.057 96.0749 258.973 95.8145C258.888 95.5475 258.82 95.3294 258.768 95.1602C258.722 94.9909 258.699 94.8965 258.699 94.877C258.699 94.8835 258.67 94.9779 258.611 95.1602C258.559 95.3359 258.488 95.554 258.396 95.8145C258.312 96.0749 258.23 96.2962 258.152 96.4785L256.072 101.703ZM252.938 106L258.572 92.2598H258.816L264.578 106H263.055L261.814 102.943H255.574L254.354 106H252.938ZM267.156 106V92.3965H270.457C272.716 92.3965 274.507 93.015 275.828 94.252C277.156 95.4824 277.82 97.1328 277.82 99.2031C277.82 101.273 277.16 102.924 275.838 104.154C274.516 105.385 272.723 106 270.457 106H267.156ZM268.602 104.701H270.359C271.342 104.701 272.215 104.568 272.977 104.301C273.738 104.034 274.36 103.656 274.842 103.168C275.324 102.68 275.685 102.104 275.926 101.439C276.173 100.769 276.297 100.023 276.297 99.2031C276.297 97.5234 275.792 96.1855 274.783 95.1895C273.781 94.1934 272.306 93.6953 270.359 93.6953H268.602V104.701ZM286.951 106.156C285.669 106.156 284.497 105.867 283.436 105.287C282.381 104.701 281.541 103.874 280.916 102.807C280.291 101.739 279.979 100.538 279.979 99.2031C279.979 97.8685 280.291 96.6673 280.916 95.5996C281.541 94.5254 282.384 93.6986 283.445 93.1191C284.507 92.5332 285.675 92.2402 286.951 92.2402C288.234 92.2402 289.406 92.5332 290.467 93.1191C291.535 93.6986 292.381 94.5254 293.006 95.5996C293.637 96.6673 293.953 97.8685 293.953 99.2031C293.953 100.538 293.637 101.739 293.006 102.807C292.381 103.874 291.538 104.701 290.477 105.287C289.415 105.867 288.24 106.156 286.951 106.156ZM286.951 104.857C288.54 104.857 289.855 104.32 290.896 103.246C291.938 102.172 292.459 100.824 292.459 99.2031C292.459 98.1354 292.221 97.1719 291.746 96.3125C291.277 95.4466 290.623 94.7695 289.783 94.2812C288.943 93.7865 287.999 93.5391 286.951 93.5391C285.376 93.5391 284.067 94.0762 283.025 95.1504C281.99 96.2246 281.473 97.5755 281.473 99.2031C281.473 100.004 281.609 100.756 281.883 101.459C282.163 102.156 282.544 102.755 283.025 103.256C283.507 103.751 284.087 104.141 284.764 104.428C285.441 104.714 286.17 104.857 286.951 104.857ZM300.154 106.156C299.529 106.156 298.953 106.081 298.426 105.932C297.898 105.782 297.446 105.577 297.068 105.316C296.691 105.049 296.365 104.76 296.092 104.447C295.825 104.135 295.597 103.786 295.408 103.402L296.609 102.758C296.785 103.07 296.971 103.344 297.166 103.578C297.361 103.812 297.596 104.034 297.869 104.242C298.149 104.444 298.478 104.6 298.855 104.711C299.233 104.822 299.653 104.877 300.115 104.877C300.929 104.877 301.6 104.669 302.127 104.252C302.661 103.829 302.928 103.266 302.928 102.562C302.928 101.905 302.726 101.368 302.322 100.951C301.925 100.535 301.274 100.124 300.369 99.7207L299.295 99.2227C298.605 98.9102 298.051 98.5977 297.635 98.2852C297.225 97.9727 296.899 97.5853 296.658 97.123C296.417 96.6608 296.297 96.1204 296.297 95.502C296.297 94.5319 296.632 93.7474 297.303 93.1484C297.98 92.543 298.836 92.2402 299.871 92.2402C301.505 92.2402 302.732 92.9206 303.553 94.2812L302.391 95.0039C302.104 94.5352 301.762 94.1706 301.365 93.9102C300.968 93.6497 300.47 93.5195 299.871 93.5195C299.207 93.5195 298.68 93.6986 298.289 94.0566C297.905 94.4082 297.713 94.877 297.713 95.4629C297.713 96.0423 297.872 96.5013 298.191 96.8398C298.51 97.1784 299.07 97.5332 299.871 97.9043L300.955 98.4023C302.133 98.9232 302.996 99.5026 303.543 100.141C304.096 100.772 304.373 101.579 304.373 102.562C304.373 103.663 303.979 104.538 303.191 105.189C302.41 105.834 301.398 106.156 300.154 106.156ZM315.623 106V101L310.887 92.3965H312.527L315.799 98.4219C315.883 98.5716 315.971 98.7572 316.062 98.9785C316.154 99.1934 316.229 99.3822 316.287 99.5449C316.346 99.7012 316.378 99.7858 316.385 99.7988C316.391 99.7598 316.421 99.6686 316.473 99.5254C316.525 99.3822 316.596 99.2031 316.688 98.9883C316.785 98.7669 316.876 98.5781 316.961 98.4219L320.223 92.3965H321.727L317.107 100.961V106H315.623ZM330.232 104.076V101.576H327.938V100.336H330.232V97.8359H331.512V100.336H333.836V101.576H331.512V104.076H330.232Z" fill="white"/>
<path d="M389.195 30C383.123 30 381.051 33.1614 377.5 37.7356C373.949 33.1614 371.874 30 365.805 30C359.293 30 355 34.8241 355 42.0639C355 44.4945 355.564 47.0855 356.779 49.6764V58.0532C356.779 58.728 357.324 59.2724 357.991 59.2724C358.659 59.2724 359.204 58.7243 359.204 58.0532V53.6654C359.641 54.2432 360.112 54.8136 360.623 55.3802L365.583 60.9276V71.1012C365.583 71.776 366.124 72.3204 366.799 72.3204C367.474 72.3204 368.011 71.776 368.011 71.1012V63.6416L377.504 74.2701L381.763 69.5095V78.781C381.763 79.4558 382.308 80 382.979 80C383.65 80 384.191 79.4558 384.191 78.781V66.7955L390.47 59.757V68.5402C390.47 69.215 391.015 69.7592 391.686 69.7592C392.357 69.7592 392.898 69.2112 392.898 68.5402V57.0393L394.377 55.3839C398.299 51.0595 400 46.3174 400 42.0712C400 34.8315 395.708 30.0075 389.191 30.0075L389.195 30Z" fill="#EA0029"/>
<path d="M431.447 106V97.8379H433.838C434.732 97.8379 435.439 98.0547 435.959 98.4883C436.482 98.918 436.744 99.5449 436.744 100.369C436.744 101.182 436.482 101.809 435.959 102.25C435.439 102.688 434.732 102.906 433.838 102.906H432.314V106H431.447ZM432.314 102.139H433.791C434.475 102.139 434.988 101.99 435.332 101.693C435.68 101.393 435.854 100.951 435.854 100.369C435.854 99.1934 435.166 98.6055 433.791 98.6055H432.314V102.139ZM438.432 106V97.8379H440.881C441.768 97.8379 442.473 98.0488 442.996 98.4707C443.523 98.8926 443.787 99.5137 443.787 100.334C443.787 100.924 443.635 101.416 443.33 101.811C443.029 102.201 442.609 102.479 442.07 102.643L444.062 106H443.043L441.168 102.783C441.09 102.791 440.963 102.795 440.787 102.795H439.299V106H438.432ZM439.299 102.051H440.834C441.506 102.051 442.016 101.908 442.363 101.623C442.711 101.334 442.885 100.904 442.885 100.334C442.885 99.1816 442.201 98.6055 440.834 98.6055H439.299V102.051ZM445.721 106V97.8379H450.689V98.6055H446.588V101.523H450.25V102.279H446.588V105.232H450.859V106H445.721ZM454.762 106.094C454.387 106.094 454.041 106.049 453.725 105.959C453.408 105.869 453.137 105.746 452.91 105.59C452.684 105.43 452.488 105.256 452.324 105.068C452.164 104.881 452.027 104.672 451.914 104.441L452.635 104.055C452.74 104.242 452.852 104.406 452.969 104.547C453.086 104.688 453.227 104.82 453.391 104.945C453.559 105.066 453.756 105.16 453.982 105.227C454.209 105.293 454.461 105.326 454.738 105.326C455.227 105.326 455.629 105.201 455.945 104.951C456.266 104.697 456.426 104.359 456.426 103.938C456.426 103.543 456.305 103.221 456.062 102.971C455.824 102.721 455.434 102.475 454.891 102.232L454.246 101.934C453.832 101.746 453.5 101.559 453.25 101.371C453.004 101.184 452.809 100.951 452.664 100.674C452.52 100.396 452.447 100.072 452.447 99.7012C452.447 99.1191 452.648 98.6484 453.051 98.2891C453.457 97.9258 453.971 97.7441 454.592 97.7441C455.572 97.7441 456.309 98.1523 456.801 98.9688L456.104 99.4023C455.932 99.1211 455.727 98.9023 455.488 98.7461C455.25 98.5898 454.951 98.5117 454.592 98.5117C454.193 98.5117 453.877 98.6191 453.643 98.834C453.412 99.0449 453.297 99.3262 453.297 99.6777C453.297 100.025 453.393 100.301 453.584 100.504C453.775 100.707 454.111 100.92 454.592 101.143L455.242 101.441C455.949 101.754 456.467 102.102 456.795 102.484C457.127 102.863 457.293 103.348 457.293 103.938C457.293 104.598 457.057 105.123 456.584 105.514C456.115 105.9 455.508 106.094 454.762 106.094ZM459.057 106V97.8379H464.025V98.6055H459.924V101.523H463.586V102.279H459.924V105.232H464.195V106H459.057ZM472.199 106.082L467.33 100.322C467.232 100.209 467.119 100.066 466.99 99.8945C466.861 99.7227 466.785 99.6172 466.762 99.5781C466.762 99.5898 466.768 99.6504 466.779 99.7598C466.795 99.8691 466.809 99.9961 466.82 100.141C466.832 100.281 466.838 100.398 466.838 100.492V106H466.018V97.7559H466.164L471.039 103.516C471.09 103.574 471.148 103.648 471.215 103.738C471.281 103.828 471.338 103.908 471.385 103.979C471.436 104.045 471.482 104.109 471.525 104.172C471.572 104.234 471.598 104.268 471.602 104.271L471.584 104.113C471.576 104.004 471.566 103.875 471.555 103.727C471.547 103.574 471.543 103.447 471.543 103.346V97.8379H472.346V106.082H472.199ZM476.365 106V98.6055H473.857V97.8379H479.734V98.6055H477.227V106H476.365ZM481.492 103.422H484.639L483.379 100.299C483.332 100.182 483.283 100.045 483.232 99.8887C483.182 99.7285 483.141 99.5977 483.109 99.4961C483.082 99.3945 483.068 99.3379 483.068 99.3262C483.068 99.3301 483.051 99.3867 483.016 99.4961C482.984 99.6016 482.941 99.7324 482.887 99.8887C482.836 100.045 482.787 100.178 482.74 100.287L481.492 103.422ZM479.611 106L482.992 97.7559H483.139L486.596 106H485.682L484.938 104.166H481.193L480.461 106H479.611ZM488.143 106V97.8379H490.123C491.479 97.8379 492.553 98.209 493.346 98.9512C494.143 99.6895 494.541 100.68 494.541 101.922C494.541 103.164 494.145 104.154 493.352 104.893C492.559 105.631 491.482 106 490.123 106H488.143ZM489.01 105.221H490.064C490.654 105.221 491.178 105.141 491.635 104.98C492.092 104.82 492.465 104.594 492.754 104.301C493.043 104.008 493.26 103.662 493.404 103.264C493.553 102.861 493.627 102.414 493.627 101.922C493.627 100.914 493.324 100.111 492.719 99.5137C492.117 98.916 491.232 98.6172 490.064 98.6172H489.01V105.221ZM500.02 106.094C499.25 106.094 498.547 105.92 497.91 105.572C497.277 105.221 496.773 104.725 496.398 104.084C496.023 103.443 495.836 102.723 495.836 101.922C495.836 101.121 496.023 100.4 496.398 99.7598C496.773 99.1152 497.279 98.6191 497.916 98.2715C498.553 97.9199 499.254 97.7441 500.02 97.7441C500.789 97.7441 501.492 97.9199 502.129 98.2715C502.77 98.6191 503.277 99.1152 503.652 99.7598C504.031 100.4 504.221 101.121 504.221 101.922C504.221 102.723 504.031 103.443 503.652 104.084C503.277 104.725 502.771 105.221 502.135 105.572C501.498 105.92 500.793 106.094 500.02 106.094ZM500.02 105.314C500.973 105.314 501.762 104.992 502.387 104.348C503.012 103.703 503.324 102.895 503.324 101.922C503.324 101.281 503.182 100.703 502.896 100.188C502.615 99.668 502.223 99.2617 501.719 98.9688C501.215 98.6719 500.648 98.5234 500.02 98.5234C499.074 98.5234 498.289 98.8457 497.664 99.4902C497.043 100.135 496.732 100.945 496.732 101.922C496.732 102.402 496.814 102.854 496.979 103.275C497.146 103.693 497.375 104.053 497.664 104.354C497.953 104.65 498.301 104.885 498.707 105.057C499.113 105.229 499.551 105.314 500.02 105.314ZM508.826 106V97.8379H511.217C512.111 97.8379 512.818 98.0547 513.338 98.4883C513.861 98.918 514.123 99.5449 514.123 100.369C514.123 101.182 513.861 101.809 513.338 102.25C512.818 102.688 512.111 102.906 511.217 102.906H509.693V106H508.826ZM509.693 102.139H511.17C511.854 102.139 512.367 101.99 512.711 101.693C513.059 101.393 513.232 100.951 513.232 100.369C513.232 99.1934 512.545 98.6055 511.17 98.6055H509.693V102.139ZM519.531 106.094C518.762 106.094 518.059 105.92 517.422 105.572C516.789 105.221 516.285 104.725 515.91 104.084C515.535 103.443 515.348 102.723 515.348 101.922C515.348 101.121 515.535 100.4 515.91 99.7598C516.285 99.1152 516.791 98.6191 517.428 98.2715C518.064 97.9199 518.766 97.7441 519.531 97.7441C520.301 97.7441 521.004 97.9199 521.641 98.2715C522.281 98.6191 522.789 99.1152 523.164 99.7598C523.543 100.4 523.732 101.121 523.732 101.922C523.732 102.723 523.543 103.443 523.164 104.084C522.789 104.725 522.283 105.221 521.646 105.572C521.01 105.92 520.305 106.094 519.531 106.094ZM519.531 105.314C520.484 105.314 521.273 104.992 521.898 104.348C522.523 103.703 522.836 102.895 522.836 101.922C522.836 101.281 522.693 100.703 522.408 100.188C522.127 99.668 521.734 99.2617 521.23 98.9688C520.727 98.6719 520.16 98.5234 519.531 98.5234C518.586 98.5234 517.801 98.8457 517.176 99.4902C516.555 100.135 516.244 100.945 516.244 101.922C516.244 102.402 516.326 102.854 516.49 103.275C516.658 103.693 516.887 104.053 517.176 104.354C517.465 104.65 517.812 104.885 518.219 105.057C518.625 105.229 519.062 105.314 519.531 105.314ZM525.49 106V97.8379H527.939C528.826 97.8379 529.531 98.0488 530.055 98.4707C530.582 98.8926 530.846 99.5137 530.846 100.334C530.846 100.924 530.693 101.416 530.389 101.811C530.088 102.201 529.668 102.479 529.129 102.643L531.121 106H530.102L528.227 102.783C528.148 102.791 528.021 102.795 527.846 102.795H526.357V106H525.49ZM526.357 102.051H527.893C528.564 102.051 529.074 101.908 529.422 101.623C529.77 101.334 529.943 100.904 529.943 100.334C529.943 99.1816 529.26 98.6055 527.893 98.6055H526.357V102.051Z" fill="white"/>
<g clip-path="url(#clip0_16_252)">
<mask id="mask0_16_252" style="mask-type:luminance" maskUnits="userSpaceOnUse" x="544" y="68" width="132" height="38">
<path d="M675.903 68.9685H544.047V105.996H675.903V68.9685Z" fill="white"/>
</mask>
<g mask="url(#mask0_16_252)">
<path d="M581.113 68.9685H544.047V105.996H581.113V68.9685Z" fill="white"/>
<path d="M579.767 70.3094H545.39V104.651H579.767V70.3094Z" fill="#014C94"/>
<path fill-rule="evenodd" clip-rule="evenodd" d="M579.767 104.651H545.39V94.1271L564.29 82.9109L579.767 92.7331V104.651Z" fill="#3A8245"/>
<path d="M580.58 95.5942C573.548 92.9425 568.44 89.1235 564.667 83.7556C559.449 89.7086 552.372 93.7284 544.581 95.1611C550.81 87.163 555.25 83.0988 558.669 78.8495C559.591 77.7022 560.679 76.3857 561.401 75.2628C572.379 77.9245 578.852 87.6937 580.58 95.5942Z" fill="white"/>
<path d="M565.618 98.0078C564.012 96.2352 564.492 94.0927 565.626 93.0745C566.372 92.4062 569.566 92.5539 571.208 94.2576C571.56 94.5961 571.827 95.0105 571.991 95.4709C572.154 95.9298 572.209 96.4217 572.152 96.905C572.093 97.3897 571.923 97.8529 571.656 98.2602C571.387 98.6675 571.03 99.0074 570.607 99.2526C569.41 100.024 567.696 100.302 565.619 98.0107" fill="#F0A31F"/>
<path fill-rule="evenodd" clip-rule="evenodd" d="M602.402 93.1016L595.153 75.9612H592.171L584.981 93.1016H587.729L589.365 89.0904H597.756L599.392 93.1016H602.402ZM597.025 87.2361H590.067L592.611 81.1426C592.973 80.3022 593.276 79.436 593.516 78.554H593.575C593.797 79.4303 594.092 80.2879 594.452 81.1168L597.025 87.2361Z" fill="white"/>
<path d="M620.634 76.4674C618.873 75.9798 617.055 75.7332 615.229 75.7332C608.595 75.7332 604.56 79.6167 604.56 84.8742C604.56 90.1804 608.389 93.3282 614.353 93.3282C616.563 93.3254 618.76 92.9912 620.871 92.3373V84.3665H618.211V90.8415C617.076 91.1455 615.907 91.299 614.732 91.2961C610.289 91.2961 607.424 88.8596 607.424 84.5931C607.424 80.024 610.903 77.738 614.965 77.738C616.759 77.7423 618.538 78.0507 620.227 78.6516L620.634 76.4674Z" fill="white"/>
<path d="M641.899 86.5521V75.9641H639.269V86.73C639.269 90.1847 637.662 91.4281 634.212 91.4281C630.236 91.4281 629.33 89.525 629.33 87.1631V75.9641H626.641V87.3395C626.641 90.3855 627.869 93.357 634.036 93.357C639.18 93.357 641.899 91.0423 641.899 86.5521Z" fill="white"/>
<path fill-rule="evenodd" clip-rule="evenodd" d="M661.82 93.1016L654.573 75.9612H651.591L644.4 93.1016H647.147L648.782 89.0904H657.173L658.81 93.1016H661.82ZM656.443 87.2361H649.486L652.03 81.1426C652.391 80.3022 652.695 79.436 652.934 78.554H652.993C653.216 79.4303 653.509 80.2879 653.871 81.1168L656.443 87.2361Z" fill="white"/>
<path d="M675.903 88.0478C675.903 82.69 666.986 84.0366 666.986 80.3295C666.986 78.7304 668.391 77.6635 671.078 77.6635C672.281 77.6764 673.477 77.8284 674.643 78.1181L674.791 76.0372C673.613 75.835 672.421 75.7332 671.226 75.7332C666.784 75.7332 664.211 77.7653 664.211 80.5819C664.211 86.0401 673.098 84.5171 673.098 88.3763C673.098 90.4844 671.139 91.3219 668.773 91.3219C667.394 91.3033 666.025 91.0896 664.707 90.6866L664.562 92.9238C665.869 93.1992 667.202 93.334 668.537 93.3282C673.125 93.3282 675.903 91.1197 675.903 88.0478Z" fill="white"/>
<path fill-rule="evenodd" clip-rule="evenodd" d="M606.704 104.436C606.693 103.921 606.68 103.281 606.68 102.716V100.331C606.68 99.1393 606.186 98.3334 604.466 98.3334C603.745 98.3391 603.032 98.4868 602.368 98.7665L602.477 99.6915C603.029 99.3788 603.651 99.2082 604.286 99.1981C605.274 99.1981 605.6 99.6427 605.6 100.473V100.918C603.335 100.918 601.996 101.748 601.996 103.06C601.996 104.01 602.671 104.54 603.659 104.54C604.09 104.555 604.515 104.437 604.879 104.206C605.242 103.974 605.527 103.638 605.696 103.241H605.72C605.667 103.635 605.647 104.034 605.66 104.431L606.704 104.436ZM605.595 101.788C605.595 102.727 604.945 103.691 603.968 103.691C603.852 103.704 603.734 103.693 603.622 103.657C603.51 103.621 603.408 103.562 603.322 103.483C603.236 103.404 603.167 103.308 603.119 103.201C603.073 103.093 603.049 102.977 603.052 102.861C603.052 102.322 603.511 101.682 605.595 101.682V101.788Z" fill="white"/>
<path d="M616.111 104.437V100.248C616.111 99.1894 615.679 98.3347 614.304 98.3347C613.853 98.3189 613.406 98.4437 613.028 98.6918C612.651 98.9399 612.359 99.297 612.193 99.7172L612.168 99.7057C612.236 99.2927 612.267 98.8739 612.263 98.4552H611.216V104.438H612.297V101.563C612.297 100.239 613.008 99.2396 613.997 99.2396C614.792 99.2396 615.022 99.733 615.022 100.576V104.438H616.111V104.437Z" fill="white"/>
<path fill-rule="evenodd" clip-rule="evenodd" d="M625.821 104.435V95.6472H624.739V98.4294C624.403 98.3907 624.065 98.3692 623.728 98.3663C621.835 98.3663 620.628 99.6297 620.628 101.725C620.628 103.473 621.365 104.543 622.833 104.543C623.265 104.55 623.689 104.427 624.048 104.187C624.407 103.948 624.686 103.607 624.847 103.205L624.87 103.216C624.804 103.618 624.772 104.024 624.775 104.431L625.821 104.435ZM624.739 101.341C624.739 102.389 624.186 103.65 623.1 103.65C622.195 103.65 621.774 102.917 621.774 101.629C621.774 99.9065 622.533 99.221 623.679 99.221C624.037 99.2181 624.394 99.264 624.74 99.3544L624.739 101.341Z" fill="white"/>
<path fill-rule="evenodd" clip-rule="evenodd" d="M631.781 96.7573C631.781 96.6641 631.761 96.5723 631.725 96.4862C631.688 96.4002 631.635 96.3227 631.569 96.2582C631.501 96.1937 631.422 96.142 631.335 96.1091C631.247 96.0746 631.155 96.0589 631.062 96.0617C630.967 96.0574 630.872 96.0732 630.783 96.1076C630.694 96.142 630.614 96.1922 630.545 96.2582C630.476 96.3242 630.423 96.403 630.385 96.4905C630.348 96.578 630.329 96.6712 630.329 96.7659C630.329 96.8605 630.348 96.9552 630.385 97.0412C630.423 97.1287 630.477 97.2076 630.545 97.2736C630.614 97.3395 630.694 97.3911 630.783 97.4241C630.872 97.4585 630.967 97.4729 631.062 97.47C631.251 97.47 631.434 97.3955 631.569 97.2621C631.701 97.1273 631.778 96.9466 631.781 96.7573ZM631.602 98.4538H630.516V104.437H631.602V98.4538Z" fill="white"/>
<path d="M641.191 104.437V100.248C641.191 99.1895 640.756 98.3347 639.384 98.3347C638.933 98.3204 638.488 98.4452 638.11 98.6918C637.732 98.9385 637.441 99.297 637.274 99.7172L637.25 99.7057C637.317 99.2927 637.35 98.874 637.346 98.4552H636.299V104.438H637.38V101.563C637.38 100.239 638.091 99.2397 639.079 99.2397C639.875 99.2397 640.102 99.733 640.102 100.576V104.438H641.191V104.437Z" fill="white"/>
<path fill-rule="evenodd" clip-rule="evenodd" d="M650.416 104.436C650.402 103.921 650.393 103.281 650.393 102.716V100.331C650.393 99.1393 649.898 98.3334 648.176 98.3334C647.455 98.3391 646.742 98.4868 646.079 98.7665L646.185 99.6915C646.737 99.3788 647.36 99.2096 647.993 99.1981C648.98 99.1981 649.306 99.6427 649.306 100.473V100.918C647.041 100.918 645.702 101.748 645.702 103.06C645.702 104.01 646.377 104.54 647.366 104.54C647.798 104.555 648.223 104.437 648.585 104.206C648.949 103.974 649.234 103.638 649.402 103.241H649.427C649.374 103.635 649.354 104.034 649.367 104.431L650.416 104.436ZM649.308 101.788C649.308 102.727 648.657 103.691 647.68 103.691C647.564 103.704 647.446 103.693 647.336 103.657C647.223 103.621 647.122 103.562 647.035 103.483C646.949 103.404 646.88 103.308 646.833 103.201C646.787 103.093 646.764 102.977 646.767 102.861C646.767 102.322 647.223 101.682 649.308 101.682V101.788Z" fill="white"/>
<path d="M658.848 102.641C658.848 100.631 656.053 101.341 656.053 100.03C656.053 99.5107 656.449 99.1752 657.246 99.1752C657.656 99.178 658.061 99.2426 658.45 99.3659L658.474 98.4638C658.098 98.3878 657.715 98.3477 657.33 98.3434C655.763 98.3434 654.931 99.1264 654.931 100.137C654.931 102.246 657.716 101.422 657.716 102.76C657.716 103.313 657.172 103.675 656.377 103.675C655.932 103.673 655.49 103.604 655.064 103.47L655.03 104.434C655.447 104.509 655.87 104.544 656.295 104.54C657.885 104.54 658.851 103.721 658.851 102.637" fill="white"/>
<path fill-rule="evenodd" clip-rule="evenodd" d="M662.391 103.879L661.982 103.305C661.937 103.247 661.891 103.183 661.843 103.12C661.962 103.11 662.072 103.054 662.153 102.967C662.233 102.879 662.278 102.765 662.276 102.646C662.276 102.299 662.034 102.168 661.659 102.168C661.463 102.168 661.303 102.168 661.169 102.178V103.88H661.498V103.176H661.512L661.985 103.88L662.391 103.879ZM661.933 102.677C661.933 102.836 661.812 102.934 661.616 102.934C661.564 102.934 661.519 102.934 661.496 102.93V102.439C661.54 102.433 661.583 102.431 661.626 102.431C661.831 102.431 661.933 102.511 661.933 102.674" fill="white"/>
<path d="M661.732 101.579C662.018 101.579 662.298 101.663 662.535 101.823C662.773 101.982 662.959 102.207 663.068 102.472C663.177 102.736 663.206 103.027 663.15 103.307C663.094 103.588 662.956 103.845 662.753 104.047C662.551 104.249 662.292 104.387 662.012 104.441C661.731 104.497 661.44 104.468 661.176 104.358C660.912 104.249 660.686 104.063 660.527 103.825C660.369 103.586 660.284 103.307 660.284 103.021C660.284 102.832 660.322 102.644 660.395 102.468C660.468 102.293 660.574 102.134 660.709 101.999C660.843 101.864 661.002 101.758 661.179 101.686C661.353 101.616 661.541 101.579 661.732 101.579ZM661.732 101.79C661.486 101.79 661.249 101.861 661.045 101.997C660.843 102.134 660.683 102.326 660.592 102.551C660.498 102.776 660.474 103.024 660.521 103.264C660.57 103.503 660.686 103.723 660.86 103.896C661.033 104.068 661.252 104.186 661.492 104.235C661.731 104.282 661.981 104.258 662.206 104.164C662.432 104.071 662.624 103.913 662.76 103.71C662.897 103.506 662.969 103.268 662.969 103.024C662.969 102.697 662.839 102.383 662.607 102.151C662.373 101.92 662.06 101.79 661.732 101.79Z" fill="white"/>
</g>
</g>
<defs>
<clipPath id="clip0_16_252">
<rect width="132" height="37" fill="white" transform="translate(544 69)"/>
</clipPath>
</defs>
</svg>
