<svg width="1200" height="150" viewBox="0 0 1200 150" fill="none" xmlns="http://www.w3.org/2000/svg">
<rect width="1200" height="150" fill="#002464"/>
<path d="M115.319 35C105.549 35 102.215 40.0582 96.5001 47.3769C90.7864 40.0582 87.4462 35 77.6809 35C67.2013 35 60.2935 42.7185 60.2935 54.3022C60.2935 58.1911 61.2003 62.3368 63.1568 66.4823V79.8852C63.1568 80.9648 64.0337 81.8358 65.1072 81.8358C66.1807 81.8358 67.0577 80.9589 67.0577 79.8852V72.8647C67.762 73.7891 68.5193 74.7017 69.3424 75.6083L77.3238 84.4841V100.762C77.3238 101.842 78.1947 102.713 79.2802 102.713C80.3657 102.713 81.2306 101.842 81.2306 100.762V88.8265L96.506 105.832L103.36 98.2151V113.05C103.36 114.129 104.237 115 105.317 115C106.396 115 107.267 114.129 107.267 113.05V93.8728L117.371 82.6112V96.6642C117.371 97.7439 118.248 98.6147 119.328 98.6147C120.407 98.6147 121.278 97.7379 121.278 96.6642V78.2629L123.658 75.6143C129.969 68.6951 132.707 61.1078 132.707 54.314C132.707 42.7304 125.8 35.0119 115.313 35.0119L115.319 35Z" fill="#EA0029"/>
<path d="M87.2036 78.3999C85.5386 78.3999 84.0884 78.0186 82.853 77.2559C81.6177 76.4932 80.6938 75.4458 80.0815 74.1138L82.0957 73.0825C83.084 75.2417 84.7866 76.3213 87.2036 76.3213C88.5356 76.3213 89.6475 75.9131 90.5391 75.0967C91.4414 74.291 91.8926 73.1685 91.8926 71.729C91.8926 70.3325 91.4414 69.2744 90.5391 68.5547C89.6475 67.835 88.4282 67.4751 86.8813 67.4751C85.8716 67.4751 84.937 67.6738 84.0776 68.0713L83.8521 67.7329L89.1533 61.3037C89.2822 61.1318 89.4272 60.9546 89.5884 60.772C89.7603 60.5894 89.8945 60.4497 89.9912 60.353L90.1523 60.208C89.5938 60.3047 89.062 60.353 88.5571 60.353H81.7734V58.3711H93.7778V58.5967L88.6216 64.8003C88.4282 65.0474 88.2241 65.2676 88.0093 65.4609C87.7944 65.6436 87.6494 65.7456 87.5742 65.7671C89.5078 65.7671 91.1191 66.3096 92.4082 67.3945C93.6973 68.4795 94.3418 69.9351 94.3418 71.7612C94.3418 73.7271 93.6704 75.3223 92.3276 76.5469C90.9956 77.7822 89.2876 78.3999 87.2036 78.3999ZM109.859 74.1621C108.527 74.8926 107.087 75.2578 105.541 75.2578C103.994 75.2578 102.554 74.8926 101.222 74.1621C99.9009 73.4209 98.8374 72.3896 98.0317 71.0684C97.2261 69.7471 96.8232 68.2861 96.8232 66.6855C96.8232 65.0635 97.2261 63.5918 98.0317 62.2705C98.8374 60.9385 99.9009 59.9126 101.222 59.1929C102.554 58.4624 103.994 58.0972 105.541 58.0972C106.701 58.0972 107.812 58.312 108.876 58.7417C109.939 59.1714 110.869 59.7622 111.664 60.5142C112.458 61.2554 113.092 62.1631 113.565 63.2373C114.038 64.3115 114.274 65.4609 114.274 66.6855C114.274 68.2861 113.871 69.7471 113.065 71.0684C112.271 72.3896 111.202 73.4209 109.859 74.1621ZM105.541 73.1792C107.324 73.1792 108.822 72.5615 110.036 71.3262C111.261 70.0908 111.873 68.5439 111.873 66.6855C111.873 64.7842 111.266 63.2266 110.052 62.0127C108.838 60.7881 107.334 60.1758 105.541 60.1758C103.757 60.1758 102.264 60.7827 101.061 61.9966C99.8687 63.2104 99.2725 64.7734 99.2725 66.6855C99.2725 68.5547 99.874 70.1069 101.077 71.3423C102.28 72.5669 103.768 73.1792 105.541 73.1792Z" fill="white"/>
<path d="M165.822 92V72.7363H166.109L174.955 83.7969L183.746 72.7363H184.061V92H182.092V79.4219C182.092 79.1758 182.096 78.8796 182.105 78.5332C182.124 78.1868 182.137 77.8906 182.146 77.6445L182.174 77.2754C182.165 77.2845 182.087 77.403 181.941 77.6309C181.805 77.8496 181.627 78.1185 181.408 78.4375C181.199 78.7565 181.007 79.0208 180.834 79.2305L175.064 86.5176H174.736L169.049 79.2305C168.876 79.0208 168.675 78.7611 168.447 78.4512C168.229 78.1413 168.051 77.8815 167.914 77.6719C167.786 77.4531 167.709 77.321 167.682 77.2754L167.695 77.4258C167.704 77.526 167.714 77.6536 167.723 77.8086C167.732 77.9635 167.741 78.1322 167.75 78.3145C167.759 78.4876 167.768 78.679 167.777 78.8887C167.786 79.0892 167.791 79.2669 167.791 79.4219V92H165.822ZM197.938 92.2188C196.142 92.2188 194.501 91.8132 193.016 91.002C191.539 90.1816 190.363 89.0241 189.488 87.5293C188.613 86.0345 188.176 84.3529 188.176 82.4844C188.176 80.6159 188.613 78.9342 189.488 77.4395C190.363 75.9355 191.544 74.778 193.029 73.9668C194.515 73.1465 196.151 72.7363 197.938 72.7363C199.733 72.7363 201.374 73.1465 202.859 73.9668C204.354 74.778 205.539 75.9355 206.414 77.4395C207.298 78.9342 207.74 80.6159 207.74 82.4844C207.74 84.3529 207.298 86.0345 206.414 87.5293C205.539 89.0241 204.359 90.1816 202.873 91.002C201.387 91.8132 199.742 92.2188 197.938 92.2188ZM197.938 90.4004C200.161 90.4004 202.003 89.6484 203.461 88.1445C204.919 86.6406 205.648 84.7539 205.648 82.4844C205.648 80.9896 205.316 79.6406 204.65 78.4375C203.994 77.2253 203.078 76.2773 201.902 75.5938C200.727 74.901 199.405 74.5547 197.938 74.5547C195.732 74.5547 193.9 75.3066 192.441 76.8105C190.992 78.3145 190.268 80.2057 190.268 82.4844C190.268 83.6055 190.459 84.6582 190.842 85.6426C191.234 86.6178 191.767 87.4564 192.441 88.1582C193.116 88.8509 193.927 89.3978 194.875 89.7988C195.823 90.1999 196.844 90.4004 197.938 90.4004ZM226.266 92.1914L214.904 78.752C214.676 78.4876 214.412 78.1549 214.111 77.7539C213.811 77.3529 213.633 77.1068 213.578 77.0156C213.578 77.043 213.592 77.1842 213.619 77.4395C213.656 77.6947 213.688 77.9909 213.715 78.3281C213.742 78.6562 213.756 78.9297 213.756 79.1484V92H211.842V72.7637H212.184L223.559 86.2031C223.677 86.3398 223.814 86.513 223.969 86.7227C224.124 86.9323 224.256 87.1191 224.365 87.2832C224.484 87.4382 224.593 87.5885 224.693 87.7344C224.803 87.8802 224.862 87.9577 224.871 87.9668L224.83 87.5977C224.812 87.3424 224.789 87.0417 224.762 86.6953C224.743 86.3398 224.734 86.0436 224.734 85.8066V72.9551H226.607V92.1914H226.266ZM238.475 92.2188C236.442 92.2188 234.792 91.64 233.525 90.4824C232.268 89.3158 231.639 87.6569 231.639 85.5059V72.9551H233.662V85.3691C233.662 87.028 234.086 88.2858 234.934 89.1426C235.781 89.9993 236.962 90.4277 238.475 90.4277C239.979 90.4277 241.154 89.9993 242.002 89.1426C242.859 88.2858 243.287 87.028 243.287 85.3691V72.9551H245.311V85.5059C245.311 87.6569 244.673 89.3158 243.396 90.4824C242.13 91.64 240.489 92.2188 238.475 92.2188ZM250.438 92V72.9551H252.475V92H250.438ZM257.752 92V72.7363H258.039L266.885 83.7969L275.676 72.7363H275.99V92H274.021V79.4219C274.021 79.1758 274.026 78.8796 274.035 78.5332C274.053 78.1868 274.067 77.8906 274.076 77.6445L274.104 77.2754C274.094 77.2845 274.017 77.403 273.871 77.6309C273.734 77.8496 273.557 78.1185 273.338 78.4375C273.128 78.7565 272.937 79.0208 272.764 79.2305L266.994 86.5176H266.666L260.979 79.2305C260.805 79.0208 260.605 78.7611 260.377 78.4512C260.158 78.1413 259.98 77.8815 259.844 77.6719C259.716 77.4531 259.639 77.321 259.611 77.2754L259.625 77.4258C259.634 77.526 259.643 77.6536 259.652 77.8086C259.661 77.9635 259.671 78.1322 259.68 78.3145C259.689 78.4876 259.698 78.679 259.707 78.8887C259.716 79.0892 259.721 79.2669 259.721 79.4219V92H257.752ZM281.186 92V72.9551H292.779V74.7461H283.209V81.5547H291.754V83.3184H283.209V90.209H293.176V92H281.186ZM311.852 92.1914L300.49 78.752C300.262 78.4876 299.998 78.1549 299.697 77.7539C299.396 77.3529 299.219 77.1068 299.164 77.0156C299.164 77.043 299.178 77.1842 299.205 77.4395C299.242 77.6947 299.273 77.9909 299.301 78.3281C299.328 78.6562 299.342 78.9297 299.342 79.1484V92H297.428V72.7637H297.77L309.145 86.2031C309.263 86.3398 309.4 86.513 309.555 86.7227C309.71 86.9323 309.842 87.1191 309.951 87.2832C310.07 87.4382 310.179 87.5885 310.279 87.7344C310.389 87.8802 310.448 87.9577 310.457 87.9668L310.416 87.5977C310.398 87.3424 310.375 87.0417 310.348 86.6953C310.329 86.3398 310.32 86.0436 310.32 85.8066V72.9551H312.193V92.1914H311.852ZM321.572 92V74.7461H315.721V72.9551H329.434V74.7461H323.582V92H321.572ZM340.508 92.2188C338.712 92.2188 337.072 91.8132 335.586 91.002C334.109 90.1816 332.934 89.0241 332.059 87.5293C331.184 86.0345 330.746 84.3529 330.746 82.4844C330.746 80.6159 331.184 78.9342 332.059 77.4395C332.934 75.9355 334.114 74.778 335.6 73.9668C337.085 73.1465 338.721 72.7363 340.508 72.7363C342.303 72.7363 343.944 73.1465 345.43 73.9668C346.924 74.778 348.109 75.9355 348.984 77.4395C349.868 78.9342 350.311 80.6159 350.311 82.4844C350.311 84.3529 349.868 86.0345 348.984 87.5293C348.109 89.0241 346.929 90.1816 345.443 91.002C343.958 91.8132 342.312 92.2188 340.508 92.2188ZM340.508 90.4004C342.732 90.4004 344.573 89.6484 346.031 88.1445C347.49 86.6406 348.219 84.7539 348.219 82.4844C348.219 80.9896 347.886 79.6406 347.221 78.4375C346.564 77.2253 345.648 76.2773 344.473 75.5938C343.297 74.901 341.975 74.5547 340.508 74.5547C338.302 74.5547 336.47 75.3066 335.012 76.8105C333.562 78.3145 332.838 80.2057 332.838 82.4844C332.838 83.6055 333.029 84.6582 333.412 85.6426C333.804 86.6178 334.337 87.4564 335.012 88.1582C335.686 88.8509 336.497 89.3978 337.445 89.7988C338.393 90.1999 339.414 90.4004 340.508 90.4004ZM358.992 92.2188C358.117 92.2188 357.311 92.1139 356.572 91.9043C355.834 91.6947 355.201 91.4076 354.672 91.043C354.143 90.6693 353.688 90.2637 353.305 89.8262C352.931 89.3887 352.612 88.901 352.348 88.3633L354.029 87.4609C354.275 87.8984 354.535 88.2812 354.809 88.6094C355.082 88.9375 355.41 89.2474 355.793 89.5391C356.185 89.8216 356.645 90.0404 357.174 90.1953C357.702 90.3503 358.29 90.4277 358.938 90.4277C360.077 90.4277 361.016 90.1361 361.754 89.5527C362.501 88.9603 362.875 88.1719 362.875 87.1875C362.875 86.2669 362.592 85.515 362.027 84.9316C361.471 84.3483 360.56 83.7741 359.293 83.209L357.789 82.5117C356.823 82.0742 356.048 81.6367 355.465 81.1992C354.891 80.7617 354.435 80.2194 354.098 79.5723C353.76 78.9251 353.592 78.1686 353.592 77.3027C353.592 75.9447 354.061 74.8464 355 74.0078C355.948 73.1602 357.146 72.7363 358.596 72.7363C360.883 72.7363 362.602 73.6888 363.75 75.5938L362.123 76.6055C361.722 75.9492 361.243 75.4388 360.688 75.0742C360.132 74.7096 359.434 74.5273 358.596 74.5273C357.666 74.5273 356.928 74.778 356.381 75.2793C355.843 75.7715 355.574 76.4277 355.574 77.248C355.574 78.0592 355.798 78.7018 356.244 79.1758C356.691 79.6497 357.475 80.1465 358.596 80.666L360.113 81.3633C361.763 82.0924 362.971 82.9036 363.736 83.7969C364.511 84.681 364.898 85.8112 364.898 87.1875C364.898 88.7279 364.347 89.9538 363.244 90.8652C362.15 91.7676 360.733 92.2188 358.992 92.2188ZM390.082 92.1914L378.721 78.752C378.493 78.4876 378.229 78.1549 377.928 77.7539C377.627 77.3529 377.449 77.1068 377.395 77.0156C377.395 77.043 377.408 77.1842 377.436 77.4395C377.472 77.6947 377.504 77.9909 377.531 78.3281C377.559 78.6562 377.572 78.9297 377.572 79.1484V92H375.658V72.7637H376L387.375 86.2031C387.493 86.3398 387.63 86.513 387.785 86.7227C387.94 86.9323 388.072 87.1191 388.182 87.2832C388.3 87.4382 388.41 87.5885 388.51 87.7344C388.619 87.8802 388.678 87.9577 388.688 87.9668L388.646 87.5977C388.628 87.3424 388.605 87.0417 388.578 86.6953C388.56 86.3398 388.551 86.0436 388.551 85.8066V72.9551H390.424V92.1914H390.082ZM398.449 85.9844H405.791L402.852 78.6973C402.742 78.4238 402.628 78.1048 402.51 77.7402C402.391 77.3665 402.296 77.0612 402.223 76.8242C402.159 76.5872 402.127 76.4551 402.127 76.4277C402.127 76.4368 402.086 76.569 402.004 76.8242C401.931 77.0703 401.831 77.3757 401.703 77.7402C401.585 78.1048 401.471 78.4147 401.361 78.6699L398.449 85.9844ZM394.061 92L401.949 72.7637H402.291L410.357 92H408.225L406.488 87.7207H397.752L396.043 92H394.061ZM421.391 92.2188C419.595 92.2188 417.954 91.8132 416.469 91.002C414.992 90.1816 413.816 89.0241 412.941 87.5293C412.066 86.0345 411.629 84.3529 411.629 82.4844C411.629 80.6159 412.066 78.9342 412.941 77.4395C413.816 75.9355 414.997 74.778 416.482 73.9668C417.968 73.1465 419.604 72.7363 421.391 72.7363C424.781 72.7363 427.301 73.9668 428.951 76.4277L427.42 77.5488C426.782 76.61 425.952 75.8763 424.932 75.3477C423.911 74.819 422.73 74.5547 421.391 74.5547C419.923 74.5547 418.602 74.901 417.426 75.5938C416.259 76.2773 415.348 77.2253 414.691 78.4375C414.044 79.6406 413.721 80.9896 413.721 82.4844C413.721 83.6055 413.912 84.6582 414.295 85.6426C414.678 86.6178 415.206 87.4564 415.881 88.1582C416.555 88.8509 417.367 89.3978 418.314 89.7988C419.271 90.1999 420.297 90.4004 421.391 90.4004C422.749 90.4004 423.956 90.1224 425.014 89.5664C426.08 89.0104 426.964 88.2266 427.666 87.2148L429.238 88.3086C428.391 89.5573 427.292 90.5234 425.943 91.207C424.594 91.8815 423.077 92.2188 421.391 92.2188ZM433.121 92V72.9551H435.158V92H433.121ZM449.117 92.2188C447.322 92.2188 445.681 91.8132 444.195 91.002C442.719 90.1816 441.543 89.0241 440.668 87.5293C439.793 86.0345 439.355 84.3529 439.355 82.4844C439.355 80.6159 439.793 78.9342 440.668 77.4395C441.543 75.9355 442.723 74.778 444.209 73.9668C445.695 73.1465 447.331 72.7363 449.117 72.7363C450.913 72.7363 452.553 73.1465 454.039 73.9668C455.534 74.778 456.719 75.9355 457.594 77.4395C458.478 78.9342 458.92 80.6159 458.92 82.4844C458.92 84.3529 458.478 86.0345 457.594 87.5293C456.719 89.0241 455.538 90.1816 454.053 91.002C452.567 91.8132 450.922 92.2188 449.117 92.2188ZM449.117 90.4004C451.341 90.4004 453.182 89.6484 454.641 88.1445C456.099 86.6406 456.828 84.7539 456.828 82.4844C456.828 80.9896 456.495 79.6406 455.83 78.4375C455.174 77.2253 454.258 76.2773 453.082 75.5938C451.906 74.901 450.585 74.5547 449.117 74.5547C446.911 74.5547 445.079 75.3066 443.621 76.8105C442.172 78.3145 441.447 80.2057 441.447 82.4844C441.447 83.6055 441.639 84.6582 442.021 85.6426C442.413 86.6178 442.947 87.4564 443.621 88.1582C444.296 88.8509 445.107 89.3978 446.055 89.7988C447.003 90.1999 448.023 90.4004 449.117 90.4004ZM477.445 92.1914L466.084 78.752C465.856 78.4876 465.592 78.1549 465.291 77.7539C464.99 77.3529 464.812 77.1068 464.758 77.0156C464.758 77.043 464.771 77.1842 464.799 77.4395C464.835 77.6947 464.867 77.9909 464.895 78.3281C464.922 78.6562 464.936 78.9297 464.936 79.1484V92H463.021V72.7637H463.363L474.738 86.2031C474.857 86.3398 474.993 86.513 475.148 86.7227C475.303 86.9323 475.436 87.1191 475.545 87.2832C475.663 87.4382 475.773 87.5885 475.873 87.7344C475.982 87.8802 476.042 87.9577 476.051 87.9668L476.01 87.5977C475.992 87.3424 475.969 87.0417 475.941 86.6953C475.923 86.3398 475.914 86.0436 475.914 85.8066V72.9551H477.787V92.1914H477.445ZM485.812 85.9844H493.154L490.215 78.6973C490.105 78.4238 489.992 78.1048 489.873 77.7402C489.755 77.3665 489.659 77.0612 489.586 76.8242C489.522 76.5872 489.49 76.4551 489.49 76.4277C489.49 76.4368 489.449 76.569 489.367 76.8242C489.294 77.0703 489.194 77.3757 489.066 77.7402C488.948 78.1048 488.834 78.4147 488.725 78.6699L485.812 85.9844ZM481.424 92L489.312 72.7637H489.654L497.721 92H495.588L493.852 87.7207H485.115L483.406 92H481.424ZM501.33 92V72.9551H503.354V90.209H512.336V92H501.33ZM516.096 92V72.9551H527.689V74.7461H518.119V81.5547H526.664V83.3184H518.119V90.209H528.086V92H516.096ZM537.191 92.2188C536.316 92.2188 535.51 92.1139 534.771 91.9043C534.033 91.6947 533.4 91.4076 532.871 91.043C532.342 90.6693 531.887 90.2637 531.504 89.8262C531.13 89.3887 530.811 88.901 530.547 88.3633L532.229 87.4609C532.475 87.8984 532.734 88.2812 533.008 88.6094C533.281 88.9375 533.609 89.2474 533.992 89.5391C534.384 89.8216 534.844 90.0404 535.373 90.1953C535.902 90.3503 536.49 90.4277 537.137 90.4277C538.276 90.4277 539.215 90.1361 539.953 89.5527C540.701 88.9603 541.074 88.1719 541.074 87.1875C541.074 86.2669 540.792 85.515 540.227 84.9316C539.671 84.3483 538.759 83.7741 537.492 83.209L535.988 82.5117C535.022 82.0742 534.247 81.6367 533.664 81.1992C533.09 80.7617 532.634 80.2194 532.297 79.5723C531.96 78.9251 531.791 78.1686 531.791 77.3027C531.791 75.9447 532.26 74.8464 533.199 74.0078C534.147 73.1602 535.346 72.7363 536.795 72.7363C539.083 72.7363 540.801 73.6888 541.949 75.5938L540.322 76.6055C539.921 75.9492 539.443 75.4388 538.887 75.0742C538.331 74.7096 537.633 74.5273 536.795 74.5273C535.865 74.5273 535.127 74.778 534.58 75.2793C534.042 75.7715 533.773 76.4277 533.773 77.248C533.773 78.0592 533.997 78.7018 534.443 79.1758C534.89 79.6497 535.674 80.1465 536.795 80.666L538.312 81.3633C539.962 82.0924 541.17 82.9036 541.936 83.7969C542.71 84.681 543.098 85.8112 543.098 87.1875C543.098 88.7279 542.546 89.9538 541.443 90.8652C540.35 91.7676 538.932 92.2188 537.191 92.2188ZM553.857 92V72.9551H559.436C561.523 72.9551 563.173 73.4609 564.385 74.4727C565.606 75.4753 566.217 76.9382 566.217 78.8613C566.217 80.7572 565.606 82.2201 564.385 83.25C563.173 84.2708 561.523 84.7812 559.436 84.7812H555.881V92H553.857ZM555.881 82.9902H559.326C560.921 82.9902 562.12 82.6439 562.922 81.9512C563.733 81.2493 564.139 80.2194 564.139 78.8613C564.139 76.1178 562.535 74.7461 559.326 74.7461H555.881V82.9902ZM571.016 85.9844H578.357L575.418 78.6973C575.309 78.4238 575.195 78.1048 575.076 77.7402C574.958 77.3665 574.862 77.0612 574.789 76.8242C574.725 76.5872 574.693 76.4551 574.693 76.4277C574.693 76.4368 574.652 76.569 574.57 76.8242C574.497 77.0703 574.397 77.3757 574.27 77.7402C574.151 78.1048 574.037 78.4147 573.928 78.6699L571.016 85.9844ZM566.627 92L574.516 72.7637H574.857L582.924 92H580.791L579.055 87.7207H570.318L568.609 92H566.627ZM586.533 92V72.9551H592.248C594.317 72.9551 595.962 73.4473 597.184 74.4316C598.414 75.416 599.029 76.8652 599.029 78.7793C599.029 80.1556 598.674 81.304 597.963 82.2246C597.261 83.1361 596.281 83.7832 595.023 84.166L599.672 92H597.293L592.918 84.4941C592.736 84.5124 592.439 84.5215 592.029 84.5215H588.557V92H586.533ZM588.557 82.7852H592.139C593.706 82.7852 594.896 82.4525 595.707 81.7871C596.518 81.1126 596.924 80.11 596.924 78.7793C596.924 76.0905 595.329 74.7461 592.139 74.7461H588.557V82.7852ZM606.371 85.9844H613.713L610.773 78.6973C610.664 78.4238 610.55 78.1048 610.432 77.7402C610.313 77.3665 610.217 77.0612 610.145 76.8242C610.081 76.5872 610.049 76.4551 610.049 76.4277C610.049 76.4368 610.008 76.569 609.926 76.8242C609.853 77.0703 609.753 77.3757 609.625 77.7402C609.507 78.1048 609.393 78.4147 609.283 78.6699L606.371 85.9844ZM601.982 92L609.871 72.7637H610.213L618.279 92H616.146L614.41 87.7207H605.674L603.965 92H601.982ZM635.014 92.1914L626.975 72.9551H629.162L634.385 85.8613C634.503 86.1439 634.631 86.5039 634.768 86.9414C634.904 87.3698 635.014 87.7253 635.096 88.0078L635.205 88.4453C635.479 87.3607 635.747 86.4993 636.012 85.8613L641.221 72.9551H643.271L635.342 92.1914H635.014ZM647.004 92V72.9551H649.041V92H647.004ZM659.172 92.2188C658.297 92.2188 657.49 92.1139 656.752 91.9043C656.014 91.6947 655.38 91.4076 654.852 91.043C654.323 90.6693 653.867 90.2637 653.484 89.8262C653.111 89.3887 652.792 88.901 652.527 88.3633L654.209 87.4609C654.455 87.8984 654.715 88.2812 654.988 88.6094C655.262 88.9375 655.59 89.2474 655.973 89.5391C656.365 89.8216 656.825 90.0404 657.354 90.1953C657.882 90.3503 658.47 90.4277 659.117 90.4277C660.257 90.4277 661.195 90.1361 661.934 89.5527C662.681 88.9603 663.055 88.1719 663.055 87.1875C663.055 86.2669 662.772 85.515 662.207 84.9316C661.651 84.3483 660.74 83.7741 659.473 83.209L657.969 82.5117C657.003 82.0742 656.228 81.6367 655.645 81.1992C655.07 80.7617 654.615 80.2194 654.277 79.5723C653.94 78.9251 653.771 78.1686 653.771 77.3027C653.771 75.9447 654.241 74.8464 655.18 74.0078C656.128 73.1602 657.326 72.7363 658.775 72.7363C661.063 72.7363 662.781 73.6888 663.93 75.5938L662.303 76.6055C661.902 75.9492 661.423 75.4388 660.867 75.0742C660.311 74.7096 659.614 74.5273 658.775 74.5273C657.846 74.5273 657.107 74.778 656.561 75.2793C656.023 75.7715 655.754 76.4277 655.754 77.248C655.754 78.0592 655.977 78.7018 656.424 79.1758C656.87 79.6497 657.654 80.1465 658.775 80.666L660.293 81.3633C661.943 82.0924 663.15 82.9036 663.916 83.7969C664.691 84.681 665.078 85.8112 665.078 87.1875C665.078 88.7279 664.527 89.9538 663.424 90.8652C662.33 91.7676 660.913 92.2188 659.172 92.2188ZM669.289 92V72.9551H671.326V92H669.289ZM680.787 92V74.7461H674.936V72.9551H688.648V74.7461H682.797V92H680.787ZM692.75 85.9844H700.092L697.152 78.6973C697.043 78.4238 696.929 78.1048 696.811 77.7402C696.692 77.3665 696.596 77.0612 696.523 76.8242C696.46 76.5872 696.428 76.4551 696.428 76.4277C696.428 76.4368 696.387 76.569 696.305 76.8242C696.232 77.0703 696.132 77.3757 696.004 77.7402C695.885 78.1048 695.771 78.4147 695.662 78.6699L692.75 85.9844ZM688.361 92L696.25 72.7637H696.592L704.658 92H702.525L700.789 87.7207H692.053L690.344 92H688.361ZM708.268 92V72.9551H713.982C716.051 72.9551 717.697 73.4473 718.918 74.4316C720.148 75.416 720.764 76.8652 720.764 78.7793C720.764 80.1556 720.408 81.304 719.697 82.2246C718.995 83.1361 718.016 83.7832 716.758 84.166L721.406 92H719.027L714.652 84.4941C714.47 84.5124 714.174 84.5215 713.764 84.5215H710.291V92H708.268ZM710.291 82.7852H713.873C715.441 82.7852 716.63 82.4525 717.441 81.7871C718.253 81.1126 718.658 80.11 718.658 78.7793C718.658 76.0905 717.063 74.7461 713.873 74.7461H710.291V82.7852ZM725.945 92.1914C725.544 92.1914 725.189 92.041 724.879 91.7402C724.578 91.4395 724.428 91.0794 724.428 90.6602C724.428 90.2409 724.578 89.8854 724.879 89.5938C725.189 89.293 725.544 89.1426 725.945 89.1426C726.355 89.1426 726.706 89.2884 726.998 89.5801C727.299 89.8717 727.449 90.2318 727.449 90.6602C727.449 91.0885 727.299 91.4531 726.998 91.7539C726.706 92.0456 726.355 92.1914 725.945 92.1914Z" fill="white"/>
<path d="M742.8 92V80.437H746.187C747.454 80.437 748.456 80.7441 749.192 81.3584C749.933 81.9671 750.304 82.8553 750.304 84.0229C750.304 85.174 749.933 86.0622 749.192 86.6875C748.456 87.3073 747.454 87.6172 746.187 87.6172H744.029V92H742.8ZM744.029 86.5298H746.121C747.089 86.5298 747.817 86.3195 748.304 85.8989C748.796 85.4728 749.042 84.8475 749.042 84.0229C749.042 82.3573 748.069 81.5244 746.121 81.5244H744.029V86.5298ZM752.695 92V80.437H756.165C757.421 80.437 758.42 80.7358 759.161 81.3335C759.908 81.9312 760.282 82.811 760.282 83.9731C760.282 84.8088 760.066 85.506 759.634 86.0649C759.208 86.6183 758.613 87.0112 757.85 87.2437L760.672 92H759.228L756.571 87.4429C756.461 87.4539 756.281 87.4595 756.032 87.4595H753.923V92H752.695ZM753.923 86.4053H756.098C757.05 86.4053 757.772 86.2033 758.265 85.7993C758.757 85.3898 759.003 84.7811 759.003 83.9731C759.003 82.3407 758.035 81.5244 756.098 81.5244H753.923V86.4053ZM763.021 92V80.437H770.06V81.5244H764.25V85.6582H769.438V86.729H764.25V90.9126H770.301V92H763.021ZM775.829 92.1328C775.298 92.1328 774.808 92.0692 774.36 91.9419C773.912 91.8146 773.527 91.6403 773.206 91.4189C772.885 91.1921 772.608 90.9458 772.376 90.6802C772.149 90.4146 771.955 90.1185 771.795 89.792L772.816 89.2441C772.965 89.5098 773.123 89.7422 773.289 89.9414C773.455 90.1406 773.654 90.3288 773.887 90.5059C774.125 90.6774 774.404 90.8102 774.725 90.9043C775.046 90.9984 775.403 91.0454 775.796 91.0454C776.488 91.0454 777.058 90.8683 777.506 90.5142C777.96 90.1545 778.187 89.6758 778.187 89.0781C778.187 88.5192 778.015 88.0627 777.672 87.7085C777.334 87.3543 776.781 87.0057 776.012 86.6626L775.099 86.2393C774.512 85.9736 774.042 85.708 773.688 85.4424C773.339 85.1768 773.062 84.8475 772.857 84.4546C772.653 84.0617 772.55 83.6024 772.55 83.0767C772.55 82.2521 772.835 81.5853 773.405 81.0762C773.981 80.5615 774.708 80.3042 775.588 80.3042C776.977 80.3042 778.021 80.8825 778.718 82.0391L777.73 82.6533C777.486 82.2549 777.196 81.945 776.858 81.7236C776.521 81.5023 776.097 81.3916 775.588 81.3916C775.024 81.3916 774.576 81.5438 774.244 81.8481C773.917 82.147 773.754 82.5454 773.754 83.0435C773.754 83.536 773.889 83.9261 774.161 84.2139C774.432 84.5016 774.908 84.8032 775.588 85.1187L776.51 85.542C777.511 85.9847 778.245 86.4772 778.709 87.0195C779.18 87.5563 779.415 88.2425 779.415 89.0781C779.415 90.0133 779.08 90.7576 778.411 91.311C777.747 91.8589 776.886 92.1328 775.829 92.1328ZM781.914 92V80.437H788.953V81.5244H783.142V85.6582H788.33V86.729H783.142V90.9126H789.193V92H781.914ZM800.532 92.1162L793.634 83.9565C793.496 83.7961 793.335 83.5941 793.153 83.3506C792.97 83.1071 792.862 82.9577 792.829 82.9023C792.829 82.9189 792.837 83.0047 792.854 83.1597C792.876 83.3146 792.896 83.4945 792.912 83.6992C792.929 83.8984 792.937 84.0645 792.937 84.1973V92H791.775V80.3208H791.982L798.889 88.4805C798.961 88.5635 799.044 88.6686 799.138 88.7959C799.232 88.9232 799.312 89.0366 799.378 89.1362C799.45 89.2303 799.517 89.3216 799.578 89.4102C799.644 89.4987 799.68 89.5457 799.686 89.5513L799.661 89.3271C799.65 89.1722 799.636 88.9896 799.619 88.7793C799.608 88.5635 799.603 88.3836 799.603 88.2397V80.437H800.74V92.1162H800.532ZM806.434 92V81.5244H802.881V80.437H811.207V81.5244H807.654V92H806.434ZM813.697 88.3477H818.155L816.37 83.9233C816.304 83.7573 816.235 83.5636 816.163 83.3423C816.091 83.1154 816.033 82.93 815.988 82.7861C815.95 82.6423 815.93 82.562 815.93 82.5454C815.93 82.5509 815.905 82.6312 815.855 82.7861C815.811 82.9355 815.75 83.1209 815.673 83.3423C815.601 83.5636 815.532 83.7518 815.465 83.9067L813.697 88.3477ZM811.033 92L815.822 80.3208H816.03L820.927 92H819.632L818.578 89.4019H813.274L812.236 92H811.033ZM823.119 92V80.437H825.924C827.845 80.437 829.366 80.9627 830.49 82.0142C831.619 83.0601 832.183 84.4629 832.183 86.2227C832.183 87.9824 831.621 89.3853 830.498 90.4312C829.375 91.4771 827.85 92 825.924 92H823.119ZM824.347 90.896H825.841C826.677 90.896 827.418 90.7826 828.066 90.5557C828.713 90.3288 829.242 90.0078 829.651 89.5928C830.061 89.1777 830.368 88.688 830.573 88.1235C830.783 87.5535 830.888 86.9199 830.888 86.2227C830.888 84.7949 830.459 83.6577 829.602 82.811C828.749 81.9644 827.496 81.541 825.841 81.541H824.347V90.896ZM839.944 92.1328C838.854 92.1328 837.858 91.8866 836.956 91.394C836.06 90.896 835.346 90.1932 834.814 89.2856C834.283 88.3781 834.018 87.3571 834.018 86.2227C834.018 85.0882 834.283 84.0672 834.814 83.1597C835.346 82.2466 836.062 81.5438 836.964 81.0513C837.866 80.5532 838.86 80.3042 839.944 80.3042C841.035 80.3042 842.031 80.5532 842.933 81.0513C843.84 81.5438 844.56 82.2466 845.091 83.1597C845.628 84.0672 845.896 85.0882 845.896 86.2227C845.896 87.3571 845.628 88.3781 845.091 89.2856C844.56 90.1932 843.843 90.896 842.941 91.394C842.039 91.8866 841.04 92.1328 839.944 92.1328ZM839.944 91.0288C841.295 91.0288 842.412 90.5723 843.298 89.6592C844.183 88.7461 844.626 87.6006 844.626 86.2227C844.626 85.3151 844.424 84.4961 844.02 83.7656C843.622 83.0296 843.065 82.4541 842.352 82.0391C841.638 81.6185 840.835 81.4082 839.944 81.4082C838.605 81.4082 837.493 81.8647 836.607 82.7778C835.728 83.6909 835.288 84.8392 835.288 86.2227C835.288 86.9033 835.404 87.5425 835.636 88.1401C835.874 88.7323 836.198 89.2414 836.607 89.6675C837.017 90.0881 837.509 90.4201 838.085 90.6636C838.66 90.9071 839.28 91.0288 839.944 91.0288ZM852.42 92V80.437H855.807C857.074 80.437 858.076 80.7441 858.812 81.3584C859.554 81.9671 859.924 82.8553 859.924 84.0229C859.924 85.174 859.554 86.0622 858.812 86.6875C858.076 87.3073 857.074 87.6172 855.807 87.6172H853.649V92H852.42ZM853.649 86.5298H855.741C856.709 86.5298 857.437 86.3195 857.924 85.8989C858.416 85.4728 858.663 84.8475 858.663 84.0229C858.663 82.3573 857.689 81.5244 855.741 81.5244H853.649V86.5298ZM867.586 92.1328C866.496 92.1328 865.5 91.8866 864.598 91.394C863.701 90.896 862.987 90.1932 862.456 89.2856C861.925 88.3781 861.659 87.3571 861.659 86.2227C861.659 85.0882 861.925 84.0672 862.456 83.1597C862.987 82.2466 863.704 81.5438 864.606 81.0513C865.508 80.5532 866.501 80.3042 867.586 80.3042C868.676 80.3042 869.672 80.5532 870.574 81.0513C871.482 81.5438 872.201 82.2466 872.732 83.1597C873.269 84.0672 873.538 85.0882 873.538 86.2227C873.538 87.3571 873.269 88.3781 872.732 89.2856C872.201 90.1932 871.485 90.896 870.583 91.394C869.681 91.8866 868.682 92.1328 867.586 92.1328ZM867.586 91.0288C868.936 91.0288 870.054 90.5723 870.939 89.6592C871.825 88.7461 872.268 87.6006 872.268 86.2227C872.268 85.3151 872.066 84.4961 871.662 83.7656C871.263 83.0296 870.707 82.4541 869.993 82.0391C869.279 81.6185 868.477 81.4082 867.586 81.4082C866.247 81.4082 865.134 81.8647 864.249 82.7778C863.369 83.6909 862.929 84.8392 862.929 86.2227C862.929 86.9033 863.045 87.5425 863.278 88.1401C863.516 88.7323 863.84 89.2414 864.249 89.6675C864.659 90.0881 865.151 90.4201 865.727 90.6636C866.302 90.9071 866.922 91.0288 867.586 91.0288ZM876.028 92V80.437H879.498C880.754 80.437 881.753 80.7358 882.494 81.3335C883.241 81.9312 883.615 82.811 883.615 83.9731C883.615 84.8088 883.399 85.506 882.967 86.0649C882.541 86.6183 881.946 87.0112 881.183 87.2437L884.005 92H882.561L879.904 87.4429C879.794 87.4539 879.614 87.4595 879.365 87.4595H877.256V92H876.028ZM877.256 86.4053H879.431C880.383 86.4053 881.105 86.2033 881.598 85.7993C882.09 85.3898 882.336 84.7811 882.336 83.9731C882.336 82.3407 881.368 81.5244 879.431 81.5244H877.256V86.4053Z" fill="white"/>
<g clip-path="url(#clip0_14_49)">
<path fill-rule="evenodd" clip-rule="evenodd" d="M917.14 55.0459C917.703 54.9754 918.278 54.9947 918.843 55.0459C919.885 55.1401 920.908 55.3839 921.93 55.6087C922.708 55.7799 924.245 56.2068 924.245 56.2068C924.424 56.2554 924.734 56.2529 924.973 56.2068C925.289 56.1455 925.7 55.9918 925.872 55.8456C925.991 55.8886 926.086 55.9144 926.231 56.0262L919.117 61.0307C918.247 61.6428 916.951 62.7564 916.951 63.3895V75.6833L909.931 80.5073C910.034 79.8365 910.924 79.226 910.924 78.2715V65.8547C910.924 64.8916 917.679 61.4005 917.679 60.403C917.679 59.908 916.393 59.451 915.668 59.1359C915.05 58.8674 914.382 58.7092 913.715 58.623C912.702 58.4921 911.664 58.4963 910.65 58.623C909.576 58.7573 907.988 59.4485 907.5 59.4227C908.459 58.7929 910.86 56.9659 912.752 56.1601C914.142 55.5681 915.643 55.233 917.14 55.0459ZM931.539 55.3125C932.626 55.3125 933.277 56.4647 935.143 58.8896C935.605 59.4829 937.754 62.097 937.754 63.3524V64.3413C937.754 66.8866 931 69.4405 931 70.4981C931 71.2291 934.552 70.8851 936.136 71.9342C937.651 72.9316 938.293 75.047 938.293 76.2164V79.2604C938.293 81.0747 935.785 81.7628 932.712 84.0845C931.359 85.0991 926.753 88.1947 926.411 88.1947C926.411 88.1947 924.026 86.9391 922.767 86.4741C921.408 85.9722 920.011 85.5233 918.578 85.3312C917.446 85.1795 916.287 85.1967 915.153 85.3312C913.377 85.5418 910.205 86.5867 909.931 86.5867C909.931 86.5867 911.692 84.8692 914.217 83.4111C916.079 82.3357 918.431 81.7402 920.65 81.4015C921.835 81.2205 923.06 81.2182 924.245 81.4015C925.613 81.6131 927.541 82.442 928.209 82.6569V59.9559C928.209 59.7409 927.926 59.3368 927.49 59.3368C926.488 59.3368 925.778 61.1425 925.778 61.2113V74.7031L917.944 80.5073C917.944 80.5073 917.985 80.2248 918.124 80.0432C918.661 79.3413 918.937 79.1658 918.937 78.5467V63.8942C918.937 63.7136 922.803 60.6583 924.879 59.2422C927.01 57.788 929.989 55.3125 931.539 55.3125ZM929.476 61.4779C929.476 61.4779 932.352 64.5993 932.352 66.4824C932.352 67.9099 931.248 68.4688 929.476 69.5179V61.4779ZM929.476 72.0202C929.75 72.0889 931.359 73.052 931.359 73.7227V83.9898H931C930.435 83.9898 929.476 83.5513 929.476 83.0095V72.0202ZM998.262 68.1764L1004.66 71.3064V85.0647L998.622 88.0142L992.141 85.2453V70.8593L998.262 68.1764ZM968.727 67.7723L972.597 71.6075V83.405L974.395 85.1937L971.424 88.0484L968.274 85.0991V74.1096C968.222 74.0752 966.305 72.1835 965.937 72.0545L963.771 74.0236V83.4911L965.397 85.0991L962.332 88.0484L959.542 85.3742V73.4906C959.542 73.4906 958.215 72.39 957.65 71.7019L961.434 67.8583L965.123 71.3408L968.727 67.7723ZM983.581 68.271L990.609 71.2205C990.284 71.6161 988.144 73.1725 987.364 73.3616C987.364 73.3616 981.629 71.1345 981.509 71.1259V82.743L986.337 85.1249C986.337 85.1249 989.119 84.1703 989.796 84.1703C989.873 84.1703 989.993 84.1961 990.155 84.1703V84.437L984.668 88.0142H983.94L977.006 84.8842V71.3924L983.581 68.271ZM948.104 67.9442C952.479 70.1198 954.405 70.3863 954.405 71.3408V82.7774L957.196 85.5462L954.585 88.0484C952.676 86.5006 951.974 85.8214 951.974 85.8214L947.18 88.2033L940.631 85.2281V77.6868L947.026 74.5568L950.536 75.9928V72.8628L944.928 70.9281L942.112 71.2634L941.983 70.8077L948.104 67.9442ZM996.328 70.8593L1000.51 72.8284V85.0647L996.276 83.1901L996.328 70.8593ZM944.594 77.1536L950.536 80.1031V85.6409L944.594 82.8978V77.1536ZM1026.63 59.8785C1026.91 59.8785 1028.09 60.3342 1030.06 61.3059C1031.12 61.8304 1033.03 62.2346 1033.03 63.1805V85.3398L1027.09 88.1086L1020.51 84.9872V70.9539L1026.81 68.185C1027.04 68.2108 1029.06 68.9933 1029.06 68.9933V64.5219L1023.81 62.2948C1022.95 62.3464 1021.94 63.1633 1020.91 63.3438L1021.14 62.4668C1021.14 62.4668 1025.88 59.8785 1026.63 59.8785ZM1043.29 68.099L1049.15 74.531L1040.59 80.7824V82.4851C1040.59 82.8376 1045.63 85.1249 1045.63 85.1249C1045.63 85.1249 1048.13 83.4308 1049.23 84.0931C1049.17 84.1703 1043.2 88.0228 1043.2 88.0228L1036.81 85.2539V71.1345L1043.29 68.099ZM1024.66 70.8679L1028.97 72.8284V85.0733H1028.88L1024.66 83.1987V70.8679ZM1040.68 71.1345L1044.97 75.5972L1040.68 78.7272V71.1345ZM1121.91 83.5771L1123.52 85.0905L1120.28 88.1258L1117.22 85.0905V64.5391L1121.91 59.9903V83.5771ZM1096.96 59.4141V72.3642L1101.64 67.8067L1105.15 71.2978V87.7303L1100.75 92.0211H1100.65V73.525L1098.94 71.917L1096.96 73.6195V83.3534L1098.67 84.9614V85.0561L1095.52 88.1775L1092.46 85.1421V63.877L1096.96 59.5001V59.4141ZM1110.38 59.4141H1110.47L1113.53 62.4495V62.5355L1110.38 65.6655L1107.23 62.5355L1110.38 59.4141ZM1132.53 68.2968C1132.7 68.2968 1138.39 74.4708 1138.47 74.7289L1129.92 80.7136V83.1299L1134.77 85.3054C1134.77 85.3054 1137.31 84.97 1138.21 84.1961L1139.5 84.5144C1139.39 84.6777 1133.55 88.2205 1132.53 88.2205C1132.31 88.2205 1127.94 86.5608 1126.14 85.357V71.6933C1126.14 71.0829 1132.51 68.2968 1132.53 68.2968ZM1110.47 67.8067H1110.56L1113.35 70.5755V83.2676L1115.06 84.8756L1111.82 87.997L1108.76 84.9614V72.2781L1107.32 70.9367L1110.47 67.8067ZM1130.01 71.3322L1134.11 75.52L1130.03 78.1254L1130.01 71.3322ZM1079.45 57.1689C1079.66 57.0484 1079.9 57.1182 1079.9 57.1182C1079.74 57.5109 1078.23 58.3761 1076.59 59.4281C1075.21 60.3113 1073.97 61.1822 1072.87 62.3034C1071.41 63.7941 1069.91 65.5542 1069.12 67.3411C1068.52 68.7135 1068.23 70.3183 1068.38 72.5446C1068.56 75.52 1070.93 79.9311 1073.68 81.5133C1074.53 81.9949 1076.92 83.3675 1079.72 83.5685C1080.71 83.6397 1081.38 83.6296 1082.44 83.506V61.667C1082.44 61.4005 1081.78 59.9817 1081.16 59.9817C1080.98 59.9817 1080.71 60.3084 1080.71 60.5148V75.4339C1080.71 75.9928 1080.19 76.7925 1077.65 78.4693C1075.04 80.1892 1074.24 80.7652 1073.96 80.705C1074.02 80.5417 1074.58 80.0879 1074.58 79.8108V64.2639C1074.58 62.7333 1076.84 61.8304 1078.82 60.3342C1081.29 58.4574 1082.9 57.684 1083.54 57.4179C1083.7 57.3437 1084.28 57.286 1084.67 57.2988C1086.83 57.3078 1088.19 59.8871 1088.45 60.1536C1088.96 60.6674 1089.82 60.7932 1090.52 60.6008C1090.93 60.4912 1091.78 60.0677 1092.32 60.1536C1090.87 61.4177 1086.11 64.3585 1086.11 64.3585C1085.93 64.4641 1085.61 64.4391 1085.4 64.3585C1084.88 64.1609 1084.55 63.8512 1083.95 63.5502V83.2067C1084.52 83.0354 1085.37 82.6722 1086.28 82.1294C1087.05 81.6754 1087.73 81.1668 1088.18 80.8044C1088.37 80.6513 1088.46 80.5904 1088.63 80.4385C1088.7 80.3778 1088.84 80.3728 1088.91 80.4385C1089.05 80.5864 1088.96 80.8635 1088.91 81.0661C1088.67 81.988 1088.12 82.8138 1087.55 83.5685C1086.99 84.3078 1086.25 84.9408 1085.56 85.5015C1083.23 87.3969 1080.56 88.3402 1077.1 88.3667C1069.23 88.4182 1063.66 82.7688 1063.06 74.0064C1062.46 65.2872 1068.65 58.1157 1075.94 57.6514C1077 57.5912 1078.3 57.6686 1078.46 57.6514C1078.59 57.6358 1079.02 57.4208 1079.45 57.1689Z" fill="white"/>
</g>
<line x1="163" y1="103.5" x2="1140" y2="103.5" stroke="white" stroke-dasharray="2 2"/>
<defs>
<clipPath id="clip0_14_49">
<rect width="232" height="46" fill="white" transform="translate(908 46)"/>
</clipPath>
</defs>
</svg>
