<svg width="1200" height="150" viewBox="0 0 1200 150" fill="none" xmlns="http://www.w3.org/2000/svg">
<rect width="1200" height="150" fill="#3A8245"/>
<path d="M115.319 35C105.549 35 102.215 40.0582 96.5001 47.3769C90.7864 40.0582 87.4462 35 77.6809 35C67.2013 35 60.2935 42.7185 60.2935 54.3022C60.2935 58.1911 61.2003 62.3368 63.1568 66.4823V79.8852C63.1568 80.9648 64.0337 81.8358 65.1072 81.8358C66.1807 81.8358 67.0577 80.9589 67.0577 79.8852V72.8647C67.762 73.7891 68.5193 74.7017 69.3424 75.6083L77.3238 84.4841V100.762C77.3238 101.842 78.1947 102.713 79.2802 102.713C80.3657 102.713 81.2306 101.842 81.2306 100.762V88.8265L96.506 105.832L103.36 98.2151V113.05C103.36 114.129 104.237 115 105.317 115C106.396 115 107.267 114.129 107.267 113.05V93.8728L117.371 82.6112V96.6642C117.371 97.7439 118.248 98.6147 119.328 98.6147C120.407 98.6147 121.278 97.7379 121.278 96.6642V78.2629L123.658 75.6143C129.969 68.6951 132.707 61.1078 132.707 54.314C132.707 42.7304 125.8 35.0119 115.313 35.0119L115.319 35Z" fill="#EA0029"/>
<path d="M166.089 87V65.9146H168.329V85.0171H178.274V87H166.089ZM185.57 80.3398H193.698L190.444 72.272C190.323 71.9692 190.197 71.616 190.065 71.2124C189.934 70.7987 189.828 70.4606 189.748 70.1982C189.677 69.9359 189.642 69.7896 189.642 69.7593C189.642 69.7694 189.596 69.9157 189.505 70.1982C189.425 70.4707 189.314 70.8088 189.172 71.2124C189.041 71.616 188.915 71.9591 188.794 72.2417L185.57 80.3398ZM180.711 87L189.445 65.7026H189.823L198.754 87H196.393L194.47 82.2622H184.798L182.906 87H180.711ZM213.24 80.3398H221.368L218.114 72.272C217.993 71.9692 217.867 71.616 217.735 71.2124C217.604 70.7987 217.498 70.4606 217.417 70.1982C217.347 69.9359 217.312 69.7896 217.312 69.7593C217.312 69.7694 217.266 69.9157 217.175 70.1982C217.095 70.4707 216.984 70.8088 216.842 71.2124C216.711 71.616 216.585 71.9591 216.464 72.2417L213.24 80.3398ZM208.381 87L217.115 65.7026H217.493L226.424 87H224.062L222.14 82.2622H212.468L210.576 87H208.381ZM238.866 87.2422C237.312 87.2422 235.854 86.9798 234.492 86.4551C233.129 85.9202 231.959 85.1836 230.98 84.2451C230.001 83.3066 229.229 82.1663 228.664 80.8242C228.109 79.4821 227.832 78.029 227.832 76.4648C227.832 74.3861 228.306 72.5243 229.254 70.8794C230.203 69.2244 231.5 67.9429 233.145 67.0347C234.799 66.1265 236.641 65.6724 238.669 65.6724C241.878 65.6724 244.331 66.5806 246.026 68.397L244.497 69.9258C243.064 68.4323 241.122 67.6855 238.669 67.6855C237.045 67.6855 235.582 68.069 234.28 68.8359C232.978 69.5928 231.964 70.6423 231.237 71.9844C230.511 73.3164 230.147 74.8099 230.147 76.4648C230.147 78.9876 230.965 81.0815 232.6 82.7466C234.234 84.4015 236.323 85.229 238.866 85.229C241.439 85.229 243.513 84.5882 245.087 83.3066V78.8716H238.836V76.8887H247.207V84.3359C246.349 85.1735 245.203 85.8698 243.771 86.4248C242.348 86.9697 240.713 87.2422 238.866 87.2422ZM252.065 87V65.9146H264.901V67.8975H254.306V75.4355H263.766V77.3882H254.306V85.0171H265.34V87H252.065ZM286.017 87.2119L273.438 72.3325C273.186 72.0399 272.894 71.6715 272.561 71.2275C272.228 70.7835 272.031 70.5111 271.97 70.4102C271.97 70.4404 271.985 70.5968 272.016 70.8794C272.056 71.1619 272.091 71.4899 272.122 71.8633C272.152 72.2266 272.167 72.5293 272.167 72.7715V87H270.048V65.7026H270.426L283.02 80.582C283.151 80.7334 283.303 80.9251 283.474 81.1572C283.646 81.3893 283.792 81.5962 283.913 81.7778C284.044 81.9494 284.165 82.1159 284.276 82.2773C284.397 82.4388 284.463 82.5246 284.473 82.5347L284.428 82.126C284.408 81.8434 284.382 81.5104 284.352 81.127C284.332 80.7334 284.322 80.4054 284.322 80.1431V65.9146H286.396V87.2119H286.017ZM292.147 87V65.9146H297.264C300.765 65.9146 303.54 66.8732 305.589 68.7905C307.647 70.6978 308.677 73.2559 308.677 76.4648C308.677 79.6738 307.653 82.2319 305.604 84.1392C303.556 86.0464 300.775 87 297.264 87H292.147ZM294.388 84.9868H297.112C298.636 84.9868 299.988 84.7799 301.169 84.3662C302.35 83.9525 303.313 83.3672 304.06 82.6104C304.807 81.8535 305.367 80.9604 305.74 79.9312C306.124 78.8918 306.315 77.7363 306.315 76.4648C306.315 73.8613 305.533 71.7876 303.969 70.2437C302.415 68.6997 300.13 67.9277 297.112 67.9277H294.388V84.9868ZM314.958 80.3398H323.087L319.833 72.272C319.711 71.9692 319.585 71.616 319.454 71.2124C319.323 70.7987 319.217 70.4606 319.136 70.1982C319.066 69.9359 319.03 69.7896 319.03 69.7593C319.03 69.7694 318.985 69.9157 318.894 70.1982C318.813 70.4707 318.702 70.8088 318.561 71.2124C318.43 71.616 318.304 71.9591 318.183 72.2417L314.958 80.3398ZM310.1 87L318.833 65.7026H319.212L328.143 87H325.781L323.859 82.2622H314.187L312.294 87H310.1ZM349.107 87.2422C347.119 87.2422 345.303 86.7931 343.658 85.895C342.023 84.9868 340.721 83.7052 339.752 82.0503C338.784 80.3953 338.299 78.5335 338.299 76.4648C338.299 74.3962 338.784 72.5343 339.752 70.8794C340.721 69.2144 342.028 67.9328 343.673 67.0347C345.318 66.1265 347.129 65.6724 349.107 65.6724C352.861 65.6724 355.651 67.0347 357.478 69.7593L355.782 71.0005C355.076 69.9611 354.158 69.1488 353.027 68.5635C351.897 67.9782 350.59 67.6855 349.107 67.6855C347.482 67.6855 346.019 68.069 344.717 68.8359C343.426 69.5928 342.417 70.6423 341.69 71.9844C340.973 73.3164 340.615 74.8099 340.615 76.4648C340.615 77.7061 340.827 78.8716 341.251 79.9614C341.675 81.0412 342.26 81.9696 343.007 82.7466C343.754 83.5135 344.652 84.119 345.701 84.563C346.761 85.007 347.896 85.229 349.107 85.229C350.611 85.229 351.948 84.9212 353.118 84.3057C354.299 83.6901 355.278 82.8223 356.055 81.7021L357.795 82.9131C356.857 84.2956 355.641 85.3652 354.147 86.1221C352.654 86.8688 350.974 87.2422 349.107 87.2422ZM369.375 87.2422C367.125 87.2422 365.298 86.6014 363.896 85.3198C362.503 84.0282 361.807 82.1916 361.807 79.8101V65.9146H364.047V79.6587C364.047 81.4953 364.516 82.8879 365.455 83.8364C366.393 84.785 367.7 85.2593 369.375 85.2593C371.04 85.2593 372.342 84.785 373.28 83.8364C374.229 82.8879 374.703 81.4953 374.703 79.6587V65.9146H376.943V79.8101C376.943 82.1916 376.237 84.0282 374.824 85.3198C373.422 86.6014 371.605 87.2422 369.375 87.2422ZM382.514 87V65.9146H384.754V85.0171H394.699V87H382.514ZM401.162 87V67.8975H394.684V65.9146H409.866V67.8975H403.387V87H401.162ZM421.143 87.2422C418.892 87.2422 417.066 86.6014 415.663 85.3198C414.271 84.0282 413.574 82.1916 413.574 79.8101V65.9146H415.814V79.6587C415.814 81.4953 416.284 82.8879 417.222 83.8364C418.161 84.785 419.467 85.2593 421.143 85.2593C422.808 85.2593 424.109 84.785 425.048 83.8364C425.996 82.8879 426.471 81.4953 426.471 79.6587V65.9146H428.711V79.8101C428.711 82.1916 428.005 84.0282 426.592 85.3198C425.189 86.6014 423.373 87.2422 421.143 87.2422ZM434.281 87V65.9146H440.608C442.899 65.9146 444.721 66.4595 446.073 67.5493C447.435 68.6392 448.116 70.2437 448.116 72.3628C448.116 73.8866 447.723 75.158 446.936 76.1772C446.159 77.1864 445.074 77.9028 443.681 78.3267L448.828 87H446.194L441.35 78.6899C441.148 78.7101 440.82 78.7202 440.366 78.7202H436.521V87H434.281ZM436.521 76.7979H440.487C442.223 76.7979 443.54 76.4295 444.438 75.6929C445.336 74.9461 445.785 73.8361 445.785 72.3628C445.785 69.3859 444.019 67.8975 440.487 67.8975H436.521V76.7979ZM456.245 80.3398H464.373L461.119 72.272C460.998 71.9692 460.871 71.616 460.74 71.2124C460.609 70.7987 460.503 70.4606 460.422 70.1982C460.352 69.9359 460.316 69.7896 460.316 69.7593C460.316 69.7694 460.271 69.9157 460.18 70.1982C460.099 70.4707 459.988 70.8088 459.847 71.2124C459.716 71.616 459.59 71.9591 459.469 72.2417L456.245 80.3398ZM451.386 87L460.12 65.7026H460.498L469.429 87H467.067L465.145 82.2622H455.473L453.581 87H451.386ZM473.425 87V65.9146H475.665V85.0171H485.61V87H473.425ZM497.129 87V65.9146H502.245C505.747 65.9146 508.522 66.8732 510.57 68.7905C512.629 70.6978 513.658 73.2559 513.658 76.4648C513.658 79.6738 512.634 82.2319 510.585 84.1392C508.537 86.0464 505.757 87 502.245 87H497.129ZM499.369 84.9868H502.094C503.618 84.9868 504.97 84.7799 506.15 84.3662C507.331 83.9525 508.295 83.3672 509.042 82.6104C509.788 81.8535 510.348 80.9604 510.722 79.9312C511.105 78.8918 511.297 77.7363 511.297 76.4648C511.297 73.8613 510.515 71.7876 508.951 70.2437C507.397 68.6997 505.111 67.9277 502.094 67.9277H499.369V84.9868ZM518.199 87V65.9146H531.035V67.8975H520.439V75.4355H529.9V77.3882H520.439V85.0171H531.474V87H518.199ZM548.912 87.2422C547.943 87.2422 547.05 87.1261 546.232 86.894C545.415 86.6619 544.714 86.3441 544.128 85.9404C543.543 85.5267 543.039 85.0776 542.615 84.5933C542.201 84.1089 541.848 83.569 541.555 82.9736L543.417 81.9746C543.689 82.459 543.977 82.8828 544.28 83.2461C544.583 83.6094 544.946 83.9525 545.37 84.2754C545.804 84.5882 546.313 84.8304 546.898 85.002C547.484 85.1735 548.135 85.2593 548.851 85.2593C550.112 85.2593 551.152 84.9364 551.969 84.2905C552.797 83.6346 553.21 82.7617 553.21 81.6719C553.21 80.6527 552.898 79.8201 552.272 79.1743C551.656 78.5285 550.647 77.8927 549.245 77.2671L547.58 76.4951C546.51 76.0107 545.652 75.5264 545.006 75.042C544.371 74.5576 543.866 73.9572 543.493 73.2407C543.119 72.5243 542.933 71.6867 542.933 70.728C542.933 69.2244 543.452 68.0085 544.492 67.0801C545.541 66.1416 546.868 65.6724 548.473 65.6724C551.006 65.6724 552.908 66.7269 554.179 68.8359L552.378 69.9561C551.934 69.2295 551.404 68.6644 550.789 68.2607C550.173 67.8571 549.401 67.6553 548.473 67.6553C547.443 67.6553 546.626 67.9328 546.021 68.4878C545.425 69.0327 545.127 69.7593 545.127 70.6675C545.127 71.5656 545.375 72.277 545.869 72.8018C546.364 73.3265 547.231 73.8765 548.473 74.4517L550.153 75.2236C551.979 76.0309 553.316 76.929 554.164 77.918C555.022 78.8968 555.451 80.1481 555.451 81.6719C555.451 83.3773 554.84 84.7345 553.619 85.7437C552.408 86.7427 550.839 87.2422 548.912 87.2422ZM562.989 80.3398H571.117L567.863 72.272C567.742 71.9692 567.616 71.616 567.484 71.2124C567.353 70.7987 567.247 70.4606 567.167 70.1982C567.096 69.9359 567.061 69.7896 567.061 69.7593C567.061 69.7694 567.015 69.9157 566.924 70.1982C566.844 70.4707 566.733 70.8088 566.591 71.2124C566.46 71.616 566.334 71.9591 566.213 72.2417L562.989 80.3398ZM558.13 87L566.864 65.7026H567.242L576.173 87H573.812L571.889 82.2622H562.217L560.325 87H558.13ZM596.138 87.2119L583.56 72.3325C583.307 72.0399 583.015 71.6715 582.682 71.2275C582.349 70.7835 582.152 70.5111 582.091 70.4102C582.091 70.4404 582.106 70.5968 582.137 70.8794C582.177 71.1619 582.212 71.4899 582.243 71.8633C582.273 72.2266 582.288 72.5293 582.288 72.7715V87H580.169V65.7026H580.547L593.141 80.582C593.272 80.7334 593.424 80.9251 593.595 81.1572C593.767 81.3893 593.913 81.5962 594.034 81.7778C594.165 81.9494 594.286 82.1159 594.397 82.2773C594.519 82.4388 594.584 82.5246 594.594 82.5347L594.549 82.126C594.529 81.8434 594.503 81.5104 594.473 81.127C594.453 80.7334 594.443 80.4054 594.443 80.1431V65.9146H596.517V87.2119H596.138ZM606.9 87V67.8975H600.422V65.9146H615.604V67.8975H609.125V87H606.9ZM619.6 87V65.9146H621.855V87H619.6ZM630.832 80.3398H638.96L635.706 72.272C635.584 71.9692 635.458 71.616 635.327 71.2124C635.196 70.7987 635.09 70.4606 635.009 70.1982C634.939 69.9359 634.903 69.7896 634.903 69.7593C634.903 69.7694 634.858 69.9157 634.767 70.1982C634.686 70.4707 634.575 70.8088 634.434 71.2124C634.303 71.616 634.177 71.9591 634.056 72.2417L630.832 80.3398ZM625.973 87L634.707 65.7026H635.085L644.016 87H641.654L639.732 82.2622H630.06L628.167 87H625.973ZM656.458 87.2422C654.904 87.2422 653.446 86.9798 652.083 86.4551C650.721 85.9202 649.551 85.1836 648.572 84.2451C647.593 83.3066 646.821 82.1663 646.256 80.8242C645.701 79.4821 645.423 78.029 645.423 76.4648C645.423 74.3861 645.898 72.5243 646.846 70.8794C647.795 69.2244 649.091 67.9429 650.736 67.0347C652.391 66.1265 654.233 65.6724 656.261 65.6724C659.47 65.6724 661.922 66.5806 663.618 68.397L662.089 69.9258C660.656 68.4323 658.713 67.6855 656.261 67.6855C654.637 67.6855 653.173 68.069 651.872 68.8359C650.57 69.5928 649.556 70.6423 648.829 71.9844C648.103 73.3164 647.739 74.8099 647.739 76.4648C647.739 78.9876 648.557 81.0815 650.191 82.7466C651.826 84.4015 653.915 85.229 656.458 85.229C659.031 85.229 661.105 84.5882 662.679 83.3066V78.8716H656.428V76.8887H664.798V84.3359C663.941 85.1735 662.795 85.8698 661.362 86.4248C659.939 86.9697 658.305 87.2422 656.458 87.2422ZM679.269 87.2422C677.281 87.2422 675.465 86.7931 673.82 85.895C672.185 84.9868 670.883 83.7052 669.915 82.0503C668.946 80.3953 668.461 78.5335 668.461 76.4648C668.461 74.3962 668.946 72.5343 669.915 70.8794C670.883 69.2144 672.19 67.9328 673.835 67.0347C675.48 66.1265 677.291 65.6724 679.269 65.6724C681.257 65.6724 683.073 66.1265 684.718 67.0347C686.373 67.9328 687.685 69.2144 688.654 70.8794C689.633 72.5343 690.122 74.3962 690.122 76.4648C690.122 78.5335 689.633 80.3953 688.654 82.0503C687.685 83.7052 686.378 84.9868 684.733 85.895C683.089 86.7931 681.267 87.2422 679.269 87.2422ZM679.269 85.229C681.731 85.229 683.77 84.3965 685.384 82.7314C686.999 81.0664 687.806 78.9775 687.806 76.4648C687.806 74.8099 687.438 73.3164 686.701 71.9844C685.975 70.6423 684.96 69.5928 683.659 68.8359C682.357 68.069 680.894 67.6855 679.269 67.6855C676.827 67.6855 674.799 68.5181 673.184 70.1831C671.58 71.8481 670.777 73.9421 670.777 76.4648C670.777 77.7061 670.989 78.8716 671.413 79.9614C671.847 81.0412 672.437 81.9696 673.184 82.7466C673.931 83.5135 674.829 84.119 675.878 84.563C676.928 85.007 678.058 85.229 679.269 85.229Z" fill="white"/>
<path d="M705.912 87V73.3965H709.896C711.387 73.3965 712.566 73.7578 713.432 74.4805C714.304 75.1966 714.74 76.2415 714.74 77.6152C714.74 78.9694 714.304 80.0143 713.432 80.75C712.566 81.4792 711.387 81.8438 709.896 81.8438H707.357V87H705.912ZM707.357 80.5645H709.818C710.958 80.5645 711.814 80.3171 712.387 79.8223C712.966 79.321 713.256 78.5853 713.256 77.6152C713.256 75.6556 712.11 74.6758 709.818 74.6758H707.357V80.5645ZM717.553 87V73.3965H721.635C723.113 73.3965 724.288 73.748 725.16 74.4512C726.039 75.1543 726.479 76.1895 726.479 77.5566C726.479 78.5397 726.225 79.36 725.717 80.0176C725.215 80.6686 724.516 81.1309 723.617 81.4043L726.938 87H725.238L722.113 81.6387C721.983 81.6517 721.771 81.6582 721.479 81.6582H718.998V87H717.553ZM718.998 80.418H721.557C722.676 80.418 723.526 80.1803 724.105 79.7051C724.685 79.2233 724.975 78.5072 724.975 77.5566C724.975 75.6361 723.835 74.6758 721.557 74.6758H718.998V80.418ZM729.701 87V73.3965H737.982V74.6758H731.146V79.5391H737.25V80.7988H731.146V85.7207H738.266V87H729.701ZM744.77 87.1562C744.145 87.1562 743.568 87.0814 743.041 86.9316C742.514 86.7819 742.061 86.5768 741.684 86.3164C741.306 86.0495 740.98 85.7598 740.707 85.4473C740.44 85.1348 740.212 84.7865 740.023 84.4023L741.225 83.7578C741.4 84.0703 741.586 84.3438 741.781 84.5781C741.977 84.8125 742.211 85.0339 742.484 85.2422C742.764 85.444 743.093 85.6003 743.471 85.7109C743.848 85.8216 744.268 85.877 744.73 85.877C745.544 85.877 746.215 85.6686 746.742 85.252C747.276 84.8288 747.543 84.2656 747.543 83.5625C747.543 82.9049 747.341 82.3678 746.938 81.9512C746.54 81.5345 745.889 81.1243 744.984 80.7207L743.91 80.2227C743.22 79.9102 742.667 79.5977 742.25 79.2852C741.84 78.9727 741.514 78.5853 741.273 78.123C741.033 77.6608 740.912 77.1204 740.912 76.502C740.912 75.5319 741.247 74.7474 741.918 74.1484C742.595 73.543 743.451 73.2402 744.486 73.2402C746.12 73.2402 747.348 73.9206 748.168 75.2812L747.006 76.0039C746.719 75.5352 746.378 75.1706 745.98 74.9102C745.583 74.6497 745.085 74.5195 744.486 74.5195C743.822 74.5195 743.295 74.6986 742.904 75.0566C742.52 75.4082 742.328 75.877 742.328 76.4629C742.328 77.0423 742.488 77.5013 742.807 77.8398C743.126 78.1784 743.686 78.5332 744.486 78.9043L745.57 79.4023C746.749 79.9232 747.611 80.5026 748.158 81.1406C748.712 81.7721 748.988 82.5794 748.988 83.5625C748.988 84.6628 748.594 85.5384 747.807 86.1895C747.025 86.834 746.013 87.1562 744.77 87.1562ZM751.928 87V73.3965H760.209V74.6758H753.373V79.5391H759.477V80.7988H753.373V85.7207H760.492V87H751.928ZM773.832 87.1367L765.717 77.5371C765.554 77.3483 765.365 77.1107 765.15 76.8242C764.936 76.5378 764.809 76.362 764.77 76.2969C764.77 76.3164 764.779 76.4173 764.799 76.5996C764.825 76.7819 764.848 76.9935 764.867 77.2344C764.887 77.4688 764.896 77.6641 764.896 77.8203V87H763.529V73.2598H763.773L771.898 82.8594C771.983 82.957 772.081 83.0807 772.191 83.2305C772.302 83.3802 772.396 83.5137 772.475 83.6309C772.559 83.7415 772.637 83.849 772.709 83.9531C772.787 84.0573 772.829 84.1126 772.836 84.1191L772.807 83.8555C772.794 83.6732 772.777 83.4583 772.758 83.2109C772.745 82.957 772.738 82.7454 772.738 82.5762V73.3965H774.076V87.1367H773.832ZM780.775 87V74.6758H776.596V73.3965H786.391V74.6758H782.211V87H780.775ZM789.32 82.7031H794.564L792.465 77.498C792.387 77.3027 792.305 77.0749 792.221 76.8145C792.136 76.5475 792.068 76.3294 792.016 76.1602C791.97 75.9909 791.947 75.8965 791.947 75.877C791.947 75.8835 791.918 75.9779 791.859 76.1602C791.807 76.3359 791.736 76.554 791.645 76.8145C791.56 77.0749 791.479 77.2962 791.4 77.4785L789.32 82.7031ZM786.186 87L791.82 73.2598H792.064L797.826 87H796.303L795.062 83.9434H788.822L787.602 87H786.186ZM800.404 87V73.3965H803.705C805.964 73.3965 807.755 74.015 809.076 75.252C810.404 76.4824 811.068 78.1328 811.068 80.2031C811.068 82.2734 810.408 83.9238 809.086 85.1543C807.764 86.3848 805.971 87 803.705 87H800.404ZM801.85 85.7012H803.607C804.59 85.7012 805.463 85.5677 806.225 85.3008C806.986 85.0339 807.608 84.6562 808.09 84.168C808.572 83.6797 808.933 83.1035 809.174 82.4395C809.421 81.7689 809.545 81.0234 809.545 80.2031C809.545 78.5234 809.04 77.1855 808.031 76.1895C807.029 75.1934 805.554 74.6953 803.607 74.6953H801.85V85.7012ZM820.199 87.1562C818.917 87.1562 817.745 86.8665 816.684 86.2871C815.629 85.7012 814.789 84.8743 814.164 83.8066C813.539 82.7389 813.227 81.5378 813.227 80.2031C813.227 78.8685 813.539 77.6673 814.164 76.5996C814.789 75.5254 815.632 74.6986 816.693 74.1191C817.755 73.5332 818.923 73.2402 820.199 73.2402C821.482 73.2402 822.654 73.5332 823.715 74.1191C824.783 74.6986 825.629 75.5254 826.254 76.5996C826.885 77.6673 827.201 78.8685 827.201 80.2031C827.201 81.5378 826.885 82.7389 826.254 83.8066C825.629 84.8743 824.786 85.7012 823.725 86.2871C822.663 86.8665 821.488 87.1562 820.199 87.1562ZM820.199 85.8574C821.788 85.8574 823.103 85.3203 824.145 84.2461C825.186 83.1719 825.707 81.8242 825.707 80.2031C825.707 79.1354 825.469 78.1719 824.994 77.3125C824.525 76.4466 823.871 75.7695 823.031 75.2812C822.191 74.7865 821.247 74.5391 820.199 74.5391C818.624 74.5391 817.315 75.0762 816.273 76.1504C815.238 77.2246 814.721 78.5755 814.721 80.2031C814.721 81.0039 814.857 81.7559 815.131 82.459C815.411 83.1556 815.792 83.7546 816.273 84.2559C816.755 84.7507 817.335 85.1413 818.012 85.4277C818.689 85.7142 819.418 85.8574 820.199 85.8574ZM834.877 87V73.3965H838.861C840.352 73.3965 841.531 73.7578 842.396 74.4805C843.269 75.1966 843.705 76.2415 843.705 77.6152C843.705 78.9694 843.269 80.0143 842.396 80.75C841.531 81.4792 840.352 81.8438 838.861 81.8438H836.322V87H834.877ZM836.322 80.5645H838.783C839.923 80.5645 840.779 80.3171 841.352 79.8223C841.931 79.321 842.221 78.5853 842.221 77.6152C842.221 75.6556 841.075 74.6758 838.783 74.6758H836.322V80.5645ZM852.719 87.1562C851.436 87.1562 850.264 86.8665 849.203 86.2871C848.148 85.7012 847.309 84.8743 846.684 83.8066C846.059 82.7389 845.746 81.5378 845.746 80.2031C845.746 78.8685 846.059 77.6673 846.684 76.5996C847.309 75.5254 848.152 74.6986 849.213 74.1191C850.274 73.5332 851.443 73.2402 852.719 73.2402C854.001 73.2402 855.173 73.5332 856.234 74.1191C857.302 74.6986 858.148 75.5254 858.773 76.5996C859.405 77.6673 859.721 78.8685 859.721 80.2031C859.721 81.5378 859.405 82.7389 858.773 83.8066C858.148 84.8743 857.305 85.7012 856.244 86.2871C855.183 86.8665 854.008 87.1562 852.719 87.1562ZM852.719 85.8574C854.307 85.8574 855.622 85.3203 856.664 84.2461C857.706 83.1719 858.227 81.8242 858.227 80.2031C858.227 79.1354 857.989 78.1719 857.514 77.3125C857.045 76.4466 856.391 75.7695 855.551 75.2812C854.711 74.7865 853.767 74.5391 852.719 74.5391C851.143 74.5391 849.835 75.0762 848.793 76.1504C847.758 77.2246 847.24 78.5755 847.24 80.2031C847.24 81.0039 847.377 81.7559 847.65 82.459C847.93 83.1556 848.311 83.7546 848.793 84.2559C849.275 84.7507 849.854 85.1413 850.531 85.4277C851.208 85.7142 851.938 85.8574 852.719 85.8574ZM862.65 87V73.3965H866.732C868.21 73.3965 869.385 73.748 870.258 74.4512C871.137 75.1543 871.576 76.1895 871.576 77.5566C871.576 78.5397 871.322 79.36 870.814 80.0176C870.313 80.6686 869.613 81.1309 868.715 81.4043L872.035 87H870.336L867.211 81.6387C867.081 81.6517 866.869 81.6582 866.576 81.6582H864.096V87H862.65ZM864.096 80.418H866.654C867.774 80.418 868.624 80.1803 869.203 79.7051C869.783 79.2233 870.072 78.5072 870.072 77.5566C870.072 75.6361 868.933 74.6758 866.654 74.6758H864.096V80.418Z" fill="white"/>
<g clip-path="url(#clip0_15_155)">
<mask id="mask0_15_155" style="mask-type:luminance" maskUnits="userSpaceOnUse" x="905" y="41" width="235" height="67">
<path d="M1139.83 41.9437H905.083V107.992H1139.83V41.9437Z" fill="white"/>
</mask>
<g mask="url(#mask0_15_155)">
<path d="M971.072 41.9437H905.083V107.992H971.072V41.9437Z" fill="white"/>
<path d="M968.676 44.3356H907.474V105.593H968.676V44.3356Z" fill="#014C94"/>
<path fill-rule="evenodd" clip-rule="evenodd" d="M968.676 105.593H907.474V86.8212L941.123 66.814L968.676 84.3347V105.593Z" fill="#3A8245"/>
<path d="M970.124 89.4381C957.604 84.7081 948.511 77.8958 941.793 68.3207C932.503 78.9395 919.904 86.11 906.034 88.6656C917.125 74.3988 925.029 67.1491 931.115 59.5693C932.756 57.5228 934.695 55.1744 935.978 53.1714C955.522 57.9193 967.047 75.3453 970.124 89.4381Z" fill="white"/>
<path d="M943.486 93.7435C940.627 90.5816 941.481 86.7598 943.501 84.9435C944.829 83.7514 950.516 84.0149 953.438 87.054C954.065 87.6577 954.541 88.397 954.832 89.2181C955.124 90.0367 955.221 90.9142 955.118 91.7763C955.014 92.6409 954.712 93.4672 954.236 94.1937C953.758 94.9202 953.121 95.5265 952.37 95.964C950.237 97.3402 947.186 97.8365 943.489 93.7486" fill="#F0A31F"/>
<path fill-rule="evenodd" clip-rule="evenodd" d="M1008.97 84.9921L996.068 54.4172H990.76L977.959 84.9921H982.85L985.763 77.837H1000.7L1003.61 84.9921H1008.97ZM999.4 74.5293H987.013L991.542 63.6598C992.187 62.1607 992.726 60.6156 993.153 59.0423H993.258C993.654 60.6054 994.179 62.1351 994.82 63.6137L999.4 74.5293Z" fill="white"/>
<path d="M1041.43 55.3202C1038.3 54.4504 1035.06 54.0104 1031.81 54.0104C1020 54.0104 1012.81 60.9379 1012.81 70.316C1012.81 79.7811 1019.63 85.3963 1030.25 85.3963C1034.18 85.3911 1038.09 84.7951 1041.85 83.6286V69.4104H1037.12V80.9604C1035.1 81.5028 1033.02 81.7765 1030.92 81.7714C1023.02 81.7714 1017.91 77.4251 1017.91 69.8146C1017.91 61.6644 1024.11 57.5867 1031.34 57.5867C1034.53 57.5944 1037.7 58.1444 1040.71 59.2163L1041.43 55.3202Z" fill="white"/>
<path d="M1079.29 73.309V54.4223H1074.61V73.6263C1074.61 79.7888 1071.75 82.0067 1065.6 82.0067C1058.53 82.0067 1056.91 78.6121 1056.91 74.3988V54.4223H1052.13V74.7135C1052.13 80.147 1054.31 85.4474 1065.29 85.4474C1074.45 85.4474 1079.29 81.3186 1079.29 73.309Z" fill="white"/>
<path fill-rule="evenodd" clip-rule="evenodd" d="M1114.75 84.9921L1101.85 54.4172H1096.55L1083.74 84.9921H1088.63L1091.54 77.837H1106.48L1109.4 84.9921H1114.75ZM1105.18 74.5293H1092.8L1097.33 63.6598C1097.97 62.1607 1098.51 60.6156 1098.94 59.0423H1099.04C1099.44 60.6054 1099.96 62.1351 1100.6 63.6137L1105.18 74.5293Z" fill="white"/>
<path d="M1139.83 75.9772C1139.83 66.42 1123.95 68.8221 1123.95 62.2093C1123.95 59.357 1126.45 57.4537 1131.24 57.4537C1133.38 57.4767 1135.51 57.7479 1137.58 58.2646L1137.85 54.5528C1135.75 54.1921 1133.63 54.0104 1131.5 54.0104C1123.59 54.0104 1119.01 57.6353 1119.01 62.6595C1119.01 72.3958 1134.83 69.679 1134.83 76.563C1134.83 80.3235 1131.35 81.8174 1127.13 81.8174C1124.68 81.7842 1122.24 81.403 1119.89 80.6842L1119.64 84.6749C1121.96 85.166 1124.34 85.4065 1126.71 85.3963C1134.88 85.3963 1139.83 81.4567 1139.83 75.9772Z" fill="white"/>
<path fill-rule="evenodd" clip-rule="evenodd" d="M1016.63 105.209C1016.61 104.291 1016.59 103.15 1016.59 102.142V97.8877C1016.59 95.7619 1015.71 94.3242 1012.65 94.3242C1011.37 94.3345 1010.09 94.5979 1008.91 95.0968L1009.11 96.7468C1010.09 96.1891 1011.2 95.8847 1012.33 95.8668C1014.09 95.8668 1014.67 96.6598 1014.67 98.141V98.934C1010.63 98.934 1008.25 100.415 1008.25 102.756C1008.25 104.449 1009.45 105.396 1011.21 105.396C1011.98 105.421 1012.74 105.212 1013.38 104.8C1014.03 104.385 1014.54 103.787 1014.84 103.078H1014.88C1014.79 103.782 1014.75 104.493 1014.77 105.201L1016.63 105.209ZM1014.66 100.487C1014.66 102.162 1013.5 103.881 1011.76 103.881C1011.55 103.904 1011.34 103.884 1011.15 103.82C1010.95 103.756 1010.76 103.651 1010.61 103.51C1010.46 103.37 1010.33 103.198 1010.25 103.007C1010.17 102.815 1010.12 102.607 1010.13 102.4C1010.13 101.438 1010.95 100.297 1014.66 100.297V100.487Z" fill="white"/>
<path d="M1033.38 105.212V97.7393C1033.38 95.8514 1032.61 94.3268 1030.16 94.3268C1029.36 94.2986 1028.56 94.5212 1027.89 94.9638C1027.22 95.4063 1026.7 96.0433 1026.4 96.7928L1026.36 96.7724C1026.48 96.0356 1026.54 95.2886 1026.53 94.5417H1024.66V105.214H1026.59V100.085C1026.59 97.724 1027.86 95.941 1029.62 95.941C1031.03 95.941 1031.44 96.821 1031.44 98.3251V105.214H1033.38V105.212Z" fill="white"/>
<path fill-rule="evenodd" clip-rule="evenodd" d="M1050.67 105.209V89.5328H1048.74V94.4956C1048.14 94.4265 1047.54 94.3881 1046.94 94.383C1043.57 94.383 1041.42 96.6367 1041.42 100.374C1041.42 103.493 1042.73 105.401 1045.35 105.401C1046.12 105.414 1046.87 105.194 1047.51 104.766C1048.15 104.339 1048.65 103.73 1048.93 103.014L1048.97 103.035C1048.86 103.751 1048.8 104.475 1048.8 105.201L1050.67 105.209ZM1048.74 99.6886C1048.74 101.559 1047.76 103.807 1045.82 103.807C1044.21 103.807 1043.46 102.5 1043.46 100.203C1043.46 97.1305 1044.81 95.9077 1046.85 95.9077C1047.49 95.9025 1048.13 95.9844 1048.74 96.1456L1048.74 99.6886Z" fill="white"/>
<path fill-rule="evenodd" clip-rule="evenodd" d="M1061.28 91.5128C1061.28 91.3465 1061.24 91.1828 1061.18 91.0293C1061.11 90.8758 1061.02 90.7377 1060.9 90.6226C1060.78 90.5075 1060.64 90.4154 1060.48 90.3565C1060.33 90.2951 1060.16 90.267 1060 90.2721C1059.83 90.2644 1059.66 90.2926 1059.5 90.354C1059.34 90.4154 1059.2 90.5049 1059.08 90.6226C1058.95 90.7403 1058.86 90.881 1058.79 91.037C1058.73 91.193 1058.69 91.3593 1058.69 91.5282C1058.69 91.697 1058.73 91.8658 1058.79 92.0193C1058.86 92.1754 1058.96 92.3161 1059.08 92.4337C1059.2 92.5514 1059.34 92.6435 1059.5 92.7023C1059.66 92.7637 1059.83 92.7893 1060 92.7842C1060.33 92.7842 1060.66 92.6512 1060.9 92.4133C1061.13 92.1728 1061.27 91.8505 1061.28 91.5128ZM1060.96 94.5391H1059.02V105.212H1060.96V94.5391Z" fill="white"/>
<path d="M1078.03 105.212V97.7393C1078.03 95.8514 1077.25 94.3268 1074.81 94.3268C1074.01 94.3012 1073.22 94.5237 1072.54 94.9637C1071.87 95.4037 1071.35 96.0433 1071.06 96.7928L1071.01 96.7723C1071.13 96.0356 1071.19 95.2886 1071.18 94.5416H1069.32V105.214H1071.25V100.085C1071.25 97.724 1072.51 95.9409 1074.27 95.9409C1075.69 95.9409 1076.09 96.8209 1076.09 98.3251V105.214H1078.03V105.212Z" fill="white"/>
<path fill-rule="evenodd" clip-rule="evenodd" d="M1094.45 105.209C1094.43 104.291 1094.41 103.15 1094.41 102.142V97.8877C1094.41 95.7619 1093.53 94.3242 1090.46 94.3242C1089.18 94.3345 1087.91 94.5979 1086.73 95.0968L1086.92 96.7468C1087.9 96.1891 1089.01 95.8872 1090.14 95.8668C1091.9 95.8668 1092.48 96.6598 1092.48 98.141V98.934C1088.44 98.934 1086.06 100.415 1086.06 102.756C1086.06 104.449 1087.26 105.396 1089.02 105.396C1089.79 105.421 1090.55 105.212 1091.19 104.8C1091.84 104.385 1092.35 103.787 1092.65 103.078H1092.69C1092.6 103.782 1092.56 104.493 1092.58 105.201L1094.45 105.209ZM1092.48 100.487C1092.48 102.162 1091.32 103.881 1089.58 103.881C1089.38 103.904 1089.17 103.884 1088.97 103.82C1088.77 103.756 1088.59 103.651 1088.43 103.51C1088.28 103.37 1088.16 103.198 1088.07 103.007C1087.99 102.815 1087.95 102.607 1087.96 102.4C1087.96 101.438 1088.77 100.297 1092.48 100.297V100.487Z" fill="white"/>
<path d="M1109.46 102.009C1109.46 98.4223 1104.49 99.6886 1104.49 97.3505C1104.49 96.4244 1105.19 95.8258 1106.61 95.8258C1107.34 95.8309 1108.06 95.9461 1108.76 96.1661L1108.8 94.557C1108.13 94.4214 1107.45 94.3498 1106.76 94.3421C1103.97 94.3421 1102.49 95.7388 1102.49 97.5423C1102.49 101.303 1107.45 99.8344 1107.45 102.221C1107.45 103.206 1106.48 103.853 1105.07 103.853C1104.27 103.848 1103.49 103.725 1102.73 103.487L1102.67 105.207C1103.41 105.34 1104.16 105.404 1104.92 105.396C1107.75 105.396 1109.47 103.935 1109.47 102.001" fill="white"/>
<path fill-rule="evenodd" clip-rule="evenodd" d="M1115.77 104.217L1115.04 103.193C1114.96 103.088 1114.88 102.976 1114.8 102.863C1115.01 102.845 1115.2 102.746 1115.35 102.59C1115.49 102.434 1115.57 102.229 1115.57 102.017C1115.57 101.397 1115.14 101.165 1114.47 101.165C1114.12 101.165 1113.83 101.165 1113.6 101.183V104.219H1114.18V102.963H1114.21L1115.05 104.219L1115.77 104.217ZM1114.96 102.073C1114.96 102.357 1114.74 102.531 1114.39 102.531C1114.3 102.531 1114.22 102.531 1114.18 102.523V101.648C1114.26 101.638 1114.33 101.633 1114.41 101.633C1114.78 101.633 1114.96 101.776 1114.96 102.068" fill="white"/>
<path d="M1114.6 100.113C1115.11 100.113 1115.61 100.264 1116.03 100.548C1116.45 100.832 1116.78 101.234 1116.98 101.707C1117.17 102.178 1117.22 102.697 1117.12 103.196C1117.02 103.697 1116.78 104.155 1116.42 104.516C1116.06 104.877 1115.6 105.122 1115.1 105.219C1114.6 105.319 1114.08 105.268 1113.61 105.071C1113.14 104.877 1112.74 104.544 1112.45 104.119C1112.17 103.695 1112.02 103.196 1112.02 102.687C1112.02 102.349 1112.09 102.014 1112.22 101.699C1112.35 101.387 1112.54 101.103 1112.78 100.863C1113.02 100.622 1113.3 100.433 1113.61 100.305C1113.92 100.18 1114.26 100.113 1114.6 100.113ZM1114.6 100.489C1114.16 100.489 1113.74 100.617 1113.38 100.86C1113.02 101.103 1112.73 101.446 1112.57 101.848C1112.4 102.249 1112.36 102.692 1112.44 103.119C1112.53 103.546 1112.74 103.938 1113.05 104.247C1113.35 104.554 1113.74 104.764 1114.17 104.851C1114.6 104.935 1115.04 104.892 1115.44 104.726C1115.84 104.559 1116.19 104.278 1116.43 103.915C1116.67 103.551 1116.8 103.127 1116.8 102.692C1116.8 102.109 1116.57 101.548 1116.16 101.134C1115.74 100.722 1115.18 100.489 1114.6 100.489Z" fill="white"/>
</g>
</g>
<defs>
<clipPath id="clip0_15_155">
<rect width="235" height="66" fill="white" transform="translate(905 42)"/>
</clipPath>
</defs>
</svg>
